<?xml version="1.0" standalone="no"?>
<!DOCTYPE svg PUBLIC "-//W3C//DTD SVG 1.1//EN" "http://www.w3.org/Graphics/SVG/1.1/DTD/svg11.dtd" >
<svg>
<metadata>
Created by FontForge 20120731 at Sun Jun 12 22:32:20 2016
 By www
Copyright \(c\) 1998 Elsner+Flake. All Rights Reserved.
</metadata>
<defs>
<font id="AvantGardEF-Book" horiz-adv-x="500" >
  <font-face 
    font-family="AvantGardEF"
    font-weight="500"
    font-stretch="normal"
    units-per-em="1000"
    panose-1="0 0 0 0 0 0 0 0 0 0"
    ascent="800"
    descent="-200"
    x-height="493"
    cap-height="667"
    bbox="-116 -250 1223 907"
    underline-thickness="20"
    underline-position="-156"
    stemh="58"
    stemv="65"
    unicode-range="U+0020-FB02"
  />
<missing-glyph horiz-adv-x="280" 
 />
    <glyph glyph-name=".notdef" horiz-adv-x="280" 
 />
    <glyph glyph-name="space" unicode=" " horiz-adv-x="250" 
 />
    <glyph glyph-name="exclam" unicode="!" horiz-adv-x="224" 
d="M145 174h-66v493h66v-493zM145 0h-66v113h66v-113z" />
    <glyph glyph-name="quotedbl" unicode="&#x22;" horiz-adv-x="320" 
d="M265 667l-12 -269h-49l-12 269h73zM128 667l-12 -269h-50l-12 269h74z" />
    <glyph glyph-name="numbersign" unicode="#" horiz-adv-x="600" 
d="M574 470l-9 -61h-110l-21 -138h110l-9 -61h-111l-32 -210h-68l32 210h-140l-32 -210h-68l32 210h-113l10 61h112l21 138h-112l9 61h113l30 197h68l-30 -197h140l30 197h68l-30 -197h110zM386 409h-140l-21 -138h141z" />
    <glyph glyph-name="dollar" unicode="$" 
d="M420 202c0 -89 -62 -167 -153 -175v-90h-66v89c-81 15 -154 80 -154 167v12h62c4 -73 49 -124 124 -124c67 0 120 53 120 120c0 149 -173 98 -249 191c-25 30 -35 68 -35 106c0 82 53 141 132 158v75h66v-73c87 -18 143 -77 147 -167h-63c-2 62 -45 108 -108 108
c-64 0 -108 -43 -108 -107c0 -76 52 -89 115 -107c42 -12 87 -26 119 -58c33 -33 51 -79 51 -125z" />
    <glyph glyph-name="percent" unicode="%" horiz-adv-x="861" 
d="M823 158c0 -92 -76 -170 -169 -170c-92 0 -169 77 -169 169c0 93 75 171 169 171c92 0 169 -78 169 -170zM606 667l-300 -667h-51l300 667h51zM377 509c0 -92 -78 -170 -170 -170c-93 0 -169 76 -169 169c0 92 76 171 169 171c92 0 170 -78 170 -170zM770 160
c0 64 -51 119 -116 119c-67 0 -117 -58 -117 -123c0 -64 52 -120 117 -120c69 0 116 57 116 124zM324 510c0 64 -51 120 -116 120c-67 0 -117 -58 -117 -123c0 -64 50 -120 116 -120c68 0 117 57 117 123z" />
    <glyph glyph-name="ampersand" unicode="&#x26;" horiz-adv-x="671" 
d="M651 34l-48 -46l-153 149c-43 -85 -101 -149 -202 -149c-114 0 -210 90 -210 205c0 99 70 159 154 197c-37 40 -74 83 -74 140c0 86 77 149 160 149c86 0 159 -70 159 -157c0 -78 -63 -128 -130 -152l127 -124l97 188h75l-124 -235zM371 529c0 49 -46 88 -94 88
c-49 0 -92 -37 -92 -87c0 -43 35 -73 63 -101c4 -3 7 -7 11 -10c48 17 112 51 112 110zM401 185l-161 158c-8 -9 -38 -21 -49 -26c-50 -24 -87 -72 -87 -129c0 -75 64 -138 139 -138c82 0 125 71 158 135z" />
    <glyph glyph-name="quoteright" unicode="&#x2019;" horiz-adv-x="226" 
d="M186 667l-79 -175h-67l79 175h67z" />
    <glyph glyph-name="parenleft" unicode="(" horiz-adv-x="346" 
d="M316 -185c-65 20 -87 38 -134 87c-91 93 -144 216 -144 346c0 133 53 252 145 346c43 44 74 67 133 85v-64c-71 -41 -118 -91 -157 -163c-35 -64 -54 -131 -54 -204c0 -111 49 -229 127 -307c26 -26 53 -45 84 -63v-63z" />
    <glyph glyph-name="parenright" unicode=")" horiz-adv-x="346" 
d="M308 245c0 -133 -53 -252 -146 -346c-43 -44 -73 -66 -132 -84v63c72 41 117 91 156 163c35 64 55 131 55 204c0 111 -48 229 -127 307c-26 26 -53 45 -84 63v64c64 -22 85 -40 133 -88c93 -94 145 -213 145 -346z" />
    <glyph glyph-name="asterisk" unicode="*" 
d="M389 546l-99 -31l61 -82l-42 -31l-60 85l-59 -85l-43 31l62 84l-98 30l16 50l98 -33l-1 103h53l-2 -104l98 33z" />
    <glyph glyph-name="plus" unicode="+" 
d="M467 301h-184v-172h-66v172h-184v62h184v173h66v-173h184v-62z" />
    <glyph glyph-name="comma" unicode="," horiz-adv-x="197" 
d="M160 113l-79 -174h-67l79 174h67z" />
    <glyph glyph-name="hyphen" unicode="-" horiz-adv-x="233" 
d="M233 223h-233v60h233v-60z" />
    <glyph glyph-name="period" unicode="." horiz-adv-x="197" 
d="M132 0h-67v113h67v-113z" />
    <glyph glyph-name="slash" unicode="/" horiz-adv-x="384" 
d="M334 667l-282 -840h-60l280 840h62z" />
    <glyph glyph-name="zero" unicode="0" 
d="M465 241c0 -75 -12 -139 -67 -193c-41 -40 -90 -60 -148 -60c-86 0 -161 51 -195 130c-16 38 -20 82 -20 123v198c0 128 79 240 215 240c135 0 215 -113 215 -240v-198zM398 252v172c0 53 -8 115 -49 153c-26 24 -64 42 -99 42c-56 0 -114 -41 -133 -94
c-10 -28 -15 -71 -15 -101v-172c0 -58 4 -117 46 -161c29 -30 60 -43 102 -43c61 0 115 37 135 95c10 31 13 77 13 109z" />
    <glyph glyph-name="one" unicode="1" 
d="M311 0h-66v607h-115v60h181v-667z" />
    <glyph glyph-name="two" unicode="2" 
d="M457 475c0 -90 -61 -152 -122 -210l-215 -205h333v-60h-423v60l234 226c52 50 126 113 126 191s-67 142 -144 142c-60 0 -117 -39 -136 -97c-8 -25 -9 -45 -9 -71h-66v5c0 129 83 223 215 223c113 0 207 -90 207 -204z" />
    <glyph glyph-name="three" unicode="3" 
d="M456 201c0 -117 -98 -213 -214 -213c-87 0 -166 53 -197 135c-11 30 -14 54 -15 86h66c4 -46 9 -78 41 -113c28 -30 63 -48 104 -48c81 0 148 70 148 150c0 68 -47 129 -113 146c-25 6 -51 6 -77 6v59c7 0 15 -1 22 -1c65 0 124 34 124 105c0 60 -43 106 -104 106
c-66 0 -100 -57 -100 -118h-66c3 99 66 178 169 178c97 0 168 -77 168 -172c0 -57 -25 -91 -69 -125c70 -37 113 -101 113 -181z" />
    <glyph glyph-name="four" unicode="4" 
d="M476 122h-61v-122h-66v122h-337v60l324 485h79v-485h61v-60zM349 182v393l-260 -393h260z" />
    <glyph glyph-name="five" unicode="5" 
d="M474 220c0 -126 -97 -232 -225 -232c-91 0 -168 51 -207 133c-14 29 -19 57 -23 88h65c11 -88 71 -161 164 -161s159 83 159 172c0 90 -67 174 -161 174c-56 0 -103 -33 -137 -75l-51 19l60 329h300v-60h-247l-34 -185c38 20 72 32 115 32c127 0 222 -110 222 -234z" />
    <glyph glyph-name="six" unicode="6" 
d="M478 222c0 -127 -100 -234 -228 -234c-129 0 -228 108 -228 235c0 78 38 136 80 198l166 246h76l-155 -229c25 11 46 16 74 16c123 0 215 -114 215 -232zM411 221c0 89 -69 172 -161 172c-94 0 -161 -80 -161 -171c0 -89 68 -174 161 -174c94 0 161 83 161 173z" />
    <glyph glyph-name="seven" unicode="7" 
d="M451 607l-273 -607h-70l275 607h-317v60h385v-60z" />
    <glyph glyph-name="eight" unicode="8" 
d="M463 196c0 -117 -100 -208 -215 -208c-114 0 -211 91 -211 206c0 75 44 150 114 179c-53 30 -78 72 -78 133c0 99 79 173 177 173c99 0 177 -77 177 -176c0 -58 -27 -105 -80 -130c70 -33 116 -99 116 -177zM360 510c0 60 -49 109 -109 109s-112 -48 -112 -109
c0 -60 51 -109 111 -109c59 0 110 49 110 109zM396 194c0 81 -67 144 -147 144c-78 0 -145 -66 -145 -144c0 -81 62 -146 144 -146c81 0 148 64 148 146z" />
    <glyph glyph-name="nine" unicode="9" 
d="M478 444c0 -79 -37 -136 -80 -199l-166 -245h-76l155 229c-26 -10 -47 -16 -75 -16c-122 0 -214 115 -214 232c0 127 100 234 228 234c129 0 228 -108 228 -235zM411 445c0 89 -68 174 -161 174c-94 0 -161 -83 -161 -173c0 -89 68 -173 161 -173c94 0 161 81 161 172z
" />
    <glyph glyph-name="colon" unicode=":" horiz-adv-x="197" 
d="M132 380h-67v113h67v-113zM132 0h-67v113h67v-113z" />
    <glyph glyph-name="semicolon" unicode=";" horiz-adv-x="197" 
d="M160 380h-67v113h67v-113zM160 113l-79 -174h-67l79 174h67z" />
    <glyph glyph-name="less" unicode="&#x3c;" 
d="M467 100l-434 201v58l434 201v-67l-362 -163l361 -164z" />
    <glyph glyph-name="equal" unicode="=" 
d="M467 388h-434v59h434v-59zM467 237h-434v59h434v-59z" />
    <glyph glyph-name="greater" unicode="&#x3e;" 
d="M467 300l-434 -200v66l362 164l-361 164l-1 66l434 -201v-59z" />
    <glyph glyph-name="question" unicode="?" horiz-adv-x="466" 
d="M430 478c0 -142 -163 -163 -170 -304h-67v9c0 33 14 71 31 99c17 29 40 52 64 75c40 37 75 65 75 123c0 76 -65 135 -139 135c-58 0 -113 -37 -135 -90c-9 -22 -10 -43 -11 -67h-63v18c0 114 100 203 211 203c114 0 204 -86 204 -201zM260 0h-67v113h67v-113z" />
    <glyph glyph-name="at" unicode="@" horiz-adv-x="733" 
d="M695 380c0 -34 -5 -67 -16 -99c-21 -63 -73 -138 -147 -138c-41 0 -69 27 -72 68c-28 -44 -72 -72 -125 -72c-90 0 -140 79 -140 162c0 99 68 203 175 203c56 0 93 -27 112 -79l12 66h49l-41 -212c-3 -15 -6 -32 -6 -47c0 -24 12 -47 39 -47c53 0 90 68 104 111
c8 27 12 55 12 83c0 155 -123 251 -271 251c-169 0 -299 -132 -299 -300c0 -118 67 -235 180 -277c41 -15 85 -21 129 -21c77 0 142 15 212 48l14 -44c-71 -34 -147 -49 -226 -49c-203 0 -357 137 -357 344c0 195 153 345 347 345c172 0 315 -118 315 -296zM463 354
c0 54 -30 100 -88 100c-78 0 -125 -81 -125 -152c0 -58 32 -113 95 -113c83 0 118 95 118 165z" />
    <glyph glyph-name="A" unicode="A" horiz-adv-x="656" 
d="M651 0h-73l-96 225h-311l-97 -225h-69l285 667h74zM456 285l-128 306l-131 -306h259z" />
    <glyph glyph-name="B" unicode="B" horiz-adv-x="532" 
d="M495 191c0 -61 -28 -118 -78 -152c-56 -38 -112 -39 -177 -39h-168v667h167c112 0 219 -52 219 -178c0 -60 -28 -98 -74 -134c70 -28 111 -89 111 -164zM391 491c0 32 -17 68 -43 87c-34 25 -79 29 -120 29h-89v-228h83c38 0 82 0 115 20c32 19 54 55 54 92zM429 190
c0 51 -32 96 -79 114c-41 16 -86 15 -129 15h-82v-259h93c39 0 89 1 125 18c42 20 72 65 72 112z" />
    <glyph glyph-name="C" unicode="C" horiz-adv-x="718" 
d="M691 175c-61 -114 -177 -187 -307 -187c-192 0 -349 151 -349 344c0 194 154 347 348 347c93 0 176 -35 244 -99c30 -29 46 -45 62 -84h-75c-50 76 -140 123 -231 123c-153 0 -281 -135 -281 -287c0 -150 130 -284 281 -284c94 0 180 52 234 127h74z" />
    <glyph glyph-name="D" unicode="D" horiz-adv-x="671" 
d="M635 332c0 -127 -78 -251 -195 -302c-53 -23 -116 -30 -173 -30h-195v667h191c46 0 111 -9 155 -24c130 -46 217 -174 217 -311zM569 334c0 108 -61 200 -159 244c-55 24 -116 29 -175 29h-96v-547h96c63 0 125 2 183 30c95 46 151 140 151 244z" />
    <glyph glyph-name="E" unicode="E" horiz-adv-x="484" 
d="M437 0h-365v667h365v-60h-298v-240h288v-60h-288v-247h298v-60z" />
    <glyph glyph-name="F" unicode="F" horiz-adv-x="437" 
d="M409 607h-270v-242h260v-60h-260v-305h-67v667h337v-60z" />
    <glyph glyph-name="G" unicode="G" horiz-adv-x="779" 
d="M746 307c-15 -183 -170 -319 -352 -319c-190 0 -359 152 -359 346c0 195 165 345 357 345c94 0 177 -34 246 -97c33 -31 53 -49 67 -93h-75c-47 82 -144 130 -237 130c-158 0 -291 -127 -291 -286c0 -161 135 -285 294 -285c119 0 240 81 270 199h-373v60h453z" />
    <glyph glyph-name="H" unicode="H" horiz-adv-x="623" 
d="M551 0h-66v313h-346v-313h-67v667h67v-294h346v294h66v-667z" />
    <glyph glyph-name="I" unicode="I" horiz-adv-x="211" 
d="M139 0h-67v667h67v-667z" />
    <glyph glyph-name="J" unicode="J" horiz-adv-x="422" 
d="M357 196c0 -56 -2 -103 -40 -147c-35 -40 -85 -61 -137 -61c-101 0 -175 69 -180 170h66c4 -63 52 -110 115 -110c92 0 109 70 109 148v471h67v-471z" />
    <glyph glyph-name="K" unicode="K" horiz-adv-x="541" 
d="M531 0h-83l-223 289l-86 -106v-183h-67v667h67v-384l307 384h85l-263 -325z" />
    <glyph glyph-name="L" unicode="L" horiz-adv-x="433" 
d="M415 0h-343v667h67v-607h276v-60z" />
    <glyph glyph-name="M" unicode="M" horiz-adv-x="835" 
d="M763 0h-66v593l-252 -593h-56l-250 593v-593h-67v667h103l243 -568l242 568h103v-667z" />
    <glyph glyph-name="N" unicode="N" horiz-adv-x="675" 
d="M603 0h-67l-397 587v-587h-67v667h90l374 -554v554h67v-667z" />
    <glyph glyph-name="O" unicode="O" horiz-adv-x="777" 
d="M741 333c0 -193 -162 -345 -353 -345c-189 0 -353 152 -353 344c0 193 161 347 353 347c191 0 353 -153 353 -346zM675 332c0 157 -130 287 -287 287c-159 0 -286 -131 -286 -289c0 -155 133 -282 286 -282c155 0 287 128 287 284z" />
    <glyph glyph-name="P" unicode="P" horiz-adv-x="538" 
d="M513 467c0 -141 -112 -198 -239 -198h-135v-269h-67v667h186c59 0 123 -4 173 -39c54 -37 82 -96 82 -161zM447 467c0 54 -28 100 -78 122c-45 20 -85 18 -134 18h-96v-278h125c42 0 88 3 124 27c38 25 59 66 59 111z" />
    <glyph glyph-name="Q" unicode="Q" horiz-adv-x="789" 
d="M753 328c0 -97 -42 -180 -112 -246c36 -26 59 -32 102 -32v-62h-6c-62 0 -98 17 -143 58c-59 -40 -130 -58 -200 -58c-192 0 -359 146 -359 343c0 202 162 348 360 348c201 0 358 -147 358 -351zM687 330c0 161 -131 289 -291 289c-163 0 -294 -128 -294 -291
c0 -26 4 -51 11 -76c54 16 85 21 141 21c143 0 236 -54 341 -145c55 54 92 124 92 202zM543 92c-18 12 -35 27 -53 40c-72 55 -155 81 -246 81c-43 0 -63 -3 -104 -18c50 -92 153 -147 256 -147c53 0 103 13 147 44z" />
    <glyph glyph-name="R" unicode="R" horiz-adv-x="565" 
d="M525 451c0 -114 -86 -195 -198 -202l188 -249h-84l-226 302c58 0 125 -5 177 24c47 27 76 74 76 128c0 52 -28 101 -73 127c-40 23 -85 26 -130 26h-116v-607h-67v667h169c51 0 118 -2 165 -25c75 -36 119 -108 119 -191z" />
    <glyph glyph-name="S" unicode="S" horiz-adv-x="462" 
d="M425 184c0 -111 -94 -196 -203 -196c-119 0 -202 81 -207 199h71c4 -41 15 -76 46 -104c24 -22 58 -35 91 -35c73 0 135 60 135 133c0 37 -17 72 -45 96c-67 56 -168 39 -230 103c-32 32 -47 74 -47 119c0 106 84 180 188 180c103 0 185 -77 185 -181h-69
c-6 68 -51 121 -122 121c-65 0 -115 -54 -115 -118c0 -81 64 -100 131 -119c47 -13 86 -20 124 -53c43 -37 67 -89 67 -145z" />
    <glyph glyph-name="T" unicode="T" horiz-adv-x="397" 
d="M385 607h-153v-607h-67v607h-153v60h373v-60z" />
    <glyph glyph-name="U" unicode="U" horiz-adv-x="585" 
d="M519 251c0 -63 -10 -128 -49 -179c-42 -55 -109 -84 -178 -84c-68 0 -135 29 -177 84c-39 52 -50 116 -50 179v416h67v-416c0 -103 44 -197 160 -197s161 93 161 197v416h66v-416z" />
    <glyph glyph-name="V" unicode="V" horiz-adv-x="613" 
d="M615 667l-277 -667h-65l-275 667h73l235 -584l236 584h73z" />
    <glyph glyph-name="W" unicode="W" horiz-adv-x="875" 
d="M861 667l-191 -667h-85l-148 547l-146 -547h-87l-189 667h68l164 -581l159 581h63l160 -581l164 581h68z" />
    <glyph glyph-name="X" unicode="X" horiz-adv-x="544" 
d="M540 0h-79l-188 285l-190 -285h-78l226 341l-213 326h78l177 -267l176 267h77l-214 -326z" />
    <glyph glyph-name="Y" unicode="Y" horiz-adv-x="535" 
d="M534 667l-234 -444v-223h-67v223l-232 444h74l191 -374l195 374h73z" />
    <glyph glyph-name="Z" unicode="Z" horiz-adv-x="463" 
d="M438 0h-413v60l328 547h-318v60h393v-60l-327 -547h337v-60z" />
    <glyph glyph-name="bracketleft" unicode="[" horiz-adv-x="346" 
d="M250 -185c-58 17 -105 48 -139 98c-34 49 -42 92 -42 151v364c0 88 24 147 92 204c32 27 48 37 89 47v-65c-81 -33 -117 -100 -117 -185v-353c0 -101 26 -151 117 -196v-65z" />
    <glyph glyph-name="backslash" unicode="\" 
d="M453 -83h-65l-363 833h66z" />
    <glyph glyph-name="bracketright" unicode="]" horiz-adv-x="346" 
d="M277 65c0 -87 -24 -148 -92 -204c-33 -27 -49 -37 -90 -46v65c82 33 117 99 117 185v353c0 100 -27 151 -117 196v65c58 -17 105 -49 140 -99c34 -48 42 -93 42 -151v-364z" />
    <glyph glyph-name="asciicircum" unicode="^" 
d="M473 368h-74l-150 247l-149 -247h-73l179 300h88z" />
    <glyph glyph-name="underscore" unicode="_" 
d="M500 -129h-500v60h500v-60z" />
    <glyph glyph-name="quoteleft" unicode="&#x2018;" horiz-adv-x="226" 
d="M186 667l-79 -175h-67l79 175h67z" />
    <glyph glyph-name="a" unicode="a" horiz-adv-x="622" 
d="M557 0h-64v86c-48 -65 -113 -98 -194 -98c-145 0 -265 113 -265 259c0 147 120 258 265 258c79 0 149 -33 194 -99v87h64v-493zM493 246c0 108 -83 203 -194 203c-110 0 -202 -92 -202 -202c0 -109 91 -202 201 -202c109 0 195 93 195 201z" />
    <glyph glyph-name="b" unicode="b" horiz-adv-x="621" 
d="M587 248c0 -144 -118 -260 -261 -260c-77 0 -153 32 -197 97v-85h-64v667h67v-259c44 65 112 97 190 97c144 0 265 -111 265 -257zM524 249c0 110 -87 200 -198 200c-116 0 -198 -90 -198 -204c0 -110 86 -200 197 -200c113 0 199 92 199 204z" />
    <glyph glyph-name="c" unicode="c" horiz-adv-x="570" 
d="M544 145c-27 -52 -50 -85 -101 -117c-44 -28 -87 -40 -139 -40c-147 0 -270 108 -270 258c0 145 121 259 265 259c108 0 205 -59 245 -161h-74c-36 63 -99 105 -172 105c-112 0 -201 -90 -201 -202s87 -202 200 -202c80 0 128 38 173 100h74z" />
    <glyph glyph-name="d" unicode="d" horiz-adv-x="620" 
d="M555 0h-60v89c-52 -67 -112 -101 -198 -101c-143 0 -263 114 -263 258c0 147 119 259 265 259c76 0 143 -31 192 -90v252h64v-667zM494 248c0 110 -88 201 -199 201c-109 0 -198 -92 -198 -200c0 -110 88 -204 199 -204s198 94 198 203z" />
    <glyph glyph-name="e" unicode="e" horiz-adv-x="582" 
d="M548 223h-448c5 -97 93 -178 190 -178c73 0 147 48 174 116h69c-35 -102 -135 -173 -242 -173c-142 0 -257 116 -257 258s113 259 256 259c107 0 203 -68 240 -167c15 -39 17 -74 18 -115zM481 280c-22 93 -90 169 -190 169c-98 0 -173 -75 -189 -169h379z" />
    <glyph glyph-name="f" unicode="f" horiz-adv-x="280" 
d="M275 437h-126v-437h-64v437h-76v56h76l1 10c6 56 16 103 67 134c36 22 81 26 122 26v-60c-81 0 -126 -23 -126 -110h126v-56z" />
    <glyph glyph-name="g" unicode="g" horiz-adv-x="612" 
d="M547 59c0 -66 -4 -107 -46 -159c-49 -61 -129 -93 -206 -93c-81 0 -162 41 -209 107c-17 25 -25 44 -34 73h65c17 -30 38 -65 66 -86c32 -25 77 -38 117 -38c105 0 183 74 183 180v54c-32 -73 -115 -109 -192 -109c-141 0 -257 115 -257 256c0 139 110 261 252 261
c81 0 151 -34 197 -101v89h64v-434zM483 249c0 108 -86 200 -196 200s-190 -93 -190 -200c0 -110 81 -204 194 -204c111 0 192 97 192 204z" />
    <glyph glyph-name="h" unicode="h" horiz-adv-x="561" 
d="M499 0h-64v271c0 96 -53 178 -156 178c-55 0 -111 -33 -135 -83c-13 -28 -15 -65 -15 -95v-271h-64v667h64v-238c32 49 92 76 150 76c140 0 220 -99 220 -234v-271z" />
    <glyph glyph-name="i" unicode="i" horiz-adv-x="194" 
d="M129 553h-64v114h64v-114zM129 0h-64v493h64v-493z" />
    <glyph glyph-name="j" unicode="j" horiz-adv-x="194" 
d="M129 553h-64v114h64v-114zM129 34c0 -52 0 -95 -30 -139c-15 -21 -34 -38 -57 -50c-28 -15 -45 -17 -77 -18v64c88 5 100 67 100 143v459h64v-459z" />
    <glyph glyph-name="k" unicode="k" horiz-adv-x="460" 
d="M451 0h-81l-163 195l-78 -101v-94h-64v667h64v-475l231 301h81l-194 -248z" />
    <glyph glyph-name="l" unicode="l" horiz-adv-x="194" 
d="M129 0h-64v667h64v-667z" />
    <glyph glyph-name="m" unicode="m" horiz-adv-x="857" 
d="M795 0h-63v286c0 83 -44 163 -136 163c-50 0 -102 -31 -122 -78c-10 -24 -12 -59 -12 -85v-286h-63v293c0 80 -50 156 -136 156c-92 0 -132 -72 -132 -156v-293h-66v493h64v-57c30 49 77 69 133 69c76 0 127 -33 169 -94c30 62 99 94 166 94c119 0 198 -97 198 -212v-293
z" />
    <glyph glyph-name="n" unicode="n" horiz-adv-x="561" 
d="M499 0h-64v271c0 94 -51 178 -153 178c-56 0 -111 -32 -135 -83c-13 -28 -14 -65 -14 -95v-271h-68v493h64v-64c43 47 86 76 152 76c139 0 218 -100 218 -234v-271z" />
    <glyph glyph-name="o" unicode="o" horiz-adv-x="583" 
d="M549 247c0 -141 -117 -259 -258 -259s-257 117 -257 258s116 259 258 259c140 0 257 -118 257 -258zM486 249c0 107 -85 200 -194 200c-112 0 -195 -96 -195 -205c0 -108 86 -199 195 -199c113 0 194 94 194 204z" />
    <glyph glyph-name="p" unicode="p" horiz-adv-x="621" 
d="M587 245c0 -146 -122 -257 -265 -257c-77 0 -146 32 -190 97v-258h-67v666h64v-84c43 65 121 96 197 96c143 0 261 -116 261 -260zM524 244c0 113 -85 205 -199 205c-112 0 -197 -90 -197 -201c0 -115 82 -203 198 -203c111 0 198 89 198 199z" />
    <glyph glyph-name="q" unicode="q" horiz-adv-x="617" 
d="M552 -173h-63v258c-43 -65 -113 -97 -190 -97c-143 0 -265 111 -265 257c0 143 118 260 261 260c74 0 156 -31 196 -96v84h61v-666zM492 249c0 111 -83 200 -196 200c-114 0 -199 -93 -199 -205c0 -110 87 -199 198 -199c118 0 197 89 197 204z" />
    <glyph glyph-name="r" unicode="r" horiz-adv-x="285" 
d="M273 439c-37 -4 -61 -10 -90 -34c-40 -34 -51 -66 -51 -118v-287h-67v493h64v-71c31 63 77 79 144 83v-66z" />
    <glyph glyph-name="s" unicode="s" horiz-adv-x="375" 
d="M334 147c0 -92 -62 -159 -155 -159c-91 0 -154 67 -155 157h67c3 -54 34 -100 92 -100c48 0 88 40 88 88c0 94 -135 89 -191 142c-25 24 -38 54 -38 89c0 79 62 141 141 141c77 0 135 -58 139 -134h-68c-3 42 -29 78 -74 78c-38 0 -74 -36 -74 -74
c0 -113 228 -57 228 -228z" />
    <glyph glyph-name="t" unicode="t" horiz-adv-x="263" 
d="M267 437h-118v-437h-64v437h-103v56h103v174h64v-174h118v-56z" />
    <glyph glyph-name="u" unicode="u" horiz-adv-x="559" 
d="M494 0h-60v76c-36 -64 -95 -88 -166 -88c-76 0 -147 36 -182 106c-19 38 -24 85 -24 127v272h63v-272c0 -98 47 -176 153 -176c102 0 153 82 153 176v272h63v-493z" />
    <glyph glyph-name="v" unicode="v" horiz-adv-x="485" 
d="M485 493l-208 -493h-69l-208 493h68l173 -415l177 415h67z" />
    <glyph glyph-name="w" unicode="w" horiz-adv-x="747" 
d="M737 493l-188 -493h-71l-105 328l-104 -328h-72l-187 493h66l156 -413l114 353h55l114 -353l158 413h64z" />
    <glyph glyph-name="x" unicode="x" horiz-adv-x="431" 
d="M421 0h-75l-131 197l-130 -197h-75l168 251l-168 242h76l129 -190l129 190h77l-169 -242z" />
    <glyph glyph-name="y" unicode="y" horiz-adv-x="468" 
d="M468 493l-286 -666h-70l80 189l-192 477h73l156 -393l168 393h71z" />
    <glyph glyph-name="z" unicode="z" horiz-adv-x="401" 
d="M386 0h-365v57l273 380h-264v56h339v-58l-271 -378h288v-57z" />
    <glyph glyph-name="braceleft" unicode="{" 
d="M367 -187c-8 -1 -15 -1 -23 -1c-105 0 -139 46 -139 148v166c0 47 -8 81 -57 95v53c47 12 57 45 57 90v178c0 98 42 137 139 137h23v-57c-71 -1 -95 -16 -95 -89v-173c0 -56 -10 -89 -62 -115c51 -27 62 -62 62 -117v-166c0 -76 20 -92 95 -93v-56z" />
    <glyph glyph-name="bar" unicode="|" 
d="M283 -250h-66v1000h66v-1000z" />
    <glyph glyph-name="braceright" unicode="}" 
d="M362 218c-46 -13 -57 -45 -57 -90v-179c0 -97 -43 -137 -139 -137c-8 0 -15 0 -23 1v56c71 2 95 16 95 89v173c0 57 9 88 62 115c-51 27 -62 62 -62 117v167c0 75 -21 91 -95 92v57h23c105 0 139 -46 139 -148v-166c0 -46 8 -81 57 -94v-53z" />
    <glyph glyph-name="asciitilde" unicode="~" horiz-adv-x="667" 
d="M573 701c-29 -59 -70 -110 -141 -110c-69 0 -146 67 -208 67c-45 0 -71 -37 -91 -73l-40 26c30 59 63 112 136 112c75 0 144 -67 210 -67c48 0 70 31 93 69z" />
    <glyph glyph-name="exclamdown" unicode="&#xa1;" horiz-adv-x="224" 
d="M145 380h-66v113h66v-113zM145 -173h-66v494h66v-494z" />
    <glyph glyph-name="cent" unicode="&#xa2;" 
d="M463 417h-71c-28 52 -81 75 -138 75c-83 0 -154 -62 -154 -147s74 -148 156 -148c56 0 97 23 133 65h69c-25 -69 -89 -114 -160 -125v-81h-67v81c-108 8 -194 99 -194 208c0 111 85 198 194 208v84h67v-83c78 -12 140 -62 165 -137z" />
    <glyph glyph-name="sterling" unicode="&#xa3;" 
d="M487 191c0 -67 -36 -130 -94 -164c-39 -23 -86 -27 -131 -27h-235v60h125c28 28 39 65 39 104c0 68 -30 98 -79 141c-3 3 -6 6 -9 8h-99v60h55c-16 25 -22 56 -22 85c0 113 91 221 208 221c105 0 195 -86 207 -189h-63c-14 67 -74 129 -145 129c-85 0 -140 -80 -140 -159
c0 -35 6 -57 25 -87h222v-60h-159c39 -41 66 -92 66 -149c0 -37 -11 -70 -27 -104h29c90 0 160 40 160 138c0 15 -2 29 -6 44h65c5 -17 8 -33 8 -51z" />
    <glyph glyph-name="fraction" unicode="&#x2044;" horiz-adv-x="119" 
d="M235 667l-300 -667h-51l300 667h51z" />
    <glyph glyph-name="yen" unicode="&#xa5;" 
d="M487 667l-117 -235h93v-57h-121l-52 -103h153v-57h-161v-215h-66v215h-159v57h151l-51 103h-120v57h92l-116 235h74l161 -341l166 341h73z" />
    <glyph glyph-name="florin" unicode="&#x192;" 
d="M457 731l-9 -60c-5 1 -9 1 -14 1c-84 0 -100 -82 -113 -149h101l-10 -60h-101l-65 -376c-9 -50 -14 -98 -43 -141c-37 -54 -95 -75 -159 -75c-18 0 -34 2 -51 7l10 58c15 -4 30 -6 46 -6c104 0 119 79 134 163l66 370h-103l11 60h101c9 61 21 121 69 165
c30 27 70 45 111 45c6 0 13 -1 19 -2z" />
    <glyph glyph-name="section" unicode="&#xa7;" 
d="M450 261c0 -50 -32 -102 -73 -129c30 -25 47 -61 47 -100c0 -95 -78 -159 -170 -159c-108 0 -183 78 -187 185h63c5 -71 50 -125 124 -125c57 0 106 39 106 98c0 49 -46 72 -84 92l-166 86c-36 19 -60 56 -60 97c0 61 33 102 80 137c-24 24 -36 58 -36 91
c0 85 72 145 154 145c75 0 156 -51 160 -132h-63c-5 47 -53 72 -96 72c-52 0 -92 -34 -92 -88c0 -36 25 -60 55 -75c44 -22 89 -44 133 -66c55 -27 105 -62 105 -129zM387 252c0 40 -27 61 -60 78l-158 79c-31 -19 -56 -55 -56 -92c0 -33 23 -55 51 -69l169 -84
c30 18 54 53 54 88z" />
    <glyph glyph-name="currency" unicode="&#xa4;" horiz-adv-x="667" 
d="M610 122l-37 -38l-95 94c-43 -33 -89 -52 -144 -52c-56 0 -99 19 -144 51l-93 -94l-38 38l93 94c-33 42 -52 89 -52 143c0 56 18 98 51 142l-94 94l38 38l94 -94c45 34 88 52 145 52c56 0 99 -18 143 -51l94 92l38 -37l-93 -94c32 -44 51 -87 51 -142
c0 -56 -18 -98 -51 -142zM505 358c0 95 -77 172 -172 172s-171 -78 -171 -172s76 -172 171 -172s172 77 172 172z" />
    <glyph glyph-name="quotesingle" unicode="'" horiz-adv-x="182" 
d="M128 667l-12 -269h-50l-12 269h74z" />
    <glyph glyph-name="quotedblleft" unicode="&#x201c;" horiz-adv-x="359" 
d="M319 667l-79 -175h-67l80 175h66zM186 667l-79 -175h-67l79 175h67z" />
    <glyph glyph-name="guillemotleft" unicode="&#xab;" horiz-adv-x="405" 
d="M355 102l-53 -30l-102 181l102 180l53 -28l-85 -152zM198 102l-52 -30l-103 181l103 180l52 -28l-84 -152z" />
    <glyph glyph-name="guilsinglleft" unicode="&#x2039;" horiz-adv-x="248" 
d="M198 102l-52 -30l-103 181l103 180l52 -28l-84 -152z" />
    <glyph glyph-name="guilsinglright" unicode="&#x203a;" horiz-adv-x="248" 
d="M205 253l-102 -181l-53 30l85 151l-85 152l53 28z" />
    <glyph glyph-name="fi" unicode="&#xfb01;" horiz-adv-x="474" 
d="M409 553h-64v114h64v-114zM409 0h-64v493h64v-493zM275 437h-126v-437h-64v437h-76v56h76l1 10c6 56 16 103 67 134c36 22 81 26 122 26v-60c-81 0 -126 -23 -126 -110h126v-56z" />
    <glyph glyph-name="fl" unicode="&#xfb02;" horiz-adv-x="474" 
d="M409 0h-64v667h64v-667zM275 437h-126v-437h-64v437h-76v56h76l1 10c6 56 16 103 67 134c36 22 81 26 122 26v-60c-81 0 -126 -23 -126 -110h126v-56z" />
    <glyph glyph-name="endash" unicode="&#x2013;" 
d="M467 301h-434v62h434v-62z" />
    <glyph glyph-name="dagger" unicode="&#x2020;" 
d="M460 400h-177v-573h-66v573h-177v60h177v207h66v-207h177v-60z" />
    <glyph glyph-name="daggerdbl" unicode="&#x2021;" 
d="M460 33h-177v-206h-66v206h-177v60h177v307h-177v60h177v207h66v-207h177v-60h-177v-307h177v-60z" />
    <glyph glyph-name="periodcentered" unicode="&#xb7;" horiz-adv-x="80" 
d="M80 272h-80v136h80v-136z" />
    <glyph glyph-name="paragraph" unicode="&#xb6;" horiz-adv-x="571" 
d="M501 614h-58v-713h-58v713h-107v-713h-59v413h-15c-104 0 -184 67 -184 174c0 72 39 138 108 162c34 12 76 17 112 17h261v-53z" />
    <glyph glyph-name="bullet" unicode="&#x2022;" horiz-adv-x="667" 
d="M471 340c0 -75 -61 -140 -137 -140c-77 0 -138 64 -138 140s61 140 138 140c76 0 137 -65 137 -140z" />
    <glyph glyph-name="quotesinglbase" unicode="&#x201a;" horiz-adv-x="320" 
d="M226 113l-79 -174h-67l80 174h66z" />
    <glyph glyph-name="quotedblbase" unicode="&#x201e;" horiz-adv-x="359" 
d="M319 113l-79 -174h-67l80 174h66zM186 113l-79 -174h-67l79 174h67z" />
    <glyph glyph-name="quotedblright" unicode="&#x201d;" horiz-adv-x="359" 
d="M319 667l-79 -175h-67l80 175h66zM186 667l-79 -175h-67l79 175h67z" />
    <glyph glyph-name="guillemotright" unicode="&#xbb;" horiz-adv-x="405" 
d="M362 253l-102 -181l-53 30l84 151l-84 152l53 28zM205 253l-102 -181l-53 30l85 151l-85 152l53 28z" />
    <glyph glyph-name="ellipsis" unicode="&#x2026;" horiz-adv-x="592" 
d="M527 0h-67v113h67v-113zM329 0h-66v113h66v-113zM132 0h-67v113h67v-113z" />
    <glyph glyph-name="perthousand" unicode="&#x2030;" horiz-adv-x="1261" 
d="M1223 158c0 -92 -76 -170 -169 -170c-92 0 -169 77 -169 169c0 93 75 171 169 171c92 0 169 -78 169 -170zM823 158c0 -92 -76 -170 -169 -170c-92 0 -169 77 -169 169c0 93 75 171 169 171c92 0 169 -78 169 -170zM606 667l-300 -667h-51l300 667h51zM377 509
c0 -92 -78 -170 -170 -170c-93 0 -169 76 -169 169c0 92 76 171 169 171c92 0 170 -78 170 -170zM1170 160c0 64 -51 119 -116 119c-67 0 -117 -58 -117 -123c0 -64 52 -120 117 -120c69 0 116 57 116 124zM770 160c0 64 -51 119 -116 119c-67 0 -117 -58 -117 -123
c0 -64 52 -120 117 -120c69 0 116 57 116 124zM324 510c0 64 -51 120 -116 120c-67 0 -117 -58 -117 -123c0 -64 50 -120 116 -120c68 0 117 57 117 123z" />
    <glyph glyph-name="questiondown" unicode="&#xbf;" horiz-adv-x="466" 
d="M273 380h-67v113h67v-113zM452 18c0 -114 -100 -203 -212 -203c-114 0 -204 85 -204 200c0 144 163 164 170 304h67v-9c0 -70 -47 -128 -95 -173c-40 -38 -75 -65 -75 -124c0 -76 65 -135 139 -135c57 0 113 37 135 90c9 22 10 43 11 67h63c0 -6 1 -11 1 -17z" />
    <glyph glyph-name="grave" unicode="`" 
d="M312 592l-35 -41l-156 130l36 42z" />
    <glyph glyph-name="acute" unicode="&#xb4;" 
d="M379 681l-156 -130l-35 41l155 131z" />
    <glyph glyph-name="circumflex" unicode="&#x2c6;" 
d="M397 567h-76l-69 76l-71 -76h-78l118 123h60z" />
    <glyph glyph-name="tilde" unicode="&#x2dc;" 
d="M397 624c-23 -21 -54 -39 -86 -39c-50 0 -76 30 -117 30c-24 0 -45 -13 -60 -30l-31 42c26 28 56 43 95 43s72 -31 111 -31c23 0 39 13 56 26z" />
    <glyph glyph-name="macron" unicode="&#xaf;" 
d="M395 598h-290v55h290v-55z" />
    <glyph glyph-name="breve" unicode="&#x2d8;" 
d="M397 680c-22 -72 -74 -103 -147 -103s-125 31 -147 103h57c18 -36 50 -54 90 -54s72 18 90 54h57z" />
    <glyph glyph-name="dotaccent" unicode="&#x2d9;" 
d="M282 570h-64v113h64v-113z" />
    <glyph glyph-name="dieresis" unicode="&#xa8;" 
d="M347 570h-64v113h64v-113zM217 570h-64v113h64v-113z" />
    <glyph glyph-name="ring" unicode="&#x2da;" 
d="M343 652c0 -51 -41 -94 -93 -94s-93 43 -93 94s42 93 93 93s93 -42 93 -93zM299 652c0 27 -21 50 -49 50s-49 -23 -49 -50s21 -51 49 -51s49 24 49 51z" />
    <glyph glyph-name="cedilla" unicode="&#xb8;" 
d="M352 -119c0 -47 -34 -83 -82 -83c-42 0 -69 24 -78 64l39 4c5 -18 23 -30 41 -30c24 0 40 18 40 42s-19 43 -43 43c-17 0 -27 -6 -37 -20l-27 16l37 83h33l-22 -54c10 4 17 6 28 6c42 0 71 -29 71 -71z" />
    <glyph glyph-name="hungarumlaut" unicode="&#x2dd;" 
d="M444 690l-132 -139l-39 38l130 139zM307 690l-132 -139l-39 38l130 139z" />
    <glyph glyph-name="ogonek" unicode="&#x2db;" 
d="M353 -164c-16 -5 -29 -8 -46 -8c-48 0 -94 29 -94 81c0 44 31 70 66 91h47c-27 -20 -68 -50 -68 -88c0 -29 25 -45 52 -45c15 0 30 3 43 9v-40z" />
    <glyph glyph-name="caron" unicode="&#x2c7;" 
d="M397 690l-118 -123h-60l-116 123h76l69 -77l72 77h77z" />
    <glyph glyph-name="emdash" unicode="&#x2014;" horiz-adv-x="730" 
d="M730 223h-730v60h730v-60z" />
    <glyph glyph-name="AE" unicode="&#xc6;" horiz-adv-x="865" 
d="M818 0h-352v225h-245l-158 -225h-80l464 667h371v-60h-285v-240h275v-60h-275v-247h285v-60zM466 285v297l-203 -297h203z" />
    <glyph glyph-name="ordfeminine" unicode="&#xaa;" horiz-adv-x="333" 
d="M302 400h-40v39c-30 -31 -57 -45 -100 -45c-78 0 -144 60 -144 140s66 139 144 139c38 0 76 -16 100 -45v39h40v-267zM301 297h-278v33h278v-33zM262 533c0 55 -44 103 -100 103s-104 -47 -104 -103s48 -103 104 -103c55 0 100 49 100 103z" />
    <glyph glyph-name="Lslash" unicode="&#x141;" horiz-adv-x="433" 
d="M414 0h-342v252l-67 -52v72l67 52v343h67v-306l139 105v-72l-139 -105v-229h275v-60z" />
    <glyph glyph-name="Oslash" unicode="&#xd8;" horiz-adv-x="777" 
d="M741 333c0 -193 -163 -345 -353 -345c-69 0 -122 15 -181 50l-85 -113l-50 37l84 112c-77 68 -121 155 -121 259c0 193 162 346 353 346c71 0 122 -16 183 -51l85 113l49 -38l-83 -111c76 -68 119 -157 119 -259zM675 332c0 81 -34 153 -91 209l-340 -453
c46 -27 92 -40 145 -40c155 0 286 128 286 284zM534 578c-48 28 -90 41 -146 41c-157 0 -286 -130 -286 -287c0 -79 34 -154 92 -207z" />
    <glyph glyph-name="OE" unicode="&#x152;" horiz-adv-x="1071" 
d="M1024 0h-353v136c-20 -39 -33 -52 -68 -77c-62 -45 -134 -71 -211 -71c-198 0 -357 145 -357 346c0 195 156 345 349 345c105 0 234 -49 287 -145v133h353v-60h-286v-241h276v-60h-276v-246h286v-60zM672 335c0 159 -127 284 -285 284c-160 0 -285 -125 -285 -285
c0 -157 123 -286 281 -286c160 0 289 126 289 287z" />
    <glyph glyph-name="ordmasculine" unicode="&#xba;" horiz-adv-x="333" 
d="M307 533c0 -77 -65 -139 -141 -139s-139 63 -139 139c0 77 63 140 140 140c76 0 140 -64 140 -140zM300 297h-267v33h267v-33zM266 535c0 54 -44 101 -99 101c-57 0 -100 -48 -100 -104c0 -55 44 -102 100 -102c58 0 99 49 99 105z" />
    <glyph glyph-name="ae" unicode="&#xe6;" horiz-adv-x="1041" 
d="M1007 223h-446c9 -98 91 -178 190 -178c71 0 145 49 170 116h70c-32 -101 -135 -173 -240 -173c-77 0 -143 34 -193 91v-79h-63v79c-51 -60 -116 -91 -195 -91c-145 0 -266 109 -266 257s122 260 268 260c76 0 148 -32 193 -95v83h63v-83c40 61 120 95 191 95
c102 0 198 -65 237 -159c19 -46 21 -73 21 -123zM937 279c-13 95 -89 170 -187 170s-173 -76 -186 -170h373zM496 244c0 113 -83 205 -198 205c-113 0 -201 -94 -201 -205c0 -110 90 -199 200 -199c111 0 199 88 199 199z" />
    <glyph glyph-name="dotlessi" unicode="&#x131;" horiz-adv-x="194" 
d="M129 0h-64v493h64v-493z" />
    <glyph glyph-name="lslash" unicode="&#x142;" horiz-adv-x="210" 
d="M196 389l-60 -45v-344h-63v304l-60 -45v67l60 45v296h63v-256l60 45v-67z" />
    <glyph glyph-name="oslash" unicode="&#xf8;" horiz-adv-x="583" 
d="M549 247c0 -140 -116 -259 -257 -259c-47 0 -91 13 -132 37l-63 -82l-49 34l64 84c-50 50 -78 115 -78 186c0 140 116 258 257 258c48 0 90 -11 131 -36l65 84l48 -37l-64 -85c49 -50 78 -114 78 -184zM486 249c0 54 -16 95 -52 135l-239 -313c31 -17 62 -26 97 -26
c113 0 194 94 194 204zM387 422c-29 17 -61 27 -95 27c-111 0 -195 -96 -195 -204c0 -52 18 -97 52 -136z" />
    <glyph glyph-name="oe" unicode="&#x153;" horiz-adv-x="1023" 
d="M989 221h-441c6 -100 90 -176 189 -176c75 0 141 46 171 114h68c-29 -101 -136 -171 -239 -171c-85 0 -190 53 -222 135c-46 -83 -131 -135 -226 -135c-140 0 -255 120 -255 259s116 258 255 258c67 0 133 -30 180 -77c19 -18 33 -39 47 -61c39 84 125 138 218 138
c149 0 255 -121 255 -266v-18zM922 278c-12 91 -92 171 -186 171c-101 0 -166 -78 -187 -171h373zM484 244c0 105 -86 205 -194 205s-193 -97 -193 -202c0 -107 84 -202 194 -202s193 91 193 199z" />
    <glyph glyph-name="germandbls" unicode="&#xdf;" horiz-adv-x="516" 
d="M482 180c0 -107 -80 -192 -188 -192c-47 0 -96 19 -130 52c-19 18 -28 34 -39 58v-98h-63v433c0 55 2 116 33 163c33 50 95 83 155 83c103 0 185 -87 185 -189c0 -59 -23 -109 -75 -139c79 -28 122 -87 122 -171zM419 174c0 49 -26 93 -70 115c-38 19 -76 19 -118 19
c-7 0 -13 -1 -20 -1v61c84 0 161 33 161 128c0 68 -52 126 -121 126c-41 0 -80 -23 -100 -59c-22 -40 -22 -85 -22 -130v-250h44c1 -69 47 -138 121 -138c70 0 125 60 125 129z" />
    <glyph glyph-name="Eth" unicode="&#xd0;" horiz-adv-x="671" 
d="M635 333c0 -115 -62 -227 -161 -286c-62 -37 -136 -47 -207 -47h-195v315h-72v60h72v292h191c77 0 163 -16 227 -60c89 -61 145 -166 145 -274zM568 333c0 98 -46 179 -129 230c-62 38 -133 44 -204 44h-96v-232h201v-60h-201v-255h96c91 0 169 6 240 68
c61 53 93 124 93 205z" />
    <glyph glyph-name="eth" unicode="&#xf0;" horiz-adv-x="583" 
d="M549 246c0 -141 -118 -258 -259 -258c-140 0 -256 116 -256 256s113 261 255 261c23 0 44 -4 66 -10l-61 75l-67 -40l-27 40l62 38l-53 57l43 35l59 -63l69 41l27 -42l-61 -36l71 -90c63 -79 132 -155 132 -264zM486 249c0 53 -17 99 -55 137c-36 36 -86 62 -138 62
c-109 0 -196 -93 -196 -200c0 -111 83 -203 196 -203c112 0 193 95 193 204z" />
    <glyph glyph-name="Scaron" unicode="&#x160;" horiz-adv-x="462" 
d="M384 846l-128 -113h-60l-131 113h82l78 -66l79 66h80zM425 185c0 -111 -93 -197 -203 -197c-119 0 -202 81 -207 199h71c4 -34 11 -65 34 -92c26 -30 65 -47 105 -47c72 0 133 62 133 134c0 38 -18 71 -46 95c-66 56 -164 38 -228 103c-31 32 -47 74 -47 118
c0 108 83 181 189 181c102 0 184 -78 184 -181h-70c-5 68 -50 121 -121 121c-67 0 -115 -54 -115 -119c0 -79 68 -100 131 -118c46 -13 87 -21 124 -53c42 -36 66 -89 66 -144z" />
    <glyph glyph-name="scaron" unicode="&#x161;" horiz-adv-x="375" 
d="M331 690l-118 -123h-60l-116 123h76l69 -76l71 76h78zM334 147c0 -91 -62 -159 -154 -159c-93 0 -155 65 -156 157h67c2 -26 6 -47 23 -67s42 -33 68 -33c47 0 89 39 89 87c0 128 -229 67 -229 233c0 76 61 140 138 140c78 0 138 -55 142 -134h-68c-3 43 -30 77 -75 77
c-37 0 -74 -36 -74 -73c0 -114 229 -60 229 -228z" />
    <glyph glyph-name="Yacute" unicode="&#xdd;" horiz-adv-x="535" 
d="M415 827l-174 -104l-29 48l174 105zM534 667l-234 -444v-223h-67v223l-232 444h74l191 -374l195 374h73z" />
    <glyph glyph-name="yacute" unicode="&#xfd;" horiz-adv-x="468" 
d="M373 684l-156 -129l-35 40l155 131zM468 493l-286 -666h-70l80 189l-192 477h73l156 -393l168 393h71z" />
    <glyph glyph-name="Thorn" unicode="&#xde;" horiz-adv-x="538" 
d="M514 363c0 -59 -24 -114 -71 -150c-49 -38 -108 -47 -168 -47h-136v-166h-67v667h67v-104h119c61 0 121 -5 173 -39c55 -36 83 -96 83 -161zM447 364c0 54 -29 99 -78 122c-42 19 -88 17 -133 17h-97v-277h125c42 0 88 2 125 26c38 24 58 68 58 112z" />
    <glyph glyph-name="thorn" unicode="&#xfe;" horiz-adv-x="621" 
d="M587 244c0 -142 -121 -256 -262 -256c-80 0 -147 30 -193 97v-258h-67v840h63v-259c46 65 119 97 198 97c144 0 261 -117 261 -261zM524 246c0 109 -86 202 -197 202c-110 0 -200 -87 -200 -198c0 -118 83 -205 202 -205c111 0 195 92 195 201z" />
    <glyph glyph-name="Zcaron" unicode="&#x17d;" horiz-adv-x="463" 
d="M390 846l-129 -113h-60l-131 113h83l77 -66l80 66h80zM438 0h-413v60l328 547h-318v60h393v-60l-327 -547h337v-60z" />
    <glyph glyph-name="zcaron" unicode="&#x17e;" horiz-adv-x="401" 
d="M354 690l-118 -123h-60l-116 123h76l69 -76l71 76h78zM386 0h-365v57l273 379h-264v57h339v-59l-271 -377h288v-57z" />
    <glyph glyph-name="onehalf" unicode="&#xbd;" horiz-adv-x="829" 
d="M796 284c0 -55 -40 -93 -78 -127l-129 -115h205v-42h-273v40l148 134c31 28 78 65 78 111c0 45 -42 80 -85 80c-33 0 -64 -15 -80 -45c-9 -17 -10 -36 -10 -54h-48v6c0 81 58 135 138 135c69 0 134 -51 134 -123zM590 667l-300 -667h-51l299 667h52zM208 267h-49v358h-72
v42h121v-400z" />
    <glyph glyph-name="onequarter" unicode="&#xbc;" horiz-adv-x="829" 
d="M808 72h-38v-72h-49v72h-211v40l205 288h55v-286h38v-42zM590 667l-300 -667h-51l299 667h52zM208 267h-49v358h-72v42h121v-400zM721 114v218l-153 -218h153z" />
    <glyph glyph-name="onesuperior" unicode="&#xb9;" horiz-adv-x="332" 
d="M208 267h-49v358h-72v42h121v-400z" />
    <glyph glyph-name="threequarters" unicode="&#xbe;" horiz-adv-x="829" 
d="M808 72h-38v-72h-49v72h-211v40l205 288h55v-286h38v-42zM590 667l-300 -667h-51l299 667h52zM299 388c0 -72 -66 -129 -136 -129c-82 0 -138 55 -139 137h48c2 -23 4 -41 18 -59c18 -23 42 -36 72 -36c44 0 88 38 88 83c0 42 -28 77 -69 86c-16 4 -34 3 -51 3v42
c6 -1 12 -1 18 -1c35 0 74 17 74 57c0 34 -25 61 -60 61c-42 0 -62 -30 -62 -70h-48c1 66 44 112 111 112c58 0 108 -44 108 -104c0 -33 -15 -54 -40 -74c41 -21 68 -61 68 -108zM721 114v218l-153 -218h153z" />
    <glyph glyph-name="threesuperior" unicode="&#xb3;" horiz-adv-x="332" 
d="M299 388c0 -72 -66 -129 -136 -129c-82 0 -138 55 -139 137h48c2 -23 4 -41 18 -59c18 -23 42 -36 72 -36c44 0 88 38 88 83c0 42 -28 77 -69 86c-16 4 -34 3 -51 3v42c6 -1 12 -1 18 -1c35 0 74 17 74 57c0 34 -25 61 -60 61c-42 0 -62 -30 -62 -70h-48
c1 66 44 112 111 112c58 0 108 -44 108 -104c0 -33 -15 -54 -40 -74c41 -21 68 -61 68 -108z" />
    <glyph glyph-name="twosuperior" unicode="&#xb2;" horiz-adv-x="332" 
d="M299 551c0 -55 -40 -93 -78 -127l-129 -115h205v-42h-273v40l148 134c31 28 78 65 78 111c0 45 -42 80 -85 80c-33 0 -64 -15 -80 -45c-9 -17 -10 -36 -10 -54h-48v6c0 81 58 135 138 135c69 0 134 -51 134 -123z" />
    <glyph glyph-name="brokenbar" unicode="&#xa6;" 
d="M281 336h-63v331h63v-331zM281 -167h-63v320h63v-320z" />
    <glyph glyph-name="minus" unicode="&#x2212;" 
d="M456 303h-413v60h413v-60z" />
    <glyph glyph-name="multiply" unicode="&#xd7;" 
d="M427 197l-40 -41l-137 136l-136 -136l-41 40l137 137l-137 137l41 40l136 -136l137 136l40 -40l-136 -137z" />
    <glyph glyph-name="Adieresis" unicode="&#xc4;" horiz-adv-x="656" 
d="M428 743h-67v114h67v-114zM294 743h-66v114h66v-114zM651 0h-73l-96 225h-311l-97 -225h-69l285 667h74zM456 285l-128 306l-131 -306h259z" />
    <glyph glyph-name="Aring" unicode="&#xc5;" horiz-adv-x="656" 
d="M421 813c0 -51 -42 -93 -93 -93s-94 41 -94 93s42 94 94 94s93 -43 93 -94zM651 0h-73l-96 225h-311l-97 -225h-69l285 667h74zM374 813c0 26 -19 49 -46 49s-47 -23 -47 -49s21 -48 47 -48s46 22 46 48zM456 285l-128 306l-131 -306h259z" />
    <glyph glyph-name="Ccedilla" unicode="&#xc7;" horiz-adv-x="718" 
d="M691 175c-61 -114 -174 -183 -303 -187l-22 -50c10 3 21 7 31 7c45 0 70 -34 70 -77c0 -48 -37 -85 -85 -85c-43 0 -72 26 -82 67l42 6c6 -20 17 -30 38 -30c25 0 43 17 43 42c0 23 -20 43 -43 43c-15 0 -28 -8 -37 -20l-28 16l37 83c-180 19 -317 158 -317 342
c0 194 155 346 348 346c93 0 177 -34 244 -98c31 -30 46 -44 62 -84h-75c-51 75 -140 122 -231 122c-153 0 -281 -134 -281 -286c0 -150 130 -284 281 -284c67 0 136 29 186 73c18 16 33 34 48 54h74z" />
    <glyph glyph-name="Eacute" unicode="&#xc9;" horiz-adv-x="484" 
d="M350 827l-174 -104l-29 48l173 105zM437 0h-365v667h365v-60h-298v-240h288v-60h-288v-247h298v-60z" />
    <glyph glyph-name="Ntilde" unicode="&#xd1;" horiz-adv-x="675" 
d="M497 797c-25 -22 -60 -40 -94 -40c-54 0 -83 30 -126 30c-25 0 -48 -13 -66 -30l-34 43c29 29 64 43 105 43c43 0 78 -30 119 -30c23 0 42 14 61 26zM603 0h-67l-397 587v-587h-67v667h90l374 -554v554h67v-667z" />
    <glyph glyph-name="Odieresis" unicode="&#xd6;" horiz-adv-x="777" 
d="M488 743h-66v114h66v-114zM355 743h-67v114h67v-114zM741 333c0 -193 -162 -345 -353 -345c-189 0 -353 152 -353 344c0 193 161 347 353 347c191 0 353 -153 353 -346zM675 332c0 157 -130 287 -287 287c-159 0 -286 -131 -286 -289c0 -155 133 -282 286 -282
c155 0 287 128 287 284z" />
    <glyph glyph-name="Udieresis" unicode="&#xdc;" horiz-adv-x="585" 
d="M392 743h-66v114h66v-114zM259 743h-67v114h67v-114zM519 251c0 -63 -10 -128 -49 -179c-42 -55 -109 -84 -178 -84c-68 0 -135 29 -177 84c-39 52 -50 116 -50 179v416h67v-416c0 -103 44 -197 160 -197s161 93 161 197v416h66v-416z" />
    <glyph glyph-name="aacute" unicode="&#xe1;" horiz-adv-x="622" 
d="M393 681l-156 -130l-35 41l155 131zM557 0h-64v86c-48 -65 -113 -98 -194 -98c-145 0 -265 113 -265 259c0 147 120 258 265 258c79 0 149 -33 194 -99v87h64v-493zM493 246c0 108 -83 203 -194 203c-110 0 -202 -92 -202 -202c0 -109 91 -202 201 -202
c109 0 195 93 195 201z" />
    <glyph glyph-name="agrave" unicode="&#xe0;" horiz-adv-x="622" 
d="M393 592l-35 -41l-156 130l36 42zM557 0h-64v86c-48 -65 -113 -98 -194 -98c-145 0 -265 113 -265 259c0 147 120 258 265 258c79 0 149 -33 194 -99v87h64v-493zM493 246c0 108 -83 203 -194 203c-110 0 -202 -92 -202 -202c0 -109 91 -202 201 -202
c109 0 195 93 195 201z" />
    <glyph glyph-name="acircumflex" unicode="&#xe2;" horiz-adv-x="622" 
d="M451 567h-75l-70 76l-71 -76h-78l118 123h60zM557 0h-64v86c-48 -65 -113 -98 -194 -98c-145 0 -265 113 -265 259c0 147 120 258 265 258c79 0 149 -33 194 -99v87h64v-493zM493 246c0 108 -83 203 -194 203c-110 0 -202 -92 -202 -202c0 -109 91 -202 201 -202
c109 0 195 93 195 201z" />
    <glyph glyph-name="adieresis" unicode="&#xe4;" horiz-adv-x="622" 
d="M395 570h-63v113h63v-113zM265 570h-63v113h63v-113zM557 0h-64v86c-48 -65 -113 -98 -194 -98c-145 0 -265 113 -265 259c0 147 120 258 265 258c79 0 149 -33 194 -99v87h64v-493zM493 246c0 108 -83 203 -194 203c-110 0 -202 -92 -202 -202c0 -109 91 -202 201 -202
c109 0 195 93 195 201z" />
    <glyph glyph-name="atilde" unicode="&#xe3;" horiz-adv-x="622" 
d="M458 624c-23 -21 -54 -39 -86 -39c-50 0 -76 30 -117 30c-24 0 -45 -13 -60 -30l-31 42c26 28 56 43 95 43s72 -31 111 -31c23 0 39 13 56 26zM557 0h-64v86c-48 -65 -113 -98 -194 -98c-145 0 -265 113 -265 259c0 147 120 258 265 258c79 0 149 -33 194 -99v87h64v-493
zM493 246c0 108 -83 203 -194 203c-110 0 -202 -92 -202 -202c0 -109 91 -202 201 -202c109 0 195 93 195 201z" />
    <glyph glyph-name="aring" unicode="&#xe5;" horiz-adv-x="622" 
d="M402 652c0 -51 -41 -94 -93 -94s-94 42 -94 94s43 93 94 93s93 -42 93 -93zM557 0h-64v86c-48 -65 -113 -98 -194 -98c-145 0 -265 113 -265 259c0 147 120 258 265 258c79 0 149 -33 194 -99v87h64v-493zM357 652c0 27 -20 50 -48 50s-49 -23 -49 -50s21 -51 49 -51
c27 0 48 25 48 51zM493 246c0 108 -83 203 -194 203c-110 0 -202 -92 -202 -202c0 -109 91 -202 201 -202c109 0 195 93 195 201z" />
    <glyph glyph-name="ccedilla" unicode="&#xe7;" horiz-adv-x="570" 
d="M544 145c-13 -26 -26 -50 -46 -72c-50 -55 -117 -83 -191 -85l-17 -40c10 4 18 6 29 6c42 0 71 -29 71 -71c0 -47 -34 -85 -82 -85c-43 0 -70 25 -78 66l39 4c4 -18 22 -32 41 -32c24 0 40 20 40 43c0 25 -19 44 -44 44c-16 0 -27 -7 -36 -20l-27 16l31 70
c-135 14 -240 118 -240 257c0 145 121 259 265 259c108 0 205 -59 245 -161h-74c-36 63 -99 105 -172 105c-112 0 -201 -90 -201 -202s87 -202 200 -202c80 0 128 38 173 100h74z" />
    <glyph glyph-name="eacute" unicode="&#xe9;" horiz-adv-x="582" 
d="M386 681l-155 -130l-36 41l156 131zM548 223h-448c5 -97 93 -178 190 -178c73 0 147 48 174 116h69c-35 -102 -135 -173 -242 -173c-142 0 -257 116 -257 258s113 259 256 259c107 0 203 -68 240 -167c15 -39 17 -74 18 -115zM481 280c-22 93 -90 169 -190 169
c-98 0 -173 -75 -189 -169h379z" />
    <glyph glyph-name="egrave" unicode="&#xe8;" horiz-adv-x="582" 
d="M386 592l-35 -41l-156 130l36 42zM548 223h-448c5 -97 93 -178 190 -178c73 0 147 48 174 116h69c-35 -102 -135 -173 -242 -173c-142 0 -257 116 -257 258s113 259 256 259c107 0 203 -68 240 -167c15 -39 17 -74 18 -115zM481 280c-22 93 -90 169 -190 169
c-98 0 -173 -75 -189 -169h379z" />
    <glyph glyph-name="ecircumflex" unicode="&#xea;" horiz-adv-x="582" 
d="M438 567h-76l-69 76l-72 -76h-77l118 123h60zM548 223h-448c5 -97 93 -178 190 -178c73 0 147 48 174 116h69c-35 -102 -135 -173 -242 -173c-142 0 -257 116 -257 258s113 259 256 259c107 0 203 -68 240 -167c15 -39 17 -74 18 -115zM481 280c-22 93 -90 169 -190 169
c-98 0 -173 -75 -189 -169h379z" />
    <glyph glyph-name="edieresis" unicode="&#xeb;" horiz-adv-x="582" 
d="M394 570h-63v113h63v-113zM264 570h-63v113h63v-113zM548 223h-448c5 -97 93 -178 190 -178c73 0 147 48 174 116h69c-35 -102 -135 -173 -242 -173c-142 0 -257 116 -257 258s113 259 256 259c107 0 203 -68 240 -167c15 -39 17 -74 18 -115zM481 280
c-22 93 -90 169 -190 169c-98 0 -173 -75 -189 -169h379z" />
    <glyph glyph-name="iacute" unicode="&#xed;" horiz-adv-x="194" 
d="M192 681l-155 -130l-35 41l155 131zM129 0h-64v493h64v-493z" />
    <glyph glyph-name="igrave" unicode="&#xec;" horiz-adv-x="194" 
d="M192 592l-35 -41l-155 130l35 42zM129 0h-64v493h64v-493z" />
    <glyph glyph-name="icircumflex" unicode="&#xee;" horiz-adv-x="194" 
d="M204 567h-55l-51 76l-52 -76h-56l86 123h44zM129 0h-64v493h64v-493z" />
    <glyph glyph-name="idieresis" unicode="&#xef;" horiz-adv-x="194" 
d="M184 570h-60v113h60v-113zM70 570h-60v113h60v-113zM129 0h-64v493h64v-493z" />
    <glyph glyph-name="ntilde" unicode="&#xf1;" horiz-adv-x="561" 
d="M441 624c-23 -21 -54 -39 -86 -39c-47 0 -79 30 -118 30c-24 0 -44 -13 -59 -30l-31 42c25 28 57 43 95 43c40 0 72 -31 111 -31c19 0 41 13 55 26zM499 0h-64v271c0 94 -51 178 -153 178c-56 0 -111 -32 -135 -83c-13 -28 -14 -65 -14 -95v-271h-68v493h64v-64
c43 47 86 76 152 76c139 0 218 -100 218 -234v-271z" />
    <glyph glyph-name="oacute" unicode="&#xf3;" horiz-adv-x="583" 
d="M387 681l-156 -130l-35 41l155 131zM549 247c0 -141 -117 -259 -258 -259s-257 117 -257 258s116 259 258 259c140 0 257 -118 257 -258zM486 249c0 107 -85 200 -194 200c-112 0 -195 -96 -195 -205c0 -108 86 -199 195 -199c113 0 194 94 194 204z" />
    <glyph glyph-name="ograve" unicode="&#xf2;" horiz-adv-x="583" 
d="M387 592l-35 -41l-156 130l36 42zM549 247c0 -141 -117 -259 -258 -259s-257 117 -257 258s116 259 258 259c140 0 257 -118 257 -258zM486 249c0 107 -85 200 -194 200c-112 0 -195 -96 -195 -205c0 -108 86 -199 195 -199c113 0 194 94 194 204z" />
    <glyph glyph-name="ocircumflex" unicode="&#xf4;" horiz-adv-x="583" 
d="M439 567h-76l-70 76l-71 -76h-77l118 123h60zM549 247c0 -141 -117 -259 -258 -259s-257 117 -257 258s116 259 258 259c140 0 257 -118 257 -258zM486 249c0 107 -85 200 -194 200c-112 0 -195 -96 -195 -205c0 -108 86 -199 195 -199c113 0 194 94 194 204z" />
    <glyph glyph-name="odieresis" unicode="&#xf6;" horiz-adv-x="583" 
d="M388 570h-63v113h63v-113zM258 570h-63v113h63v-113zM549 247c0 -141 -117 -259 -258 -259s-257 117 -257 258s116 259 258 259c140 0 257 -118 257 -258zM486 249c0 107 -85 200 -194 200c-112 0 -195 -96 -195 -205c0 -108 86 -199 195 -199c113 0 194 94 194 204z" />
    <glyph glyph-name="otilde" unicode="&#xf5;" horiz-adv-x="583" 
d="M445 624c-22 -20 -54 -39 -85 -39c-52 0 -77 30 -118 30c-23 0 -44 -13 -59 -30l-32 42c26 28 56 43 95 43c40 0 73 -31 112 -31c19 0 42 14 55 26zM549 247c0 -141 -117 -259 -258 -259s-257 117 -257 258s116 259 258 259c140 0 257 -118 257 -258zM486 249
c0 107 -85 200 -194 200c-112 0 -195 -96 -195 -205c0 -108 86 -199 195 -199c113 0 194 94 194 204z" />
    <glyph glyph-name="uacute" unicode="&#xfa;" horiz-adv-x="559" 
d="M375 681l-156 -130l-35 41l155 131zM494 0h-60v76c-36 -64 -95 -88 -166 -88c-76 0 -147 36 -182 106c-19 38 -24 85 -24 127v272h63v-272c0 -98 47 -176 153 -176c102 0 153 82 153 176v272h63v-493z" />
    <glyph glyph-name="ugrave" unicode="&#xf9;" horiz-adv-x="559" 
d="M375 592l-35 -41l-156 130l36 42zM494 0h-60v76c-36 -64 -95 -88 -166 -88c-76 0 -147 36 -182 106c-19 38 -24 85 -24 127v272h63v-272c0 -98 47 -176 153 -176c102 0 153 82 153 176v272h63v-493z" />
    <glyph glyph-name="ucircumflex" unicode="&#xfb;" horiz-adv-x="559" 
d="M427 567h-76l-70 76l-71 -76h-77l118 123h60zM494 0h-60v76c-36 -64 -95 -88 -166 -88c-76 0 -147 36 -182 106c-19 38 -24 85 -24 127v272h63v-272c0 -98 47 -176 153 -176c102 0 153 82 153 176v272h63v-493z" />
    <glyph glyph-name="udieresis" unicode="&#xfc;" horiz-adv-x="559" 
d="M375 570h-64v113h64v-113zM245 570h-64v113h64v-113zM494 0h-60v76c-36 -64 -95 -88 -166 -88c-76 0 -147 36 -182 106c-19 38 -24 85 -24 127v272h63v-272c0 -98 47 -176 153 -176c102 0 153 82 153 176v272h63v-493z" />
    <glyph glyph-name="degree" unicode="&#xb0;" 
d="M390 533c0 -76 -65 -137 -140 -137c-76 0 -140 60 -140 137s64 137 140 137s140 -60 140 -137zM346 533c0 53 -44 94 -96 94s-96 -41 -96 -94s44 -94 96 -94s96 41 96 94z" />
    <glyph glyph-name="registered" unicode="&#xae;" horiz-adv-x="513" 
d="M462 557c0 -113 -91 -206 -205 -206s-206 92 -206 206s93 205 206 205s205 -92 205 -205zM432 557c0 96 -79 175 -175 175s-176 -78 -176 -175s79 -176 176 -176s175 80 175 176zM350 447h-41l-84 104c34 0 91 -5 91 44c0 36 -35 43 -64 43h-35v-191h-32v220h62
c51 0 101 -13 101 -73c0 -39 -27 -60 -63 -68z" />
    <glyph glyph-name="copyright" unicode="&#xa9;" horiz-adv-x="784" 
d="M737 333c0 -190 -155 -345 -345 -345s-345 155 -345 345c0 191 154 346 345 346s345 -155 345 -346zM693 333c0 167 -133 304 -301 304s-301 -137 -301 -304c0 -166 134 -304 301 -304s301 138 301 304zM600 243c-40 -71 -114 -117 -196 -117c-116 0 -220 87 -220 207
c0 121 102 207 219 207c76 0 163 -42 195 -114h-53l-1 1c-37 46 -81 71 -141 71c-90 0 -171 -74 -171 -165c0 -90 82 -165 171 -165c62 0 99 31 142 74l1 1h54z" />
    <glyph glyph-name="trademark" unicode="&#x2122;" horiz-adv-x="781" 
d="M717 287h-47v320l-148 -320h-39l-147 320v-320h-47v380h68l146 -313l146 313h68v-380zM254 626h-93v-339h-47v339h-94v41h234v-41z" />
    <glyph glyph-name="notequal" unicode="&#x2260;" 
d="M467 225h-238l-56 -116h-55l55 116h-139v61h166l46 94h-213v60h240l55 113h55l-54 -113h137l1 -60h-165l-46 -94h211v-61z" />
    <glyph glyph-name="infinity" unicode="&#x221e;" horiz-adv-x="667" 
d="M648 340c0 -88 -59 -153 -149 -153c-75 0 -125 49 -164 108c-41 -58 -91 -107 -166 -107c-89 0 -150 64 -150 152s61 152 150 152c74 0 125 -49 163 -107c41 60 90 107 167 107c88 0 149 -65 149 -152zM580 340c0 53 -37 92 -90 92c-58 0 -94 -48 -123 -92
c29 -44 66 -92 124 -92c53 0 89 40 89 92zM300 340c-29 44 -66 92 -124 92c-53 0 -89 -40 -89 -92s35 -93 89 -93c59 0 94 48 124 93z" />
    <glyph glyph-name="plusminus" unicode="&#xb1;" 
d="M467 344h-184v-173h-66v173h-184v62h184v173h66v-173h184v-62zM467 68h-434v62h434v-62z" />
    <glyph glyph-name="lessequal" unicode="&#x2264;" 
d="M467 150l-434 195v59l434 195v-64l-362 -161l361 -160zM467 60h-434v60h434v-60z" />
    <glyph glyph-name="greaterequal" unicode="&#x2265;" 
d="M467 345l-434 -195v64l362 161l-361 160l-1 64l434 -195v-59zM467 60h-434v60h434v-60z" />
    <glyph glyph-name="mu" unicode="&#xb5;" 
d="M449 0h-66v89c-29 -64 -67 -102 -140 -102c-60 0 -97 25 -128 75v-229h-67v646h67v-273c0 -58 4 -112 57 -145c22 -14 47 -20 73 -20c48 0 87 23 112 63c23 36 26 70 26 112v263h66v-479z" />
    <glyph glyph-name="partialdiff" unicode="&#x2202;" 
d="M463 243c0 -134 -75 -254 -220 -254c-123 0 -220 104 -220 225c0 118 87 221 209 221c69 0 107 -24 149 -77c-2 5 -4 11 -6 16c-36 91 -68 139 -154 189c-51 30 -84 40 -143 48l9 60c48 -7 93 -15 138 -35c157 -69 238 -226 238 -393zM392 218c0 88 -56 160 -148 160
c-91 0 -153 -79 -153 -166c0 -85 64 -163 152 -163c93 0 149 82 149 169z" />
    <glyph glyph-name="summation" unicode="&#x2211;" horiz-adv-x="667" 
d="M605 -250h-576v68l249 452l-249 413v67h567v-224h-61l-6 164h-425l252 -420l-253 -460h436l3 164h63v-224z" />
    <glyph glyph-name="product" unicode="&#x220f;" horiz-adv-x="695" 
d="M659 -250h-229v60h83v880h-331v-880h82v-60h-228v60h79v880h-79v60h623v-60h-78v-880h78v-60z" />
    <glyph glyph-name="pi" unicode="&#x3c0;" horiz-adv-x="571" 
d="M545 450h-73v-450h-67v450h-237v-450h-67v450h-74v61h518v-61z" />
    <glyph glyph-name="integral" unicode="&#x222b;" 
d="M400 739l-15 -59c-16 6 -27 10 -44 10c-61 0 -57 -50 -57 -99v-49v-601c0 -40 4 -107 -19 -142c-24 -36 -69 -48 -110 -48c-22 0 -35 2 -55 10l15 59c16 -6 27 -10 44 -10c11 0 24 0 34 6c27 16 23 87 23 113v630c0 46 -6 115 26 153c24 28 57 38 93 38
c23 0 43 -4 65 -11z" />
    <glyph glyph-name="Omega" unicode="&#x3a9;" horiz-adv-x="667" 
d="M638 0h-260v55c53 30 94 59 130 108c42 57 61 122 61 192c0 134 -91 268 -235 268c-147 0 -237 -130 -237 -268c0 -139 73 -235 192 -300v-55h-261v60h184c-117 68 -184 164 -184 302c0 174 126 321 305 321s305 -147 305 -321c0 -137 -67 -234 -183 -302h183v-60z" />
    <glyph glyph-name="logicalnot" unicode="&#xac;" 
d="M467 0h-67v206h-367v61h434v-267z" />
    <glyph glyph-name="radical" unicode="&#x221a;" horiz-adv-x="667" 
d="M667 766h-198l-221 -766h-81l-85 302h-82v60h136l39 -132c6 -21 10 -42 14 -63c5 -25 11 -49 16 -74h5c15 64 29 128 46 191c14 53 30 105 45 157l111 386h255v-61z" />
    <glyph glyph-name="approxequal" unicode="&#x2248;" 
d="M490 460c-30 -59 -70 -110 -142 -110c-66 0 -150 68 -207 68c-45 0 -72 -38 -91 -74l-40 26c27 58 65 113 135 113c74 0 147 -68 211 -68c48 0 71 32 93 70zM490 297c-30 -59 -70 -110 -142 -110c-68 0 -144 67 -207 67c-46 0 -71 -37 -91 -73l-40 26
c27 58 65 113 135 113c74 0 148 -68 211 -68c47 0 70 32 93 69z" />
    <glyph glyph-name="Delta" unicode="&#x394;" horiz-adv-x="667" 
d="M638 0h-609l268 667h71zM541 61l-208 525l-209 -525h417z" />
    <glyph glyph-name="nbspace" unicode="&#xa0;" horiz-adv-x="333" 
 />
    <glyph glyph-name="Agrave" unicode="&#xc0;" horiz-adv-x="656" 
d="M436 771l-29 -48l-174 104l29 49zM651 0h-73l-96 225h-311l-97 -225h-69l285 667h74zM456 285l-128 306l-131 -306h259z" />
    <glyph glyph-name="Atilde" unicode="&#xc3;" horiz-adv-x="656" 
d="M488 797c-25 -21 -60 -40 -94 -40c-55 0 -84 30 -127 30c-25 0 -48 -13 -65 -30l-34 43c29 29 63 43 104 43c44 0 80 -30 120 -30c23 0 43 14 61 26zM651 0h-73l-96 225h-311l-97 -225h-69l285 667h74zM456 285l-128 306l-131 -306h259z" />
    <glyph glyph-name="Otilde" unicode="&#xd5;" horiz-adv-x="777" 
d="M548 797c-25 -22 -60 -40 -94 -40c-54 0 -83 30 -126 30c-25 0 -48 -13 -66 -30l-34 43c29 29 64 43 105 43c43 0 78 -30 119 -30c23 0 42 14 61 26zM741 333c0 -193 -162 -345 -353 -345c-189 0 -353 152 -353 344c0 193 161 347 353 347c191 0 353 -153 353 -346z
M675 332c0 157 -130 287 -287 287c-159 0 -286 -131 -286 -289c0 -155 133 -282 286 -282c155 0 287 128 287 284z" />
    <glyph glyph-name="divide" unicode="&#xf7;" 
d="M297 516c0 -25 -22 -47 -47 -47c-26 0 -47 21 -47 47s22 46 47 46s47 -20 47 -46zM467 301h-434v62h434v-62zM297 149c0 -25 -22 -47 -47 -47c-26 0 -47 21 -47 47s21 47 47 47s47 -21 47 -47z" />
    <glyph glyph-name="lozenge" unicode="&#x25ca;" horiz-adv-x="667" 
d="M593 334l-260 -360l-259 360l259 359zM515 334l-182 250l-182 -250l182 -251z" />
    <glyph glyph-name="ydieresis" unicode="&#xff;" horiz-adv-x="468" 
d="M331 570h-64v113h64v-113zM201 570h-64v113h64v-113zM468 493l-286 -666h-70l80 189l-192 477h73l156 -393l168 393h71z" />
    <glyph glyph-name="Ydieresis" unicode="&#x178;" horiz-adv-x="535" 
d="M368 743h-67v114h67v-114zM234 743h-66v114h66v-114zM534 667l-234 -444v-223h-67v223l-232 444h74l191 -374l195 374h73z" />
    <glyph glyph-name="Acircumflex" unicode="&#xc2;" horiz-adv-x="656" 
d="M487 743h-80l-78 67l-79 -67h-82l131 113h60zM651 0h-73l-96 225h-311l-97 -225h-69l285 667h74zM456 285l-128 306l-131 -306h259z" />
    <glyph glyph-name="Ecircumflex" unicode="&#xca;" horiz-adv-x="484" 
d="M414 743h-80l-78 67l-79 -67h-82l131 113h60zM437 0h-365v667h365v-60h-298v-240h288v-60h-288v-247h298v-60z" />
    <glyph glyph-name="Aacute" unicode="&#xc1;" horiz-adv-x="656" 
d="M423 827l-174 -104l-29 48l173 105zM651 0h-73l-96 225h-311l-97 -225h-69l285 667h74zM456 285l-128 306l-131 -306h259z" />
    <glyph glyph-name="Edieresis" unicode="&#xcb;" horiz-adv-x="484" 
d="M355 743h-67v114h67v-114zM221 743h-66v114h66v-114zM437 0h-365v667h365v-60h-298v-240h288v-60h-288v-247h298v-60z" />
    <glyph glyph-name="Egrave" unicode="&#xc8;" horiz-adv-x="484" 
d="M363 771l-29 -48l-174 104l29 49zM437 0h-365v667h365v-60h-298v-240h288v-60h-288v-247h298v-60z" />
    <glyph glyph-name="Iacute" unicode="&#xcd;" horiz-adv-x="211" 
d="M200 827l-174 -104l-29 48l174 105zM139 0h-67v667h67v-667z" />
    <glyph glyph-name="Icircumflex" unicode="&#xce;" horiz-adv-x="211" 
d="M235 743h-65l-63 67l-64 -67h-67l106 113h48zM139 0h-67v667h67v-667z" />
    <glyph glyph-name="Idieresis" unicode="&#xcf;" horiz-adv-x="211" 
d="M192 743h-63v114h63v-114zM82 743h-63v114h63v-114zM139 0h-67v667h67v-667z" />
    <glyph glyph-name="Igrave" unicode="&#xcc;" horiz-adv-x="211" 
d="M213 771l-29 -48l-174 104l30 49zM139 0h-67v667h67v-667z" />
    <glyph glyph-name="Oacute" unicode="&#xd3;" horiz-adv-x="777" 
d="M483 827l-174 -104l-29 48l174 105zM741 333c0 -193 -162 -345 -353 -345c-189 0 -353 152 -353 344c0 193 161 347 353 347c191 0 353 -153 353 -346zM675 332c0 157 -130 287 -287 287c-159 0 -286 -131 -286 -289c0 -155 133 -282 286 -282c155 0 287 128 287 284z
" />
    <glyph glyph-name="Ocircumflex" unicode="&#xd4;" horiz-adv-x="777" 
d="M548 743h-80l-78 67l-79 -67h-82l130 113h60zM741 333c0 -193 -162 -345 -353 -345c-189 0 -353 152 -353 344c0 193 161 347 353 347c191 0 353 -153 353 -346zM675 332c0 157 -130 287 -287 287c-159 0 -286 -131 -286 -289c0 -155 133 -282 286 -282
c155 0 287 128 287 284z" />
    <glyph glyph-name="apple" unicode="&#xf8ff;" horiz-adv-x="816" 
d="M533 298l-25 -59h-291c40 -108 145 -191 264 -191c94 0 180 52 234 127h74c-61 -114 -177 -187 -307 -187c-160 0 -295 105 -336 251h-138l25 59h102c-1 11 -2 23 -2 34c0 13 1 25 2 37h-127l25 59h113c41 146 175 251 335 251c93 0 176 -35 244 -99
c30 -29 46 -45 62 -84h-75c-50 76 -140 123 -231 123c-120 0 -224 -83 -264 -191h372l-25 -59h-361c-2 -12 -3 -25 -3 -37c0 -11 1 -23 2 -34h331z" />
    <glyph glyph-name="Ograve" unicode="&#xd2;" horiz-adv-x="777" 
d="M497 771l-30 -48l-173 104l29 49zM741 333c0 -193 -162 -345 -353 -345c-189 0 -353 152 -353 344c0 193 161 347 353 347c191 0 353 -153 353 -346zM675 332c0 157 -130 287 -287 287c-159 0 -286 -131 -286 -289c0 -155 133 -282 286 -282c155 0 287 128 287 284z" />
    <glyph glyph-name="Uacute" unicode="&#xda;" horiz-adv-x="585" 
d="M387 827l-174 -104l-29 48l174 105zM519 251c0 -63 -10 -128 -49 -179c-42 -55 -109 -84 -178 -84c-68 0 -135 29 -177 84c-39 52 -50 116 -50 179v416h67v-416c0 -103 44 -197 160 -197s161 93 161 197v416h66v-416z" />
    <glyph glyph-name="Ucircumflex" unicode="&#xdb;" horiz-adv-x="585" 
d="M452 743h-80l-78 67l-79 -67h-82l130 113h60zM519 251c0 -63 -10 -128 -49 -179c-42 -55 -109 -84 -178 -84c-68 0 -135 29 -177 84c-39 52 -50 116 -50 179v416h67v-416c0 -103 44 -197 160 -197s161 93 161 197v416h66v-416z" />
    <glyph glyph-name="Ugrave" unicode="&#xd9;" horiz-adv-x="585" 
d="M401 771l-30 -48l-173 104l29 49zM519 251c0 -63 -10 -128 -49 -179c-42 -55 -109 -84 -178 -84c-68 0 -135 29 -177 84c-39 52 -50 116 -50 179v416h67v-416c0 -103 44 -197 160 -197s161 93 161 197v416h66v-416z" />
    </font>
</defs>
</svg>
