<?xml version="1.0" standalone="no"?>
<!DOCTYPE svg PUBLIC "-//W3C//DTD SVG 1.1//EN" "http://www.w3.org/Graphics/SVG/1.1/DTD/svg11.dtd" >
<svg>
<metadata>
Created by FontForge 20090914 at Mon Jul  4 06:55:13 2016
 By www-data
Copyright 1990-2003 Bitstream Inc. All rights reserved.
</metadata>
<defs>
<font id="Century751BT-BoldItalicB" horiz-adv-x="1024" >
  <font-face 
    font-family="Century751 No2 BT"
    font-weight="700"
    font-style="italic"
    font-stretch="normal"
    units-per-em="2048"
    panose-1="0 0 0 0 0 0 0 0 0 0"
    ascent="1556"
    descent="-492"
    x-height="996.999"
    cap-height="1470"
    bbox="-351.999 -483 2550 1984"
    underline-thickness="170"
    underline-position="-148"
    slope="-9"
    unicode-range="U+0020-U+F002"
  />
<missing-glyph horiz-adv-x="1229" 
d="M102 -362v1806h1024v-1806h-1024zM217 -248h795v1577h-795v-1577z" />
    <glyph glyph-name=".notdef" horiz-adv-x="1229" 
d="M102 -362v1806h1024v-1806h-1024zM217 -248h795v1577h-795v-1577z" />
    <glyph glyph-name="space" unicode=" " horiz-adv-x="633" 
 />
    <glyph glyph-name="exclam" unicode="!" horiz-adv-x="731" 
d="M279 309c43.333 0 80.667 -15.6689 112 -47.002s47 -68.666 47 -111.999c0 -45.333 -15.667 -83.333 -47 -114s-70.333 -46 -117 -46c-41.333 0 -77.5 15.833 -108.5 47.5s-46.5 69.167 -46.5 112.5c0 42.667 15.833 79.834 47.5 111.501s69.167 47.5 112.5 47.5z
M494.001 1489c34 -16.667 60.833 -44.001 80.5 -82.001s29.5 -81.667 29.5 -131c0 -53.333 -36.667 -193.666 -110 -420.999c-58 -180 -104 -327.667 -138 -443l-90 14c5.33301 101.333 10 236 14 404c7.33301 290 26 466.667 56 530c16.667 34 39.5 63 68.5 87
s58.833 38 89.5 42z" />
    <glyph glyph-name="quotedbl" unicode="&#x22;" horiz-adv-x="707" 
d="M543 852l-41.001 0.000976562l-80 461c-1.33301 8 -2.33301 15 -3 21s-1 11.333 -1 16c0 35.333 9.33301 63.166 28 83.499s44 30.5 76 30.5c32.667 0 58.334 -9.83301 77.001 -29.5s28 -46.5 28 -80.5c0 -4 -0.333008 -9 -1 -15l-3 -26zM202.999 852.001h-41.001
l-80 461c-0.666992 4.66699 -1.16699 9.5 -1.5 14.5s-0.5 12.5 -0.5 22.5c0 34.667 9.33301 62.334 28 83.001s43.334 31 74.001 31c32 0 57.167 -9.66699 75.5 -29s27.5 -46.333 27.5 -81c0 -10.667 -0.166992 -18.834 -0.5 -24.501s-0.833008 -11.167 -1.5 -16.5z" />
    <glyph glyph-name="numbersign" unicode="#" horiz-adv-x="1575" 
d="M705 852l-91 -252h265l88 252h-262zM711 1464h215l-148 -415h254l150 415h213l-148 -415h283l-74 -199h-278l-88 -248h292l-71 -196h-291l-148 -416h-215l148 416h-254l-150 -416h-215l148 416h-289l74 196h287l88 248h-304l74 199h299z" />
    <glyph glyph-name="dollar" unicode="$" horiz-adv-x="1266" 
d="M653 553l-77 -471.002c77.333 2 140.333 26.667 189 74s73 107.333 73 180c0 46.667 -15.5 88.334 -46.5 125.001s-77.167 67.334 -138.5 92.001zM692 1357c-77.333 -0.666992 -139 -21.833 -185 -63.5s-69 -96.834 -69 -165.501
c0 -55.333 13.833 -100.666 41.5 -135.999s72.5 -65 134.5 -89zM737 1626h92l-30 -182c111.333 -14 200.5 -50.333 267.5 -109s100.5 -129 100.5 -211c0 -48 -12.833 -87.667 -38.5 -119s-57.834 -47 -96.501 -47c-34 0 -61.167 11.667 -81.5 35s-30.5 54 -30.5 92
c0 26 4.66699 52.333 14 79s24.333 56.334 45 89.001c-19.333 30 -44.5 53.333 -75.5 70s-69.833 28.334 -116.5 35.001l-82 -494c132.667 -42.667 233.334 -100.5 302.001 -173.5s103 -159.167 103 -258.5c0 -132.667 -49.833 -240.834 -149.5 -324.501
s-230.167 -125.5 -391.5 -125.5h-10l-37 -215h-92l37 221c-118 12.667 -212.333 49 -283 109s-106 132.667 -106 218c0 54 15 100.333 45 139s64.667 58 104 58c35.333 0 64.333 -11.667 87 -35s34 -53.333 34 -90c0 -32 -8 -62.667 -24 -92s-40.667 -58 -74 -86
c14.667 -36.667 42.834 -66.667 84.501 -90s90.5 -36.333 146.5 -39l84 506c-134 48 -232 106 -294 174s-93 151.333 -93 250c0 134 47.167 240.167 141.5 318.5s223.166 118.166 386.499 119.499z" />
    <glyph glyph-name="percent" unicode="%" horiz-adv-x="1810" 
d="M1370 788c-50.667 0 -88.167 -30 -112.5 -90s-36.5 -152 -36.5 -276c0 -124.667 12.167 -217 36.5 -277s61.833 -90 112.5 -90s88.334 30 113.001 90s37 152.333 37 277c0 124 -12.333 216 -37 276s-62.334 90 -113.001 90zM440 1376c-50.667 0 -88.167 -30 -112.5 -90
s-36.5 -152 -36.5 -276c0 -124.667 12.167 -217 36.5 -277s61.833 -90 112.5 -90s88.334 30 113.001 90s37 152.333 37 277c0 124 -12.333 216 -37 276s-62.334 90 -113.001 90zM1370 862c110 0 198.333 -40.167 265 -120.5s100 -186.833 100 -319.5
s-33.333 -239.167 -100 -319.5s-155 -120.5 -265 -120.5c-108.667 0 -196.5 40.167 -263.5 120.5s-100.5 186.833 -100.5 319.5c0 132 33.5 238.333 100.5 319s154.833 121 263.5 121zM440 1450c110 0 198.667 -40.333 266 -121s101 -187 101 -319
c0 -132.667 -33.667 -239.334 -101 -320.001s-156 -121 -266 -121c-108.667 0 -196.5 40.333 -263.5 121s-100.5 187.334 -100.5 320.001c0 132 33.5 238.333 100.5 319s154.833 121 263.5 121zM1307 1450h123l-926 -1468h-123z" />
    <glyph glyph-name="ampersand" unicode="&#x26;" horiz-adv-x="1567" 
d="M680 848l-33.0029 -82.0039c-16 1.33301 -31.333 4 -46 8s-28.667 9.66699 -42 17c-59.333 -24.667 -107 -68 -143 -130s-54 -131.333 -54 -208c0 -104 33.833 -189.833 101.5 -257.5s154.167 -101.5 259.5 -101.5c120.667 0 218.667 35.167 294 105.5
s113 160.833 113 271.5c0 32 -3.66699 63.167 -11 93.5s-18.666 60.5 -33.999 90.5c-28.667 4.66699 -54.667 8 -78 10s-44.333 3 -63 3c-30.667 0 -57.167 -6.16699 -79.5 -18.5s-40.166 -30.833 -53.499 -55.5c27.333 -17.333 48.166 -38.666 62.499 -63.999
s21.5 -54 21.5 -86c0 -37.333 -10.333 -67.5 -31 -90.5s-48 -34.5 -82 -34.5c-36.667 0 -66.667 14.833 -90 44.5s-35 68.167 -35 115.5c0 90.667 36 162.5 108 215.5s170 79.5 294 79.5c42 0 96.833 -2.33301 164.5 -7s114.5 -7 140.5 -7c38.667 0 67 5.5 85 16.5
s34.667 31.5 50 61.5l55 -23c-22 -74 -44.833 -122.833 -68.5 -146.5s-64.167 -35.5 -121.5 -35.5c-15.333 0 -35.333 0.666992 -60 2s-52.334 3.33301 -83.001 6c8.66699 -34.667 14.834 -64.167 18.501 -88.5s5.5 -48.166 5.5 -71.499
c0 -151.333 -56.5 -272.333 -169.5 -363s-266.167 -136 -459.5 -136c-166.667 0 -299.667 39 -399 117s-149 182.333 -149 313c0 107.333 35.833 199.166 107.5 275.499s170.167 126.5 295.5 150.5c-89.333 19.333 -156.666 52.5 -201.999 99.5s-68 107.167 -68 180.5
c0 107.333 44.5 196 133.5 266s203.5 105 343.5 105c120 0 221 -28.333 303 -85s123 -124 123 -202c0 -35.333 -10.5 -63.666 -31.5 -84.999s-49.5 -32 -85.5 -32c-41.333 0 -72.166 16 -92.499 48s-30.5 80.333 -30.5 145c0 2.66699 0.333008 8.5 1 17.5s1 16.833 1 23.5
c0 22.667 -13 41 -39 55s-60 21 -102 21c-72 0 -128.833 -26.167 -170.5 -78.5s-62.5 -123.166 -62.5 -212.499c0 -63.333 15.5 -116.166 46.5 -158.499s78.167 -74.833 141.5 -97.5z" />
    <glyph glyph-name="quotesingle" unicode="'" horiz-adv-x="365" 
d="M203 852l-41 0.00195312l-80 461c-1.33301 8 -2.33301 15 -3 21s-1 11.333 -1 16c0 35.333 9.33301 63.166 28 83.499s44 30.5 76 30.5s57.167 -9.66699 75.5 -29s27.5 -46.333 27.5 -81c0 -10.667 -0.166992 -18.834 -0.5 -24.501s-0.833008 -11.167 -1.5 -16.5z" />
    <glyph glyph-name="parenleft" unicode="(" horiz-adv-x="862" 
d="M854 1536l41 -68.0039c-158 -87.333 -283.167 -224.666 -375.5 -411.999s-138.5 -398.666 -138.5 -633.999c0 -143.333 23 -285.333 69 -426s113 -274.667 201 -402l-59 -55c-140 152.667 -245.667 308.834 -317 468.501s-107 318.834 -107 477.501
c0 230 59.5 436.333 178.5 619s288.167 326.667 507.5 432z" />
    <glyph glyph-name="parenright" unicode=")" horiz-adv-x="862" 
d="M207 1536c139.333 -152 244.832 -308.166 316.499 -468.499s107.5 -319.5 107.5 -477.5c0 -230.667 -59.167 -437 -177.5 -619s-287.166 -326 -506.499 -432l-41 68c158.667 88.667 283.667 226.167 375 412.5s137 398.166 137 635.499c0 143.333 -22.667 285 -68 425
s-112 273.667 -200 401z" />
    <glyph glyph-name="asterisk" unicode="*" horiz-adv-x="989" 
d="M500 1047l47 -0.000976562l25 -80c21.333 -68 32 -111 32 -129c0 -26.667 -6.5 -48.5 -19.5 -65.5s-33.167 -30.167 -60.5 -39.5c-27.333 9.33301 -47.5 22.333 -60.5 39s-19.5 38.667 -19.5 66c0 18.667 11 63.334 33 134.001c10 31.333 17.667 56.333 23 75zM459 1100
l22.001 -41l-55 -60c-66.667 -73.333 -118 -110 -154 -110c-12.667 0 -25.5 2.83301 -38.5 8.5s-25.167 13.5 -36.5 23.5c-0.666992 5.33301 -1.16699 10.333 -1.5 15s-0.5 10.667 -0.5 18c0 34.667 14.167 61.5 42.5 80.5s102.166 40.833 221.499 65.5zM590.001 1100
c7.33301 -2 17.667 -4.33398 31 -7.00098c155.333 -33.333 233 -81 233 -143l-1.5 -10c-1 -6.66699 -1.83301 -12.667 -2.5 -18c-12 -11.333 -24.167 -19.666 -36.5 -24.999s-24.833 -8 -37.5 -8c-34.667 0 -88 39.667 -160 119l-49 53zM481.002 1161l-22 -38.998
c-12.667 3.33301 -30.667 7.66602 -54 12.999c-140 31.333 -210 75.666 -210 132.999c0 5.33301 0.166992 10.5 0.5 15.5s0.833008 9.83301 1.5 14.5c13.333 12 26 20.833 38 26.5s23 8.5 33 8.5c38.667 0 92.667 -38.667 162 -116zM852.002 1298
c0.666992 -5.33301 1.16602 -10.168 1.49902 -14.501s0.5 -8.16602 0.5 -11.499c0 -62.667 -79.333 -110.667 -238 -144c-12 -2.66699 -20.667 -4.66699 -26 -6l-21 41l54 59c66 74 118.333 111 157 111c10.667 0 22.334 -3 35.001 -9s25 -14.667 37 -26zM524.001 1489
c27.333 -9.33301 47.5 -22.334 60.5 -39.001s19.5 -38.667 19.5 -66c0 -15.333 -9.66699 -53.666 -29 -114.999c-12 -38.667 -21.333 -69.667 -28 -93h-47l-22 72c-22.667 72.667 -34 118 -34 136c0 27.333 6.33301 49.333 19 66s33 29.667 61 39z" />
    <glyph glyph-name="plus" unicode="+" horiz-adv-x="1706" 
d="M752 1221h202v-510h498v-199h-498v-512h-202v512h-498v199h498v510z" />
    <glyph glyph-name="comma" unicode="," horiz-adv-x="633" 
d="M35 -350l-30.999 65c85.333 31.333 153.166 69 203.499 113s75.5 87 75.5 129c0 10.667 -1.5 17.834 -4.5 21.501s-10.5 5.5 -22.5 5.5h-16c-47.333 0 -84.166 13 -110.499 39s-39.5 62.667 -39.5 110c0 51.333 15.667 93.5 47 126.5s71 49.5 119 49.5
c55.333 0 100.166 -19.167 134.499 -57.5s51.5 -88.833 51.5 -151.5c0 -108.667 -35 -201.834 -105 -279.501s-170.667 -134.5 -302 -170.5z" />
    <glyph glyph-name="hyphen" unicode="-" horiz-adv-x="647" 
d="M70 614h493l-41 -211h-493z" />
    <glyph glyph-name="period" unicode="." horiz-adv-x="633" 
d="M264 309c44 0 81.667 -15.5 113 -46.5s47 -68.5 47 -112.5c0 -46 -15.667 -84.167 -47 -114.5s-70.333 -45.5 -117 -45.5c-42 0 -78.5 16 -109.5 48s-46.5 70.667 -46.5 116c0 41.333 16 77.5 48 108.5s69.333 46.5 112 46.5z" />
    <glyph glyph-name="slash" unicode="/" horiz-adv-x="696" 
d="M612 1489h144l-746 -1679h-145z" />
    <glyph glyph-name="zero" unicode="0" horiz-adv-x="1266" 
d="M719 1354c-96.667 0 -179.833 -86.332 -249.5 -258.999s-104.5 -387.334 -104.5 -644.001c0 -124 15.667 -217.167 47 -279.5s78.333 -93.5 141 -93.5c50.667 0 95.834 21.833 135.501 65.5s75.167 110.5 106.5 200.5c34 100 59.833 207 77.5 321s26.5 230.333 26.5 349
c0 114.667 -14.833 200 -44.5 256s-74.834 84 -135.501 84zM729.001 1450c144 0 258.499 -51.001 343.499 -153.001s127.5 -240 127.5 -414c0 -258.667 -64.333 -473.5 -193 -644.5s-287 -256.5 -475 -256.5c-138 0 -250.667 55.333 -338 166s-131 255.334 -131 434.001
c0 249.333 63.833 456.333 191.5 621s285.834 247 474.501 247z" />
    <glyph glyph-name="one" unicode="1" horiz-adv-x="856" 
d="M723 1444l-201.003 -1110c-5.33301 -34 -9.33301 -62.167 -12 -84.5s-4 -40.5 -4 -54.5c0 -39.333 10 -66.333 30 -81s57 -22 111 -22h31l-14 -92c-96.667 4 -171.167 6.66699 -223.5 8s-96.166 2 -131.499 2c-28 0 -65.667 -0.666992 -113 -2s-123 -4 -227 -8l15 92h24
c121.333 0 197 86.333 227 259l1 1l124 711c4.66699 20.667 8 40.834 10 60.501s3 37.834 3 54.501c0 22.667 -4.16699 38.834 -12.5 48.501s-22.166 14.5 -41.499 14.5c-5.33301 0 -14.5 -1 -27.5 -3s-26.167 -4.33301 -39.5 -7l-131 -29l-19 78
c110 22 216.333 46.667 319 74s203.334 57.333 302.001 90z" />
    <glyph glyph-name="two" unicode="2" horiz-adv-x="1266" 
d="M184 147c72.667 43.333 134.333 74.332 185 92.999s97.667 28 141 28c40.667 0 102.334 -6.5 185.001 -19.5s144.667 -19.5 186 -19.5c46.667 0 83.834 14 111.501 42s52.5 79 74.5 153l74 -18c-26.667 -177.333 -59.834 -292.666 -99.501 -345.999
s-107.5 -80 -203.5 -80c-70.667 0 -167.667 11.167 -291 33.5s-209.333 33.5 -258 33.5c-31.333 0 -64.833 -4.83301 -100.5 -14.5s-78.834 -25.834 -129.501 -48.501l-55 96c57.333 72 121 142.167 191 210.5s147.667 136.833 233 205.5l22 17c252.667 204 379 379 379 525
c0 91.333 -25.333 163 -76 215s-120 78 -208 78c-84.667 0 -157.834 -25 -219.501 -75s-92.5 -107 -92.5 -171c0 -11.333 0.333008 -20.166 1 -26.499s1.33398 -11.833 2.00098 -16.5h22c56.667 0 102.667 -15.167 138 -45.5s53 -69.5 53 -117.5
c0 -40 -12.667 -72.333 -38 -97s-58.666 -37 -99.999 -37c-56.667 0 -103.834 26 -141.501 78s-56.5 117.667 -56.5 197c0 126.667 47 230 141 310s217.667 120 371 120c160.667 0 287.167 -39.833 379.5 -119.5s138.5 -189.5 138.5 -329.5
c0 -90.667 -25.833 -172.667 -77.5 -246s-131.167 -140 -238.5 -200c-34 -19.333 -87 -47 -159 -83c-224 -112.667 -385.333 -221 -484 -325z" />
    <glyph glyph-name="three" unicode="3" horiz-adv-x="1266" 
d="M659 715c159.333 -5.33301 275.332 -34.5 347.999 -87.5s109 -134.5 109 -244.5c0 -120 -50.5 -218 -151.5 -294s-232.833 -114 -395.5 -114c-153.333 0 -278.333 35.333 -375 106s-145 159.667 -145 267c0 52.667 13.833 95.834 41.5 129.501s62.5 50.5 104.5 50.5
c36.667 0 67.334 -12.833 92.001 -38.5s37 -57.834 37 -96.501c0 -38 -11 -71.667 -33 -101s-52.667 -51.666 -92 -66.999c26.667 -46 63 -81 109 -105s99.667 -36 161 -36c100 0 180.667 31.5 242 94.5s92 145.5 92 247.5c0 75.333 -23 131.666 -69 168.999
s-115.333 56 -208 56c-2 0 -12.833 -0.5 -32.5 -1.5s-38.5 -1.83301 -56.5 -2.5l32 104c114.667 6.66699 206.834 41.667 276.501 105s104.5 142.666 104.5 237.999c0 75.333 -24.333 136.5 -73 183.5s-111.667 70.5 -189 70.5c-62.667 0 -116.834 -16.333 -162.501 -49
s-74.167 -75.334 -85.5 -128.001c51.333 -4 91.166 -18.667 119.499 -44s42.5 -59 42.5 -101c0 -39.333 -12.667 -71.333 -38 -96s-58.333 -37 -99 -37c-53.333 0 -97.166 19.333 -131.499 58s-51.5 88.334 -51.5 149.001c0 96.667 46.5 179.167 139.5 247.5
s209.167 102.5 348.5 102.5c141.333 0 254.833 -32 340.5 -96s128.5 -148 128.5 -252c0 -99.333 -41 -182.166 -123 -248.499s-201 -112.5 -357 -138.5z" />
    <glyph glyph-name="four" unicode="4" horiz-adv-x="1266" 
d="M946 1473l76 -83.999c-182 -150.667 -343.667 -294.334 -485 -431.001s-257.666 -261.334 -348.999 -374.001h496l90 524l295 70l-100 -594l182 2l-74 -209h-143l-19 -126c-1.33301 -13.333 -2.33301 -24.666 -3 -33.999s-1 -18.333 -1 -27
c0 -34.667 9.16699 -59.667 27.5 -75s48.833 -23 91.5 -23h19l-15 -92c-90.667 4 -160.5 6.66699 -209.5 8s-89.833 2 -122.5 2c-25.333 0 -60 -0.666992 -104 -2s-113.667 -4 -209 -8l14 92h13c76 0 128.667 12.667 158 38s49.666 75 60.999 149l14 98h-626l12 174
c184 206.667 347.333 382 490 526s283 276 421 396z" />
    <glyph glyph-name="five" unicode="5" horiz-adv-x="1266" 
d="M1104 1452l59 -50.999c-58.667 -101.333 -112.334 -170 -161.001 -206s-109.667 -54 -183 -54c-37.333 0 -94.166 5.16699 -170.499 15.5s-160.833 24.833 -253.5 43.5l-73 -395c54 34.667 109.667 60.667 167 78s116.333 26 177 26c129.333 0 235 -37.667 317 -113
s123 -173.333 123 -294c0 -148.667 -54.333 -271.5 -163 -368.5s-245.667 -145.5 -411 -145.5c-134 0 -244.167 31.833 -330.5 95.5s-129.5 143.167 -129.5 238.5c0 51.333 12.333 92.833 37 124.5s57.334 47.5 98.001 47.5c38.667 0 70.167 -12.333 94.5 -37
s36.5 -57 36.5 -97c0 -34.667 -8.83301 -66 -26.5 -94s-44.5 -53.333 -80.5 -76c25.333 -30.667 57 -54.334 95 -71.001s80.333 -25 127 -25c100 0 183 39.5 249 118.5s99 178.833 99 299.5c0 84.667 -22.333 151.834 -67 201.501s-105 74.5 -181 74.5
c-38 0 -77.833 -7.5 -119.5 -22.5s-87.834 -38.833 -138.501 -71.5l-86 58l121 708c154 -27.333 285.667 -48.5 395 -63.5s188 -22.5 236 -22.5c33.333 0 60 5.66699 80 17s41 31.666 63 60.999z" />
    <glyph glyph-name="six" unicode="6" horiz-adv-x="1266" 
d="M385 602c-3.33301 -35.333 -5.83301 -65.001 -7.5 -89.001s-2.5 -44 -2.5 -60c0 -118 19 -210 57 -276s90.667 -99 158 -99c75.333 0 137.5 39.167 186.5 117.5s73.5 180.5 73.5 306.5c0 82.667 -17.667 147 -53 193s-84.666 69 -147.999 69
c-42 0 -83.833 -12.667 -125.5 -38s-87.834 -66.666 -138.501 -123.999zM1010 1253c-30 35.333 -60.6689 60.667 -92.002 76s-67.666 23 -108.999 23c-115.333 0 -208.5 -53.333 -279.5 -160s-117.167 -263 -138.5 -469c56 62 112.167 107.5 168.5 136.5
s116.833 43.5 181.5 43.5c120 0 219 -38 297 -114s117 -171.667 117 -287c0 -142 -56.167 -263.833 -168.5 -365.5s-247.166 -152.5 -404.499 -152.5c-158 0 -282.167 53 -372.5 159s-135.5 253 -135.5 441c0 114.667 17 223.667 51 327s83 194.333 147 273
c67.333 82.667 146 146.667 236 192s184.333 68 283 68c105.333 0 195.833 -31.167 271.5 -93.5s113.5 -135.833 113.5 -220.5c0 -44.667 -12.5 -81 -37.5 -109s-57.167 -42 -96.5 -42c-35.333 0 -63.833 10.833 -85.5 32.5s-32.5 50.5 -32.5 86.5
c0 32 7.66699 62.167 23 90.5s36.333 49.833 63 64.5z" />
    <glyph glyph-name="seven" unicode="7" horiz-adv-x="1266" 
d="M283 1458l70.9941 -12.0029l-41 -174c39.333 76 72 124 98 144s61 30 105 30c58 0 144.5 -8.83301 259.5 -26.5s199.833 -26.5 254.5 -26.5c42.667 0 76.834 4.66699 102.501 14s46.834 25 63.501 47l74 -39c-48 -103.333 -138.833 -267.666 -272.5 -492.999
s-218.5 -405 -254.5 -539c-18.667 -71.333 -34.667 -160 -48 -266c-13.333 -102.667 -34.666 -154 -63.999 -154c-6.66699 0 -14.167 1.83301 -22.5 5.5s-22.166 12.167 -41.499 25.5l-112 86c-18 12.667 -30.333 25.834 -37 39.501s-10 31.834 -10 54.501
c0 56.667 29.5 138 88.5 244s141.833 224.667 248.5 356c88 106.667 157.833 199 209.5 277s89.834 147.667 114.501 209c-30.667 -34 -61.334 -59.333 -92.001 -76s-62 -25 -94 -25c-40.667 0 -104.667 5.5 -192 16.5s-154.666 16.5 -201.999 16.5
c-63.333 0 -112.166 -14.667 -146.499 -44s-72.833 -90.333 -115.5 -183l-75 39l67.5 225.5z" />
    <glyph glyph-name="eight" unicode="8" horiz-adv-x="1266" 
d="M535 653c-73.333 -34.667 -127.166 -76.333 -161.499 -125s-51.5 -106.667 -51.5 -174c0 -84 21.833 -151 65.5 -201s102.167 -75 175.5 -75c72.667 0 133.167 24.833 181.5 74.5s72.5 111.5 72.5 185.5c0 73.333 -22.333 135 -67 185s-116.334 93.333 -215.001 130z
M856 770.001c87.333 -36 152.501 -82.5 195.501 -139.5s64.5 -125.167 64.5 -204.5c0 -130.667 -52.833 -237.667 -158.5 -321s-241.834 -125 -408.501 -125c-152 0 -273 34.333 -363 103s-135 159.667 -135 273c0 94 32.333 172.333 97 235s158 106.667 280 132
c-80 33.333 -138.833 75.5 -176.5 126.5s-56.5 113.833 -56.5 188.5c0 121.333 45.333 220.333 136 297s209.667 115 357 115c144 0 258.167 -32.5 342.5 -97.5s126.5 -151.167 126.5 -258.5c0 -76.667 -24.333 -141.167 -73 -193.5s-124.667 -95.833 -228 -130.5z
M752.001 831.001c54 35.333 94.333 78.167 121 128.5s40 108.833 40 175.5c0 65.333 -19.167 118.166 -57.5 158.499s-88.5 60.5 -150.5 60.5c-68 0 -124.333 -22 -169 -66s-67 -99.333 -67 -166c0 -68 23 -125.667 69 -173s117.333 -86.666 214 -117.999z" />
    <glyph glyph-name="nine" unicode="9" horiz-adv-x="1266" 
d="M872 836c4.66699 31.333 7.99902 62.332 9.99902 92.999s3 61 3 91c0 104.667 -17.5 185.834 -52.5 243.501s-83.833 86.5 -146.5 86.5c-78 0 -142.833 -39.833 -194.5 -119.5s-77.5 -181.167 -77.5 -304.5c0 -82.667 17.333 -147.334 52 -194.001s82 -70 142 -70
c44.667 0 88.334 13.833 131.001 41.5s87 71.834 133 132.501zM235.999 173.999c21.333 -28.667 50.166 -50.833 86.499 -66.5s76.833 -23.5 121.5 -23.5c107.333 0 194.833 49.333 262.5 148s116.834 249.334 147.501 452.001c-43.333 -58.667 -94.333 -103 -153 -133
s-123.667 -45 -195 -45c-114 0 -206 36.333 -276 109s-105 168 -105 286c0 150 56.167 278.667 168.5 386s247.833 161 406.5 161c142.667 0 257.667 -51.667 345 -155s131 -241.333 131 -414c0 -118 -18.833 -233.333 -56.5 -346s-89.167 -208.334 -154.5 -287.001
c-67.333 -80 -146.333 -142.333 -237 -187s-183.667 -67 -279 -67c-108 0 -197.5 29 -268.5 87s-106.5 129.333 -106.5 214c0 44 12.5 80.167 37.5 108.5s56.833 42.5 95.5 42.5c36 0 64.5 -10.5 85.5 -31.5s31.5 -49.167 31.5 -84.5c0 -31.333 -7.66699 -60.333 -23 -87
s-37 -49 -65 -67z" />
    <glyph glyph-name="colon" unicode=":" horiz-adv-x="686" 
d="M262 309c44 0 81.668 -15.5 113.001 -46.5s47 -68.5 47 -112.5c0 -45.333 -15.667 -83.333 -47 -114s-70.333 -46 -117 -46c-42.667 0 -79.334 15.833 -110.001 47.5s-46 70.5 -46 116.5c0 41.333 16 77.5 48 108.5s69.333 46.5 112 46.5zM365.001 930
c44.667 0 82.334 -15.667 113.001 -47s46 -70.333 46 -117c0 -41.333 -15.833 -77.666 -47.5 -108.999s-68.834 -47 -111.501 -47c-44 0 -81.667 16.167 -113 48.5s-47 70.166 -47 113.499s15.667 80.5 47 111.5s69 46.5 113 46.5z" />
    <glyph glyph-name="semicolon" unicode=";" horiz-adv-x="686" 
d="M365 930c44.667 0 82.334 -15.667 113.001 -47s46 -70.333 46 -117c0 -41.333 -15.833 -77.666 -47.5 -108.999s-68.834 -47 -111.501 -47c-44 0 -81.667 16.167 -113 48.5s-47 70.166 -47 113.499s15.667 80.5 47 111.5s69 46.5 113 46.5zM35 -350l-30.999 65
c85.333 31.333 153.166 69 203.499 113s75.5 87 75.5 129c0 10.667 -1.5 17.834 -4.5 21.501s-10.5 5.5 -22.5 5.5h-16c-47.333 0 -84.166 13 -110.499 39s-39.5 62.667 -39.5 110c0 51.333 15.667 93.5 47 126.5s71 49.5 119 49.5c55.333 0 100.166 -19.167 134.499 -57.5
s51.5 -88.833 51.5 -151.5c0 -108.667 -35 -201.834 -105 -279.501s-170.667 -134.5 -302 -170.5z" />
    <glyph glyph-name="less" unicode="&#x3c;" horiz-adv-x="1706" 
d="M1442 1194v-219l-893 -365l893 -364v-219l-1178 485v199z" />
    <glyph glyph-name="equal" unicode="=" horiz-adv-x="1706" 
d="M254 496h1198v-199h-1198v199zM254 926h1198v-199h-1198v199z" />
    <glyph glyph-name="greater" unicode="&#x3e;" horiz-adv-x="1706" 
d="M264 1194l1178 -483v-199l-1178 -485v219l895 364l-895 365v219z" />
    <glyph glyph-name="question" unicode="?" horiz-adv-x="1030" 
d="M426 309c43.333 0 80.833 -15.6689 112.5 -47.002s47.5 -68.666 47.5 -111.999c0 -45.333 -15.833 -83.333 -47.5 -114s-70.5 -46 -116.5 -46c-42 0 -78.5 15.833 -109.5 47.5s-46.5 69.167 -46.5 112.5c0 42.667 15.833 79.834 47.5 111.501s69.167 47.5 112.5 47.5z
M506 415.998l-91.9971 15.9971c12 110.667 47.667 216 107 316l3 5l16 26c81.333 133.333 122 247 122 341c0 82.667 -16.833 146.334 -50.5 191.001s-81.834 67 -144.501 67c-47.333 0 -88.333 -14 -123 -42s-54.334 -63.667 -59.001 -107c33.333 -12 60 -31.333 80 -58
s30 -56.667 30 -90c0 -32.667 -9.66699 -59.167 -29 -79.5s-44.333 -30.5 -75 -30.5c-42 0 -77.167 16.833 -105.5 50.5s-42.5 76.167 -42.5 127.5c0 88.667 37.833 165.834 113.5 231.501s166.167 98.5 271.5 98.5c117.333 0 214.333 -35.167 291 -105.5
s115 -159.5 115 -267.5c0 -74.667 -16.5 -142.667 -49.5 -204s-103.167 -141.333 -210.5 -240c-56 -51.333 -95.333 -94.666 -118 -129.999s-39.334 -74 -50.001 -116z" />
    <glyph glyph-name="at" unicode="@" horiz-adv-x="2019" 
d="M1176 319c-41.333 -66.667 -86.1699 -116.008 -134.503 -148.008s-101.833 -48 -160.5 -48c-94.667 0 -168.834 30.333 -222.501 91s-80.5 144.334 -80.5 251.001c0 76 16.667 149.833 50 221.5s81.333 137.167 144 196.5c46 42.667 95.333 75.167 148 97.5
s106.334 33.5 161.001 33.5c64 0 114.167 -15 150.5 -45s60.166 -76 71.499 -138l49 164h190l-174 -618l-2 -7c-9.33301 -38.667 -14 -67.667 -14 -87c0 -31.333 6.83301 -56 20.5 -74s31.834 -27 54.501 -27c22 0 50.333 8.33301 85 25s67.334 37.667 98.001 63
c68.667 58.667 121.334 131 158.001 217s55 181 55 285c0 183.333 -62.833 332 -188.5 446s-288.834 171 -489.501 171c-92 0 -179.333 -12.667 -262 -38s-158.667 -62.666 -228 -111.999c-115.333 -80.667 -204.166 -183.5 -266.499 -308.5s-93.5 -263.833 -93.5 -416.5
c0 -223.333 70.167 -400.666 210.5 -531.999s328.833 -197 565.5 -197c110.667 0 217.167 16.833 319.5 50.5s204.833 85.834 307.5 156.501l39 -51c-100.667 -75.333 -206.667 -131.833 -318 -169.5s-227.333 -56.5 -348 -56.5c-124.667 0 -240.5 15.333 -347.5 46
s-199.5 75 -277.5 133c-100.667 74.667 -178 167.167 -232 277.5s-81 231.5 -81 363.5c0 103.333 17.333 202.833 52 298.5s85.667 183.834 153 264.501c96.667 116 212.167 205 346.5 267s279.5 93 435.5 93c232.667 0 418.834 -63 558.501 -189s209.5 -293.667 209.5 -503
c0 -107.333 -19.667 -207.166 -59 -299.499s-96 -172.166 -170 -239.499c-39.333 -35.333 -81.5 -62.166 -126.5 -80.499s-90.833 -27.5 -137.5 -27.5c-65.333 0 -117 17.333 -155 52s-59.333 84 -64 148zM1118 947.992c-41.333 0 -78.834 -14.832 -112.501 -44.499
s-67.167 -77.5 -100.5 -143.5c-38 -76 -67 -147.667 -87 -215s-30 -128.333 -30 -183c0 -52.667 11.5 -94.5 34.5 -125.5s53.833 -46.5 92.5 -46.5c42.667 0 84.167 20.667 124.5 62s78.833 102 115.5 182c26.667 61.333 47.667 123.166 63 185.499s23 116.5 23 162.5
c0 53.333 -10.667 94.333 -32 123s-51.666 43 -90.999 43z" />
    <glyph glyph-name="A" unicode="A" horiz-adv-x="1321" 
d="M647 1219l-285 -601h367zM909 1497l196.999 -1198l2 -13c20.667 -122.667 80.667 -186.667 180 -192v-94c-97.333 4 -167.5 6.66699 -210.5 8s-75.833 2 -98.5 2c-38.667 0 -84.667 -0.833008 -138 -2.5s-121.333 -4.16699 -204 -7.5v94c62 3.33301 102 11.833 120 25.5
s27 40.167 27 79.5c0 15.333 -0.5 29 -1.5 41s-2.5 24.333 -4.5 37l-37 241h-424l-124 -258c-10 -19.333 -17.333 -37.166 -22 -53.499s-7 -31.166 -7 -44.499c0 -26 8.16699 -43.5 24.5 -52.5s52.5 -14.167 108.5 -15.5v-94c-63.333 4 -110 6.66699 -140 8s-54.333 2 -73 2
c-20 0 -45.333 -0.666992 -76 -2s-75 -4 -133 -8v94c47.333 1.33301 86 14.666 116 39.999s67 83.666 111 174.999l465 961c28 30.667 53.333 62.667 76 96s43.334 68 62.001 104z" />
    <glyph glyph-name="B" unicode="B" horiz-adv-x="1427" 
d="M551 684l-94 -587c26 -2.66699 50.5 -4.5 73.5 -5.5s44.833 -1.5 65.5 -1.5c114.667 0 198 28 250 84s78 145.333 78 268c0 84 -21.333 145.333 -64 184s-111 58 -205 58h-104zM852 741c128.667 -12 228 -49.166 298 -111.499s105 -144.5 105 -246.5
c0 -127.333 -43.167 -224.666 -129.5 -291.999s-211.5 -101 -375.5 -101c-47.333 0 -127.166 2 -239.499 6s-201.166 6 -266.499 6c-41.333 0 -80.666 -0.166992 -117.999 -0.5s-75.666 -0.833008 -114.999 -1.5l-1 90c52 2.66699 88.167 12 108.5 28s35.5 51.667 45.5 107
l158 976c3.33301 21.333 6.16602 41.833 8.49902 61.5s3.5 34.5 3.5 44.5c0 23.333 -9 40.166 -27 50.499s-53.333 17.166 -106 20.499v94c51.333 -2 98 -3.5 140 -4.5s79.333 -1.5 112 -1.5c65.333 0 141.166 1.16699 227.499 3.5s140.166 3.5 161.499 3.5
c151.333 0 265.166 -28.5 341.499 -85.5s114.5 -141.833 114.5 -254.5c0 -116.667 -39.333 -209.5 -118 -278.5s-188 -106.833 -328 -113.5zM569 795.001l7 -1c44 -2 76.667 -3 98 -3c102 0 177 29.167 225 87.5s72 149.833 72 274.5c0 78 -16.833 135 -50.5 171
s-86.5 54 -158.5 54c-8.66699 0 -21.167 -0.5 -37.5 -1.5s-36.5 -2.5 -60.5 -4.5z" />
    <glyph glyph-name="C" unicode="C" horiz-adv-x="1430" 
d="M1307 1315l36.002 83.999l84 -4c-13.333 -68 -26.166 -138.833 -38.499 -212.5s-25.166 -155.834 -38.499 -246.501h-92c1.33301 25.333 2.66602 46.833 3.99902 64.5s2 29.5 2 35.5c0 102.667 -28.833 185 -86.5 247s-134.167 93 -229.5 93
c-155.333 0 -279.833 -69.5 -373.5 -208.5s-140.5 -323.5 -140.5 -553.5c0 -165.333 32.5 -291.666 97.5 -378.999s158.833 -131 281.5 -131c91.333 0 172.166 25.5 242.499 76.5s130.166 127.5 179.499 229.5l82 -41c-59.333 -130 -139 -227 -239 -291
s-221.667 -96 -365 -96c-198.667 0 -355.834 58.5 -471.501 175.5s-173.5 276.167 -173.5 477.5c0 247.333 76.333 451.5 229 612.5s346 241.5 580 241.5c86 0 165.333 -14.667 238 -44s136.667 -72.666 192 -129.999z" />
    <glyph glyph-name="D" unicode="D" horiz-adv-x="1612" 
d="M674 1368l-205 -1261c12 -1.33301 29 -3 51 -5c49.333 -4 85 -6 107 -6c91.333 0 163 9.16699 215 27.5s99 49.5 141 93.5c60 62.667 108.5 155 145.5 277s55.5 254.333 55.5 397c0 162.667 -31 283.5 -93 362.5s-156.667 118.5 -284 118.5c-16 0 -47.667 -1 -95 -3
c-16 0 -28.667 -0.333008 -38 -1zM201 1470c74 -2 139.67 -3.5 197.003 -4.5s106.333 -1.5 147 -1.5c3.33301 0 39.166 1 107.499 3s135.5 3 201.5 3c219.333 0 388.833 -55.833 508.5 -167.5s179.5 -269.5 179.5 -473.5c0 -124 -21.167 -240.833 -63.5 -350.5
s-101.833 -201.5 -178.5 -275.5c-72 -70.667 -156.667 -122.167 -254 -154.5s-217.333 -48.5 -360 -48.5c-34.667 0 -88.5 1 -161.5 3s-128.5 3 -166.5 3c-26 0 -67.667 -0.5 -125 -1.5s-131.333 -2.5 -222 -4.5l-1 96c52.667 0 89.167 7.5 109.5 22.5
s35.166 50.5 44.499 106.5l158 975c3.33301 22 6.16602 42.5 8.49902 61.5s3.5 34.167 3.5 45.5c0 24 -9.5 40.833 -28.5 50.5s-53.833 14.5 -104.5 14.5v98z" />
    <glyph glyph-name="E" unicode="E" horiz-adv-x="1456" 
d="M201 1470l1128 -0.000976562v-415h-94v35c0 110.667 -17.833 185.334 -53.5 224.001s-106.5 58 -212.5 58h-295l-92 -563h84c99.333 0 166.166 14.333 200.499 43s57.5 84.667 69.5 168h88c-16.667 -83.333 -31.667 -170.333 -45 -261s-25 -188 -35 -292h-88l3 29
c3.33301 38 5 64.333 5 79c0 54.667 -11 91 -33 109s-71 27 -147 27h-119l-98 -613h324c86 0 148.5 4.66699 187.5 14s71.833 25.333 98.5 48c28.667 24 53.667 57 75 99s43.666 103 66.999 183h94c-17.333 -71.333 -33.666 -143.833 -48.999 -217.5
s-29.666 -148.5 -42.999 -224.5h-1221v98c57.333 0 96.666 7.33301 117.999 22s36.666 49.667 45.999 105l158 975c3.33301 22 6.16602 42.5 8.49902 61.5s3.5 34.167 3.5 45.5c0 24 -9.5 40.833 -28.5 50.5s-53.833 14.5 -104.5 14.5v98z" />
    <glyph glyph-name="F" unicode="F" horiz-adv-x="1305" 
d="M201 1470l1079 0.000976562l-2 -415h-94v35c0 110 -17.667 184.167 -53 222.5s-106.333 57.5 -213 57.5h-244l-92 -571h84c97.333 0 163.166 13.833 197.499 41.5s57.833 82.167 70.5 163.5h88c-16 -82 -30.5 -168.5 -43.5 -259.5s-24.5 -187.5 -34.5 -289.5h-88l3 30
c3.33301 39.333 5 66.666 5 81.999c0 53.333 -11.167 88.833 -33.5 106.5s-71.166 26.5 -146.499 26.5h-119l-69 -432c-4 -26 -7.16699 -48.167 -9.5 -66.5s-3.5 -32.166 -3.5 -41.499c0 -24.667 11 -41.834 33 -51.501s71 -15.167 147 -16.5v-92c-90 4 -163 6.66699 -219 8
s-104.333 2 -145 2c-28.667 0 -122 -3 -280 -9l-19 -1v92c56.667 1.33301 95.834 9.66602 117.501 24.999s37.167 51.333 46.5 108l158 975c3.33301 22 6.16602 42.5 8.49902 61.5s3.5 34.167 3.5 45.5c0 22.667 -8.5 38.834 -25.5 48.501s-46.833 14.5 -89.5 14.5h-18v100z
" />
    <glyph glyph-name="G" unicode="G" horiz-adv-x="1548" 
d="M1329 1303l35.002 86.001l84 -5c-13.333 -64.667 -26.166 -134.5 -38.499 -209.5s-25.5 -161.5 -39.5 -259.5l-90 1c2 20 3.16699 34.833 3.5 44.5s0.5 18.5 0.5 26.5c0 120.667 -29.167 215.667 -87.5 285s-137.833 104 -238.5 104
c-162.667 0 -292.334 -73.333 -389.001 -220s-145 -344.334 -145 -593.001c0 -158 28.5 -278.333 85.5 -361s139.833 -124 248.5 -124c42.667 0 83.167 7 121.5 21s77.5 36.333 117.5 67l29 180c2 12 3.5 23.333 4.5 34s1.5 20.667 1.5 30
c0 29.333 -9.33301 48.833 -28 58.5s-64.667 14.5 -138 14.5v94c71.333 -3.33301 131.833 -5.83301 181.5 -7.5s93.834 -2.5 132.501 -2.5c30.667 0 70 0.833008 118 2.5s112.333 4.16699 193 7.5v-94c-60 -2.66699 -99.5 -11.834 -118.5 -27.501
s-34.167 -60.167 -45.5 -133.5l-49 -322h-88l-10 104c-69.333 -40.667 -141.833 -71.167 -217.5 -91.5s-154.834 -30.5 -237.501 -30.5c-209.333 0 -372 56.333 -488 169s-174 271.334 -174 476.001c0 247.333 77.333 452.833 232 616.5s347.667 245.5 579 245.5
c97.333 0 183.666 -15.5 258.999 -46.5s140.666 -77.5 195.999 -139.5z" />
    <glyph glyph-name="H" unicode="H" horiz-adv-x="1698" 
d="M322 1201c3.33301 21.333 6.15918 41.8359 8.49219 61.5029s3.5 34.5 3.5 44.5c0 24 -9.16699 41 -27.5 51s-53.5 16 -105.5 18v94c76.667 -3.33301 139.334 -5.83301 188.001 -7.5s89.667 -2.5 123 -2.5c34.667 0 77 0.833008 127 2.5s114 4.16699 192 7.5v-94
c-66 -2.66699 -109.667 -11.5 -131 -26.5s-37 -52.5 -47 -112.5l-69 -424h559l61 387c4.66699 25.333 8.33398 47.833 11.001 67.5s4 32.834 4 39.501c0 24 -9.16699 41 -27.5 51s-53.5 16 -105.5 18v94c74.667 -3.33301 135.334 -5.83301 182.001 -7.5s86 -2.5 118 -2.5
c36 0 78.167 0.833008 126.5 2.5s108.166 4.16699 179.499 7.5l-1 -94c-53.333 -2 -90.166 -10.833 -110.499 -26.5s-35.166 -50.5 -44.499 -104.5l-156 -977c-4.66699 -26 -8.16699 -47.833 -10.5 -65.5s-3.5 -29.834 -3.5 -36.501c0 -25.333 9.16699 -43.333 27.5 -54
s53.5 -17.334 105.5 -20.001v-92c-85.333 4 -151.166 6.66699 -197.499 8s-84.166 2 -113.499 2c-30 0 -69.167 -0.666992 -117.5 -2s-115.5 -4 -201.5 -8v92c68 3.33301 112.5 12.833 133.5 28.5s36.5 52.5 46.5 110.5l77 482h-559l-71 -445
c-4 -26.667 -7.16699 -48.834 -9.5 -66.501s-3.5 -29.5 -3.5 -35.5c0 -25.333 9.33301 -43.333 28 -54s53.667 -17.334 105 -20.001v-92c-81.333 4 -144.833 6.66699 -190.5 8s-83.167 2 -112.5 2c-27.333 0 -63.166 -0.666992 -107.499 -2s-109.5 -4 -195.5 -8l1 92
c50.667 2 86.334 10.667 107.001 26s36 51 46 107z" />
    <glyph glyph-name="I" unicode="I" horiz-adv-x="817" 
d="M193 1470c78 -3.33301 142.002 -5.83398 192.002 -7.50098s92.333 -2.5 127 -2.5c34 0 75.167 0.833008 123.5 2.5s112.166 4.16699 191.499 7.5v-94c-60.667 -0.666992 -102.5 -9 -125.5 -25s-39.167 -54 -48.5 -114l-157 -969c-4.66699 -22.667 -8 -41.667 -10 -57
s-3 -27.666 -3 -36.999c0 -28.667 8.5 -48.5 25.5 -59.5s59.167 -18.5 126.5 -22.5l-1 -92c-86.667 4 -154.167 6.66699 -202.5 8s-87.833 2 -118.5 2c-29.333 0 -67.5 -0.666992 -114.5 -2s-116.5 -4 -208.5 -8v92c61.333 1.33301 103.333 10 126 26s38.667 53.667 48 113
l158 969c4 29.333 7 52 9 68s3 27.667 3 35c0 25.333 -9.33301 43.333 -28 54s-56.334 17 -113.001 19v94z" />
    <glyph glyph-name="J" unicode="J" horiz-adv-x="1034" 
d="M352 1470c92.667 -3.33301 166.664 -5.83105 221.997 -7.49805s101 -2.5 137 -2.5c30.667 0 71 0.833008 121 2.5l225 7.5v-93c-72 -2.66699 -119.167 -12.167 -141.5 -28.5s-38.166 -54.166 -47.499 -113.499l-137 -873c-21.333 -130 -45.166 -226.333 -71.499 -289
s-61.833 -118.334 -106.5 -167.001c-50.667 -54.667 -110 -96.334 -178 -125.001s-141 -43 -219 -43c-97.333 0 -177 23.667 -239 71s-93 107 -93 179c0 44 13.333 79.833 40 107.5s61 41.5 103 41.5c48 0 88.333 -18.333 121 -55s49 -82.334 49 -137.001
c0 -20 -3.66699 -49.333 -11 -88l-1 -6c10.667 -4 20.334 -6.83301 29.001 -8.5s16.667 -2.5 24 -2.5c51.333 0 92 25.333 122 76s55 138.667 75 264l162 1020c4 26.667 7.33301 49.667 10 69s4 31.333 4 36c0 26.667 -11.5 45.167 -34.5 55.5s-66.833 15.5 -131.5 15.5h-33
v94z" />
    <glyph glyph-name="K" unicode="K" horiz-adv-x="1475" 
d="M201 1470c76 -3.33301 137.996 -5.83398 185.996 -7.50098s89 -2.5 123 -2.5c32.667 0 72.334 0.833008 119.001 2.5s108.667 4.16699 186 7.5v-93c-58 -2.66699 -97.833 -12 -119.5 -28s-37.167 -53.333 -46.5 -112l-86 -524c181.333 174 315.833 310.833 403.5 410.5
s131.5 166.167 131.5 199.5c0 16.667 -7.66699 29.167 -23 37.5s-39.666 13.5 -72.999 15.5v94c20 -0.666992 48.667 -2 86 -4c68.667 -4 117.667 -6 147 -6c16 0 47.833 1.5 95.5 4.5s85.5 4.83301 113.5 5.5v-93c-2 0 -4.33301 0.166992 -7 0.5s-7.33398 0.5 -14.001 0.5
c-60 0 -177.667 -97.667 -353 -293l-198 -217c142.667 -198 274 -405.333 394 -622c12.667 -23.333 21.334 -39 26.001 -47c24 -42 49.333 -70.333 76 -85s65.667 -22 117 -22l-1 -92c-38.667 1.33301 -93.667 3.33301 -165 6s-119.666 4 -144.999 4
c-26.667 0 -78.667 -1.33301 -156 -4s-138.666 -4.66699 -183.999 -6v92c46 0 77.167 3.83301 93.5 11.5s24.5 20.834 24.5 39.501c0 27.333 -12.667 66 -38 116s-82.333 142.667 -171 278l-84 129l-118 -99l-49 -299c-4.66699 -28 -7.66699 -48.167 -9 -60.5
s-2 -22.833 -2 -31.5c0 -29.333 8.33301 -49.666 25 -60.999s58.334 -19 125.001 -23v-92c-91.333 4 -160.333 6.66699 -207 8s-85 2 -115 2s-68.5 -0.666992 -115.5 -2s-114.833 -4 -203.5 -8v92c61.333 1.33301 103.333 10 126 26s38.667 53.667 48 113l158 969
c3.33301 22 6.16602 42.5 8.49902 61.5s3.5 34.167 3.5 45.5c0 23.333 -9.33301 40.166 -28 50.499s-53.667 16.5 -105 18.5v94z" />
    <glyph glyph-name="L" unicode="L" horiz-adv-x="1323" 
d="M201 1470c74 -3.33301 135.5 -5.83008 184.5 -7.49707s91.167 -2.5 126.5 -2.5c36 0 79.5 0.833008 130.5 2.5s116.167 4.16699 195.5 7.5v-94c-70 -2.66699 -115.833 -11.834 -137.5 -27.501s-37.5 -52.834 -47.5 -111.501l-184 -1139h270
c87.333 0 150.5 4.66699 189.5 14s71.5 25.333 97.5 48c31.333 26.667 58 63 80 109s42.333 110 61 192h95c-17.333 -78 -40.333 -191.667 -69 -341l-24 -120h-1169v92c56.667 1.33301 95.834 9.66602 117.501 24.999s37.167 51.333 46.5 108l158 976
c3.33301 21.333 6.16602 41.833 8.49902 61.5s3.5 34.5 3.5 44.5c0 24 -9.16699 41 -27.5 51s-53.5 16 -105.5 18v94z" />
    <glyph glyph-name="M" unicode="M" horiz-adv-x="1892" 
d="M201 1470c61.333 -3.33301 114.166 -5.83105 158.499 -7.49805s84.166 -2.5 119.499 -2.5c17.333 0 41 0.666992 71 2s85.667 4 167 8l180 -993l506 993c6.66699 0 17 -0.333008 31 -1c101.333 -4.66699 173 -7 215 -7c36 0 100.333 2 193 6
c21.333 1.33301 37.333 2 48 2v-94h-10c-51.333 0 -87.5 -9 -108.5 -27s-36.833 -58 -47.5 -120l-149 -963c-4 -23.333 -7 -42.833 -9 -58.5s-3 -26.167 -3 -31.5c0 -32 9.33301 -53.667 28 -65s61.667 -17.666 129 -18.999v-92c-86.667 4 -154.167 6.66699 -202.5 8
s-87.833 2 -118.5 2c-30 0 -68.833 -0.666992 -116.5 -2s-118.834 -4 -213.501 -8v92c62 0 104.833 10.167 128.5 30.5s40.834 66.166 51.501 137.499l156 1000l-606 -1203l-137 -34l-224 1224l-192 -987c-4.66699 -21.333 -8.33398 -40 -11.001 -56s-4 -26 -4 -30
c0 -30 10.333 -50.833 31 -62.5s63 -18.167 127 -19.5v-92c-54 3.33301 -98.667 5.83301 -134 7.5s-65.666 2.5 -90.999 2.5c-15.333 0 -36.333 -0.666992 -63 -2s-74 -4 -142 -8v92c60.667 1.33301 102.834 11.666 126.501 30.999s42.834 66.333 57.501 141l185 940
c4 22 7.33301 42.667 10 62s4 33.666 4 42.999c0 22.667 -9.5 39 -28.5 49s-56.5 16 -112.5 18v94z" />
    <glyph glyph-name="N" unicode="N" horiz-adv-x="1599" 
d="M139 1470c55.333 -3.33301 100.667 -5.83301 136 -7.5s65.333 -2.5 90 -2.5c24 0 52.833 0.833008 86.5 2.5s77.167 4.16699 130.5 7.5l632 -1083l127 778c4.66699 24.667 8.33398 47 11.001 67s4 34 4 42c0 37.333 -11.167 63.333 -33.5 78s-64.5 23 -126.5 25v93
c48 -3.33301 90.667 -5.83301 128 -7.5s71 -2.5 101 -2.5c18.667 0 43.334 0.833008 74.001 2.5s73 4.16699 127 7.5v-93c-57.333 -1.33301 -98 -13.333 -122 -36s-42 -70.334 -54 -143.001l-197 -1186l-182 -22l-663 1145l-136 -832
c-0.666992 -7.33301 -2.33398 -18.333 -5.00098 -33c-6 -42 -9 -66.333 -9 -73c0 -38.667 11.167 -65.5 33.5 -80.5s63.5 -23.167 123.5 -24.5l1 -92c-59.333 4 -105.833 6.66699 -139.5 8s-63.167 2 -88.5 2c-16.667 0 -38.834 -0.666992 -66.501 -2s-72.167 -4 -133.5 -8
v92c58 1.33301 98.667 13.333 122 36s41.333 70 54 142l155 934c2.66699 15.333 4.83398 29.333 6.50098 42s2.5 23.334 2.5 32.001c0 36.667 -13.333 62.167 -40 76.5s-76.334 21.5 -149.001 21.5v94z" />
    <glyph glyph-name="O" unicode="O" horiz-adv-x="1597" 
d="M883 1487c190 0 345.335 -62.168 466.002 -186.501s181 -285.5 181 -483.5c0 -98 -14.667 -191.833 -44 -281.5s-72 -171.167 -128 -244.5c-76.667 -99.333 -169.834 -176 -279.501 -230s-226.834 -81 -351.501 -81c-195.333 0 -354 62 -476 186s-183 285.667 -183 485
c0 99.333 14.5 193.833 43.5 283.5s71.833 170.834 128.5 243.501c77.333 100 171 176.5 281 229.5s230.667 79.5 362 79.5zM881.002 1389c-62.667 0 -120.499 -18.667 -173.499 -56s-99.833 -92 -140.5 -164c-44.667 -81.333 -80.334 -180.5 -107.001 -297.5
s-40 -234.833 -40 -353.5c0 -142 25 -250.5 75 -325.5s122 -112.5 216 -112.5c61.333 0 118 17.167 170 51.5s98.333 85.5 139 153.5c49.333 81.333 88.333 182.833 117 304.5s43 248.167 43 379.5c0 134 -26.167 237.5 -78.5 310.5s-125.833 109.5 -220.5 109.5z" />
    <glyph glyph-name="P" unicode="P" horiz-adv-x="1386" 
d="M555 623l-58.999 -354.997c-4 -22 -7.16699 -42 -9.5 -60s-3.5 -32 -3.5 -42c0 -28.667 11.833 -48.167 35.5 -58.5s72.834 -15.5 147.501 -15.5l-1 -92c-84 3.33301 -153.667 5.83301 -209 7.5s-103 2.5 -143 2.5c-26.667 0 -62.334 -0.666992 -107.001 -2
s-113.334 -4 -206.001 -8v92c56.667 1.33301 95.834 9.66602 117.501 24.999s37.167 51.333 46.5 108l158 976c3.33301 21.333 6.16602 41.833 8.49902 61.5s3.5 34.5 3.5 44.5c0 23.333 -8.66699 40.166 -26 50.499s-53 18.166 -107 23.499v91c56 -2 104.667 -3.5 146 -4.5
s76 -1.5 104 -1.5c29.333 0 83.333 1.16699 162 3.5s142.667 3.5 192 3.5c178 0 313.333 -35.333 406 -106s139 -173.334 139 -308.001c0 -147.333 -51.167 -258.333 -153.5 -333s-254.833 -112 -457.5 -112c-32.667 0 -87.667 2.33301 -165 7
c-8 0.666992 -14.333 1.33398 -19 2.00098zM676.001 1380l-105 -653c6.66699 0 16.334 -0.333008 29.001 -1c32 -2 54 -3 66 -3c119.333 0 206.166 30.5 260.499 91.5s81.5 158.167 81.5 291.5c0 94.667 -21.5 164 -64.5 208s-110.5 66 -202.5 66h-45h-20z" />
    <glyph glyph-name="Q" unicode="Q" horiz-adv-x="1597" 
d="M1014 274c54.667 79.333 97.665 177.667 128.998 295s47 239 47 365c0 142 -26.167 252.833 -78.5 332.5s-124.5 119.5 -216.5 119.5c-73.333 0 -140.5 -23.5 -201.5 -70.5s-113.167 -116.167 -156.5 -207.5c-39.333 -82 -69.666 -172.167 -90.999 -270.5
s-32 -197.833 -32 -298.5c0 -37.333 2.83301 -73.333 8.5 -108s14.5 -69 26.5 -103c54 34 105.333 59.167 154 75.5s96 24.5 142 24.5c59.333 0 110.333 -12.333 153 -37s81.334 -63.667 116.001 -117zM845.998 102.001c-10.667 62.667 -32.001 108.832 -64.001 138.499
s-77 44.5 -135 44.5c-24 0 -49.333 -3.66699 -76 -11s-55.334 -18.666 -86.001 -33.999c21.333 -51.333 52.333 -90.5 93 -117.5s88.334 -40.5 143.001 -40.5c17.333 0 35.833 1.66699 55.5 5s42.834 8.33301 69.501 15zM1116 79.999
c16.667 -65.333 42.6709 -113.167 78.0039 -143.5s83 -45.5 143 -45.5c31.333 0 61.5 5 90.5 15s59.833 25.667 92.5 47v-86c-50.667 -40 -104.667 -70.833 -162 -92.5s-114 -32.5 -170 -32.5c-84.667 0 -156.334 22.333 -215.001 67s-96.334 105.667 -113.001 183
c-30.667 -3.33301 -59 -5.83301 -85 -7.5s-50.333 -2.5 -73 -2.5c-182.667 0 -333.667 63 -453 189s-179 286 -179 480c0 126 25.167 245.5 75.5 358.5s121.166 209.167 212.499 288.5c71.333 60.667 150.666 107 237.999 139s178.666 48 273.999 48
c194 0 351.5 -64.333 472.5 -193s181.5 -295.667 181.5 -501c0 -149.333 -35.667 -286 -107 -410s-171.666 -224.333 -300.999 -301z" />
    <glyph glyph-name="R" unicode="R" horiz-adv-x="1501" 
d="M674 1382l-96.001 -583c6 -0.666992 20.833 -1.83398 44.5 -3.50098s43.5 -2.5 59.5 -2.5c110 0 195.5 29.833 256.5 89.5s91.5 143.167 91.5 250.5c0 84.667 -21.667 147.334 -65 188.001s-109.666 61 -198.999 61h-55h-37zM202.999 1473
c58 -2.66699 111.338 -4.83203 160.005 -6.49902s88.667 -2.5 120 -2.5c60 0 134.167 1.5 222.5 4.5s146.833 4.5 175.5 4.5c163.333 0 285.666 -29.5 366.999 -88.5s122 -147.833 122 -266.5c0 -115.333 -41.167 -204.833 -123.5 -268.5s-202.833 -99.167 -361.5 -106.5
c110 -24.667 190 -62.167 240 -112.5s75 -118.5 75 -204.5c0 -28.667 -2.66699 -65.334 -8 -110.001s-8 -75 -8 -91c0 -30 6.66699 -53.5 20 -70.5s32 -25.5 56 -25.5c24.667 0 48.5 10 71.5 30s46.833 51 71.5 93l70 -45c-41.333 -74.667 -92.333 -131.167 -153 -169.5
s-129.334 -57.5 -206.001 -57.5c-80 0 -142.333 21 -187 63s-67 100.667 -67 176c0 28.667 5.16699 74.334 15.5 137.001s15.5 111.334 15.5 146.001c0 73.333 -20.5 124.333 -61.5 153s-115.5 43 -223.5 43h-43l-71 -429c-4 -24 -7.16699 -46.333 -9.5 -67
s-3.5 -33.334 -3.5 -38.001c0 -24.667 9.5 -42.167 28.5 -52.5s56.5 -16.833 112.5 -19.5v-92c-82.667 4 -147.834 6.66699 -195.501 8s-86.167 2 -115.5 2c-28.667 0 -65.167 -0.666992 -109.5 -2s-109.5 -4 -195.5 -8v92c56 1.33301 94.667 9.5 116 24.5
s36.666 51.167 45.999 108.5l158 976c3.33301 21.333 6.16602 41.833 8.49902 61.5s3.5 34.5 3.5 44.5c0 23.333 -8.5 40.166 -25.5 50.499s-52.833 18.833 -107.5 25.5v90z" />
    <glyph glyph-name="S" unicode="S" horiz-adv-x="1247" 
d="M1051 1356l32.001 70.999h82c-14 -66 -26.167 -134.5 -36.5 -205.5s-19.166 -147.167 -26.499 -228.5h-92v6c0 127.333 -26.5 224.166 -79.5 290.499s-130.5 99.5 -232.5 99.5c-72 0 -129.833 -20 -173.5 -60s-65.5 -92.667 -65.5 -158c0 -82 83 -172.667 249 -272
l53 -32c132 -80 223.167 -152.833 273.5 -218.5s75.5 -140.5 75.5 -224.5c0 -129.333 -48.833 -235.333 -146.5 -318s-223.5 -124 -377.5 -124c-82 0 -158.333 11.667 -229 35s-135 58.666 -193 105.999l-23 -84h-90c17.333 82 31.666 164.5 42.999 247.5
s19.666 166.5 24.999 250.5h94c-1.33301 -10 -2.33301 -20.667 -3 -32s-1 -27.333 -1 -48c0 -116.667 29.833 -209 89.5 -277s140.5 -102 242.5 -102c74 0 134.167 20.833 180.5 62.5s69.5 95.834 69.5 162.501c0 106 -88 213 -264 321l-58 35
c-122.667 76.667 -205.5 143.334 -248.5 200.001s-64.5 121.334 -64.5 194.001c0 125.333 46.5 229.333 139.5 312s212.167 124 357.5 124c72.667 0 141.5 -10.833 206.5 -32.5s128.833 -55.167 191.5 -100.5z" />
    <glyph glyph-name="T" unicode="T" horiz-adv-x="1442" 
d="M168 1479c45.333 -2.66699 89.833 -4.83203 133.5 -6.49902s86.5 -2.5 128.5 -2.5h840c38 0 74.833 0.833008 110.5 2.5s71.167 3.5 106.5 5.5c-2 -68 -3.5 -137.833 -4.5 -209.5s-1.5 -145.5 -1.5 -221.5h-82v30c0 110 -19.5 187.333 -58.5 232s-105.5 67 -199.5 67
h-162l-176 -1093c-6.66699 -38 -11.167 -65.167 -13.5 -81.5s-3.5 -26.833 -3.5 -31.5c0 -26.667 11.833 -46.334 35.5 -59.001s60.5 -19 110.5 -19h37l-1 -92c-91.333 4 -165.5 6.66699 -222.5 8s-106.167 2 -147.5 2c-28.667 0 -66.667 -0.666992 -114 -2s-120 -4 -218 -8
v92h31c56.667 0 97 8.5 121 25.5s40.333 53.5 49 109.5l188 1149h-155c-107.333 0 -187 -22.167 -239 -66.5s-90 -121.166 -114 -230.499h-84l28 105c34 125.333 59.667 223.666 77 294.999z" />
    <glyph glyph-name="U" unicode="U" horiz-adv-x="1599" 
d="M201 1470c76.667 -3.33301 139.338 -5.83594 188.005 -7.50293s89.667 -2.5 123 -2.5c34.667 0 77 0.833008 127 2.5s114 4.16699 192 7.5v-94c-66.667 -2.66699 -110.834 -11.667 -132.501 -27s-37.5 -52.666 -47.5 -111.999l-102 -629
c-12 -76.667 -19.833 -130.834 -23.5 -162.501s-5.5 -58.5 -5.5 -80.5c0 -87.333 25 -153.666 75 -198.999s122.667 -68 218 -68c76.667 0 143.167 15.5 199.5 46.5s101.166 76.5 134.499 136.5c38 66.667 73 204.334 105 413.001l3 22l76 484
c3.33301 18.667 5.83301 36.5 7.5 53.5s2.5 31.833 2.5 44.5c0 28.667 -8.33301 48.167 -25 58.5s-60.667 16.833 -132 19.5v94l142.5 -7.5c33 -1.66699 60.5 -2.5 82.5 -2.5c19.333 0 44.666 0.833008 75.999 2.5s75.666 4.16699 132.999 7.5v-93
c-62 -1.33301 -104.667 -10.666 -128 -27.999s-39.333 -54.666 -48 -111.999l-113 -698c-31.333 -194 -96.833 -335.333 -196.5 -424s-241.5 -133 -425.5 -133c-168.667 0 -296.5 32.833 -383.5 98.5s-130.5 161.834 -130.5 288.501c0 42 8.33301 115.333 25 220
c3.33301 19.333 5.66602 33.666 6.99902 42.999l95 569l3 21c7.33301 47.333 11 75.666 11 84.999c0 24 -8.83301 41 -26.5 51s-53.167 16 -106.5 18v94z" />
    <glyph glyph-name="V" unicode="V" horiz-adv-x="1356" 
d="M33 1470l197.998 -7.49902c45.333 -1.66699 82.333 -2.5 111 -2.5c36.667 0 81.334 0.833008 134.001 2.5s120 4.16699 202 7.5v-94c-53.333 0 -90.166 -6 -110.499 -18s-30.5 -33.333 -30.5 -64c0 -10.667 2.66699 -32 8 -64c2 -8.66699 3.33301 -15.334 4 -20.001
l176 -891l379 824c16.667 37.333 29.667 70.166 39 98.499s14 49.5 14 63.5c0 42 -48 65.667 -144 71h-1v94c50 -3.33301 91.333 -5.83301 124 -7.5s61 -2.5 85 -2.5c23.333 0 52.333 0.833008 87 2.5s78 4.16699 130 7.5l-1 -94
c-42.667 -2.66699 -76.167 -14.167 -100.5 -34.5s-55.5 -70.833 -93.5 -151.5l-561 -1184l-195 -24l-276 1245c-14.667 66.667 -33 107.334 -55 122.001s-63 24 -123 28v93z" />
    <glyph glyph-name="W" unicode="W" horiz-adv-x="2177" 
d="M37 1470l197.999 -7.49805c45.333 -1.66699 82.333 -2.5 111 -2.5c36.667 0 80.834 0.833008 132.501 2.5s118.834 4.16699 201.501 7.5v-94c-52.667 0 -89 -6 -109 -18s-30 -33.333 -30 -64c0 -10 0.833008 -21.833 2.5 -35.5s4.16699 -29.834 7.5 -48.501l168 -891
l373 842l-13 66c-10 61.333 -26.333 100.666 -49 117.999s-64 27.666 -124 30.999l-1 94l198.5 -7.5c45 -1.66699 81.833 -2.5 110.5 -2.5c37.333 0 82.333 0.833008 135 2.5s119.667 4.16699 201 7.5v-94c-52.667 0 -89.334 -6.16699 -110.001 -18.5
s-31 -34.166 -31 -65.499c0 -8 0.666992 -18 2 -30s4 -29.333 8 -52l129 -884l375 817c16.667 37.333 29.667 70.166 39 98.499s14 49.5 14 63.5c0 42 -47.667 65.667 -143 71h-2v94c50 -3.33301 91.333 -5.83301 124 -7.5s61 -2.5 85 -2.5
c23.333 0 51.833 0.833008 85.5 2.5s76.834 4.16699 129.5 7.5v-93c-41.333 -2.66699 -74.166 -14 -98.5 -34c-24.333 -20 -55.833 -71 -94.5 -153l-563 -1184l-192 -24l-185 1009l-446 -985l-193 -24l-270 1245c-14.667 66.667 -32.667 107.334 -54 122.001s-62 24 -122 28
v93z" />
    <glyph glyph-name="X" unicode="X" horiz-adv-x="1407" 
d="M111 1470c96.667 -4 168.332 -6.66406 214.999 -7.99707s84 -2 112 -2c33.333 0 75.5 0.833008 126.5 2.5s122.167 4.16699 213.5 7.5v-94h-18c-45.333 0 -77.5 -4.33301 -96.5 -13s-28.5 -22.667 -28.5 -42c0 -11.333 2.16699 -24.5 6.5 -39.5
s10.166 -30.5 17.499 -46.5l140 -299l250 307c14 18 23.5 32.667 28.5 44s7.5 22.666 7.5 33.999c0 18.667 -8.83301 32.834 -26.5 42.501s-43.5 14.5 -77.5 14.5h-10v92c52 -3.33301 94.5 -5.83301 127.5 -7.5s61.5 -2.5 85.5 -2.5c22.667 0 50.667 0.833008 84 2.5
s76.333 4.16699 129 7.5l-1 -94c-40 -1.33301 -77.167 -12.833 -111.5 -34.5s-79.5 -66.167 -135.5 -133.5l-305 -362l258 -549l22 -47c48 -105.333 115.667 -158 203 -158v-92c-104.667 4 -178.334 6.66699 -221.001 8s-75.334 2 -98.001 2
c-40 0 -87.667 -0.833008 -143 -2.5s-125 -4.16699 -209 -7.5l-1 92c46.667 0 80.167 4.33301 100.5 13s30.5 22.667 30.5 42c0 10.667 -2 23.667 -6 39s-10 32 -18 50l-162 360l-283 -371c-10.667 -14.667 -18 -26.834 -22 -36.501s-6 -19.834 -6 -30.501
c0 -18.667 8.83301 -33.334 26.5 -44.001s44.834 -18 81.501 -22v-92c-61.333 4 -108.166 6.66699 -140.499 8s-58.5 2 -78.5 2c-19.333 0 -44.166 -0.666992 -74.499 -2s-77.166 -4 -140.499 -8v92c71.333 2.66699 149 54.667 233 156l7 8l356 430l-217 488
c-38 83.333 -72.5 137.833 -103.5 163.5s-71.5 38.5 -121.5 38.5h-6v94z" />
    <glyph glyph-name="Y" unicode="Y" horiz-adv-x="1245" 
d="M-6 1470c94 -4 161.999 -6.66895 203.999 -8.00195s75.667 -2 101 -2c32.667 0 74.334 0.833008 125.001 2.5s119 4.16699 205 7.5v-94c-48.667 -4.66699 -80.334 -11.167 -95.001 -19.5s-22 -21.5 -22 -39.5c0 -8 2 -18.667 6 -32s10.333 -29.333 19 -48l213 -485
l282 489c8 14.667 14.5 29.334 19.5 44.001s7.5 26.667 7.5 36c0 18.667 -9.66699 32.334 -29 41.001s-52.666 13.667 -99.999 15v93c51.333 -3.33301 93.333 -5.83301 126 -7.5s60.334 -2.5 83.001 -2.5c21.333 0 47.666 0.833008 78.999 2.5s73 4.16699 125 7.5l2 -94
c-38 -2 -69.833 -11.833 -95.5 -29.5s-57.167 -56.834 -94.5 -117.501l-358 -580l-62 -381c-3.33301 -18.667 -5.83301 -36 -7.5 -52s-2.5 -30 -2.5 -42c0 -28.667 8.33301 -48.5 25 -59.5s58 -18.5 124 -22.5v-92c-86.667 4 -154.167 6.66699 -202.5 8s-87.833 2 -118.5 2
s-69.834 -0.666992 -117.501 -2s-116.5 -4 -206.5 -8l1 92c61.333 1.33301 103.333 10.333 126 27s38.334 54 47.001 112l64 383l-272 596c-29.333 62.667 -57.833 104.834 -85.5 126.501s-66.167 35.167 -115.5 40.5v93z" />
    <glyph glyph-name="Z" unicode="Z" horiz-adv-x="1432" 
d="M189 1485c56.667 -4.66699 116.335 -8.33301 179.002 -11s127.667 -4 195 -4h795l-918 -1368h371c140 0 237.667 23.5 293 70.5s95.666 136.833 120.999 269.5h88c-15.333 -76.667 -29.333 -152.667 -42 -228s-24 -150.666 -34 -225.999c-75.333 4 -145.333 7 -210 9
s-117 3 -157 3h-872l917 1368h-249c-170 0 -278.833 -20 -326.5 -60s-80.834 -116.333 -99.501 -229h-88c11.333 85.333 20 160.666 26 225.999s9.66699 125.333 11 180z" />
    <glyph glyph-name="bracketleft" unicode="[" horiz-adv-x="801" 
d="M838 1507l-15.001 -88c-31.333 -8.66699 -64 -15.167 -98 -19.5s-69.667 -6.5 -107 -6.5h-24l-293 -1688h18c27.333 0 56.5 -2 87.5 -6s64.833 -10 101.5 -18l-14 -87c-34 8.66699 -69.667 15 -107 19s-78.333 6 -123 6c-36 0 -67.5 -2 -94.5 -6s-53.5 -10.333 -79.5 -19
l328 1913c28.667 -8.66699 57.334 -15.167 86.001 -19.5s58 -6.5 88 -6.5c38 0 77 2.16699 117 6.5s83 10.833 129 19.5z" />
    <glyph glyph-name="backslash" unicode="\" horiz-adv-x="696" 
d="M72 1489h137l453 -1679h-138z" />
    <glyph glyph-name="bracketright" unicode="]" horiz-adv-x="801" 
d="M236 1511c35.333 -10 72.165 -17.5 110.498 -22.5s77.833 -7.5 118.5 -7.5c34 0 64.833 2.5 92.5 7.5s54.834 12.5 81.501 22.5l-328 -1921c-28 10 -56.333 17.333 -85 22s-58.334 7 -89.001 7c-40 0 -80.167 -2.33301 -120.5 -7s-82.166 -12 -125.499 -22l17 91
c28.667 8.66699 58.5 15.167 89.5 19.5s63.833 6.5 98.5 6.5h39l293 1688h-14c-25.333 0 -53.166 2 -83.499 6s-66.833 10.667 -109.5 20z" />
    <glyph glyph-name="asciicircum" unicode="^" horiz-adv-x="2048" 
d="M905 1462h236l491 -565h-112l-498 373l-498 -373h-112z" />
    <glyph glyph-name="underscore" unicode="_" 
d="M0 -279h1024v-204h-1024v204z" />
    <glyph glyph-name="grave" unicode="`" 
d="M561 1436l248.001 -314h-104l-273 185c-24 16.667 -42 33.167 -54 49.5s-18 33.166 -18 50.499c0 26.667 9.16699 49.334 27.5 68.001s40.166 28 65.499 28c18.667 0 37 -5.5 55 -16.5s35.667 -27.833 53 -50.5z" />
    <glyph glyph-name="a" unicode="a" horiz-adv-x="1253" 
d="M770 762c-4 52 -17.165 92 -39.498 120s-52.166 42 -89.499 42c-38.667 0 -75.834 -16.833 -111.501 -50.5s-68.834 -83.167 -99.501 -148.5c-32.667 -68.667 -58.5 -141 -77.5 -217s-28.5 -143.667 -28.5 -203c0 -54 8 -93.833 24 -119.5s41.333 -38.5 76 -38.5
c44 0 96.667 35.5 158 106.5s100.666 143.5 117.999 217.5zM811.002 889l39.002 121h264l-176 -729c-6 -22 -10.167 -40.333 -12.5 -55s-3.5 -27.334 -3.5 -38.001c0 -19.333 4.83301 -34.666 14.5 -45.999s22.5 -17 38.5 -17c25.333 0 51 13.833 77 41.5
s51.333 68.5 76 122.5l64 -29c-42 -92.667 -92.5 -162.167 -151.5 -208.5s-126.5 -69.5 -202.5 -69.5c-60.667 0 -106.667 14.167 -138 42.5s-47 70.166 -47 125.499c0 12.667 1 28.334 3 47.001s5.33301 39.667 10 63c-54.667 -89.333 -116.834 -158 -186.501 -206
s-141.5 -72 -215.5 -72c-76.667 0 -136.834 26.667 -180.501 80s-65.5 127.666 -65.5 222.999c0 84 15.333 169.167 46 255.5s73.667 164.833 129 235.5c57.333 74.667 120.833 132.334 190.5 173.001s139.167 61 208.5 61c54.667 0 100 -10 136 -30s63.667 -50.333 83 -91z
" />
    <glyph glyph-name="b" unicode="b" horiz-adv-x="1184" 
d="M338 188c-2 -10.667 -3.5 -19 -4.5 -25s-1.5 -10.333 -1.5 -13c0 -24.667 9.16699 -44.5 27.5 -59.5s42.5 -22.5 72.5 -22.5c56 0 105.167 18.667 147.5 56s84.166 99 125.499 185c34 74 60.833 148.833 80.5 224.5s29.5 140.167 29.5 193.5
c0 46.667 -7.66699 80.167 -23 100.5s-40.333 30.5 -75 30.5c-46 0 -97.667 -35.5 -155 -106.5s-113.666 -169.833 -168.999 -296.5zM602 1522l-169.998 -827.999c53.333 100 113.5 176.167 180.5 228.5s137.167 78.5 210.5 78.5c89.333 0 158.5 -28.667 207.5 -86
s73.5 -138.333 73.5 -243c0 -84.667 -14.333 -166.5 -43 -245.5s-70.334 -151.5 -125.001 -217.5c-63.333 -76 -133.5 -132.833 -210.5 -170.5s-160.5 -56.5 -250.5 -56.5c-43.333 0 -85 5.16699 -125 15.5s-80.333 26.166 -121 47.499l-186 -55l-61 30
c20.667 33.333 38 68.833 52 106.5s26.667 85.5 38 143.5l190 971c4.66699 24 8.16699 46.167 10.5 66.5s3.5 36.5 3.5 48.5c0 45.333 -39.333 70 -118 74c-9.33301 0.666992 -17 1.33398 -23 2.00098l15 79c10 0 24.333 -0.333008 43 -1c68.667 -2 115.667 -3 141 -3
c35.333 0 74.166 1.16699 116.499 3.5s92.833 6.16602 151.5 11.499z" />
    <glyph glyph-name="c" unicode="c" horiz-adv-x="1067" 
d="M895 319l61.002 -40.001c-44.667 -99.333 -106.5 -173.666 -185.5 -222.999s-175.5 -74 -289.5 -74c-140.667 0 -250.5 36.167 -329.5 108.5s-118.5 173.166 -118.5 302.499c0 170.667 59.667 316.167 179 436.5s263.666 180.5 432.999 180.5
c106.667 0 192 -23.833 256 -71.5s96 -109.834 96 -186.501c0 -44 -11.833 -79.667 -35.5 -107s-54.167 -41 -91.5 -41c-36.667 0 -65.834 12.333 -87.501 37s-32.5 57.334 -32.5 98.001c0 20 2 43.833 6 71.5s6 44.834 6 51.501c0 18.667 -9 33.334 -27 44.001
s-42.333 16 -73 16c-88 0 -162.333 -52.167 -223 -156.5s-91 -233.166 -91 -386.499c0 -94.667 20.5 -167.834 61.5 -219.501s98.5 -77.5 172.5 -77.5c62 0 121 21.167 177 63.5s101.333 100.166 136 173.499z" />
    <glyph glyph-name="d" unicode="d" horiz-adv-x="1257" 
d="M764 717c-7.33301 44.667 -22.5 79.0029 -45.5 103.003s-52.833 36 -89.5 36s-71.334 -12.5 -104.001 -37.5s-62.334 -61.5 -89.001 -109.5c-32.667 -58.667 -59.5 -126.334 -80.5 -203.001s-31.5 -144.334 -31.5 -203.001c0 -52.667 9.33301 -92.834 28 -120.501
s46 -41.5 82 -41.5c46.667 0 98.834 33 156.501 99s94.834 136.333 111.501 211zM1231 1522l-281 -1256c-3.33301 -13.333 -5.83301 -25.833 -7.5 -37.5s-2.5 -21.5 -2.5 -29.5c0 -24.667 5 -43.834 15 -57.501s23.333 -20.5 40 -20.5c24 0 49 13.833 75 41.5
s53.667 70.5 83 128.5l61 -31c-48 -98 -100.5 -168.833 -157.5 -212.5s-125.167 -65.5 -204.5 -65.5c-58 0 -102.5 14.5 -133.5 43.5s-46.5 70.5 -46.5 124.5c0 17.333 1.16699 34.833 3.5 52.5s5.83301 36.167 10.5 55.5c-56.667 -90.667 -119 -159.334 -187 -206.001
s-139.333 -70 -214 -70c-83.333 0 -148.666 27.167 -195.999 81.5s-71 129.5 -71 225.5c0 78 14.5 158 43.5 240s69.167 157.667 120.5 227c55.333 73.333 116 129.5 182 168.5s133 58.5 201 58.5c56 0 102.167 -11 138.5 -33s66.166 -56.667 89.499 -104l90 395
c5.33301 22 9.33301 43 12 63s4 37.333 4 52c0 47.333 -44 72.333 -132 75c-9.33301 0 -16.666 0.333008 -21.999 1l15 79c11.333 0 27.333 -0.333008 48 -1c70.667 -2 118.667 -3 144 -3c31.333 0 68.166 1.16699 110.499 3.5s98.5 6.16602 168.5 11.499z" />
    <glyph glyph-name="e" unicode="e" horiz-adv-x="1051" 
d="M362 487c-7.33301 -36 -12.832 -70.832 -16.499 -104.499s-5.5 -64.834 -5.5 -93.501c0 -66.667 13 -116.167 39 -148.5s66.333 -48.5 121 -48.5c62.667 0 122.334 19.833 179.001 59.5s104.667 95.5 144 167.5l60 -40c-50 -97.333 -114.833 -171.5 -194.5 -222.5
s-169.834 -76.5 -270.501 -76.5c-118.667 0 -212.834 35.667 -282.501 107s-104.5 168 -104.5 290c0 175.333 62.667 325 188 449s280.333 186 465 186c94.667 0 168.167 -18.5 220.5 -55.5s78.5 -88.167 78.5 -153.5c0 -98.667 -53.833 -176 -161.5 -232
s-257.167 -84 -448.5 -84h-11zM377.001 570.001c115.333 2.66699 202.167 24.333 260.5 65s87.5 100 87.5 178c0 33.333 -8.83301 59.5 -26.5 78.5s-42.167 28.5 -73.5 28.5c-58.667 0 -108.167 -28.5 -148.5 -85.5s-73.5 -145.167 -99.5 -264.5z" />
    <glyph glyph-name="f" unicode="f" horiz-adv-x="758" 
d="M537 922h246.998l-16 -95h-246l-61 -383c-32 -203.333 -61 -363.833 -87 -481.5s-54.333 -221.167 -85 -310.5l-305 -88c33.333 96 65.5 216 96.5 360s64.167 329.667 99.5 557l56 346h-199l16 95h197c18.667 188.667 73.834 336.167 165.501 442.5
s208.5 159.5 350.5 159.5c88.667 0 159.334 -20.333 212.001 -61s79 -94 79 -160c0 -43.333 -11.833 -78.5 -35.5 -105.5s-54.167 -40.5 -91.5 -40.5c-38 0 -68.667 12 -92 36s-35 55.667 -35 95c0 20.667 3.33301 42.667 10 66s10 36.333 10 39c0 11.333 -6 21.333 -18 30
s-26.333 13 -43 13c-56.667 0 -100 -30 -130 -90s-61.667 -201.333 -95 -424z" />
    <glyph glyph-name="g" unicode="g" horiz-adv-x="1151" 
d="M737 772c-6.66699 40 -20.834 71.167 -42.501 93.5s-48.5 33.5 -80.5 33.5c-36 0 -70.5 -13.5 -103.5 -40.5s-62.5 -66.167 -88.5 -117.5c-29.333 -56 -53 -122 -71 -198s-27 -146.333 -27 -211c0 -49.333 8.83301 -87.333 26.5 -114s42.834 -40 75.501 -40
c47.333 0 98.333 33 153 99s89 136 103 210zM762 897l24.0029 94.0029h281c-36 -167.333 -74.833 -368.833 -116.5 -604.5s-71.167 -382.834 -88.5 -441.501c-38 -132 -106.333 -234.667 -205 -308s-217.334 -110 -356.001 -110c-112 0 -201.5 22.333 -268.5 67
s-100.5 103.667 -100.5 177c0 40 12.833 73.833 38.5 101.5s56.5 41.5 92.5 41.5c33.333 0 60.166 -11 80.499 -33s30.5 -50.667 30.5 -86c0 -18.667 -4.83301 -41.334 -14.5 -68.001s-14.5 -44.334 -14.5 -53.001c0 -16.667 12.667 -31 38 -43s57.333 -18 96 -18
c91.333 0 163.666 44.5 216.999 133.5s103 256.833 149 503.5c-53.333 -77.333 -109.666 -135 -168.999 -173s-123 -57 -191 -57c-82 0 -146.167 28.333 -192.5 85s-69.5 134.334 -69.5 233.001c0 76.667 14 156.667 42 240s65.667 157.666 113 222.999
c49.333 67.333 105.666 119 168.999 155s130 54 200 54c46.667 0 87.667 -9.33301 123 -28s66 -47 92 -85z" />
    <glyph glyph-name="h" unicode="h" horiz-adv-x="1268" 
d="M627 1522l-176.002 -829.998c72 107.333 141.667 185 209 233s139.666 72 216.999 72c63.333 0 113.5 -17.667 150.5 -53s55.5 -83 55.5 -143c0 -23.333 -2.83301 -49.833 -8.5 -79.5s-14.167 -63.167 -25.5 -100.5l-115 -357
c-7.33301 -24 -12.666 -43.833 -15.999 -59.5s-5 -28.5 -5 -38.5c0 -18 5 -32 15 -42s23.667 -15 41 -15c26.667 0 55.167 15.667 85.5 47s60.5 76.333 90.5 135l59 -31c-46.667 -96.667 -98.667 -167.167 -156 -211.5s-124.666 -66.5 -201.999 -66.5
c-70 0 -125 16.667 -165 50s-60 78.666 -60 135.999c0 14.667 1.83301 31.667 5.5 51s9.16699 40.666 16.5 63.999l123 383c9.33301 28.667 16.5 54.5 21.5 77.5s7.5 42.167 7.5 57.5c0 18.667 -4.5 32.834 -13.5 42.501s-22.5 14.5 -40.5 14.5
c-50.667 0 -114.5 -49.333 -191.5 -148s-127.833 -204.334 -152.5 -317.001l-84 -393h-278l254 1241c5.33301 26.667 9 48.5 11 65.5s3 32.833 3 47.5c0 46.667 -40 72 -120 76c-10 0.666992 -17.667 1.33398 -23 2.00098l14 79c10 0 24.667 -0.333008 44 -1
c68.667 -2 115.334 -3 140.001 -3c34 0 71.5 1.16699 112.5 3.5s93.167 6.16602 156.5 11.499z" />
    <glyph glyph-name="i" unicode="i" horiz-adv-x="743" 
d="M463 1475c43.333 0 79.332 -12.999 107.999 -38.999s43 -59 43 -99c0 -50.667 -19.5 -94.667 -58.5 -132s-84.167 -56 -135.5 -56c-33.333 0 -62.5 14.167 -87.5 42.5s-37.5 61.166 -37.5 98.499c0 54 15.833 98.333 47.5 133s71.834 52 120.501 52zM546.999 680.001
l-127.002 -428.001c-4 -13.333 -7 -26.166 -9 -38.499s-3 -24.166 -3 -35.499c0 -23.333 4.5 -40.666 13.5 -51.999s22.833 -17 41.5 -17c26.667 0 54.667 15.333 84 46s59.333 76 90 136l61 -31c-47.333 -96 -100.5 -166.333 -159.5 -211s-127.833 -67 -206.5 -67
c-66 0 -118.667 17 -158 51s-59 79.667 -59 137c0 15.333 1.66699 32.666 5 51.999s8.33301 39.666 15 60.999l135 456c2.66699 9.33301 4.83398 19.333 6.50098 30s2.5 22 2.5 34c0 23.333 -4.5 40.666 -13.5 51.999s-22.5 17 -40.5 17c-24 0 -50.667 -14.167 -80 -42.5
s-60 -69.833 -92 -124.5l-59 36c42.667 81.333 96.334 144.333 161.001 189s133 67 205 67c66 0 117.667 -15.833 155 -47.5s56 -75.167 56 -130.5c0 -17.333 -2 -37.666 -6 -60.999s-10 -49.333 -18 -78z" />
    <glyph glyph-name="j" unicode="j" horiz-adv-x="725" 
d="M463 1475c43.333 0 79.332 -12.999 107.999 -38.999s43 -59 43 -99c0 -50.667 -19.5 -94.667 -58.5 -132s-84.167 -56 -135.5 -56c-33.333 0 -62.5 14.167 -87.5 42.5s-37.5 61.166 -37.5 98.499c0 54 15.833 98.333 47.5 133s71.834 52 120.501 52zM570.999 680.001
l-138.999 -639c-21.333 -94.667 -43.666 -166.334 -66.999 -215.001s-54.333 -93 -93 -133c-50.667 -53.333 -108.334 -94.666 -173.001 -123.999s-129 -44 -193 -44c-75.333 0 -137.166 19.667 -185.499 59s-72.5 89.333 -72.5 150c0 34.667 12 64.5 36 89.5
s53.667 37.5 89 37.5c38 0 69.333 -15.167 94 -45.5s37 -69.166 37 -116.499c0 -7.33301 -1.66699 -22.333 -5 -45c-1.33301 -10.667 -2.33301 -19.667 -3 -27c8 -6 15.333 -10.167 22 -12.5s13.667 -3.5 21 -3.5c69.333 0 133.666 131.333 192.999 394l3 13l168 746
c1.33301 6.66699 2.33301 13.5 3 20.5s1 13.833 1 20.5c0 24.667 -4.83301 43.167 -14.5 55.5s-24.5 18.5 -44.5 18.5c-27.333 0 -56.5 -15.5 -87.5 -46.5s-60.5 -74.5 -88.5 -130.5l-60 37c44 86 96.667 150.5 158 193.5s131 64.5 209 64.5
c67.333 0 119.666 -16.333 156.999 -49s56 -78.334 56 -137.001c0 -25.333 -6 -65 -18 -119c-1.33301 -6 -2.33301 -10 -3 -12z" />
    <glyph glyph-name="k" unicode="k" horiz-adv-x="1255" 
d="M621 1522l-193.005 -946.994c74 141.333 152.833 249.166 236.5 323.499s168.167 111.5 253.5 111.5c53.333 0 97 -14.667 131 -44s51 -67.333 51 -114c0 -73.333 -40.667 -144.5 -122 -213.5s-189 -122.833 -323 -161.5
c80.667 -6.66699 137.334 -19.834 170.001 -39.501s56.667 -53.5 72 -101.5c6.66699 -22 13 -54.667 19 -98c9.33301 -80.667 35 -121 77 -121c27.333 0 52.833 13 76.5 39s49.5 70.333 77.5 133l59 -31c-42 -97.333 -89.167 -168 -141.5 -212s-115.833 -66 -190.5 -66
c-79.333 0 -138.666 22.667 -177.999 68s-59 114.666 -59 207.999c0 11.333 0.333008 25.166 1 41.499s1 27.166 1 32.499c0 39.333 -6.83301 68.666 -20.5 87.999s-36.167 31 -67.5 35l14 65c92 21.333 162.5 54.333 211.5 99s73.5 97.667 73.5 159
c0 28.667 -5.16699 49.5 -15.5 62.5s-27.166 19.5 -50.499 19.5c-24.667 0 -51 -9.83301 -79 -29.5s-58.333 -50.167 -91 -91.5c-58.667 -72.667 -112.167 -155.667 -160.5 -249s-77.166 -164.666 -86.499 -213.999l-56 -274h-282l254 1241c5.33301 26.667 9 48.5 11 65.5
s3 32.833 3 47.5c0 48 -42.667 73.667 -128 77c-6 0 -10.333 0.333008 -13 1l14 79c10.667 0 26.334 -0.333008 47.001 -1c66 -2 111 -3 135 -3c34 0 71.5 1.16699 112.5 3.5s93.167 6.16602 156.5 11.499z" />
    <glyph glyph-name="l" unicode="l" horiz-adv-x="696" 
d="M647 1522l-269.996 -1253l-2 -10c-8.66699 -44 -13 -71.667 -13 -83c0 -19.333 5.33301 -35 16 -47s24.667 -18 42 -18c25.333 0 52.833 15.667 82.5 47s59.5 76.333 89.5 135l61 -31c-48.667 -97.333 -101 -168.333 -157 -213s-120.333 -67 -193 -67
c-70.667 0 -125.834 16.667 -165.501 50s-59.5 80 -59.5 140c0 12.667 1.16699 27.334 3.5 44.001s7.16602 41 14.499 73l205 954c4.66699 20.667 8.16699 40.5 10.5 59.5s3.5 36.833 3.5 53.5c0 45.333 -38 70 -114 74c-12.667 0.666992 -22.334 1.33398 -29.001 2.00098
l16 81c21.333 0 53.166 -1 95.499 -3s72.833 -3 91.5 -3c30 0 65.167 1.16699 105.5 3.5s95.833 6.16602 166.5 11.499z" />
    <glyph glyph-name="m" unicode="m" horiz-adv-x="1915" 
d="M508 659c76.667 119.333 150.167 205.5 220.5 258.5s144.833 79.5 223.5 79.5c52.667 0 94.5 -13.5 125.5 -40.5s46.5 -63.167 46.5 -108.5c0 -19.333 -2.33301 -41.666 -7 -66.999s-12.334 -57 -23.001 -95c77.333 112 149.333 191.833 216 239.5s138.667 71.5 216 71.5
c63.333 0 113.666 -17.667 150.999 -53s56 -83 56 -143c0 -23.333 -2.83301 -49.833 -8.5 -79.5s-14.5 -63.167 -26.5 -100.5l-115 -357c-7.33301 -24.667 -12.5 -44.5 -15.5 -59.5s-4.5 -27.833 -4.5 -38.5c0 -17.333 5.16699 -31.166 15.5 -41.499
s24.166 -15.5 41.499 -15.5c26 0 54 15.5 84 46.5s60 76.167 90 135.5l61 -31c-48 -96.667 -100.667 -167.167 -158 -211.5s-124.666 -66.5 -201.999 -66.5c-69.333 0 -123.833 16.333 -163.5 49s-59.5 77.667 -59.5 135c0 18.667 1.66699 37.667 5 57s8.33301 39.333 15 60
l123 383c9.33301 28.667 16.5 54.5 21.5 77.5s7.5 42.167 7.5 57.5c0 18.667 -4.5 32.834 -13.5 42.501s-22.167 14.5 -39.5 14.5c-51.333 0 -115.166 -48.833 -191.499 -146.5s-127.166 -203.834 -152.499 -318.501l-86 -393h-289l168 689
c6 25.333 10.5 46.666 13.5 63.999s4.5 31.333 4.5 42c0 21.333 -3.66699 37.166 -11 47.499s-18.666 15.5 -33.999 15.5c-48.667 0 -110.5 -49 -185.5 -147s-125.167 -204 -150.5 -318l-88 -393h-289l162 727c3.33301 15.333 5.83301 29.833 7.5 43.5s2.5 26.5 2.5 38.5
c0 21.333 -4.33301 38 -13 50s-20.667 18 -36 18c-28 0 -57.667 -13.833 -89 -41.5s-64.333 -69.834 -99 -126.501l-58 39c49.333 84.667 104.5 147.334 165.5 188.001s130.167 61 207.5 61c61.333 0 108.166 -13.5 140.499 -40.5s48.5 -66.5 48.5 -118.5
c0 -16 -2.33301 -37.167 -7 -63.5s-12.667 -64.833 -24 -115.5z" />
    <glyph glyph-name="n" unicode="n" horiz-adv-x="1341" 
d="M508 659c76.667 120 150.165 206.332 220.498 258.999s145.5 79 225.5 79c63.333 0 114 -17.833 152 -53.5s57 -83.167 57 -142.5c0 -22 -2.83301 -47.167 -8.5 -75.5s-15.167 -63.166 -28.5 -104.499l-112 -356l-2 -7c-14 -46 -21 -76.667 -21 -92
c0 -17.333 5.33301 -31.166 16 -41.499s24.667 -15.5 42 -15.5c26 0 54 15.5 84 46.5s60 76.167 90 135.5l61 -31c-48.667 -98 -101.167 -168.833 -157.5 -212.5s-123.166 -65.5 -200.499 -65.5c-70 0 -125.167 16.667 -165.5 50s-60.5 78.666 -60.5 135.999
c0 16.667 1.83301 34.667 5.5 54s8.83398 39.666 15.501 60.999l123 383c11.333 34.667 19.166 62.334 23.499 83.001s6.5 38 6.5 52c0 18.667 -4.33301 32.834 -13 42.501s-22 14.5 -40 14.5c-51.333 0 -115.166 -48.833 -191.499 -146.5
s-127.166 -203.834 -152.499 -318.501l-88 -393h-289l162 727c3.33301 15.333 5.83301 29.833 7.5 43.5s2.5 26.5 2.5 38.5c0 21.333 -4.33301 38 -13 50s-20.667 18 -36 18c-28 0 -57.667 -13.833 -89 -41.5s-64.333 -69.834 -99 -126.501l-58 39
c49.333 84.667 104.5 147.334 165.5 188.001s130.167 61 207.5 61c61.333 0 108.166 -13.5 140.499 -40.5s48.5 -66.5 48.5 -118.5c0 -16 -2.33301 -37.167 -7 -63.5s-12.667 -64.833 -24 -115.5z" />
    <glyph glyph-name="o" unicode="o" horiz-adv-x="1157" 
d="M631 1010c133.333 0 239.333 -39.501 318 -118.501s118 -184.5 118 -316.5c0 -163.333 -58.167 -303 -174.5 -419s-257.5 -174 -423.5 -174c-130.667 0 -236 39.833 -316 119.5s-120 184.5 -120 314.5c0 158.667 59.167 297.334 177.5 416.001s258.5 178 420.5 178z
M770 730.999c0 64 -10.833 112.499 -32.5 145.499s-53.834 49.5 -96.501 49.5c-42 0 -80.5 -16 -115.5 -48s-66.167 -80.333 -93.5 -145c-31.333 -72.667 -56.166 -151.5 -74.499 -236.5s-27.5 -163.167 -27.5 -234.5c0 -61.333 12.333 -108.666 37 -141.999
s59.334 -50 104.001 -50c38 0 74.167 16.5 108.5 49.5s65.166 80.5 92.499 142.5c29.333 68 53 145.333 71 232s27 165.667 27 237z" />
    <glyph glyph-name="p" unicode="p" horiz-adv-x="1264" 
d="M449 217c10 -30 27.168 -53.835 51.501 -71.502s52.166 -26.5 83.499 -26.5c35.333 0 68.5 12.333 99.5 37s58.5 60.667 82.5 108c31.333 60.667 57.166 131.834 77.499 213.501s30.5 153.834 30.5 216.501c0 48.667 -8.83301 86.5 -26.5 113.5s-42.167 40.5 -73.5 40.5
c-43.333 0 -86.166 -24.5 -128.499 -73.5s-86.833 -126.167 -133.5 -231.5zM522.001 716.998c47.333 91.333 103.167 161.17 167.5 209.503s133.5 72.5 207.5 72.5c87.333 0 155.666 -29.333 204.999 -88s74 -140.334 74 -245.001
c0 -184.667 -49.667 -341.834 -149 -471.501s-219.666 -194.5 -360.999 -194.5c-50 0 -94.333 10.167 -133 30.5s-73 51.166 -103 92.499l-72 -367c-4 -22.667 -6.66699 -38.334 -8 -47.001s-2 -15.334 -2 -20.001c0 -28.667 8.66699 -47.834 26 -57.501
s62.333 -15.167 135 -16.5l-13 -82c-13.333 0.666992 -32 1.33398 -56 2.00098c-120.667 4 -204 6 -250 6c-37.333 0 -106.666 -1.66699 -207.999 -5l-72 -3l14 82h23c64.667 0 104.667 41 120 123c1.33301 6.66699 2.33301 11.334 3 14.001l190 979c4 20.667 7 39 9 55
s3 28.333 3 37c0 21.333 -4.33301 37.333 -13 48s-21.334 16 -38.001 16c-24 0 -52.5 -14.833 -85.5 -44.5s-67.167 -71.5 -102.5 -125.5l-53 41c54.667 86 113.667 149.5 177 190.5s134 61.5 212 61.5c57.333 0 100.333 -14.333 129 -43s43 -71.667 43 -129
c0 -8.66699 -1.5 -22.667 -4.5 -42s-7.83301 -45.666 -14.5 -78.999z" />
    <glyph glyph-name="q" unicode="q" horiz-adv-x="1151" 
d="M752 760c-6 42 -20.666 75.333 -43.999 100s-51 37 -83 37c-38 0 -73.833 -13.667 -107.5 -41s-64.167 -67 -91.5 -119c-30.667 -58 -55.334 -124.833 -74.001 -200.5s-28 -145.834 -28 -210.501c0 -49.333 9.5 -87.666 28.5 -114.999s45.5 -41 79.5 -41
c48.667 0 100.5 32.333 155.5 97s90.5 136 106.5 214zM827.001 834c34.667 18.667 66.168 41.665 94.501 68.998s54.833 59.333 79.5 96h86l-256 -1228c0 -1.33301 -0.333008 -3.66602 -1 -6.99902c-4.66699 -28.667 -7 -49 -7 -61c0 -29.333 7.66699 -50.5 23 -63.5
s41.666 -21.167 78.999 -24.5l-16 -82c-12.667 0.666992 -30.667 1.33398 -54 2.00098c-113.333 4 -192.333 6 -237 6c-46 0 -125.333 -2 -238 -6c-21.333 -0.666992 -37.333 -1.33398 -48 -2.00098l17 82c69.333 2.66699 115.5 12.334 138.5 29.001s39.5 48.667 49.5 96
l102 489c-53.333 -77.333 -109.166 -134.833 -167.499 -172.5s-120.5 -56.5 -186.5 -56.5c-81.333 -0 -145 28.833 -191 86.5s-69 137.5 -69 239.5c0 77.333 13.5 157.5 40.5 240.5s63.833 156.833 110.5 221.5c50 69.333 107 121.833 171 157.5s132.667 53.5 206 53.5
c64.667 0 120.167 -14 166.5 -42s82.166 -69 107.499 -123z" />
    <glyph glyph-name="r" unicode="r" horiz-adv-x="977" 
d="M500 684c44.667 100 95.499 176.834 152.499 230.501s115.167 80.5 174.5 80.5c54 0 96.167 -15 126.5 -45s45.5 -71.667 45.5 -125c0 -48.667 -13 -88.5 -39 -119.5s-60 -46.5 -102 -46.5c-34.667 0 -63.5 11.167 -86.5 33.5s-34.5 49.5 -34.5 81.5
c0 6.66699 0.333008 15.5 1 26.5s1 18.5 1 22.5c0 11.333 -1.16699 18.666 -3.5 21.999s-7.16602 5 -14.499 5c-39.333 0 -82.5 -42.833 -129.5 -128.5s-85.167 -195.167 -114.5 -328.5l-88 -393h-289l162 727c3.33301 15.333 5.83301 29.833 7.5 43.5s2.5 26.5 2.5 38.5
c0 21.333 -4.33301 38 -13 50s-20.667 18 -36 18c-28 0 -57.667 -13.833 -89 -41.5s-64.333 -69.834 -99 -126.501l-58 39c49.333 84 104.5 146.5 165.5 187.5s130.167 61.5 207.5 61.5c60 0 104.333 -13 133 -39s43 -66 43 -120c0 -12.667 -2.33301 -32.667 -7 -60
s-11 -58.666 -19 -93.999z" />
    <glyph glyph-name="s" unicode="s" horiz-adv-x="930" 
d="M647 877c-18 16 -38.833 28.1689 -62.5 36.502s-49.834 12.5 -78.501 12.5c-49.333 0 -88 -11.833 -116 -35.5s-42 -56.167 -42 -97.5c0 -58 48.667 -110 146 -156l31 -15c95.333 -46 162 -92.167 200 -138.5s57 -103.166 57 -170.499c0 -100.667 -37 -181 -111 -241
s-173.333 -90 -298 -90c-111.333 0 -201 22.5 -269 67.5s-102 103.5 -102 175.5c0 41.333 11.5 75.333 34.5 102s52.5 40 88.5 40c32.667 0 59.334 -10.5 80.001 -31.5s31 -48.167 31 -81.5c0 -20.667 -5.5 -43.167 -16.5 -67.5s-16.5 -38.833 -16.5 -43.5
c0 -20 15.667 -37.833 47 -53.5s69.666 -23.5 114.999 -23.5c53.333 0 96 12.667 128 38s48 59.666 48 102.999c0 61.333 -52 117 -156 167c-17.333 8.66699 -30.333 15 -39 19c-86 42 -147.5 85.333 -184.5 130s-55.5 97.667 -55.5 159c0 99.333 36 179.166 108 239.499
s168 90.5 288 90.5c103.333 0 187.5 -21.167 252.5 -63.5s97.5 -96.5 97.5 -162.5c0 -36.667 -10.667 -66.167 -32 -88.5s-49.666 -33.5 -84.999 -33.5c-34 0 -61.5 10 -82.5 30s-31.5 46.667 -31.5 80c0 13.333 2.16699 28.666 6.5 45.999s10.833 36.333 19.5 57z" />
    <glyph glyph-name="t" unicode="t" horiz-adv-x="797" 
d="M311 1268l281.002 0.00195312l-70 -350h248l-14 -93h-254l-119 -581c-2.66699 -12.667 -4.66699 -24.334 -6 -35.001s-2 -19.667 -2 -27c0 -26.667 6.83301 -47.334 20.5 -62.001s33.5 -22 59.5 -22c38 0 74.167 16.667 108.5 50s69.833 86.333 106.5 159l59 -35
c-46.667 -102 -101.334 -176.667 -164.001 -224s-139 -71 -229 -71c-78.667 0 -139.334 17.667 -182.001 53s-64 85.333 -64 150c0 13.333 1.16699 28.833 3.5 46.5s5.83301 37.5 10.5 59.5l113 539h-186l16 93h191z" />
    <glyph glyph-name="u" unicode="u" horiz-adv-x="1343" 
d="M557 698l-122.994 -385.002c-10 -32.667 -17.167 -59.5 -21.5 -80.5s-6.5 -39.167 -6.5 -54.5c0 -19.333 4.16699 -33.666 12.5 -42.999s21.166 -14 38.499 -14c51.333 0 115.166 48.833 191.499 146.5s127.166 203.834 152.499 318.501l88 393h289l-160 -727
c-4 -20 -7 -36.667 -9 -50s-3 -24 -3 -32c0 -20 4.5 -36.333 13.5 -49s20.833 -19 35.5 -19c28 0 57.667 13.833 89 41.5s64.333 69.834 99 126.501l57 -39c-48.667 -84.667 -103.5 -147.334 -164.5 -188.001s-130.167 -61 -207.5 -61
c-61.333 0 -108.166 13.5 -140.499 40.5s-48.5 66.5 -48.5 118.5c0 17.333 2.16699 38.833 6.5 64.5s12.5 63.5 24.5 113.5c-75.333 -118.667 -148.333 -204.5 -219 -257.5s-146.334 -79.5 -227.001 -79.5c-62.667 0 -112.834 18 -150.501 54s-56.5 84 -56.5 144
c0 23.333 2.66699 48.833 8 76.5s14.333 61.5 27 101.5l112 358c1.33301 4 2.66602 8.66699 3.99902 14c12.667 40.667 19 68.334 19 83.001c0 17.333 -4.83301 31.166 -14.5 41.499s-22.834 15.5 -39.501 15.5c-25.333 0 -53.5 -16 -84.5 -48s-61.5 -76.667 -91.5 -134
l-63 33c50 95.333 103.833 165.166 161.5 209.499s123.834 66.5 198.501 66.5c70 0 124.833 -16.333 164.5 -49s59.5 -77.667 59.5 -135c0 -16.667 -1.83301 -34.667 -5.5 -54s-8.83398 -39.666 -15.501 -60.999z" />
    <glyph glyph-name="v" unicode="v" horiz-adv-x="1116" 
d="M596 1008l63.0029 -17.0029c-67.333 -183.333 -116.5 -332.333 -147.5 -447s-46.5 -205.334 -46.5 -272.001c0 -52.667 9.33301 -91.334 28 -116.001s48.334 -37 89.001 -37c47.333 0 95.166 22.167 143.499 66.5s91.166 105.5 128.499 183.5
c22.667 46.667 41 96.334 55 149.001s21 94.334 21 125.001c0 8.66699 -18.167 39.334 -54.5 92.001s-54.5 102 -54.5 148c0 32 9.5 58.333 28.5 79s43.167 31 72.5 31c37.333 0 65.666 -17.333 84.999 -52s29 -85.667 29 -153c0 -81.333 -14.167 -170.166 -42.5 -266.499
s-66.5 -184.833 -114.5 -265.5c-52 -85.333 -114.333 -152.333 -187 -201s-146.334 -73 -221.001 -73c-91.333 0 -163.333 27 -216 81s-79 128.667 -79 224s27.333 189.833 82 283.5s148.334 203.834 281.001 330.501c-50.667 -31.333 -97.5 -54.833 -140.5 -70.5
s-82.833 -23.5 -119.5 -23.5c-18 0 -42.5 4.5 -73.5 13.5s-53.833 13.5 -68.5 13.5c-24.667 0 -47.5 -8.33301 -68.5 -25s-43.833 -44.667 -68.5 -84l-53 41c47.333 80.667 92.166 138.667 134.499 174s87.5 53 135.5 53c24.667 0 65.667 -6.83301 123 -20.5
s101.666 -20.5 132.999 -20.5c24.667 0 46.834 4.5 66.501 13.5s38.5 23.167 56.5 42.5z" />
    <glyph glyph-name="w" unicode="w" horiz-adv-x="1663" 
d="M596 1008l62.9951 -17c-67.333 -183.333 -116.5 -334.166 -147.5 -452.499s-46.5 -214.5 -46.5 -288.5c0 -38.667 6.5 -67.167 19.5 -85.5s33.167 -27.5 60.5 -27.5c58 0 118.833 62.333 182.5 187s120.834 296 171.501 514l31 137h248
c-50 -196 -85.167 -344.833 -105.5 -446.5s-30.5 -176.834 -30.5 -225.501c0 -56 9 -97.667 27 -125s45.333 -41 82 -41c42.667 0 86.834 24 132.501 72s86.834 114.333 123.501 199c20 46 36.333 92.333 49 139s19 79.334 19 98.001c0 8 -17.167 38 -51.5 90
s-51.5 99.333 -51.5 142c0 34.667 9.33301 62.667 28 84s43 32 73 32c36 0 63.667 -15.167 83 -45.5s29 -73.833 29 -130.5c0 -74.667 -12.667 -159.334 -38 -254.001s-59 -182 -101 -262c-53.333 -100 -118.666 -178.5 -195.999 -235.5s-156 -85.5 -236 -85.5
c-62.667 0 -111.5 18 -146.5 54s-52.5 86.667 -52.5 152c0 30.667 3 64.5 9 101.5s15.333 77.833 28 122.5c-62 -152 -126.167 -261.667 -192.5 -329s-141.5 -101 -225.5 -101c-77.333 0 -139.666 27 -186.999 81s-71 125 -71 213c0 98 27.833 195.5 83.5 292.5
s148.834 208.5 279.501 334.5c-50.667 -31.333 -97.5 -54.833 -140.5 -70.5s-82.833 -23.5 -119.5 -23.5c-18 0 -42.5 4.5 -73.5 13.5s-53.833 13.5 -68.5 13.5c-24.667 0 -47.5 -8.33301 -68.5 -25s-43.833 -44.667 -68.5 -84l-53 41
c47.333 80.667 92.166 138.667 134.499 174s87.5 53 135.5 53c24.667 0 65.667 -6.83301 123 -20.5s101.666 -20.5 132.999 -20.5c24.667 0 46.834 4.5 66.501 13.5s38.5 23.167 56.5 42.5z" />
    <glyph glyph-name="x" unicode="x" horiz-adv-x="1223" 
d="M694 655c64 118.667 124.165 206.502 180.498 263.502s110.833 85.5 163.5 85.5c36.667 0 64.667 -11.667 84 -35s29 -56.333 29 -99c0 -16 -2 -43.667 -6 -83c-2 -20 -3.33301 -35 -4 -45h-70c2 16 3.5 30.667 4.5 44s1.5 24.333 1.5 33c0 30 -5.5 51.833 -16.5 65.5
s-28.5 20.5 -52.5 20.5c-32.667 0 -67.834 -20.833 -105.501 -62.5s-98.167 -132.167 -181.5 -271.5l9 -54c42.667 -260 95 -390 157 -390c28 0 56 14 84 42s56.667 70.667 86 128l51 -39c-45.333 -91.333 -99.5 -160.5 -162.5 -207.5s-132.5 -70.5 -208.5 -70.5
c-75.333 0 -133.666 29.167 -174.999 87.5s-71.666 155.833 -90.999 292.5c-73.333 -120 -143.833 -212.333 -211.5 -277s-128.167 -97 -181.5 -97c-28 0 -50 9.16699 -66 27.5s-24 43.833 -24 76.5c0 24 3.83301 53.167 11.5 87.5s19.5 74.833 35.5 121.5h67
c-10 -36 -17.5 -67.333 -22.5 -94s-7.5 -47.334 -7.5 -62.001c0 -13.333 3.83301 -24.5 11.5 -33.5s18.167 -13.5 31.5 -13.5c32.667 0 79 30.5 139 91.5s122.667 143.167 188 246.5l-11 86c-30.667 239.333 -78 359 -142 359c-27.333 0 -55.666 -12 -84.999 -36
s-59 -59.333 -89 -106l-56 37c47.333 74 104.666 131.167 171.999 171.5s139 60.5 215 60.5c80.667 0 139.834 -26.333 177.501 -79s61.167 -143.334 70.5 -272.001z" />
    <glyph glyph-name="y" unicode="y" horiz-adv-x="1251" 
d="M549 688l-75.999 -262.001c-0.666992 -3.33301 -2.33398 -9 -5.00098 -17c-20 -70.667 -30 -121 -30 -151c0 -20.667 4 -35.667 12 -45s20.333 -14 37 -14c43.333 0 100.333 46.5 171 139.5s117.667 189.833 141 290.5l82 350h284l-164 -750
c-58 -264.667 -134.833 -447.834 -230.5 -549.501s-230.834 -152.5 -405.501 -152.5c-103.333 0 -188.666 21.333 -255.999 64s-101 95 -101 157c0 31.333 11.5 57.666 34.5 78.999s51.167 32 84.5 32c44 0 79.167 -14.167 105.5 -42.5s39.5 -66.166 39.5 -113.499
c0 -7.33301 -0.5 -15.333 -1.5 -24s-2.83301 -21.334 -5.5 -38.001c14 -9.33301 29.333 -16.333 46 -21s34.667 -7 54 -7c87.333 0 157.666 48.833 210.999 146.5s106.333 288.5 159 572.5c-64 -103.333 -130 -180.666 -198 -231.999s-137.667 -77 -209 -77
c-60 0 -106.167 16.667 -138.5 50s-48.5 81.333 -48.5 144c0 20.667 2.83301 46.5 8.5 77.5s13.834 65.167 24.501 102.5l92 315c6 22.667 10.667 42.334 14 59.001s5 30 5 40c0 18.667 -5.16699 33.167 -15.5 43.5s-24.5 15.5 -42.5 15.5c-26 0 -53.667 -15.167 -83 -45.5
s-59 -75.166 -89 -134.499l-61 31c46.667 96 98.667 166.333 156 211s124.666 67 201.999 67c70 0 124.333 -16 163 -48s58 -76.667 58 -134c0 -13.333 -1.66699 -29.5 -5 -48.5s-9.66602 -45.833 -18.999 -80.5z" />
    <glyph glyph-name="z" unicode="z" horiz-adv-x="1006" 
d="M856 1006l47.0039 -37c-86.667 -136 -216.5 -285.167 -389.5 -447.5s-280.833 -272.833 -323.5 -331.5c41.333 28.667 77.166 49.167 107.499 61.5s59.5 18.5 87.5 18.5c40.667 0 102 -11.167 184 -33.5s142.333 -33.5 181 -33.5c32 0 55.667 10.5 71 31.5
s25 57.5 29 109.5l61 -8c-7.33301 -126.667 -27.833 -217.667 -61.5 -273s-84.834 -83 -153.501 -83c-44.667 0 -127 16.667 -247 50s-211.667 50 -275 50c-27.333 0 -51.5 -6.83301 -72.5 -20.5s-41.167 -35.5 -60.5 -65.5l-47 45
c79.333 148.667 211.666 312.5 396.999 491.5s297.333 290.167 336 333.5c-54.667 -34 -100.834 -58.5 -138.501 -73.5s-71.5 -22.5 -101.5 -22.5c-30.667 0 -73.667 5.16699 -129 15.5s-94 15.5 -116 15.5c-30 0 -55.5 -7.83301 -76.5 -23.5s-44.167 -44.834 -69.5 -87.501
l-53 31c42.667 96.667 89.5 169.334 140.5 218.001s105.833 73 164.5 73c25.333 0 80.5 -7.83301 165.5 -23.5s156.167 -23.5 213.5 -23.5c33.333 0 59.833 3.33301 79.5 10s36.167 17.667 49.5 33z" />
    <glyph glyph-name="braceleft" unicode="{" 
d="M852 1516v-61c-80.667 -2 -135.667 -20.333 -165 -55s-44 -104.667 -44 -210v-133c0 -150 -17.833 -252.333 -53.5 -307s-101.167 -93 -196.5 -115c95.333 -21.333 160.833 -59 196.5 -113s53.5 -156.333 53.5 -307v-135c0 -105.333 14.667 -175.333 44 -210
s84.333 -53 165 -55v-59c-156.667 0 -263.5 24.167 -320.5 72.5s-85.5 139.5 -85.5 273.5v193c0 110 -18.667 185.5 -56 226.5s-108 66.5 -212 76.5v76c104 10 174.667 35.5 212 76.5s56 116.5 56 226.5v192c0 134 28.5 225.333 85.5 274s163.833 73 320.5 73z" />
    <glyph glyph-name="bar" unicode="|" 
d="M410 1565h206v-2048h-206v2048z" />
    <glyph glyph-name="braceright" unicode="}" 
d="M172 1516c157.333 0 264.668 -24.332 322.001 -72.999s86 -140 86 -274v-192c0 -110 18.667 -185.5 56 -226.5s108 -66.5 212 -76.5v-76c-104 -10 -174.667 -35.5 -212 -76.5s-56 -116.5 -56 -226.5v-193c0 -132 -28.333 -222.667 -85 -272s-160.334 -74 -311.001 -74
h-12v59c79.333 1.33301 134 19.666 164 54.999s45 105.333 45 210v135c0 150.667 17.833 253 53.5 307s101.167 91.667 196.5 113c-95.333 22 -160.833 60.333 -196.5 115s-53.5 157 -53.5 307v133c0 104 -15 173.833 -45 209.5s-84.667 54.167 -164 55.5v61z" />
    <glyph glyph-name="asciitilde" unicode="~" horiz-adv-x="1706" 
d="M1530 803l0.00390625 -221c-69.333 -47.333 -134.833 -82.166 -196.5 -104.499s-122.5 -33.5 -182.5 -33.5c-30.667 0 -61.334 2.66699 -92.001 8s-61.334 13 -92.001 23c-16 5.33301 -39.667 13.666 -71 24.999c-146 50 -257 75 -333 75
c-56.667 0 -115.834 -12.5 -177.501 -37.5s-130.834 -64.833 -207.501 -119.5v221c71.333 48 139.333 83.833 204 107.5s125.667 35.5 183 35.5c78 0 175 -19.333 291 -58l4 -1l55 -19c103.333 -36.667 183.333 -55 240 -55s115 12.333 175 37s126.667 63.667 200 117z" />
    <glyph glyph-name="Euro" horiz-adv-x="1266" 
d="M1145 1280l29 83.9971l81 -4c-8.66699 -58.667 -20.5 -132.167 -35.5 -220.5s-24.167 -143.166 -27.5 -164.499h-88c0.666992 7.33301 1.16699 14.833 1.5 22.5s0.5 19.167 0.5 34.5c0 101.333 -23.667 180.333 -71 237s-113 85 -197 85c-86 0 -158 -36.333 -216 -109
s-103.667 -184 -137 -334h519l-31 -88h-506c-6 -28.667 -11.167 -60.5 -15.5 -95.5s-7.83301 -74.833 -10.5 -119.5h452l-33 -88h-422v-20c0 -128 26.5 -229.667 79.5 -305s124.167 -113 213.5 -113c74 0 139.833 27 197.5 81s105.167 132.667 142.5 236l80 -41
c-46.667 -126 -110.667 -220.167 -192 -282.5s-181.333 -93.5 -300 -93.5c-152 0 -275.333 48.333 -370 145s-146 227.667 -154 393h-168l33 88l135 1c1.33301 36.667 4 72.834 8 108.501s9.66699 70.834 17 105.501h-154l33 88h141c49.333 165.333 129 296.5 239 393.5
s233 145.5 369 145.5c73.333 0 139.833 -14.333 199.5 -43s112.167 -71 157.5 -127z" />
    <glyph glyph-name="Euro" unicode="&#x20ac;" horiz-adv-x="1266" 
d="M1145 1280l29 83.9971l81 -4c-8.66699 -58.667 -20.5 -132.167 -35.5 -220.5s-24.167 -143.166 -27.5 -164.499h-88c0.666992 7.33301 1.16699 14.833 1.5 22.5s0.5 19.167 0.5 34.5c0 101.333 -23.667 180.333 -71 237s-113 85 -197 85c-86 0 -158 -36.333 -216 -109
s-103.667 -184 -137 -334h519l-31 -88h-506c-6 -28.667 -11.167 -60.5 -15.5 -95.5s-7.83301 -74.833 -10.5 -119.5h452l-33 -88h-422v-20c0 -128 26.5 -229.667 79.5 -305s124.167 -113 213.5 -113c74 0 139.833 27 197.5 81s105.167 132.667 142.5 236l80 -41
c-46.667 -126 -110.667 -220.167 -192 -282.5s-181.333 -93.5 -300 -93.5c-152 0 -275.333 48.333 -370 145s-146 227.667 -154 393h-168l33 88l135 1c1.33301 36.667 4 72.834 8 108.501s9.66699 70.834 17 105.501h-154l33 88h141c49.333 165.333 129 296.5 239 393.5
s233 145.5 369 145.5c73.333 0 139.833 -14.333 199.5 -43s112.167 -71 157.5 -127z" />
    <glyph glyph-name="nonbreakingspace" unicode="&#xa0;" horiz-adv-x="1266" 
 />
    <glyph glyph-name="exclamdown" unicode="&#xa1;" horiz-adv-x="731" 
d="M371 1065l87.998 -13.9971c-5.33301 -100.667 -10 -234 -14 -400c-7.33301 -288.667 -26 -466 -56 -532c-17.333 -35.333 -40.166 -64.833 -68.499 -88.5s-58.166 -37.834 -89.499 -42.501c-34 17.333 -60.833 45.166 -80.5 83.499s-29.5 82.166 -29.5 131.499
c0 54 36.333 192.333 109 415c60 181.333 107 330.333 141 447zM445.998 1489c45.333 0 83.332 -15.668 113.999 -47.001s46 -70.333 46 -117c0 -41.333 -15.833 -77.666 -47.5 -108.999s-69.167 -47 -112.5 -47s-80.666 15.833 -111.999 47.5s-47 69.167 -47 112.5
c0 44.667 15.5 82.5 46.5 113.5s68.5 46.5 112.5 46.5z" />
    <glyph glyph-name="cent" unicode="&#xa2;" horiz-adv-x="1266" 
d="M778 913c-7.33301 3.33301 -15 5.66602 -23 6.99902s-16.667 2 -26 2c-86 0 -159.667 -50.167 -221 -150.5s-92 -222.166 -92 -365.499c0 -44 2.66699 -79.333 8 -106s14.333 -49.667 27 -69zM946 1251l101 -0.00195312l-134 -276
c51.333 -22.667 91.833 -54.167 121.5 -94.5s44.5 -83.166 44.5 -128.499c0 -41.333 -12.167 -76.333 -36.5 -105s-53.833 -43 -88.5 -43c-30 0 -54.5 10 -73.5 30s-28.5 46.333 -28.5 79c0 18 4.83301 39.5 14.5 64.5s14.5 40.833 14.5 47.5c0 8.66699 -1.5 17 -4.5 25
s-7.16699 15.333 -12.5 22l-352 -722c22 -21.333 45.833 -37 71.5 -47s55.167 -15 88.5 -15c59.333 0 115 19.833 167 59.5s96.667 96.167 134 169.5l61 -41c-50.667 -100 -115.167 -174.833 -193.5 -224.5s-170.833 -74.5 -277.5 -74.5
c-24.667 0.666992 -48.167 2.16699 -70.5 4.5s-43.833 5.83301 -64.5 10.5l-127 -260h-100l143 286c-72.667 33.333 -129 81.833 -169 145.5s-60 136.834 -60 219.501c0 174 61 322 183 444s269.667 183 443 183c12 0 25 -0.666992 39 -2l43 -4z" />
    <glyph glyph-name="sterling" unicode="&#xa3;" horiz-adv-x="1266" 
d="M272 190c-26 10 -47.998 17 -65.998 21s-34 6 -48 6c-32.667 0 -60.334 -8 -83.001 -24s-34 -34.667 -34 -56c0 -14.667 6.16699 -27.167 18.5 -37.5s27.166 -15.5 44.499 -15.5c32 0 62.5 9.16699 91.5 27.5s54.5 44.5 76.5 78.5zM1044 1139
c-4.66699 60 -27.3359 108.332 -68.0029 144.999s-91.667 55 -153 55c-79.333 0 -141.833 -25.667 -187.5 -77s-68.5 -122.333 -68.5 -213c0 -28 3.83301 -79 11.5 -153s12.167 -134.333 13.5 -181h328l-31 -86l-295 -1c-1.33301 -62 -10 -118.5 -26 -169.5
s-40 -99.5 -72 -145.5c38 -10.667 90.667 -27 158 -49c127.333 -40.667 215.333 -61 264 -61c46 0 85.167 8.66699 117.5 26s64.833 47.333 97.5 90l67 -45c-50.667 -102 -106.334 -176.167 -167.001 -222.5s-132 -69.5 -214 -69.5c-62 0 -130.167 12.833 -204.5 38.5
s-154.166 63.834 -239.499 114.501c-51.333 -55.333 -98.166 -94.666 -140.499 -117.999s-87.166 -35 -134.499 -35c-43.333 0 -78.666 13.5 -105.999 40.5s-41 61.833 -41 104.5c0 64.667 28.833 116.667 86.5 156s134.5 59 230.5 59c4 0 10.5 -0.333008 19.5 -1
s15.5 -1 19.5 -1c3.33301 24 5.83301 46.5 7.5 67.5s2.5 41.5 2.5 61.5c0 22 -1 45.5 -3 70.5s-5.66699 54.833 -11 89.5h-229l33 86h180c-8 33.333 -13.833 63.666 -17.5 90.999s-5.5 52.333 -5.5 75c0 169.333 47.5 305.833 142.5 409.5s218.167 155.5 369.5 155.5
c114.667 0 208.167 -31.833 280.5 -95.5s108.5 -144.5 108.5 -242.5c0 -66.667 -17.333 -123 -52 -169s-76.667 -69 -126 -69c-32.667 0 -60 10.5 -82 31.5s-33 46.833 -33 77.5c0 42 15.333 77.5 46 106.5s72 46.833 124 53.5z" />
    <glyph glyph-name="currency" unicode="&#xa4;" horiz-adv-x="1266" 
d="M1145 1280l29 83.9971l81 -4c-8.66699 -58.667 -20.5 -132.167 -35.5 -220.5s-24.167 -143.166 -27.5 -164.499h-88c0.666992 7.33301 1.16699 14.833 1.5 22.5s0.5 19.167 0.5 34.5c0 101.333 -23.667 180.333 -71 237s-113 85 -197 85c-86 0 -158 -36.333 -216 -109
s-103.667 -184 -137 -334h519l-31 -88h-506c-6 -28.667 -11.167 -60.5 -15.5 -95.5s-7.83301 -74.833 -10.5 -119.5h452l-33 -88h-422v-20c0 -128 26.5 -229.667 79.5 -305s124.167 -113 213.5 -113c74 0 139.833 27 197.5 81s105.167 132.667 142.5 236l80 -41
c-46.667 -126 -110.667 -220.167 -192 -282.5s-181.333 -93.5 -300 -93.5c-152 0 -275.333 48.333 -370 145s-146 227.667 -154 393h-168l33 88l135 1c1.33301 36.667 4 72.834 8 108.501s9.66699 70.834 17 105.501h-154l33 88h141c49.333 165.333 129 296.5 239 393.5
s233 145.5 369 145.5c73.333 0 139.833 -14.333 199.5 -43s112.167 -71 157.5 -127z" />
    <glyph glyph-name="yen" unicode="&#xa5;" horiz-adv-x="1266" 
d="M18 1431c71.333 -3.33301 130.168 -5.83398 176.501 -7.50098s86.5 -2.5 120.5 -2.5c34.667 0 76.5 0.833008 125.5 2.5s110.5 4.16699 184.5 7.5v-92c-50.667 -4.66699 -82.834 -11 -96.501 -19s-20.5 -20.667 -20.5 -38c0 -8.66699 2.16699 -20 6.5 -34
s10.166 -30 17.499 -48l209 -479l279 483c8.66699 15.333 15.334 30 20.001 44s7 26 7 36c-0.666992 18.667 -9.33398 32 -26.001 40s-50.334 13 -101.001 15v93c52.667 -4 94.667 -6.83301 126 -8.5s58 -2.5 80 -2.5c20.667 0 46.334 0.833008 77.001 2.5
s70.667 4.16699 120 7.5l2 -91c-40.667 -4 -73.5 -15 -98.5 -33s-54.833 -55.667 -89.5 -113l-121 -197h241l-14 -88h-280l-129 -217h374l-16 -88h-404l-55 -338c-1.33301 -8 -3 -18.667 -5 -32c-4.66699 -29.333 -7 -48.666 -7 -57.999c0 -30.667 8.5 -51.667 25.5 -63
s58.167 -18.333 123.5 -21v-92c-81.333 3.33301 -148.166 5.83301 -200.499 7.5s-97.166 2.5 -134.499 2.5c-18 0 -44.667 -0.666992 -80 -2s-100.333 -4 -195 -8v92c60 0 102.333 9.33301 127 28s41.667 55 51 109l58 316l-19 59h-452l14 88h401l-98 217h-266l16 88h207
l-82 179c-28.667 62 -56.834 103.667 -84.501 125s-65.5 34 -113.5 38z" />
    <glyph glyph-name="brokenbar" unicode="&#xa6;" 
d="M410 408h206v-758h-206v758zM410 1432h206v-758h-206v758z" />
    <glyph glyph-name="section" unicode="&#xa7;" horiz-adv-x="1100" 
d="M406 911c-18 -20 -31.168 -42 -39.501 -66s-12.5 -51 -12.5 -81c0 -42 8.5 -85.333 25.5 -130s42.833 -91.334 77.5 -140.001l225 -316c18.667 22 32.167 44.333 40.5 67s12.5 48.334 12.5 77.001c0 42.667 -8.66699 87.5 -26 134.5s-42.666 93.5 -75.999 139.5z
M816.999 1339c-10 22 -27 39.1641 -51 51.4971s-52 18.5 -84 18.5c-46.667 0 -84.667 -13.667 -114 -41s-44 -62.666 -44 -105.999c0 -28 6.33301 -58.667 19 -92s30.334 -66.333 53.001 -99l219 -307c28.667 -40.667 51.167 -86.5 67.5 -137.5s24.5 -101.5 24.5 -151.5
c0 -67.333 -15.833 -131.333 -47.5 -192s-77.167 -114 -136.5 -160c20.667 -36 35.667 -69.833 45 -101.5s14 -63.5 14 -95.5c0 -98 -33.5 -177.833 -100.5 -239.5s-154.167 -92.5 -261.5 -92.5c-89.333 0 -164.333 24.333 -225 73s-91 107 -91 175
c0 42.667 12.333 78 37 106s55.334 42 92.001 42c31.333 0 57 -9.66699 77 -29s30 -44 30 -74c0 -24 -6.66699 -46.833 -20 -68.5s-35.333 -45.167 -66 -70.5c12.667 -23.333 31.167 -41.166 55.5 -53.499s52.833 -18.5 85.5 -18.5c50 0 90.167 13.667 120.5 41
s45.5 63.666 45.5 108.999c0 26.667 -6.33301 56.334 -19 89.001s-31 65 -55 97l-217 305c-29.333 41.333 -52 87.833 -68 139.5s-24 104.834 -24 159.501c0 62.667 16.333 124.167 49 184.5s77.667 112.833 135 157.5c-20.667 38.667 -36 75 -46 109s-15 66.667 -15 98
c0 94.667 34.167 172.667 102.5 234s155.166 92 260.499 92c85.333 0 157.166 -24 215.499 -72s87.5 -106.667 87.5 -176c0 -41.333 -12.5 -75.833 -37.5 -103.5s-55.5 -41.5 -91.5 -41.5c-31.333 0 -57 9.33301 -77 28s-30 42.667 -30 72c0 25.333 7 49.5 21 72.5
s35.667 45.833 65 68.5z" />
    <glyph glyph-name="dieresis" unicode="&#xa8;" 
d="M836 1427c35.333 0 65.668 -12.667 91.001 -38s38 -55.666 38 -90.999c0 -37.333 -12.333 -68.5 -37 -93.5s-55.334 -37.5 -92.001 -37.5s-67.667 12.833 -93 38.5s-38 56.5 -38 92.5c0 33.333 13.333 63.166 40 89.499s57 39.5 91 39.5zM461.002 1427
c35.333 0 65.333 -12.501 90 -37.501s37 -55.5 37 -91.5c0 -37.333 -12 -68.5 -36 -93.5s-54.333 -37.5 -91 -37.5c-36 0 -66.833 12.833 -92.5 38.5s-38.5 55.834 -38.5 90.501c0 34 13.333 64.333 40 91s57 40 91 40z" />
    <glyph glyph-name="copyright" unicode="&#xa9;" horiz-adv-x="1683" 
d="M1126 1102l44.9971 0.000976562v-326h-47c-20.667 87.333 -54 154.666 -100 201.999s-100.667 71 -164 71c-78.667 0 -137.167 -30.167 -175.5 -90.5s-57.5 -151.833 -57.5 -274.5c0 -123.333 20.833 -217 62.5 -281s102.5 -96 182.5 -96
c53.333 0 102.833 14.667 148.5 44s87.167 72.666 124.5 129.999l45 -28c-42 -71.333 -92.167 -125 -150.5 -161s-124.166 -54 -197.499 -54c-123.333 0 -226.166 40.833 -308.499 122.5s-123.5 182.834 -123.5 303.501c0 127.333 40.333 232.833 121 316.5
s182.334 125.5 305.001 125.5c52.667 0 103.667 -11 153 -33s76 -33 80 -33c16 0 28.5 5 37.5 15s15.5 25.667 19.5 47zM843.997 1309c-84.667 0 -165.168 -16.002 -241.501 -48.002s-144.166 -78.333 -203.499 -139c-59.333 -60 -104.5 -128 -135.5 -204
s-46.5 -156 -46.5 -240c0 -85.333 15.5 -166 46.5 -242s76.167 -143.667 135.5 -203c60 -59.333 127.333 -104.5 202 -135.5s155 -46.5 241 -46.5c84.667 0 164.667 15.667 240 47s142 76.333 200 135c59.333 60.667 104.833 129.334 136.5 206.001
s47.5 156.334 47.5 239.001c0 84.667 -15.833 166 -47.5 244s-76.5 145.333 -134.5 202c-58 58.667 -125.667 104.167 -203 136.5s-156.333 48.5 -237 48.5zM843.996 1413c94 0 185.833 -18.668 275.5 -56.001s169.167 -90.333 238.5 -159
c68 -68 121.167 -147.833 159.5 -239.5s57.5 -185.167 57.5 -280.5s-18.833 -187.833 -56.5 -277.5s-91.167 -169.834 -160.5 -240.501c-68 -69.333 -146.333 -122.166 -235 -158.499s-182.334 -54.5 -281.001 -54.5s-191.667 18 -279 54s-166.333 89 -237 159
c-70 69.333 -123.333 148.333 -160 237s-55 182.334 -55 281.001s18.167 192.5 54.5 281.5s89.166 167.833 158.499 236.5c68.667 69.333 148.334 122.833 239.001 160.5s184.334 56.5 281.001 56.5z" />
    <glyph glyph-name="ordfeminine" unicode="&#xaa;" horiz-adv-x="940" 
d="M577 1298c-2.66699 37.333 -12.333 65.832 -29 85.499s-39 29.5 -67 29.5c-29.333 0 -57.333 -11.667 -84 -35s-51 -58 -73 -104c-24.667 -48.667 -44.167 -99.667 -58.5 -153s-21.5 -100.666 -21.5 -141.999c0 -38 6 -66 18 -84s30.333 -27 55 -27
c32.667 0 72.167 25 118.5 75s76.5 101 90.5 153zM608.001 1389l29 83.999h199l-131 -510c-4.66699 -13.333 -8 -25.5 -10 -36.5s-3 -20.833 -3 -29.5c0 -13.333 3.5 -23.833 10.5 -31.5s16.5 -11.5 28.5 -11.5c19.333 0 38.833 9.83301 58.5 29.5s38.5 48.167 56.5 85.5
l49 -21c-31.333 -64.667 -69.333 -113.167 -114 -145.5s-95.334 -48.5 -152.001 -48.5c-46 0 -80.833 9.83301 -104.5 29.5s-35.5 48.5 -35.5 86.5c0.666992 8.66699 1.66699 19 3 31s4 27.667 8 47c-40.667 -62 -87.167 -109.833 -139.5 -143.5
s-106.166 -50.5 -161.499 -50.5c-58 0 -103.333 18.667 -136 56s-49 89 -49 155c0 59.333 11.5 119.333 34.5 180s55.167 115.334 96.5 164.001c42.667 52 90.167 92.333 142.5 121s104.5 43 156.5 43c41.333 0 75.5 -7 102.5 -21s47.5 -35 61.5 -63z" />
    <glyph glyph-name="guillemotleft" unicode="&#xab;" horiz-adv-x="922" 
d="M621 489c20 -44 46 -98.334 78 -163.001c35.333 -72 53 -113.667 53 -125c0 -4.66699 -2 -8.33398 -6 -11.001s-9 -4 -15 -4c-16.667 0 -73.334 49.667 -170.001 149l-168 169c96.667 62 194.334 129.667 293.001 203s152.667 110 162 110c6 0 10.833 -1.66699 14.5 -5
s5.5 -7.66602 5.5 -12.999c0 -23.333 -59.333 -100.666 -178 -231.999zM264 488.999c20.667 -46 47.666 -102.5 80.999 -169.5s50 -106.5 50 -118.5c0 -5.33301 -1.5 -9.16602 -4.5 -11.499s-7.5 -3.5 -13.5 -3.5c-15.333 0 -74 52 -176 156l-162 162
c96.667 62 194.334 129.667 293.001 203s152.667 110 162 110c5.33301 0 10 -1.83301 14 -5.5s6 -7.83398 6 -12.501c0 -22.667 -56 -95.667 -168 -219z" />
    <glyph glyph-name="logicalnot" unicode="&#xac;" horiz-adv-x="1706" 
d="M254 864h1198v-502h-199v306h-999v196z" />
    <glyph glyph-name="sfthyphen" unicode="&#xad;" horiz-adv-x="647" 
d="M70 614h493l-41 -211h-493z" />
    <glyph glyph-name="registered" unicode="&#xae;" horiz-adv-x="1683" 
d="M760 723c4.66699 -0.666992 10 -1.16699 16 -1.5s15 -0.5 27 -0.5c64 0 112 15 144 45s48 75 48 135c0 40 -14.333 74.333 -43 103s-64 43 -106 43c-29.333 0 -51 -5.5 -65 -16.5s-21 -27.5 -21 -49.5v-258zM465 1098l403 -0.000976562c97.333 0 175.333 -18.5 234 -55.5
s88 -84.833 88 -143.5c0 -57.333 -21.5 -102.166 -64.5 -134.499s-114.5 -57.166 -214.5 -74.499c63.333 -14.667 113 -37.834 149 -69.501s59.333 -73.167 70 -124.5c4 -16.667 7.33301 -41.334 10 -74.001c3.33301 -56 18.666 -84 45.999 -84
c18.667 0 32.834 9.83301 42.501 29.5s14.5 48.834 14.5 87.501v12h51v-23c0 -58.667 -14.667 -103.334 -44 -134.001s-72 -46 -128 -46c-31.333 0 -58.833 4.66699 -82.5 14s-42.5 23 -56.5 41c-18.667 26.667 -29.667 71.334 -33 134.001
c-1.33301 30 -3.33301 52.333 -6 67c-9.33301 52.667 -27.333 91.5 -54 116.5s-64 37.5 -112 37.5h-18v-246c0 -30.667 6.66699 -52.334 20 -65.001s39.333 -21.667 78 -27v-51h-393v50c40.667 2.66699 68.5 10.667 83.5 24s22.5 36.333 22.5 69v522
c0 32.667 -7.5 55.834 -22.5 69.501s-42.833 22.167 -83.5 25.5v53zM844 1309c-84 0 -164.5 -16.1699 -241.5 -48.5029s-144.833 -78.5 -203.5 -138.5c-59.333 -60 -104.5 -128 -135.5 -204s-46.5 -156 -46.5 -240c0 -85.333 15.5 -166 46.5 -242
s76.167 -143.667 135.5 -203c60 -59.333 127.333 -104.5 202 -135.5s155 -46.5 241 -46.5c84.667 0 164.667 15.667 240 47s142 76.333 200 135c59.333 60.667 104.833 129.334 136.5 206.001s47.5 156.334 47.5 239.001c0 83.333 -16.167 164.333 -48.5 243
s-77.5 146.334 -135.5 203.001c-58.667 58.667 -126.167 104.167 -202.5 136.5s-154.833 48.5 -235.5 48.5zM844 1413c96.667 0 191.331 -19.8301 283.998 -59.4971s173.334 -94.834 242.001 -165.501c65.333 -67.333 115.5 -146.166 150.5 -236.499
s52.5 -185.5 52.5 -285.5c0 -92.667 -20.333 -185 -61 -277s-97.667 -173.333 -171 -244c-66 -64 -141.833 -113 -227.5 -147s-176.167 -51 -271.5 -51c-73.333 0 -143.833 10.167 -211.5 30.5s-131.167 50.5 -190.5 90.5c-104.667 69.333 -185.667 157.166 -243 263.499
s-86 221.833 -86 346.5c0 97.333 18.333 190.666 55 279.999s89.334 168.666 158.001 237.999c68 69.333 147.167 122.833 237.5 160.5s184.5 56.5 282.5 56.5z" />
    <glyph glyph-name="macron" unicode="&#xaf;" 
d="M375 1372h579l-32 -155h-580z" />
    <glyph glyph-name="degree" unicode="&#xb0;" horiz-adv-x="674" 
d="M338 1335c-48.667 0 -90.167 -17 -124.5 -51s-51.5 -75 -51.5 -123c0 -49.333 17 -91 51 -125s75.667 -51 125 -51c48 0 89 17.333 123 52s51 76 51 124s-17 89 -51 123s-75 51 -123 51zM338 1464c84 0 155.5 -29.835 214.5 -89.502s88.5 -131.5 88.5 -215.5
c0 -83.333 -29.667 -154.666 -89 -213.999s-131.333 -89 -216 -89c-84 0 -155.167 29.333 -213.5 88s-87.5 130.334 -87.5 215.001s29.5 156.667 88.5 216s130.5 89 214.5 89z" />
    <glyph glyph-name="plusminus" unicode="&#xb1;" horiz-adv-x="1706" 
d="M254 197h1198v-199h-1198v199zM752 1223h202v-326h498v-199h-498v-325h-202v325h-498v199h498v326z" />
    <glyph glyph-name="twosuperior" unicode="&#xb2;" horiz-adv-x="836" 
d="M121 659c50 27.333 91.5 46.502 124.5 57.502s63.167 16.5 90.5 16.5s68.333 -4 123 -12s95.667 -12 123 -12c30 0 54.167 8.33301 72.5 25s35.166 47 50.499 91l49 -10c-18 -106 -40.167 -175.167 -66.5 -207.5s-71.166 -48.5 -134.499 -48.5
c-46.667 0 -110.667 6.83301 -192 20.5s-138.333 20.5 -171 20.5c-20.667 0 -43 -3 -67 -9s-52 -16 -84 -30l-37 57c36 42 76.833 83.333 122.5 124s98.167 82.667 157.5 126l11 8c169.333 124 254 230 254 318c0 54.667 -16.667 97.667 -50 129s-79 47 -137 47
c-56.667 0 -105.167 -14.833 -145.5 -44.5s-60.5 -63.834 -60.5 -102.501c0 -6.66699 0.166992 -12 0.5 -16s0.833008 -7.66699 1.5 -11h14c37.333 0 67.833 -9.16699 91.5 -27.5s35.5 -41.833 35.5 -70.5c0 -24 -8.5 -43.333 -25.5 -58s-39.167 -22 -66.5 -22
c-37.333 0 -68.5 15.667 -93.5 47s-37.5 71 -37.5 119c0 76 31.167 138 93.5 186s143.833 72 244.5 72c106 0 189.5 -24 250.5 -72s91.5 -114.333 91.5 -199c0 -54.667 -17 -103.834 -51 -147.501s-86 -83.167 -156 -118.5c-24 -12 -60.667 -29.333 -110 -52
c-146 -67.333 -251.333 -132 -316 -194z" />
    <glyph glyph-name="threesuperior" unicode="&#xb3;" horiz-adv-x="836" 
d="M437 999c104.667 -2.66699 180.835 -19.8311 228.502 -51.498s71.5 -80.5 71.5 -146.5c0 -72 -33.333 -130.667 -100 -176s-154 -68 -262 -68c-100.667 0 -182.834 21.167 -246.501 63.5s-95.5 95.5 -95.5 159.5c0 32 9 58.167 27 78.5s41 30.5 69 30.5
c24 0 44 -7.83301 60 -23.5s24 -35.167 24 -58.5c0 -22.667 -7.16699 -42.834 -21.5 -60.501s-34.5 -30.834 -60.5 -39.501c17.333 -27.333 41.166 -48.166 71.499 -62.499s65.833 -21.5 106.5 -21.5c66 0 119.333 18.833 160 56.5s61 86.834 61 147.501
c0 45.333 -15.167 79.333 -45.5 102s-75.833 34 -136.5 34c-1.33301 0 -4.33301 -0.333008 -9 -1c-16.667 -0.666992 -33.334 -1 -50.001 -1l20 61c76 4 137 24.833 183 62.5s69 85.167 69 142.5c0 45.333 -16.167 82.166 -48.5 110.499s-74.166 42.5 -125.499 42.5
c-40.667 0 -76 -9.83301 -106 -29.5s-48.333 -45.167 -55 -76.5c32.667 -2 58.5 -10.667 77.5 -26s28.5 -35.333 28.5 -60c0 -24 -8.33301 -43.333 -25 -58s-39 -22 -67 -22c-34.667 0 -63.167 11.5 -85.5 34.5s-33.5 52.5 -33.5 88.5c0 58.667 30.5 108.5 91.5 149.5
s137.5 61.5 229.5 61.5c94 0 169.167 -19.167 225.5 -57.5s84.5 -88.833 84.5 -151.5c0 -60 -27 -109.833 -81 -149.5s-132 -67.834 -234 -84.501z" />
    <glyph glyph-name="acute" unicode="&#xb4;" 
d="M868 1303l-333 -181h-109l303 312c23.333 23.333 45 40.333 65 51s40 16 60 16c26 0 48.167 -9.33301 66.5 -28s27.5 -41.334 27.5 -68.001c0 -19.333 -6.66699 -37.666 -20 -54.999s-33.333 -33 -60 -47z" />
    <glyph glyph-name="mu" unicode="&#xb5;" horiz-adv-x="1202" 
d="M178 209c-8 -63.333 -17.6621 -147.332 -28.9951 -251.999c-26.667 -254 -78.334 -381 -155.001 -381c-36 0 -64.167 10.167 -84.5 30.5s-30.5 48.5 -30.5 84.5c0 31.333 22.667 122.666 68 273.999s80.666 287.333 105.999 408l109 512h256l-99 -459
c-7.33301 -35.333 -12.833 -65 -16.5 -89s-5.5 -43.333 -5.5 -58c0 -39.333 10.167 -70 30.5 -92s48.5 -33 84.5 -33c47.333 0 86 17.667 116 53s52.667 90.666 68 165.999l109 512h256l-115 -533c-6 -27.333 -10.333 -49.5 -13 -66.5s-4 -31.5 -4 -43.5
c0 -31.333 5.83301 -53.833 17.5 -67.5s30.5 -20.5 56.5 -20.5c26.667 0 48.667 6 66 18s32.333 31.667 45 59l21 50c18 46 36.333 69 55 69c10 0 17.833 -3.33301 23.5 -10s8.5 -16.334 8.5 -29.001c0 -22.667 -5.5 -52.167 -16.5 -88.5s-25.167 -70.166 -42.5 -101.499
c-27.333 -49.333 -60.333 -86 -99 -110s-84.334 -36 -137.001 -36c-56.667 0 -99.834 16 -129.501 48s-47.834 82.333 -54.501 151c-26.667 -70.667 -59.5 -121.5 -98.5 -152.5s-88.833 -46.5 -149.5 -46.5c-62 0 -111.833 20.333 -149.5 61s-60.167 98.334 -67.5 173.001z
" />
    <glyph glyph-name="paragraph" unicode="&#xb6;" 
d="M983 1479v-111h-113v-1368h-151v1368h-158v-1368h-153v784c-111.333 4 -200.333 37.667 -267 101s-100 145 -100 245c0 105.333 35.667 189.833 107 253.5s166 95.5 284 95.5h551z" />
    <glyph glyph-name="periodcentered" unicode="&#xb7;" horiz-adv-x="633" 
d="M317 881c46 0 84.499 -15.833 115.499 -47.5s46.5 -70.5 46.5 -116.5c0 -47.333 -15.167 -86.5 -45.5 -117.5s-69.166 -46.5 -116.499 -46.5c-46 0 -85 15.833 -117 47.5s-48 70.5 -48 116.5c0 43.333 16.5 81.5 49.5 114.5s71.5 49.5 115.5 49.5z" />
    <glyph glyph-name="cedilla" unicode="&#xb8;" 
d="M377 0h72l-35 -114c6 0 14.333 0.666992 25 2c26.667 3.33301 44.334 5.33301 53.001 6c53.333 0 95.666 -15.667 126.999 -47s47 -74 47 -128c0 -52.667 -20 -95.167 -60 -127.5s-93.333 -48.5 -160 -48.5c-44.667 0 -93 7.16699 -145 21.5s-109.333 35.833 -172 64.5
l41 90c40 -24 80.333 -42.5 121 -55.5s78 -19.5 112 -19.5c32.667 0 57.667 7 75 21s26 34.333 26 61c0 27.333 -8.83301 48.5 -26.5 63.5s-43.167 22.5 -76.5 22.5c-11.333 0 -24.5 -1.16699 -39.5 -3.5s-31.833 -5.5 -50.5 -9.5z" />
    <glyph glyph-name="onesuperior" unicode="&#xb9;" horiz-adv-x="565" 
d="M477 1438l-133 -666.002c-4 -22.667 -6.66699 -40.334 -8 -53.001s-2 -23 -2 -31c0 -23.333 6.66699 -39.333 20 -48s38 -13 74 -13h18l-8 -55c-52.667 2 -98 3.5 -136 4.5s-70.333 1.5 -97 1.5c-23.333 0 -53.333 -0.5 -90 -1.5s-81.667 -2.5 -135 -4.5l10 55h16
c50 0 83.833 7.16699 101.5 21.5s33.834 58.833 48.501 133.5l82 426c2.66699 14.667 4.66699 27.834 6 39.501s2 21.834 2 30.501c0 14 -2.66699 24 -8 30s-14.333 9 -27 9c-2 0 -7.33301 -0.666992 -16 -2s-18.334 -2.66602 -29.001 -3.99902l-86 -19l-12 47
c79.333 15.333 152.333 31 219 47s130 33.333 190 52z" />
    <glyph glyph-name="ordmasculine" unicode="&#xba;" horiz-adv-x="868" 
d="M473 1473c100 0 179.667 -27.499 239 -82.499s89 -128.833 89 -221.5c0 -114 -43.5 -211.667 -130.5 -293s-193.167 -122 -318.5 -122c-98 0 -177 27.667 -237 83s-90 128.666 -90 219.999c0 111.333 44.167 208.5 132.5 291.5s193.5 124.5 315.5 124.5zM578 1278
c0 44.667 -8.16797 78.334 -24.501 101.001s-40.5 34 -72.5 34c-31.333 0 -60 -10.833 -86 -32.5s-49.667 -55.167 -71 -100.5c-23.333 -52 -41.833 -108 -55.5 -168s-20.5 -114 -20.5 -162c0 -43.333 9.16699 -76.666 27.5 -99.999s44.5 -35 78.5 -35
c28.667 0 55.834 11.667 81.501 35s48.5 56.666 68.5 99.999c22 47.333 39.833 101.166 53.5 161.499s20.5 115.833 20.5 166.5z" />
    <glyph glyph-name="guillemotright" unicode="&#xbb;" horiz-adv-x="922" 
d="M827 500c-96 -62 -193.332 -129.833 -291.999 -203.5s-152.667 -110.5 -162 -110.5c-6 0 -11 1.83301 -15 5.5s-6 8.16699 -6 13.5c0 22.667 72 113 216 271l34 38c-22 48.667 -49.667 106.167 -83 172.5s-50 104.5 -50 114.5c0 4.66699 1.66699 8.5 5 11.5
s7.66602 4.5 12.999 4.5c17.333 0 77.333 -52 180 -156zM471.001 500c-96.667 -62 -194.001 -129.833 -292.001 -203.5s-151.667 -110.5 -161 -110.5c-6 0.666992 -10.833 2.66699 -14.5 6s-5.5 7.66602 -5.5 12.999c0 22.667 59.333 100 178 232l70 77l-76 159
c-36.667 74.667 -55 117.334 -55 128.001c0 4 1.83301 7.66699 5.5 11s7.83398 5 12.501 5c16.667 0 73.667 -49.667 171 -149z" />
    <glyph glyph-name="onequarter" unicode="&#xbc;" horiz-adv-x="1679" 
d="M1477 825l47.002 -47c-115.333 -85.333 -217.5 -166.166 -306.5 -242.499s-161.833 -145.5 -218.5 -207.5h312l57 293l186 38l-63 -331h115l-47 -117h-91l-10 -70c-1.33301 -6.66699 -2.33301 -12.834 -3 -18.501s-1 -11.167 -1 -16.5
c0 -19.333 5.83301 -33.333 17.5 -42s31.167 -13 58.5 -13h12l-11 -51c-45.333 2 -85.333 3.5 -120 4.5s-64 1.5 -88 1.5c-20 0 -46.833 -0.5 -80.5 -1.5s-72.167 -2.5 -115.5 -4.5l8 51h8c47.333 0 80.166 7 98.499 21s31.166 42 38.499 84l10 55h-395l8 98
c117.333 118 220.833 217 310.5 297s177.5 153 263.5 219zM1092 1432h129l-893 -1450h-131zM455.002 1438l-125.001 -622.999c-4.66699 -23.333 -7.66699 -40.333 -9 -51s-2 -19.667 -2 -27c0 -22 6.16699 -37 18.5 -45s35.833 -12 70.5 -12h20l-10 -51
c-48.667 2 -91.5 3.5 -128.5 4.5s-68.5 1.5 -94.5 1.5c-21.333 0 -50 -0.5 -86 -1.5s-78.333 -2.5 -127 -4.5l8 51h16c75.333 0 122.333 47 141 141v4l80 400c2.66699 12 4.83398 23.667 6.50098 35s2.5 20.666 2.5 27.999c0 13.333 -2.66699 22.5 -8 27.5
s-14.333 7.5 -27 7.5c-6.66699 0 -13.5 -0.333008 -20.5 -1s-14.5 -1.66699 -22.5 -3l-82 -16l-10 43c76 14 145.667 28.5 209 43.5s123.333 31.167 180 48.5z" />
    <glyph glyph-name="onehalf" unicode="&#xbd;" horiz-adv-x="1679" 
d="M997 82c45.333 24 84.002 41.333 116.002 52s61.667 16 89 16c26 0 65 -3.5 117 -10.5s91 -10.5 117 -10.5c29.333 0 52.666 7.83301 69.999 23.5s32.666 44.167 45.999 85.5l47 -11c-16 -99.333 -36.5 -164 -61.5 -194s-67.833 -45 -128.5 -45
c-44.667 0 -106 6.5 -184 19.5s-132 19.5 -162 19.5c-18.667 0 -38.667 -2.5 -60 -7.5s-49.666 -14.167 -84.999 -27.5l-35 53c34.667 38.667 74 77.167 118 115.5s94 77.833 150 118.5l5 3c164.667 116 247 216 247 300c0 50.667 -15.833 90.5 -47.5 119.5
s-75.167 43.5 -130.5 43.5c-54 0 -100.333 -13.833 -139 -41.5s-58 -59.5 -58 -95.5v-24h14c36.667 0 66 -8.66699 88 -26s33 -39.333 33 -66c0 -22.667 -7.83301 -40.667 -23.5 -54s-36.5 -20 -62.5 -20c-35.333 0 -65 14.5 -89 43.5s-36 65.5 -36 109.5
c0 71.333 29.5 129.166 88.5 173.499s136.833 66.5 233.5 66.5c101.333 0 181.333 -22.167 240 -66.5s88 -105.5 88 -183.5c0 -50.667 -16.333 -96.5 -49 -137.5s-82.667 -78.5 -150 -112.5l-98 -45c-142.667 -63.333 -245.334 -124.666 -308.001 -183.999zM1092 1432h129
l-893 -1450h-131zM455.002 1438l-125.001 -622.999c-4.66699 -23.333 -7.66699 -40.333 -9 -51s-2 -19.667 -2 -27c0 -22 6.16699 -37 18.5 -45s35.833 -12 70.5 -12h20l-10 -51c-48.667 2 -91.5 3.5 -128.5 4.5s-68.5 1.5 -94.5 1.5c-21.333 0 -50 -0.5 -86 -1.5
s-78.333 -2.5 -127 -4.5l8 51h16c75.333 0 122.333 47 141 141v4l80 400c2.66699 12 4.83398 23.667 6.50098 35s2.5 20.666 2.5 27.999c0 13.333 -2.66699 22.5 -8 27.5s-14.333 7.5 -27 7.5c-6.66699 0 -13.5 -0.333008 -20.5 -1s-14.5 -1.66699 -22.5 -3l-82 -16l-10 43
c76 14 145.667 28.5 209 43.5s123.333 31.167 180 48.5z" />
    <glyph glyph-name="threequarters" unicode="&#xbe;" horiz-adv-x="1937" 
d="M1735 825l47.002 -47c-115.333 -85.333 -217.5 -166.166 -306.5 -242.499s-161.833 -145.5 -218.5 -207.5h312l57 293l186 38l-63 -331h115l-47 -117h-91l-10 -70c-1.33301 -6.66699 -2.33301 -12.834 -3 -18.501s-1 -11.167 -1 -16.5
c0 -19.333 5.83301 -33.333 17.5 -42s31.167 -13 58.5 -13h12l-11 -51c-45.333 2 -85.333 3.5 -120 4.5s-64 1.5 -88 1.5c-20 0 -46.833 -0.5 -80.5 -1.5s-72.167 -2.5 -115.5 -4.5l8 51h8c47.333 0 80.166 7 98.499 21s31.166 42 38.499 84l10 55h-395l8 98
c118 118 221.667 217 311 297s177 153 263 219zM1350 1432h129l-893 -1450h-131zM416.002 1028c99.333 -2 171.834 -17.8301 217.501 -47.4971s68.5 -75.167 68.5 -136.5c0 -68 -31.667 -123.333 -95 -166s-146.333 -64 -249 -64c-96 0 -174.5 20 -235.5 60
s-91.5 89.667 -91.5 149c0 29.333 8.66699 53.5 26 72.5s39.333 28.5 66 28.5c23.333 0 42.833 -7 58.5 -21s23.5 -31.667 23.5 -53c0 -22 -7 -41.167 -21 -57.5s-33.667 -28.5 -59 -36.5c16 -26.667 38.5 -46.667 67.5 -60s63.167 -20 102.5 -20
c63.333 0 114.333 17.5 153 52.5s58 80.833 58 137.5c0 43.333 -14.333 75.333 -43 96s-72.334 31 -131.001 31c-8.66699 0 -17.667 -0.166992 -27 -0.5s-19.666 -0.833008 -30.999 -1.5l21 59c71.333 3.33301 129.166 22.666 173.499 57.999s66.5 79.666 66.5 132.999
c0 42 -15.333 76 -46 102s-70 39 -118 39c-40 0 -74.167 -8.83301 -102.5 -26.5s-45.833 -41.5 -52.5 -71.5c31.333 -2 55.666 -10 72.999 -24s26 -32.667 26 -56c0 -22.667 -7.66699 -41 -23 -55s-36.333 -21 -63 -21c-33.333 0 -60.666 11 -81.999 33s-32 50 -32 84
c0 54 29.167 100 87.5 138s131.5 57 219.5 57c89.333 0 160.833 -17.833 214.5 -53.5s80.5 -82.834 80.5 -141.501c0 -55.333 -25.833 -101.5 -77.5 -138.5s-126.167 -63.167 -223.5 -78.5z" />
    <glyph glyph-name="questiondown" unicode="&#xbf;" horiz-adv-x="1030" 
d="M528 1063l92.999 -19.0039c-6.66699 -59.333 -18 -113.166 -34 -161.499s-41.667 -100.833 -77 -157.5l-20 -33c-79.333 -129.333 -119 -240.666 -119 -333.999c0 -84.667 17.333 -149.167 52 -193.5s85.334 -66.5 152.001 -66.5c42.667 0 81.167 14.667 115.5 44
s53.833 64.666 58.5 105.999c-34.667 12.667 -62 32.334 -82 59.001s-30 56.667 -30 90c0 32 10.167 58.5 30.5 79.5s45.5 31.5 75.5 31.5c42 0 77.167 -17.167 105.5 -51.5s42.5 -77.166 42.5 -128.499c0 -88.667 -37.833 -165.5 -113.5 -230.5
s-166.834 -97.5 -273.501 -97.5c-118.667 0 -216 34.833 -292 104.5s-114 158.5 -114 266.5c0 74 17 142.333 51 205s104.333 143 211 241l1 1c92.667 84.667 148.334 166.334 167.001 245.001zM607.999 1489c44 0 81.667 -16.001 113 -48.001s47 -70.667 47 -116
c0 -41.333 -15.833 -77.666 -47.5 -108.999s-69.167 -47 -112.5 -47c-44 0 -81.5 15.667 -112.5 47s-46.5 69 -46.5 113s15.5 81.667 46.5 113s68.5 47 112.5 47z" />
    <glyph glyph-name="Agrave" unicode="&#xc0;" horiz-adv-x="1321" 
d="M647 1219l-285 -601h367zM909 1497l196.999 -1198l2 -13c20.667 -122.667 80.667 -186.667 180 -192v-94c-97.333 4 -167.5 6.66699 -210.5 8s-75.833 2 -98.5 2c-38.667 0 -84.667 -0.833008 -138 -2.5s-121.333 -4.16699 -204 -7.5v94c62 3.33301 102 11.833 120 25.5
s27 40.167 27 79.5c0 15.333 -0.5 29 -1.5 41s-2.5 24.333 -4.5 37l-37 241h-424l-124 -258c-10 -19.333 -17.333 -37.166 -22 -53.499s-7 -31.166 -7 -44.499c0 -26 8.16699 -43.5 24.5 -52.5s52.5 -14.167 108.5 -15.5v-94c-63.333 4 -110 6.66699 -140 8s-54.333 2 -73 2
c-20 0 -45.333 -0.666992 -76 -2s-75 -4 -133 -8v94c47.333 1.33301 86 14.666 116 39.999s67 83.666 111 174.999l465 961c28 30.667 53.333 62.667 76 96s43.334 68 62.001 104zM753.999 1917l248.001 -314h-104l-273 185c-24 16.667 -42 33.167 -54 49.5
s-18 33.166 -18 50.499c0 26.667 9.16699 49.334 27.5 68.001s40.166 28 65.499 28c18.667 0 37 -5.5 55 -16.5s35.667 -27.833 53 -50.5z" />
    <glyph glyph-name="Aacute" unicode="&#xc1;" horiz-adv-x="1321" 
d="M647 1219l-285 -601h367zM909 1497l196.999 -1198l2 -13c20.667 -122.667 80.667 -186.667 180 -192v-94c-97.333 4 -167.5 6.66699 -210.5 8s-75.833 2 -98.5 2c-38.667 0 -84.667 -0.833008 -138 -2.5s-121.333 -4.16699 -204 -7.5v94c62 3.33301 102 11.833 120 25.5
s27 40.167 27 79.5c0 15.333 -0.5 29 -1.5 41s-2.5 24.333 -4.5 37l-37 241h-424l-124 -258c-10 -19.333 -17.333 -37.166 -22 -53.499s-7 -31.166 -7 -44.499c0 -26 8.16699 -43.5 24.5 -52.5s52.5 -14.167 108.5 -15.5v-94c-63.333 4 -110 6.66699 -140 8s-54.333 2 -73 2
c-20 0 -45.333 -0.666992 -76 -2s-75 -4 -133 -8v94c47.333 1.33301 86 14.666 116 39.999s67 83.666 111 174.999l465 961c28 30.667 53.333 62.667 76 96s43.334 68 62.001 104zM1061 1784l-333 -181h-109l303 312c23.333 23.333 45 40.333 65 51s40 16 60 16
c26 0 48.167 -9.33301 66.5 -28s27.5 -41.334 27.5 -68.001c0 -19.333 -6.66699 -37.666 -20 -54.999s-33.333 -33 -60 -47z" />
    <glyph glyph-name="Acircumflex" unicode="&#xc2;" horiz-adv-x="1321" 
d="M647 1219l-285 -601h367zM909 1497l196.999 -1198l2 -13c20.667 -122.667 80.667 -186.667 180 -192v-94c-97.333 4 -167.5 6.66699 -210.5 8s-75.833 2 -98.5 2c-38.667 0 -84.667 -0.833008 -138 -2.5s-121.333 -4.16699 -204 -7.5v94c62 3.33301 102 11.833 120 25.5
s27 40.167 27 79.5c0 15.333 -0.5 29 -1.5 41s-2.5 24.333 -4.5 37l-37 241h-424l-124 -258c-10 -19.333 -17.333 -37.166 -22 -53.499s-7 -31.166 -7 -44.499c0 -26 8.16699 -43.5 24.5 -52.5s52.5 -14.167 108.5 -15.5v-94c-63.333 4 -110 6.66699 -140 8s-54.333 2 -73 2
c-20 0 -45.333 -0.666992 -76 -2s-75 -4 -133 -8v94c47.333 1.33301 86 14.666 116 39.999s67 83.666 111 174.999l465 961c28 30.667 53.333 62.667 76 96s43.334 68 62.001 104zM790.999 1960h145l160 -359h-80l-172 183l-258 -183h-102z" />
    <glyph glyph-name="Atilde" unicode="&#xc3;" horiz-adv-x="1321" 
d="M647 1219l-285 -601h367zM909 1497l196.999 -1198l2 -13c20.667 -122.667 80.667 -186.667 180 -192v-94c-97.333 4 -167.5 6.66699 -210.5 8s-75.833 2 -98.5 2c-38.667 0 -84.667 -0.833008 -138 -2.5s-121.333 -4.16699 -204 -7.5v94c62 3.33301 102 11.833 120 25.5
s27 40.167 27 79.5c0 15.333 -0.5 29 -1.5 41s-2.5 24.333 -4.5 37l-37 241h-424l-124 -258c-10 -19.333 -17.333 -37.166 -22 -53.499s-7 -31.166 -7 -44.499c0 -26 8.16699 -43.5 24.5 -52.5s52.5 -14.167 108.5 -15.5v-94c-63.333 4 -110 6.66699 -140 8s-54.333 2 -73 2
c-20 0 -45.333 -0.666992 -76 -2s-75 -4 -133 -8v94c47.333 1.33301 86 14.666 116 39.999s67 83.666 111 174.999l465 961c28 30.667 53.333 62.667 76 96s43.334 68 62.001 104zM1094 1912l62 0.999023c-18 -79.333 -43.5 -138.166 -76.5 -176.499
s-74.5 -57.5 -124.5 -57.5c-12 0 -24 0.666992 -36 2s-24 3.33301 -36 6l-117 29c-16 4 -30 7 -42 9s-21.667 3 -29 3c-27.333 0 -49.666 -7.16699 -66.999 -21.5s-30.666 -36.5 -39.999 -66.5h-63c17.333 80.667 42 140.167 74 178.5s72.667 57.5 122 57.5
c13.333 0 27.166 -1 41.499 -3s28.166 -4.66699 41.499 -8l124 -30c7.33301 -2 15.333 -3.5 24 -4.5s20.667 -1.5 36 -1.5c26 0 47.833 6.83301 65.5 20.5s31.167 34.5 40.5 62.5z" />
    <glyph glyph-name="Adieresis" unicode="&#xc4;" horiz-adv-x="1321" 
d="M647 1219l-285 -601h367zM909 1497l196.999 -1198l2 -13c20.667 -122.667 80.667 -186.667 180 -192v-94c-97.333 4 -167.5 6.66699 -210.5 8s-75.833 2 -98.5 2c-38.667 0 -84.667 -0.833008 -138 -2.5s-121.333 -4.16699 -204 -7.5v94c62 3.33301 102 11.833 120 25.5
s27 40.167 27 79.5c0 15.333 -0.5 29 -1.5 41s-2.5 24.333 -4.5 37l-37 241h-424l-124 -258c-10 -19.333 -17.333 -37.166 -22 -53.499s-7 -31.166 -7 -44.499c0 -26 8.16699 -43.5 24.5 -52.5s52.5 -14.167 108.5 -15.5v-94c-63.333 4 -110 6.66699 -140 8s-54.333 2 -73 2
c-20 0 -45.333 -0.666992 -76 -2s-75 -4 -133 -8v94c47.333 1.33301 86 14.666 116 39.999s67 83.666 111 174.999l465 961c28 30.667 53.333 62.667 76 96s43.334 68 62.001 104zM1029 1908c35.333 0 65.668 -12.667 91.001 -38s38 -55.666 38 -90.999
c0 -37.333 -12.333 -68.5 -37 -93.5s-55.334 -37.5 -92.001 -37.5s-67.667 12.833 -93 38.5s-38 56.5 -38 92.5c0 33.333 13.333 63.166 40 89.499s57 39.5 91 39.5zM654.001 1908c35.333 0 65.333 -12.501 90 -37.501s37 -55.5 37 -91.5c0 -37.333 -12 -68.5 -36 -93.5
s-54.333 -37.5 -91 -37.5c-36 0 -66.833 12.833 -92.5 38.5s-38.5 55.834 -38.5 90.501c0 34 13.333 64.333 40 91s57 40 91 40z" />
    <glyph glyph-name="Aring" unicode="&#xc5;" horiz-adv-x="1321" 
d="M647 1219l-285 -601h367zM913 1475l192.999 -1176l2 -13c20.667 -122.667 80.667 -186.667 180 -192v-94c-97.333 4 -167.5 6.66699 -210.5 8s-75.833 2 -98.5 2c-38.667 0 -84.667 -0.833008 -138 -2.5s-121.333 -4.16699 -204 -7.5v94c62 3.33301 102 11.833 120 25.5
s27 40.167 27 79.5c0 15.333 -0.5 29 -1.5 41s-2.5 24.333 -4.5 37l-37 241h-424l-124 -258c-10 -19.333 -17.333 -37.166 -22 -53.499s-7 -31.166 -7 -44.499c0 -26 8.16699 -43.5 24.5 -52.5s52.5 -14.167 108.5 -15.5v-94c-63.333 4 -110 6.66699 -140 8s-54.333 2 -73 2
c-20 0 -45.333 -0.666992 -76 -2s-75 -4 -133 -8v94c47.333 1.33301 86 14.666 116 39.999s67 83.666 111 174.999l465 961c25.333 28.667 48.333 57.667 69 87s39.334 59 56.001 89zM802.999 1862c-30.667 0 -57.167 -11.1689 -79.5 -33.502s-33.5 -48.833 -33.5 -79.5
c0 -31.333 10.833 -57.666 32.5 -78.999s48.5 -32 80.5 -32c31.333 0 57.833 10.833 79.5 32.5s32.5 47.834 32.5 78.501c0 31.333 -10.833 58 -32.5 80s-48.167 33 -79.5 33zM802.999 1972c62 0 114.998 -21.833 158.998 -65.5s66 -96.167 66 -157.5
s-22 -113.833 -66 -157.5s-97 -65.5 -159 -65.5c-63.333 0 -116.666 21.5 -159.999 64.5s-65 95.833 -65 158.5c0 62 21.833 114.667 65.5 158s96.834 65 159.501 65z" />
    <glyph glyph-name="AE" unicode="&#xc6;" horiz-adv-x="2058" 
d="M618 1470l1313 -0.000976562v-415h-94v26c0 114.667 -17.333 191.5 -52 230.5s-106 58.5 -214 58.5h-295l-92 -561h84c99.333 0 166.166 14.333 200.499 43s57.5 84.667 69.5 168h88c-16.667 -82 -31.5 -168.333 -44.5 -259s-24.833 -188.667 -35.5 -294h-88l3 30
c3.33301 40 5 67.667 5 83c0 52 -10.833 86.833 -32.5 104.5s-70.834 26.5 -147.501 26.5h-117l-100 -613h324c86 0 148.5 4.66699 187.5 14s71.833 25.333 98.5 48c28.667 24 53.667 57 75 99s43.666 103 66.999 183h94c-17.333 -71.333 -33.666 -143.833 -48.999 -217.5
s-29.666 -148.5 -42.999 -224.5h-1219v98c56.667 0 95.5 7.16699 116.5 21.5s36.167 49.5 45.5 105.5l51 320h-465l-207 -287c-12.667 -16.667 -22.334 -33.5 -29.001 -50.5s-10 -33.5 -10 -49.5c0 -23.333 8 -39.166 24 -47.499s49 -12.5 99 -12.5v-98
c-59.333 4 -107.5 6.66699 -144.5 8s-69.167 2 -96.5 2c-22.667 0 -86 -3 -190 -9l-11 -1v98c44.667 0 84.834 12.167 120.501 36.5s85.5 80.5 149.5 168.5l666 911l5 7c26.667 38 40 67.333 40 88c0 22.667 -9.83301 38.5 -29.5 47.5s-59.834 13.5 -120.501 13.5v100z
M952.002 1366l-528 -723h410z" />
    <glyph glyph-name="Ccedilla" unicode="&#xc7;" horiz-adv-x="1430" 
d="M1307 1315l36.002 83.999l84 -4c-13.333 -68 -26.166 -138.833 -38.499 -212.5s-25.166 -155.834 -38.499 -246.501h-92c1.33301 25.333 2.66602 46.833 3.99902 64.5s2 29.5 2 35.5c0 102.667 -28.833 185 -86.5 247s-134.167 93 -229.5 93
c-155.333 0 -279.833 -69.5 -373.5 -208.5s-140.5 -323.5 -140.5 -553.5c0 -165.333 32.5 -291.666 97.5 -378.999s158.833 -131 281.5 -131c91.333 0 172.166 25.5 242.499 76.5s130.166 127.5 179.499 229.5l82 -41c-59.333 -130 -139 -227 -239 -291
s-221.667 -96 -365 -96c-198.667 0 -355.834 58.5 -471.501 175.5s-173.5 276.167 -173.5 477.5c0 247.333 76.333 451.5 229 612.5s346 241.5 580 241.5c86 0 165.333 -14.667 238 -44s136.667 -72.666 192 -129.999zM664.002 -0.000976562h72l-35 -114
c6 0 14.333 0.666992 25 2c26.667 3.33301 44.334 5.33301 53.001 6c53.333 0 95.666 -15.667 126.999 -47s47 -74 47 -128c0 -52.667 -20 -95.167 -60 -127.5s-93.333 -48.5 -160 -48.5c-44.667 0 -93 7.16699 -145 21.5s-109.333 35.833 -172 64.5l41 90
c40 -24 80.333 -42.5 121 -55.5s78 -19.5 112 -19.5c32.667 0 57.667 7 75 21s26 34.333 26 61c0 27.333 -8.83301 48.5 -26.5 63.5s-43.167 22.5 -76.5 22.5c-11.333 0 -24.5 -1.16699 -39.5 -3.5s-31.833 -5.5 -50.5 -9.5z" />
    <glyph glyph-name="Egrave" unicode="&#xc8;" horiz-adv-x="1456" 
d="M201 1470l1128 -0.000976562v-415h-94v35c0 110.667 -17.833 185.334 -53.5 224.001s-106.5 58 -212.5 58h-295l-92 -563h84c99.333 0 166.166 14.333 200.499 43s57.5 84.667 69.5 168h88c-16.667 -83.333 -31.667 -170.333 -45 -261s-25 -188 -35 -292h-88l3 29
c3.33301 38 5 64.333 5 79c0 54.667 -11 91 -33 109s-71 27 -147 27h-119l-98 -613h324c86 0 148.5 4.66699 187.5 14s71.833 25.333 98.5 48c28.667 24 53.667 57 75 99s43.666 103 66.999 183h94c-17.333 -71.333 -33.666 -143.833 -48.999 -217.5
s-29.666 -148.5 -42.999 -224.5h-1221v98c57.333 0 96.666 7.33301 117.999 22s36.666 49.667 45.999 105l158 975c3.33301 22 6.16602 42.5 8.49902 61.5s3.5 34.167 3.5 45.5c0 24 -9.5 40.833 -28.5 50.5s-53.833 14.5 -104.5 14.5v98zM821.003 1917l248.001 -314h-104
l-273 185c-24 16.667 -42 33.167 -54 49.5s-18 33.166 -18 50.499c0 26.667 9.16699 49.334 27.5 68.001s40.166 28 65.499 28c18.667 0 37 -5.5 55 -16.5s35.667 -27.833 53 -50.5z" />
    <glyph glyph-name="Eacute" unicode="&#xc9;" horiz-adv-x="1456" 
d="M201 1470l1128 -0.000976562v-415h-94v35c0 110.667 -17.833 185.334 -53.5 224.001s-106.5 58 -212.5 58h-295l-92 -563h84c99.333 0 166.166 14.333 200.499 43s57.5 84.667 69.5 168h88c-16.667 -83.333 -31.667 -170.333 -45 -261s-25 -188 -35 -292h-88l3 29
c3.33301 38 5 64.333 5 79c0 54.667 -11 91 -33 109s-71 27 -147 27h-119l-98 -613h324c86 0 148.5 4.66699 187.5 14s71.833 25.333 98.5 48c28.667 24 53.667 57 75 99s43.666 103 66.999 183h94c-17.333 -71.333 -33.666 -143.833 -48.999 -217.5
s-29.666 -148.5 -42.999 -224.5h-1221v98c57.333 0 96.666 7.33301 117.999 22s36.666 49.667 45.999 105l158 975c3.33301 22 6.16602 42.5 8.49902 61.5s3.5 34.167 3.5 45.5c0 24 -9.5 40.833 -28.5 50.5s-53.833 14.5 -104.5 14.5v98zM1128 1784l-333 -181h-109l303 312
c23.333 23.333 45 40.333 65 51s40 16 60 16c26 0 48.167 -9.33301 66.5 -28s27.5 -41.334 27.5 -68.001c0 -19.333 -6.66699 -37.666 -20 -54.999s-33.333 -33 -60 -47z" />
    <glyph glyph-name="Ecircumflex" unicode="&#xca;" horiz-adv-x="1456" 
d="M201 1470l1128 -0.000976562v-415h-94v35c0 110.667 -17.833 185.334 -53.5 224.001s-106.5 58 -212.5 58h-295l-92 -563h84c99.333 0 166.166 14.333 200.499 43s57.5 84.667 69.5 168h88c-16.667 -83.333 -31.667 -170.333 -45 -261s-25 -188 -35 -292h-88l3 29
c3.33301 38 5 64.333 5 79c0 54.667 -11 91 -33 109s-71 27 -147 27h-119l-98 -613h324c86 0 148.5 4.66699 187.5 14s71.833 25.333 98.5 48c28.667 24 53.667 57 75 99s43.666 103 66.999 183h94c-17.333 -71.333 -33.666 -143.833 -48.999 -217.5
s-29.666 -148.5 -42.999 -224.5h-1221v98c57.333 0 96.666 7.33301 117.999 22s36.666 49.667 45.999 105l158 975c3.33301 22 6.16602 42.5 8.49902 61.5s3.5 34.167 3.5 45.5c0 24 -9.5 40.833 -28.5 50.5s-53.833 14.5 -104.5 14.5v98zM858.003 1960h145l160 -359h-80
l-172 183l-258 -183h-102z" />
    <glyph glyph-name="Edieresis" unicode="&#xcb;" horiz-adv-x="1456" 
d="M201 1470l1128 -0.000976562v-415h-94v35c0 110.667 -17.833 185.334 -53.5 224.001s-106.5 58 -212.5 58h-295l-92 -563h84c99.333 0 166.166 14.333 200.499 43s57.5 84.667 69.5 168h88c-16.667 -83.333 -31.667 -170.333 -45 -261s-25 -188 -35 -292h-88l3 29
c3.33301 38 5 64.333 5 79c0 54.667 -11 91 -33 109s-71 27 -147 27h-119l-98 -613h324c86 0 148.5 4.66699 187.5 14s71.833 25.333 98.5 48c28.667 24 53.667 57 75 99s43.666 103 66.999 183h94c-17.333 -71.333 -33.666 -143.833 -48.999 -217.5
s-29.666 -148.5 -42.999 -224.5h-1221v98c57.333 0 96.666 7.33301 117.999 22s36.666 49.667 45.999 105l158 975c3.33301 22 6.16602 42.5 8.49902 61.5s3.5 34.167 3.5 45.5c0 24 -9.5 40.833 -28.5 50.5s-53.833 14.5 -104.5 14.5v98zM1096 1908
c35.333 0 65.668 -12.667 91.001 -38s38 -55.666 38 -90.999c0 -37.333 -12.333 -68.5 -37 -93.5s-55.334 -37.5 -92.001 -37.5s-67.667 12.833 -93 38.5s-38 56.5 -38 92.5c0 33.333 13.333 63.166 40 89.499s57 39.5 91 39.5zM721.005 1908
c35.333 0 65.333 -12.501 90 -37.501s37 -55.5 37 -91.5c0 -37.333 -12 -68.5 -36 -93.5s-54.333 -37.5 -91 -37.5c-36 0 -66.833 12.833 -92.5 38.5s-38.5 55.834 -38.5 90.501c0 34 13.333 64.333 40 91s57 40 91 40z" />
    <glyph glyph-name="Igrave" unicode="&#xcc;" horiz-adv-x="817" 
d="M193 1470c78 -3.33301 142.002 -5.83398 192.002 -7.50098s92.333 -2.5 127 -2.5c34 0 75.167 0.833008 123.5 2.5s112.166 4.16699 191.499 7.5v-94c-60.667 -0.666992 -102.5 -9 -125.5 -25s-39.167 -54 -48.5 -114l-157 -969c-4.66699 -22.667 -8 -41.667 -10 -57
s-3 -27.666 -3 -36.999c0 -28.667 8.5 -48.5 25.5 -59.5s59.167 -18.5 126.5 -22.5l-1 -92c-86.667 4 -154.167 6.66699 -202.5 8s-87.833 2 -118.5 2c-29.333 0 -67.5 -0.666992 -114.5 -2s-116.5 -4 -208.5 -8v92c61.333 1.33301 103.333 10 126 26s38.667 53.667 48 113
l158 969c4 29.333 7 52 9 68s3 27.667 3 35c0 25.333 -9.33301 43.333 -28 54s-56.334 17 -113.001 19v94zM502.002 1917l248.001 -314h-104l-273 185c-24 16.667 -42 33.167 -54 49.5s-18 33.166 -18 50.499c0 26.667 9.16699 49.334 27.5 68.001s40.166 28 65.499 28
c18.667 0 37 -5.5 55 -16.5s35.667 -27.833 53 -50.5z" />
    <glyph glyph-name="Iacute" unicode="&#xcd;" horiz-adv-x="817" 
d="M193 1470c78 -3.33301 142.002 -5.83398 192.002 -7.50098s92.333 -2.5 127 -2.5c34 0 75.167 0.833008 123.5 2.5s112.166 4.16699 191.499 7.5v-94c-60.667 -0.666992 -102.5 -9 -125.5 -25s-39.167 -54 -48.5 -114l-157 -969c-4.66699 -22.667 -8 -41.667 -10 -57
s-3 -27.666 -3 -36.999c0 -28.667 8.5 -48.5 25.5 -59.5s59.167 -18.5 126.5 -22.5l-1 -92c-86.667 4 -154.167 6.66699 -202.5 8s-87.833 2 -118.5 2c-29.333 0 -67.5 -0.666992 -114.5 -2s-116.5 -4 -208.5 -8v92c61.333 1.33301 103.333 10 126 26s38.667 53.667 48 113
l158 969c4 29.333 7 52 9 68s3 27.667 3 35c0 25.333 -9.33301 43.333 -28 54s-56.334 17 -113.001 19v94zM809.002 1784l-333 -181h-109l303 312c23.333 23.333 45 40.333 65 51s40 16 60 16c26 0 48.167 -9.33301 66.5 -28s27.5 -41.334 27.5 -68.001
c0 -19.333 -6.66699 -37.666 -20 -54.999s-33.333 -33 -60 -47z" />
    <glyph glyph-name="Icircumflex" unicode="&#xce;" horiz-adv-x="817" 
d="M193 1470c78 -3.33301 142.002 -5.83398 192.002 -7.50098s92.333 -2.5 127 -2.5c34 0 75.167 0.833008 123.5 2.5s112.166 4.16699 191.499 7.5v-94c-60.667 -0.666992 -102.5 -9 -125.5 -25s-39.167 -54 -48.5 -114l-157 -969c-4.66699 -22.667 -8 -41.667 -10 -57
s-3 -27.666 -3 -36.999c0 -28.667 8.5 -48.5 25.5 -59.5s59.167 -18.5 126.5 -22.5l-1 -92c-86.667 4 -154.167 6.66699 -202.5 8s-87.833 2 -118.5 2c-29.333 0 -67.5 -0.666992 -114.5 -2s-116.5 -4 -208.5 -8v92c61.333 1.33301 103.333 10 126 26s38.667 53.667 48 113
l158 969c4 29.333 7 52 9 68s3 27.667 3 35c0 25.333 -9.33301 43.333 -28 54s-56.334 17 -113.001 19v94zM539.002 1960h145l160 -359h-80l-172 183l-258 -183h-102z" />
    <glyph glyph-name="Idieresis" unicode="&#xcf;" horiz-adv-x="817" 
d="M193 1470c78 -3.33301 142.002 -5.83398 192.002 -7.50098s92.333 -2.5 127 -2.5c34 0 75.167 0.833008 123.5 2.5s112.166 4.16699 191.499 7.5v-94c-60.667 -0.666992 -102.5 -9 -125.5 -25s-39.167 -54 -48.5 -114l-157 -969c-4.66699 -22.667 -8 -41.667 -10 -57
s-3 -27.666 -3 -36.999c0 -28.667 8.5 -48.5 25.5 -59.5s59.167 -18.5 126.5 -22.5l-1 -92c-86.667 4 -154.167 6.66699 -202.5 8s-87.833 2 -118.5 2c-29.333 0 -67.5 -0.666992 -114.5 -2s-116.5 -4 -208.5 -8v92c61.333 1.33301 103.333 10 126 26s38.667 53.667 48 113
l158 969c4 29.333 7 52 9 68s3 27.667 3 35c0 25.333 -9.33301 43.333 -28 54s-56.334 17 -113.001 19v94zM777.002 1908c35.333 0 65.668 -12.667 91.001 -38s38 -55.666 38 -90.999c0 -37.333 -12.333 -68.5 -37 -93.5s-55.334 -37.5 -92.001 -37.5
s-67.667 12.833 -93 38.5s-38 56.5 -38 92.5c0 33.333 13.333 63.166 40 89.499s57 39.5 91 39.5zM402.004 1908c35.333 0 65.333 -12.501 90 -37.501s37 -55.5 37 -91.5c0 -37.333 -12 -68.5 -36 -93.5s-54.333 -37.5 -91 -37.5c-36 0 -66.833 12.833 -92.5 38.5
s-38.5 55.834 -38.5 90.501c0 34 13.333 64.333 40 91s57 40 91 40z" />
    <glyph glyph-name="Eth" unicode="&#xd0;" horiz-adv-x="1616" 
d="M678 1368l-89.9971 -553.001h280l-16 -100h-281l-98 -609h7c69.333 -5.33301 119 -8 149 -8c93.333 0 165.666 9 216.999 27s97.666 48.667 138.999 92c61.333 63.333 110.5 155.833 147.5 277.5s55.5 253.834 55.5 396.501c0 162 -31.167 282.333 -93.5 361
s-157.5 118 -285.5 118c-28.667 0 -52.834 -0.166992 -72.501 -0.5s-39.167 -0.833008 -58.5 -1.5zM205.003 1470c74 -2 139.667 -3.49902 197 -4.49902s106.333 -1.5 147 -1.5c3.33301 0 39.333 0.333008 108 1s135.667 1 201 1c220 0 389.667 -55.333 509 -166
s179 -267.667 179 -471c0 -124.667 -21 -241.5 -63 -350.5s-101.333 -200.833 -178 -275.5c-73.333 -71.333 -158.5 -123 -255.5 -155s-217.5 -48 -361.5 -48c-34 0 -87.167 1 -159.5 3s-127.833 3 -166.5 3c-26.667 0 -69.167 -0.5 -127.5 -1.5
s-132.166 -2.5 -221.499 -4.5v92c52 2 88.167 10.667 108.5 26s35.166 51 44.499 107l80 490h-234l17 100h233l62 386c1.33301 10.667 3.33301 24.667 6 42c5.33301 36.667 8 58 8 64c0 23.333 -9.16699 40.166 -27.5 50.499s-53.5 16.833 -105.5 19.5v93z" />
    <glyph glyph-name="Ntilde" unicode="&#xd1;" horiz-adv-x="1599" 
d="M139 1470c55.333 -3.33301 100.667 -5.83301 136 -7.5s65.333 -2.5 90 -2.5c24 0 52.833 0.833008 86.5 2.5s77.167 4.16699 130.5 7.5l632 -1083l127 778c4.66699 24.667 8.33398 47 11.001 67s4 34 4 42c0 37.333 -11.167 63.333 -33.5 78s-64.5 23 -126.5 25v93
c48 -3.33301 90.667 -5.83301 128 -7.5s71 -2.5 101 -2.5c18.667 0 43.334 0.833008 74.001 2.5s73 4.16699 127 7.5v-93c-57.333 -1.33301 -98 -13.333 -122 -36s-42 -70.334 -54 -143.001l-197 -1186l-182 -22l-663 1145l-136 -832
c-0.666992 -7.33301 -2.33398 -18.333 -5.00098 -33c-6 -42 -9 -66.333 -9 -73c0 -38.667 11.167 -65.5 33.5 -80.5s63.5 -23.167 123.5 -24.5l1 -92c-59.333 4 -105.833 6.66699 -139.5 8s-63.167 2 -88.5 2c-16.667 0 -38.834 -0.666992 -66.501 -2s-72.167 -4 -133.5 -8
v92c58 1.33301 98.667 13.333 122 36s41.333 70 54 142l155 934c2.66699 15.333 4.83398 29.333 6.50098 42s2.5 23.334 2.5 32.001c0 36.667 -13.333 62.167 -40 76.5s-76.334 21.5 -149.001 21.5v94zM1233 1912l62 0.999023c-18 -79.333 -43.5 -138.166 -76.5 -176.499
s-74.5 -57.5 -124.5 -57.5c-12 0 -24 0.666992 -36 2s-24 3.33301 -36 6l-117 29c-16 4 -30 7 -42 9s-21.667 3 -29 3c-27.333 0 -49.666 -7.16699 -66.999 -21.5s-30.666 -36.5 -39.999 -66.5h-63c17.333 80.667 42 140.167 74 178.5s72.667 57.5 122 57.5
c13.333 0 27.166 -1 41.499 -3s28.166 -4.66699 41.499 -8l124 -30c7.33301 -2 15.333 -3.5 24 -4.5s20.667 -1.5 36 -1.5c26 0 47.833 6.83301 65.5 20.5s31.167 34.5 40.5 62.5z" />
    <glyph glyph-name="Ograve" unicode="&#xd2;" horiz-adv-x="1597" 
d="M883 1487c190 0 345.335 -62.168 466.002 -186.501s181 -285.5 181 -483.5c0 -98 -14.667 -191.833 -44 -281.5s-72 -171.167 -128 -244.5c-76.667 -99.333 -169.834 -176 -279.501 -230s-226.834 -81 -351.501 -81c-195.333 0 -354 62 -476 186s-183 285.667 -183 485
c0 99.333 14.5 193.833 43.5 283.5s71.833 170.834 128.5 243.501c77.333 100 171 176.5 281 229.5s230.667 79.5 362 79.5zM881.002 1389c-62.667 0 -120.499 -18.667 -173.499 -56s-99.833 -92 -140.5 -164c-44.667 -81.333 -80.334 -180.5 -107.001 -297.5
s-40 -234.833 -40 -353.5c0 -142 25 -250.5 75 -325.5s122 -112.5 216 -112.5c61.333 0 118 17.167 170 51.5s98.333 85.5 139 153.5c49.333 81.333 88.333 182.833 117 304.5s43 248.167 43 379.5c0 134 -26.167 237.5 -78.5 310.5s-125.833 109.5 -220.5 109.5z
M891.003 1917l248.001 -314h-104l-273 185c-24 16.667 -42 33.167 -54 49.5s-18 33.166 -18 50.499c0 26.667 9.16699 49.334 27.5 68.001s40.166 28 65.499 28c18.667 0 37 -5.5 55 -16.5s35.667 -27.833 53 -50.5z" />
    <glyph glyph-name="Oacute" unicode="&#xd3;" horiz-adv-x="1597" 
d="M883 1487c190 0 345.335 -62.168 466.002 -186.501s181 -285.5 181 -483.5c0 -98 -14.667 -191.833 -44 -281.5s-72 -171.167 -128 -244.5c-76.667 -99.333 -169.834 -176 -279.501 -230s-226.834 -81 -351.501 -81c-195.333 0 -354 62 -476 186s-183 285.667 -183 485
c0 99.333 14.5 193.833 43.5 283.5s71.833 170.834 128.5 243.501c77.333 100 171 176.5 281 229.5s230.667 79.5 362 79.5zM881.002 1389c-62.667 0 -120.499 -18.667 -173.499 -56s-99.833 -92 -140.5 -164c-44.667 -81.333 -80.334 -180.5 -107.001 -297.5
s-40 -234.833 -40 -353.5c0 -142 25 -250.5 75 -325.5s122 -112.5 216 -112.5c61.333 0 118 17.167 170 51.5s98.333 85.5 139 153.5c49.333 81.333 88.333 182.833 117 304.5s43 248.167 43 379.5c0 134 -26.167 237.5 -78.5 310.5s-125.833 109.5 -220.5 109.5zM1198 1784
l-333 -181h-109l303 312c23.333 23.333 45 40.333 65 51s40 16 60 16c26 0 48.167 -9.33301 66.5 -28s27.5 -41.334 27.5 -68.001c0 -19.333 -6.66699 -37.666 -20 -54.999s-33.333 -33 -60 -47z" />
    <glyph glyph-name="Ocircumflex" unicode="&#xd4;" horiz-adv-x="1597" 
d="M883 1487c190 0 345.335 -62.168 466.002 -186.501s181 -285.5 181 -483.5c0 -98 -14.667 -191.833 -44 -281.5s-72 -171.167 -128 -244.5c-76.667 -99.333 -169.834 -176 -279.501 -230s-226.834 -81 -351.501 -81c-195.333 0 -354 62 -476 186s-183 285.667 -183 485
c0 99.333 14.5 193.833 43.5 283.5s71.833 170.834 128.5 243.501c77.333 100 171 176.5 281 229.5s230.667 79.5 362 79.5zM881.002 1389c-62.667 0 -120.499 -18.667 -173.499 -56s-99.833 -92 -140.5 -164c-44.667 -81.333 -80.334 -180.5 -107.001 -297.5
s-40 -234.833 -40 -353.5c0 -142 25 -250.5 75 -325.5s122 -112.5 216 -112.5c61.333 0 118 17.167 170 51.5s98.333 85.5 139 153.5c49.333 81.333 88.333 182.833 117 304.5s43 248.167 43 379.5c0 134 -26.167 237.5 -78.5 310.5s-125.833 109.5 -220.5 109.5z
M928.003 1960h145l160 -359h-80l-172 183l-258 -183h-102z" />
    <glyph glyph-name="Otilde" unicode="&#xd5;" horiz-adv-x="1597" 
d="M883 1487c190 0 345.335 -62.168 466.002 -186.501s181 -285.5 181 -483.5c0 -98 -14.667 -191.833 -44 -281.5s-72 -171.167 -128 -244.5c-76.667 -99.333 -169.834 -176 -279.501 -230s-226.834 -81 -351.501 -81c-195.333 0 -354 62 -476 186s-183 285.667 -183 485
c0 99.333 14.5 193.833 43.5 283.5s71.833 170.834 128.5 243.501c77.333 100 171 176.5 281 229.5s230.667 79.5 362 79.5zM881.002 1389c-62.667 0 -120.499 -18.667 -173.499 -56s-99.833 -92 -140.5 -164c-44.667 -81.333 -80.334 -180.5 -107.001 -297.5
s-40 -234.833 -40 -353.5c0 -142 25 -250.5 75 -325.5s122 -112.5 216 -112.5c61.333 0 118 17.167 170 51.5s98.333 85.5 139 153.5c49.333 81.333 88.333 182.833 117 304.5s43 248.167 43 379.5c0 134 -26.167 237.5 -78.5 310.5s-125.833 109.5 -220.5 109.5zM1231 1912
l62 0.999023c-18 -79.333 -43.5 -138.166 -76.5 -176.499s-74.5 -57.5 -124.5 -57.5c-12 0 -24 0.666992 -36 2s-24 3.33301 -36 6l-117 29c-16 4 -30 7 -42 9s-21.667 3 -29 3c-27.333 0 -49.666 -7.16699 -66.999 -21.5s-30.666 -36.5 -39.999 -66.5h-63
c17.333 80.667 42 140.167 74 178.5s72.667 57.5 122 57.5c13.333 0 27.166 -1 41.499 -3s28.166 -4.66699 41.499 -8l124 -30c7.33301 -2 15.333 -3.5 24 -4.5s20.667 -1.5 36 -1.5c26 0 47.833 6.83301 65.5 20.5s31.167 34.5 40.5 62.5z" />
    <glyph glyph-name="Odieresis" unicode="&#xd6;" horiz-adv-x="1597" 
d="M883 1487c190 0 345.335 -62.168 466.002 -186.501s181 -285.5 181 -483.5c0 -98 -14.667 -191.833 -44 -281.5s-72 -171.167 -128 -244.5c-76.667 -99.333 -169.834 -176 -279.501 -230s-226.834 -81 -351.501 -81c-195.333 0 -354 62 -476 186s-183 285.667 -183 485
c0 99.333 14.5 193.833 43.5 283.5s71.833 170.834 128.5 243.501c77.333 100 171 176.5 281 229.5s230.667 79.5 362 79.5zM881.002 1389c-62.667 0 -120.499 -18.667 -173.499 -56s-99.833 -92 -140.5 -164c-44.667 -81.333 -80.334 -180.5 -107.001 -297.5
s-40 -234.833 -40 -353.5c0 -142 25 -250.5 75 -325.5s122 -112.5 216 -112.5c61.333 0 118 17.167 170 51.5s98.333 85.5 139 153.5c49.333 81.333 88.333 182.833 117 304.5s43 248.167 43 379.5c0 134 -26.167 237.5 -78.5 310.5s-125.833 109.5 -220.5 109.5zM1166 1908
c35.333 0 65.668 -12.667 91.001 -38s38 -55.666 38 -90.999c0 -37.333 -12.333 -68.5 -37 -93.5s-55.334 -37.5 -92.001 -37.5s-67.667 12.833 -93 38.5s-38 56.5 -38 92.5c0 33.333 13.333 63.166 40 89.499s57 39.5 91 39.5zM791.005 1908
c35.333 0 65.333 -12.501 90 -37.501s37 -55.5 37 -91.5c0 -37.333 -12 -68.5 -36 -93.5s-54.333 -37.5 -91 -37.5c-36 0 -66.833 12.833 -92.5 38.5s-38.5 55.834 -38.5 90.501c0 34 13.333 64.333 40 91s57 40 91 40z" />
    <glyph glyph-name="multiply" unicode="&#xd7;" horiz-adv-x="1706" 
d="M416 1202l450 -450l451 450l141 -139l-450 -453l450 -450l-141 -140l-451 451l-450 -451l-140 140l451 450l-451 453z" />
    <glyph glyph-name="Oslash" unicode="&#xd8;" horiz-adv-x="1597" 
d="M1317 1622h131.002l-174 -260c82 -59.333 144.833 -136.666 188.5 -231.999s65.5 -203 65.5 -323c0 -118 -22 -229.667 -66 -335s-107.333 -197.666 -190 -276.999c-72.667 -70.667 -155.5 -123.834 -248.5 -159.501s-194.5 -53.5 -304.5 -53.5
c-61.333 0 -118.5 6.16699 -171.5 18.5s-103.833 31.166 -152.5 56.499l-155 -227h-131l194 289c-80 66.667 -139.167 143 -177.5 229s-57.5 185.667 -57.5 299c0 125.333 23.167 242.333 69.5 351s113.166 202.667 200.499 282c72.667 66.667 154.5 117.5 245.5 152.5
s186.5 52.5 286.5 52.5c55.333 0 108.666 -5.66699 159.999 -17s102 -28.333 152 -51zM1098 1286c-24.667 34 -54.166 59.168 -88.499 75.501s-73.833 24.5 -118.5 24.5c-74 0 -139.833 -21.833 -197.5 -65.5s-107.834 -109.834 -150.501 -198.501
c-38 -77.333 -67.667 -167.5 -89 -270.5s-32 -207.167 -32 -312.5c0 -46 2 -85.667 6 -119s10 -65.333 18 -96zM1143 1171l-654 -968.001c22 -41.333 51 -72.166 87 -92.499s79.667 -30.5 131 -30.5c74 0 140 22.5 198 67.5s109.333 113.167 154 204.5
c38 79.333 67.667 169 89 269s32 200.333 32 301c0 44.667 -3.16699 87.667 -9.5 129s-15.5 81.333 -27.5 120z" />
    <glyph glyph-name="Ugrave" unicode="&#xd9;" horiz-adv-x="1599" 
d="M201 1470c76.667 -3.33301 139.338 -5.83594 188.005 -7.50293s89.667 -2.5 123 -2.5c34.667 0 77 0.833008 127 2.5s114 4.16699 192 7.5v-94c-66.667 -2.66699 -110.834 -11.667 -132.501 -27s-37.5 -52.666 -47.5 -111.999l-102 -629
c-12 -76.667 -19.833 -130.834 -23.5 -162.501s-5.5 -58.5 -5.5 -80.5c0 -87.333 25 -153.666 75 -198.999s122.667 -68 218 -68c76.667 0 143.167 15.5 199.5 46.5s101.166 76.5 134.499 136.5c38 66.667 73 204.334 105 413.001l3 22l76 484
c3.33301 18.667 5.83301 36.5 7.5 53.5s2.5 31.833 2.5 44.5c0 28.667 -8.33301 48.167 -25 58.5s-60.667 16.833 -132 19.5v94l142.5 -7.5c33 -1.66699 60.5 -2.5 82.5 -2.5c19.333 0 44.666 0.833008 75.999 2.5s75.666 4.16699 132.999 7.5v-93
c-62 -1.33301 -104.667 -10.666 -128 -27.999s-39.333 -54.666 -48 -111.999l-113 -698c-31.333 -194 -96.833 -335.333 -196.5 -424s-241.5 -133 -425.5 -133c-168.667 0 -296.5 32.833 -383.5 98.5s-130.5 161.834 -130.5 288.501c0 42 8.33301 115.333 25 220
c3.33301 19.333 5.66602 33.666 6.99902 42.999l95 569l3 21c7.33301 47.333 11 75.666 11 84.999c0 24 -8.83301 41 -26.5 51s-53.167 16 -106.5 18v94zM903.004 1917l248.001 -314h-104l-273 185c-24 16.667 -42 33.167 -54 49.5s-18 33.166 -18 50.499
c0 26.667 9.16699 49.334 27.5 68.001s40.166 28 65.499 28c18.667 0 37 -5.5 55 -16.5s35.667 -27.833 53 -50.5z" />
    <glyph glyph-name="Uacute" unicode="&#xda;" horiz-adv-x="1599" 
d="M201 1470c76.667 -3.33301 139.338 -5.83594 188.005 -7.50293s89.667 -2.5 123 -2.5c34.667 0 77 0.833008 127 2.5s114 4.16699 192 7.5v-94c-66.667 -2.66699 -110.834 -11.667 -132.501 -27s-37.5 -52.666 -47.5 -111.999l-102 -629
c-12 -76.667 -19.833 -130.834 -23.5 -162.501s-5.5 -58.5 -5.5 -80.5c0 -87.333 25 -153.666 75 -198.999s122.667 -68 218 -68c76.667 0 143.167 15.5 199.5 46.5s101.166 76.5 134.499 136.5c38 66.667 73 204.334 105 413.001l3 22l76 484
c3.33301 18.667 5.83301 36.5 7.5 53.5s2.5 31.833 2.5 44.5c0 28.667 -8.33301 48.167 -25 58.5s-60.667 16.833 -132 19.5v94l142.5 -7.5c33 -1.66699 60.5 -2.5 82.5 -2.5c19.333 0 44.666 0.833008 75.999 2.5s75.666 4.16699 132.999 7.5v-93
c-62 -1.33301 -104.667 -10.666 -128 -27.999s-39.333 -54.666 -48 -111.999l-113 -698c-31.333 -194 -96.833 -335.333 -196.5 -424s-241.5 -133 -425.5 -133c-168.667 0 -296.5 32.833 -383.5 98.5s-130.5 161.834 -130.5 288.501c0 42 8.33301 115.333 25 220
c3.33301 19.333 5.66602 33.666 6.99902 42.999l95 569l3 21c7.33301 47.333 11 75.666 11 84.999c0 24 -8.83301 41 -26.5 51s-53.167 16 -106.5 18v94zM1210 1784l-333 -181h-109l303 312c23.333 23.333 45 40.333 65 51s40 16 60 16c26 0 48.167 -9.33301 66.5 -28
s27.5 -41.334 27.5 -68.001c0 -19.333 -6.66699 -37.666 -20 -54.999s-33.333 -33 -60 -47z" />
    <glyph glyph-name="Ucircumflex" unicode="&#xdb;" horiz-adv-x="1599" 
d="M201 1470c76.667 -3.33301 139.338 -5.83594 188.005 -7.50293s89.667 -2.5 123 -2.5c34.667 0 77 0.833008 127 2.5s114 4.16699 192 7.5v-94c-66.667 -2.66699 -110.834 -11.667 -132.501 -27s-37.5 -52.666 -47.5 -111.999l-102 -629
c-12 -76.667 -19.833 -130.834 -23.5 -162.501s-5.5 -58.5 -5.5 -80.5c0 -87.333 25 -153.666 75 -198.999s122.667 -68 218 -68c76.667 0 143.167 15.5 199.5 46.5s101.166 76.5 134.499 136.5c38 66.667 73 204.334 105 413.001l3 22l76 484
c3.33301 18.667 5.83301 36.5 7.5 53.5s2.5 31.833 2.5 44.5c0 28.667 -8.33301 48.167 -25 58.5s-60.667 16.833 -132 19.5v94l142.5 -7.5c33 -1.66699 60.5 -2.5 82.5 -2.5c19.333 0 44.666 0.833008 75.999 2.5s75.666 4.16699 132.999 7.5v-93
c-62 -1.33301 -104.667 -10.666 -128 -27.999s-39.333 -54.666 -48 -111.999l-113 -698c-31.333 -194 -96.833 -335.333 -196.5 -424s-241.5 -133 -425.5 -133c-168.667 0 -296.5 32.833 -383.5 98.5s-130.5 161.834 -130.5 288.501c0 42 8.33301 115.333 25 220
c3.33301 19.333 5.66602 33.666 6.99902 42.999l95 569l3 21c7.33301 47.333 11 75.666 11 84.999c0 24 -8.83301 41 -26.5 51s-53.167 16 -106.5 18v94zM940.004 1960h145l160 -359h-80l-172 183l-258 -183h-102z" />
    <glyph glyph-name="Udieresis" unicode="&#xdc;" horiz-adv-x="1599" 
d="M201 1470c76.667 -3.33301 139.338 -5.83594 188.005 -7.50293s89.667 -2.5 123 -2.5c34.667 0 77 0.833008 127 2.5s114 4.16699 192 7.5v-94c-66.667 -2.66699 -110.834 -11.667 -132.501 -27s-37.5 -52.666 -47.5 -111.999l-102 -629
c-12 -76.667 -19.833 -130.834 -23.5 -162.501s-5.5 -58.5 -5.5 -80.5c0 -87.333 25 -153.666 75 -198.999s122.667 -68 218 -68c76.667 0 143.167 15.5 199.5 46.5s101.166 76.5 134.499 136.5c38 66.667 73 204.334 105 413.001l3 22l76 484
c3.33301 18.667 5.83301 36.5 7.5 53.5s2.5 31.833 2.5 44.5c0 28.667 -8.33301 48.167 -25 58.5s-60.667 16.833 -132 19.5v94l142.5 -7.5c33 -1.66699 60.5 -2.5 82.5 -2.5c19.333 0 44.666 0.833008 75.999 2.5s75.666 4.16699 132.999 7.5v-93
c-62 -1.33301 -104.667 -10.666 -128 -27.999s-39.333 -54.666 -48 -111.999l-113 -698c-31.333 -194 -96.833 -335.333 -196.5 -424s-241.5 -133 -425.5 -133c-168.667 0 -296.5 32.833 -383.5 98.5s-130.5 161.834 -130.5 288.501c0 42 8.33301 115.333 25 220
c3.33301 19.333 5.66602 33.666 6.99902 42.999l95 569l3 21c7.33301 47.333 11 75.666 11 84.999c0 24 -8.83301 41 -26.5 51s-53.167 16 -106.5 18v94zM1178 1908c35.333 0 65.668 -12.667 91.001 -38s38 -55.666 38 -90.999c0 -37.333 -12.333 -68.5 -37 -93.5
s-55.334 -37.5 -92.001 -37.5s-67.667 12.833 -93 38.5s-38 56.5 -38 92.5c0 33.333 13.333 63.166 40 89.499s57 39.5 91 39.5zM803.006 1908c35.333 0 65.333 -12.501 90 -37.501s37 -55.5 37 -91.5c0 -37.333 -12 -68.5 -36 -93.5s-54.333 -37.5 -91 -37.5
c-36 0 -66.833 12.833 -92.5 38.5s-38.5 55.834 -38.5 90.501c0 34 13.333 64.333 40 91s57 40 91 40z" />
    <glyph glyph-name="Yacute" unicode="&#xdd;" horiz-adv-x="1245" 
d="M-6 1470c94 -4 161.999 -6.66895 203.999 -8.00195s75.667 -2 101 -2c32.667 0 74.334 0.833008 125.001 2.5s119 4.16699 205 7.5v-94c-48.667 -4.66699 -80.334 -11.167 -95.001 -19.5s-22 -21.5 -22 -39.5c0 -8 2 -18.667 6 -32s10.333 -29.333 19 -48l213 -485
l282 489c8 14.667 14.5 29.334 19.5 44.001s7.5 26.667 7.5 36c0 18.667 -9.66699 32.334 -29 41.001s-52.666 13.667 -99.999 15v93c51.333 -3.33301 93.333 -5.83301 126 -7.5s60.334 -2.5 83.001 -2.5c21.333 0 47.666 0.833008 78.999 2.5s73 4.16699 125 7.5l2 -94
c-38 -2 -69.833 -11.833 -95.5 -29.5s-57.167 -56.834 -94.5 -117.501l-358 -580l-62 -381c-3.33301 -18.667 -5.83301 -36 -7.5 -52s-2.5 -30 -2.5 -42c0 -28.667 8.33301 -48.5 25 -59.5s58 -18.5 124 -22.5v-92c-86.667 4 -154.167 6.66699 -202.5 8s-87.833 2 -118.5 2
s-69.834 -0.666992 -117.501 -2s-116.5 -4 -206.5 -8l1 92c61.333 1.33301 103.333 10.333 126 27s38.334 54 47.001 112l64 383l-272 596c-29.333 62.667 -57.833 104.834 -85.5 126.501s-66.167 35.167 -115.5 40.5v93zM1022 1784l-333 -181h-109l303 312
c23.333 23.333 45 40.333 65 51s40 16 60 16c26 0 48.167 -9.33301 66.5 -28s27.5 -41.334 27.5 -68.001c0 -19.333 -6.66699 -37.666 -20 -54.999s-33.333 -33 -60 -47z" />
    <glyph glyph-name="Thorn" unicode="&#xde;" horiz-adv-x="1399" 
d="M627 1067l-99.001 -596c5.33301 0 13 -0.333008 23 -1c34.667 -2 58.667 -3 72 -3c118 0 204.5 28 259.5 84s82.5 144 82.5 264c0 89.333 -22.833 154 -68.5 194s-119.167 60 -220.5 60c-4.66699 0 -12.667 -0.333008 -24 -1s-19.666 -1 -24.999 -1zM200.999 1470
c76.667 -3.33301 139.33 -5.8291 187.997 -7.49609s89.667 -2.5 123 -2.5c36.667 0 80 0.833008 130 2.5s111.667 4.16699 185 7.5v-94c-60.667 -0.666992 -102.5 -9 -125.5 -25s-39.167 -54 -48.5 -114l-12 -71c30.667 1.33301 53.334 2.16602 68.001 2.49902
s28.334 0.5 41.001 0.5c181.333 0 319.5 -33 414.5 -99s142.5 -162 142.5 -288c0 -136 -51 -239.5 -153 -310.5s-251 -106.5 -447 -106.5c-54.667 0 -95.167 0.333008 -121.5 1s-50.833 2.33398 -73.5 5.00098l-16 -103c-4.66699 -26.667 -8 -48.834 -10 -66.501
s-3 -30.834 -3 -39.501c0 -26 11 -43.833 33 -53.5s71.667 -15.167 149 -16.5v-92c-88 3.33301 -160.667 5.83301 -218 7.5s-106.666 2.5 -147.999 2.5c-28.667 0 -122 -3 -280 -9l-19 -1v92c56.667 1.33301 95.834 9.66602 117.501 24.999s37.167 51.333 46.5 108l158 975
c3.33301 22 6.16602 42.5 8.49902 61.5s3.5 34.167 3.5 45.5c0 23.333 -9.33301 40.166 -28 50.499s-53.667 16.5 -105 18.5v94z" />
    <glyph glyph-name="germandbls" unicode="&#xdf;" horiz-adv-x="1219" 
d="M770 856c112 -14 197.663 -49.333 256.996 -106s89 -131.334 89 -224.001c0 -148.667 -45.667 -276.5 -137 -383.5s-198.666 -160.5 -321.999 -160.5c-32.667 0 -64.667 4.66699 -96 14s-63.333 23.666 -96 42.999l16 88c22 -11.333 41.667 -19.666 59 -24.999
s34 -8 50 -8c28.667 0 55.167 8.33301 79.5 25s43.5 39.667 57.5 69c25.333 50.667 46 111.5 62 182.5s24 137.167 24 198.5c0 86 -17.667 148.167 -53 186.5s-96 60.833 -182 67.5l14 80c3.33301 -0.666992 6.83301 -1.16699 10.5 -1.5s8.83398 -0.5 15.501 -0.5
c76.667 0 140.334 36.333 191.001 109s76 162.667 76 270c0 48.667 -10.833 87.167 -32.5 115.5s-51.167 42.5 -88.5 42.5c-70.667 0 -126.667 -44 -168 -132s-81.666 -257 -120.999 -507l-55 -355c-32.667 -205.333 -61.334 -364.333 -86.001 -477
s-52.667 -217.667 -84 -315l-307 -88c31.333 89.333 61 197.833 89 325.5s63.667 324.834 107 591.501l64 398c0.666992 5.33301 2 14 4 26c26 159.333 64.333 280.333 115 363c50.667 84 114.334 147.667 191.001 191s163.667 65 261 65
c118.667 0 213.5 -27.833 284.5 -83.5s106.5 -129.5 106.5 -221.5c0 -88.667 -35.333 -165.667 -106 -231s-167 -109.333 -289 -132z" />
    <glyph glyph-name="agrave" unicode="&#xe0;" horiz-adv-x="1253" 
d="M770 762c-4 52 -17.165 92 -39.498 120s-52.166 42 -89.499 42c-38.667 0 -75.834 -16.833 -111.501 -50.5s-68.834 -83.167 -99.501 -148.5c-32.667 -68.667 -58.5 -141 -77.5 -217s-28.5 -143.667 -28.5 -203c0 -54 8 -93.833 24 -119.5s41.333 -38.5 76 -38.5
c44 0 96.667 35.5 158 106.5s100.666 143.5 117.999 217.5zM811.002 889l39.002 121h264l-176 -729c-6 -22 -10.167 -40.333 -12.5 -55s-3.5 -27.334 -3.5 -38.001c0 -19.333 4.83301 -34.666 14.5 -45.999s22.5 -17 38.5 -17c25.333 0 51 13.833 77 41.5
s51.333 68.5 76 122.5l64 -29c-42 -92.667 -92.5 -162.167 -151.5 -208.5s-126.5 -69.5 -202.5 -69.5c-60.667 0 -106.667 14.167 -138 42.5s-47 70.166 -47 125.499c0 12.667 1 28.334 3 47.001s5.33301 39.667 10 63c-54.667 -89.333 -116.834 -158 -186.501 -206
s-141.5 -72 -215.5 -72c-76.667 0 -136.834 26.667 -180.501 80s-65.5 127.666 -65.5 222.999c0 84 15.333 169.167 46 255.5s73.667 164.833 129 235.5c57.333 74.667 120.833 132.334 190.5 173.001s139.167 61 208.5 61c54.667 0 100 -10 136 -30s63.667 -50.333 83 -91z
M676.004 1436l248.001 -314h-104l-273 185c-24 16.667 -42 33.167 -54 49.5s-18 33.166 -18 50.499c0 26.667 9.16699 49.334 27.5 68.001s40.166 28 65.499 28c18.667 0 37 -5.5 55 -16.5s35.667 -27.833 53 -50.5z" />
    <glyph glyph-name="aacute" unicode="&#xe1;" horiz-adv-x="1253" 
d="M770 762c-4 52 -17.165 92 -39.498 120s-52.166 42 -89.499 42c-38.667 0 -75.834 -16.833 -111.501 -50.5s-68.834 -83.167 -99.501 -148.5c-32.667 -68.667 -58.5 -141 -77.5 -217s-28.5 -143.667 -28.5 -203c0 -54 8 -93.833 24 -119.5s41.333 -38.5 76 -38.5
c44 0 96.667 35.5 158 106.5s100.666 143.5 117.999 217.5zM811.002 889l39.002 121h264l-176 -729c-6 -22 -10.167 -40.333 -12.5 -55s-3.5 -27.334 -3.5 -38.001c0 -19.333 4.83301 -34.666 14.5 -45.999s22.5 -17 38.5 -17c25.333 0 51 13.833 77 41.5
s51.333 68.5 76 122.5l64 -29c-42 -92.667 -92.5 -162.167 -151.5 -208.5s-126.5 -69.5 -202.5 -69.5c-60.667 0 -106.667 14.167 -138 42.5s-47 70.166 -47 125.499c0 12.667 1 28.334 3 47.001s5.33301 39.667 10 63c-54.667 -89.333 -116.834 -158 -186.501 -206
s-141.5 -72 -215.5 -72c-76.667 0 -136.834 26.667 -180.501 80s-65.5 127.666 -65.5 222.999c0 84 15.333 169.167 46 255.5s73.667 164.833 129 235.5c57.333 74.667 120.833 132.334 190.5 173.001s139.167 61 208.5 61c54.667 0 100 -10 136 -30s63.667 -50.333 83 -91z
M983.004 1303l-333 -181h-109l303 312c23.333 23.333 45 40.333 65 51s40 16 60 16c26 0 48.167 -9.33301 66.5 -28s27.5 -41.334 27.5 -68.001c0 -19.333 -6.66699 -37.666 -20 -54.999s-33.333 -33 -60 -47z" />
    <glyph glyph-name="acircumflex" unicode="&#xe2;" horiz-adv-x="1253" 
d="M770 762c-4 52 -17.165 92 -39.498 120s-52.166 42 -89.499 42c-38.667 0 -75.834 -16.833 -111.501 -50.5s-68.834 -83.167 -99.501 -148.5c-32.667 -68.667 -58.5 -141 -77.5 -217s-28.5 -143.667 -28.5 -203c0 -54 8 -93.833 24 -119.5s41.333 -38.5 76 -38.5
c44 0 96.667 35.5 158 106.5s100.666 143.5 117.999 217.5zM811.002 889l39.002 121h264l-176 -729c-6 -22 -10.167 -40.333 -12.5 -55s-3.5 -27.334 -3.5 -38.001c0 -19.333 4.83301 -34.666 14.5 -45.999s22.5 -17 38.5 -17c25.333 0 51 13.833 77 41.5
s51.333 68.5 76 122.5l64 -29c-42 -92.667 -92.5 -162.167 -151.5 -208.5s-126.5 -69.5 -202.5 -69.5c-60.667 0 -106.667 14.167 -138 42.5s-47 70.166 -47 125.499c0 12.667 1 28.334 3 47.001s5.33301 39.667 10 63c-54.667 -89.333 -116.834 -158 -186.501 -206
s-141.5 -72 -215.5 -72c-76.667 0 -136.834 26.667 -180.501 80s-65.5 127.666 -65.5 222.999c0 84 15.333 169.167 46 255.5s73.667 164.833 129 235.5c57.333 74.667 120.833 132.334 190.5 173.001s139.167 61 208.5 61c54.667 0 100 -10 136 -30s63.667 -50.333 83 -91z
M713.004 1479h145l160 -359h-80l-172 183l-258 -183h-102z" />
    <glyph glyph-name="atilde" unicode="&#xe3;" horiz-adv-x="1253" 
d="M770 762c-4 52 -17.165 92 -39.498 120s-52.166 42 -89.499 42c-38.667 0 -75.834 -16.833 -111.501 -50.5s-68.834 -83.167 -99.501 -148.5c-32.667 -68.667 -58.5 -141 -77.5 -217s-28.5 -143.667 -28.5 -203c0 -54 8 -93.833 24 -119.5s41.333 -38.5 76 -38.5
c44 0 96.667 35.5 158 106.5s100.666 143.5 117.999 217.5zM811.002 889l39.002 121h264l-176 -729c-6 -22 -10.167 -40.333 -12.5 -55s-3.5 -27.334 -3.5 -38.001c0 -19.333 4.83301 -34.666 14.5 -45.999s22.5 -17 38.5 -17c25.333 0 51 13.833 77 41.5
s51.333 68.5 76 122.5l64 -29c-42 -92.667 -92.5 -162.167 -151.5 -208.5s-126.5 -69.5 -202.5 -69.5c-60.667 0 -106.667 14.167 -138 42.5s-47 70.166 -47 125.499c0 12.667 1 28.334 3 47.001s5.33301 39.667 10 63c-54.667 -89.333 -116.834 -158 -186.501 -206
s-141.5 -72 -215.5 -72c-76.667 0 -136.834 26.667 -180.501 80s-65.5 127.666 -65.5 222.999c0 84 15.333 169.167 46 255.5s73.667 164.833 129 235.5c57.333 74.667 120.833 132.334 190.5 173.001s139.167 61 208.5 61c54.667 0 100 -10 136 -30s63.667 -50.333 83 -91z
M1016 1431l62 0.999023c-18 -79.333 -43.5 -138.166 -76.5 -176.499s-74.5 -57.5 -124.5 -57.5c-12 0 -24 0.666992 -36 2s-24 3.33301 -36 6l-117 29c-16 4 -30 7 -42 9s-21.667 3 -29 3c-27.333 0 -49.666 -7.16699 -66.999 -21.5s-30.666 -36.5 -39.999 -66.5h-63
c17.333 80.667 42 140.167 74 178.5s72.667 57.5 122 57.5c13.333 0 27.166 -1 41.499 -3s28.166 -4.66699 41.499 -8l124 -30c7.33301 -2 15.333 -3.5 24 -4.5s20.667 -1.5 36 -1.5c26 0 47.833 6.83301 65.5 20.5s31.167 34.5 40.5 62.5z" />
    <glyph glyph-name="adieresis" unicode="&#xe4;" horiz-adv-x="1253" 
d="M770 762c-4 52 -17.165 92 -39.498 120s-52.166 42 -89.499 42c-38.667 0 -75.834 -16.833 -111.501 -50.5s-68.834 -83.167 -99.501 -148.5c-32.667 -68.667 -58.5 -141 -77.5 -217s-28.5 -143.667 -28.5 -203c0 -54 8 -93.833 24 -119.5s41.333 -38.5 76 -38.5
c44 0 96.667 35.5 158 106.5s100.666 143.5 117.999 217.5zM811.002 889l39.002 121h264l-176 -729c-6 -22 -10.167 -40.333 -12.5 -55s-3.5 -27.334 -3.5 -38.001c0 -19.333 4.83301 -34.666 14.5 -45.999s22.5 -17 38.5 -17c25.333 0 51 13.833 77 41.5
s51.333 68.5 76 122.5l64 -29c-42 -92.667 -92.5 -162.167 -151.5 -208.5s-126.5 -69.5 -202.5 -69.5c-60.667 0 -106.667 14.167 -138 42.5s-47 70.166 -47 125.499c0 12.667 1 28.334 3 47.001s5.33301 39.667 10 63c-54.667 -89.333 -116.834 -158 -186.501 -206
s-141.5 -72 -215.5 -72c-76.667 0 -136.834 26.667 -180.501 80s-65.5 127.666 -65.5 222.999c0 84 15.333 169.167 46 255.5s73.667 164.833 129 235.5c57.333 74.667 120.833 132.334 190.5 173.001s139.167 61 208.5 61c54.667 0 100 -10 136 -30s63.667 -50.333 83 -91z
M951.004 1427c35.333 0 65.668 -12.667 91.001 -38s38 -55.666 38 -90.999c0 -37.333 -12.333 -68.5 -37 -93.5s-55.334 -37.5 -92.001 -37.5s-67.667 12.833 -93 38.5s-38 56.5 -38 92.5c0 33.333 13.333 63.166 40 89.499s57 39.5 91 39.5zM576.006 1427
c35.333 0 65.333 -12.501 90 -37.501s37 -55.5 37 -91.5c0 -37.333 -12 -68.5 -36 -93.5s-54.333 -37.5 -91 -37.5c-36 0 -66.833 12.833 -92.5 38.5s-38.5 55.834 -38.5 90.501c0 34 13.333 64.333 40 91s57 40 91 40z" />
    <glyph glyph-name="aring" unicode="&#xe5;" horiz-adv-x="1253" 
d="M770 762c-4 52 -17.165 92 -39.498 120s-52.166 42 -89.499 42c-38.667 0 -75.834 -16.833 -111.501 -50.5s-68.834 -83.167 -99.501 -148.5c-32.667 -68.667 -58.5 -141 -77.5 -217s-28.5 -143.667 -28.5 -203c0 -54 8 -93.833 24 -119.5s41.333 -38.5 76 -38.5
c44 0 96.667 35.5 158 106.5s100.666 143.5 117.999 217.5zM811.002 889l39.002 121h264l-176 -729c-6 -22 -10.167 -40.333 -12.5 -55s-3.5 -27.334 -3.5 -38.001c0 -19.333 4.83301 -34.666 14.5 -45.999s22.5 -17 38.5 -17c25.333 0 51 13.833 77 41.5
s51.333 68.5 76 122.5l64 -29c-42 -92.667 -92.5 -162.167 -151.5 -208.5s-126.5 -69.5 -202.5 -69.5c-60.667 0 -106.667 13.833 -138 41.5s-47 68.167 -47 121.5c0 15.333 1 32.333 3 51s5.33301 40 10 64c-54.667 -89.333 -116.834 -158 -186.501 -206
s-141.5 -72 -215.5 -72c-76.667 0 -136.834 26.667 -180.501 80s-65.5 127.666 -65.5 222.999c0 84 15.333 169.167 46 255.5s73.667 164.833 129 235.5c57.333 74.667 120.833 132.334 190.5 173.001s139.167 61 208.5 61c54.667 0 100 -10 136 -30s63.667 -50.333 83 -91z
M737.004 1411c-30.667 0 -56.667 -11 -78 -33s-32 -48.667 -32 -80c0 -30.667 10.667 -56.667 32 -78s47.333 -32 78 -32c31.333 0 58 10.833 80 32.5s33 47.5 33 77.5c0 31.333 -11 58 -33 80s-48.667 33 -80 33zM737.004 1522c62.667 0 116 -21.833 160 -65.5
s66 -96.5 66 -158.5s-22 -114.667 -66 -158s-97.333 -65 -160 -65s-115.5 21.5 -158.5 64.5s-64.5 95.833 -64.5 158.5s21.667 115.667 65 159s96 65 158 65z" />
    <glyph glyph-name="ae" unicode="&#xe6;" horiz-adv-x="1657" 
d="M680 481c-132 0 -229.5 -19.3311 -292.5 -57.998s-94.5 -98.334 -94.5 -179.001c0 -42.667 10.833 -76.334 32.5 -101.001s51.167 -37 88.5 -37c33.333 0 68.833 11.333 106.5 34s76.5 56 116.5 100zM983 570.002c122.667 2.66699 214.499 24.165 275.499 64.498
s91.5 99.833 91.5 178.5c0 34.667 -9.16699 61.834 -27.5 81.501s-43.5 29.5 -75.5 29.5c-61.333 0 -114.666 -30.667 -159.999 -92s-80 -148.666 -104 -261.999zM894.999 844c54 57.333 113.669 99.665 179.002 126.998s138.666 41 219.999 41c94 0 167 -18.5 219 -55.5
s78 -88.167 78 -153.5c0 -98.667 -53.833 -176 -161.5 -232s-257.834 -84 -450.501 -84h-10c-8 -37.333 -13.833 -72.333 -17.5 -105s-5.5 -63 -5.5 -91c0 -66.667 13.5 -116.5 40.5 -149.5s67.5 -49.5 121.5 -49.5c62 0 121.167 20 177.5 60s104.5 95.667 144.5 167l61 -40
c-47.333 -94 -111.166 -167 -191.499 -219s-168.833 -78 -265.5 -78c-76.667 0 -143.167 18.333 -199.5 55s-98.833 89.334 -127.5 158.001c-65.333 -72 -134.333 -125.5 -207 -160.5s-150 -52.5 -232 -52.5s-147.167 21 -195.5 63s-72.5 98.667 -72.5 170
c0 110.667 57.167 194.5 171.5 251.5s289.166 89.167 524.499 96.5l19 96c2.66699 15.333 4.66699 31 6 47s2 31.333 2 46c0 58.667 -13.833 102 -41.5 130s-70.5 42 -128.5 42c-23.333 0 -46 -3.33301 -68 -10s-45.667 -17 -71 -31
c1.33301 -9.33301 2.33301 -18.833 3 -28.5s1 -22.834 1 -39.501c0 -45.333 -13.167 -82.666 -39.5 -111.999s-59.5 -44 -99.5 -44c-34 0 -61.333 10.5 -82 31.5s-31 48.833 -31 83.5c0 68.667 36.667 125.5 110 170.5s169 67.5 287 67.5
c80.667 0 148.667 -14.167 204 -42.5s98 -70.166 128 -125.499z" />
    <glyph glyph-name="ccedilla" unicode="&#xe7;" horiz-adv-x="1067" 
d="M895 319l61.002 -40.001c-44.667 -99.333 -106.5 -173.666 -185.5 -222.999s-175.5 -74 -289.5 -74c-140.667 0 -250.5 36.167 -329.5 108.5s-118.5 173.166 -118.5 302.499c0 170.667 59.667 316.167 179 436.5s263.666 180.5 432.999 180.5
c106.667 0 192 -23.833 256 -71.5s96 -109.834 96 -186.501c0 -44 -11.833 -79.667 -35.5 -107s-54.167 -41 -91.5 -41c-36.667 0 -65.834 12.333 -87.501 37s-32.5 57.334 -32.5 98.001c0 20 2 43.833 6 71.5s6 44.834 6 51.501c0 18.667 -9 33.334 -27 44.001
s-42.333 16 -73 16c-88 0 -162.333 -52.167 -223 -156.5s-91 -233.166 -91 -386.499c0 -94.667 20.5 -167.834 61.5 -219.501s98.5 -77.5 172.5 -77.5c62 0 121 21.167 177 63.5s101.333 100.166 136 173.499zM481.002 -0.000976562h72l-35 -114c6 0 14.333 0.666992 25 2
c26.667 3.33301 44.334 5.33301 53.001 6c53.333 0 95.666 -15.667 126.999 -47s47 -74 47 -128c0 -52.667 -20 -95.167 -60 -127.5s-93.333 -48.5 -160 -48.5c-44.667 0 -93 7.16699 -145 21.5s-109.333 35.833 -172 64.5l41 90c40 -24 80.333 -42.5 121 -55.5
s78 -19.5 112 -19.5c32.667 0 57.667 7 75 21s26 34.333 26 61c0 27.333 -8.83301 48.5 -26.5 63.5s-43.167 22.5 -76.5 22.5c-11.333 0 -24.5 -1.16699 -39.5 -3.5s-31.833 -5.5 -50.5 -9.5z" />
    <glyph glyph-name="egrave" unicode="&#xe8;" horiz-adv-x="1051" 
d="M362 487c-7.33301 -36 -12.832 -70.832 -16.499 -104.499s-5.5 -64.834 -5.5 -93.501c0 -66.667 13 -116.167 39 -148.5s66.333 -48.5 121 -48.5c62.667 0 122.334 19.833 179.001 59.5s104.667 95.5 144 167.5l60 -40c-50 -97.333 -114.833 -171.5 -194.5 -222.5
s-169.834 -76.5 -270.501 -76.5c-118.667 0 -212.834 35.667 -282.501 107s-104.5 168 -104.5 290c0 175.333 62.667 325 188 449s280.333 186 465 186c94.667 0 168.167 -18.5 220.5 -55.5s78.5 -88.167 78.5 -153.5c0 -98.667 -53.833 -176 -161.5 -232
s-257.167 -84 -448.5 -84h-11zM377.001 570.001c115.333 2.66699 202.167 24.333 260.5 65s87.5 100 87.5 178c0 33.333 -8.83301 59.5 -26.5 78.5s-42.167 28.5 -73.5 28.5c-58.667 0 -108.167 -28.5 -148.5 -85.5s-73.5 -145.167 -99.5 -264.5zM575.002 1436l248.001 -314
h-104l-273 185c-24 16.667 -42 33.167 -54 49.5s-18 33.166 -18 50.499c0 26.667 9.16699 49.334 27.5 68.001s40.166 28 65.499 28c18.667 0 37 -5.5 55 -16.5s35.667 -27.833 53 -50.5z" />
    <glyph glyph-name="eacute" unicode="&#xe9;" horiz-adv-x="1051" 
d="M362 487c-7.33301 -36 -12.832 -70.832 -16.499 -104.499s-5.5 -64.834 -5.5 -93.501c0 -66.667 13 -116.167 39 -148.5s66.333 -48.5 121 -48.5c62.667 0 122.334 19.833 179.001 59.5s104.667 95.5 144 167.5l60 -40c-50 -97.333 -114.833 -171.5 -194.5 -222.5
s-169.834 -76.5 -270.501 -76.5c-118.667 0 -212.834 35.667 -282.501 107s-104.5 168 -104.5 290c0 175.333 62.667 325 188 449s280.333 186 465 186c94.667 0 168.167 -18.5 220.5 -55.5s78.5 -88.167 78.5 -153.5c0 -98.667 -53.833 -176 -161.5 -232
s-257.167 -84 -448.5 -84h-11zM377.001 570.001c115.333 2.66699 202.167 24.333 260.5 65s87.5 100 87.5 178c0 33.333 -8.83301 59.5 -26.5 78.5s-42.167 28.5 -73.5 28.5c-58.667 0 -108.167 -28.5 -148.5 -85.5s-73.5 -145.167 -99.5 -264.5zM882.002 1303l-333 -181
h-109l303 312c23.333 23.333 45 40.333 65 51s40 16 60 16c26 0 48.167 -9.33301 66.5 -28s27.5 -41.334 27.5 -68.001c0 -19.333 -6.66699 -37.666 -20 -54.999s-33.333 -33 -60 -47z" />
    <glyph glyph-name="ecircumflex" unicode="&#xea;" horiz-adv-x="1051" 
d="M362 487c-7.33301 -36 -12.832 -70.832 -16.499 -104.499s-5.5 -64.834 -5.5 -93.501c0 -66.667 13 -116.167 39 -148.5s66.333 -48.5 121 -48.5c62.667 0 122.334 19.833 179.001 59.5s104.667 95.5 144 167.5l60 -40c-50 -97.333 -114.833 -171.5 -194.5 -222.5
s-169.834 -76.5 -270.501 -76.5c-118.667 0 -212.834 35.667 -282.501 107s-104.5 168 -104.5 290c0 175.333 62.667 325 188 449s280.333 186 465 186c94.667 0 168.167 -18.5 220.5 -55.5s78.5 -88.167 78.5 -153.5c0 -98.667 -53.833 -176 -161.5 -232
s-257.167 -84 -448.5 -84h-11zM377.001 570.001c115.333 2.66699 202.167 24.333 260.5 65s87.5 100 87.5 178c0 33.333 -8.83301 59.5 -26.5 78.5s-42.167 28.5 -73.5 28.5c-58.667 0 -108.167 -28.5 -148.5 -85.5s-73.5 -145.167 -99.5 -264.5zM612.002 1479h145l160 -359
h-80l-172 183l-258 -183h-102z" />
    <glyph glyph-name="edieresis" unicode="&#xeb;" horiz-adv-x="1051" 
d="M362 487c-7.33301 -36 -12.832 -70.832 -16.499 -104.499s-5.5 -64.834 -5.5 -93.501c0 -66.667 13 -116.167 39 -148.5s66.333 -48.5 121 -48.5c62.667 0 122.334 19.833 179.001 59.5s104.667 95.5 144 167.5l60 -40c-50 -97.333 -114.833 -171.5 -194.5 -222.5
s-169.834 -76.5 -270.501 -76.5c-118.667 0 -212.834 35.667 -282.501 107s-104.5 168 -104.5 290c0 175.333 62.667 325 188 449s280.333 186 465 186c94.667 0 168.167 -18.5 220.5 -55.5s78.5 -88.167 78.5 -153.5c0 -98.667 -53.833 -176 -161.5 -232
s-257.167 -84 -448.5 -84h-11zM377.001 570.001c115.333 2.66699 202.167 24.333 260.5 65s87.5 100 87.5 178c0 33.333 -8.83301 59.5 -26.5 78.5s-42.167 28.5 -73.5 28.5c-58.667 0 -108.167 -28.5 -148.5 -85.5s-73.5 -145.167 -99.5 -264.5zM850.002 1427
c35.333 0 65.668 -12.667 91.001 -38s38 -55.666 38 -90.999c0 -37.333 -12.333 -68.5 -37 -93.5s-55.334 -37.5 -92.001 -37.5s-67.667 12.833 -93 38.5s-38 56.5 -38 92.5c0 33.333 13.333 63.166 40 89.499s57 39.5 91 39.5zM475.004 1427
c35.333 0 65.333 -12.501 90 -37.501s37 -55.5 37 -91.5c0 -37.333 -12 -68.5 -36 -93.5s-54.333 -37.5 -91 -37.5c-36 0 -66.833 12.833 -92.5 38.5s-38.5 55.834 -38.5 90.501c0 34 13.333 64.333 40 91s57 40 91 40z" />
    <glyph glyph-name="igrave" unicode="&#xec;" horiz-adv-x="743" 
d="M547 680l-127.002 -428.001c-4 -13.333 -7 -26.166 -9 -38.499s-3 -24.166 -3 -35.499c0 -23.333 4.5 -40.666 13.5 -51.999s22.833 -17 41.5 -17c26.667 0 54.667 15.333 84 46s59.333 76 90 136l61 -31c-47.333 -96 -100.5 -166.333 -159.5 -211
s-127.833 -67 -206.5 -67c-66 0 -118.667 17 -158 51s-59 79.667 -59 137c0 15.333 1.66699 32.666 5 51.999s8.33301 39.666 15 60.999l135 456c2.66699 9.33301 4.83398 19.333 6.50098 30s2.5 22 2.5 34c0 23.333 -4.5 40.666 -13.5 51.999s-22.5 17 -40.5 17
c-24 0 -50.667 -14.167 -80 -42.5s-60 -69.833 -92 -124.5l-59 36c42.667 81.333 96.334 144.333 161.001 189s133 67 205 67c66 0 117.667 -15.833 155 -47.5s56 -75.167 56 -130.5c0 -17.333 -2 -37.666 -6 -60.999s-10 -49.333 -18 -78zM400.998 1436l248.001 -314h-104
l-273 185c-24 16.667 -42 33.167 -54 49.5s-18 33.166 -18 50.499c0 26.667 9.16699 49.334 27.5 68.001s40.166 28 65.499 28c18.667 0 37 -5.5 55 -16.5s35.667 -27.833 53 -50.5z" />
    <glyph glyph-name="iacute" unicode="&#xed;" horiz-adv-x="743" 
d="M547 680l-127.002 -428.001c-4 -13.333 -7 -26.166 -9 -38.499s-3 -24.166 -3 -35.499c0 -23.333 4.5 -40.666 13.5 -51.999s22.833 -17 41.5 -17c26.667 0 54.667 15.333 84 46s59.333 76 90 136l61 -31c-47.333 -96 -100.5 -166.333 -159.5 -211
s-127.833 -67 -206.5 -67c-66 0 -118.667 17 -158 51s-59 79.667 -59 137c0 15.333 1.66699 32.666 5 51.999s8.33301 39.666 15 60.999l135 456c2.66699 9.33301 4.83398 19.333 6.50098 30s2.5 22 2.5 34c0 23.333 -4.5 40.666 -13.5 51.999s-22.5 17 -40.5 17
c-24 0 -50.667 -14.167 -80 -42.5s-60 -69.833 -92 -124.5l-59 36c42.667 81.333 96.334 144.333 161.001 189s133 67 205 67c66 0 117.667 -15.833 155 -47.5s56 -75.167 56 -130.5c0 -17.333 -2 -37.666 -6 -60.999s-10 -49.333 -18 -78zM707.998 1303l-333 -181h-109
l303 312c23.333 23.333 45 40.333 65 51s40 16 60 16c26 0 48.167 -9.33301 66.5 -28s27.5 -41.334 27.5 -68.001c0 -19.333 -6.66699 -37.666 -20 -54.999s-33.333 -33 -60 -47z" />
    <glyph glyph-name="icircumflex" unicode="&#xee;" horiz-adv-x="743" 
d="M547 680l-127.002 -428.001c-4 -13.333 -7 -26.166 -9 -38.499s-3 -24.166 -3 -35.499c0 -23.333 4.5 -40.666 13.5 -51.999s22.833 -17 41.5 -17c26.667 0 54.667 15.333 84 46s59.333 76 90 136l61 -31c-47.333 -96 -100.5 -166.333 -159.5 -211
s-127.833 -67 -206.5 -67c-66 0 -118.667 17 -158 51s-59 79.667 -59 137c0 15.333 1.66699 32.666 5 51.999s8.33301 39.666 15 60.999l135 456c2.66699 9.33301 4.83398 19.333 6.50098 30s2.5 22 2.5 34c0 23.333 -4.5 40.666 -13.5 51.999s-22.5 17 -40.5 17
c-24 0 -50.667 -14.167 -80 -42.5s-60 -69.833 -92 -124.5l-59 36c42.667 81.333 96.334 144.333 161.001 189s133 67 205 67c66 0 117.667 -15.833 155 -47.5s56 -75.167 56 -130.5c0 -17.333 -2 -37.666 -6 -60.999s-10 -49.333 -18 -78zM437.998 1479h145l160 -359h-80
l-172 183l-258 -183h-102z" />
    <glyph glyph-name="idieresis" unicode="&#xef;" horiz-adv-x="743" 
d="M547 680l-127.002 -428.001c-4 -13.333 -7 -26.166 -9 -38.499s-3 -24.166 -3 -35.499c0 -23.333 4.5 -40.666 13.5 -51.999s22.833 -17 41.5 -17c26.667 0 54.667 15.333 84 46s59.333 76 90 136l61 -31c-47.333 -96 -100.5 -166.333 -159.5 -211
s-127.833 -67 -206.5 -67c-66 0 -118.667 17 -158 51s-59 79.667 -59 137c0 15.333 1.66699 32.666 5 51.999s8.33301 39.666 15 60.999l135 456c2.66699 9.33301 4.83398 19.333 6.50098 30s2.5 22 2.5 34c0 23.333 -4.5 40.666 -13.5 51.999s-22.5 17 -40.5 17
c-24 0 -50.667 -14.167 -80 -42.5s-60 -69.833 -92 -124.5l-59 36c42.667 81.333 96.334 144.333 161.001 189s133 67 205 67c66 0 117.667 -15.833 155 -47.5s56 -75.167 56 -130.5c0 -17.333 -2 -37.666 -6 -60.999s-10 -49.333 -18 -78zM675.998 1427
c35.333 0 65.668 -12.667 91.001 -38s38 -55.666 38 -90.999c0 -37.333 -12.333 -68.5 -37 -93.5s-55.334 -37.5 -92.001 -37.5s-67.667 12.833 -93 38.5s-38 56.5 -38 92.5c0 33.333 13.333 63.166 40 89.499s57 39.5 91 39.5zM301 1427
c35.333 0 65.333 -12.501 90 -37.501s37 -55.5 37 -91.5c0 -37.333 -12 -68.5 -36 -93.5s-54.333 -37.5 -91 -37.5c-36 0 -66.833 12.833 -92.5 38.5s-38.5 55.834 -38.5 90.501c0 34 13.333 64.333 40 91s57 40 91 40z" />
    <glyph glyph-name="eth" unicode="&#xf0;" horiz-adv-x="1124" 
d="M754 696c0 60.667 -11.1699 107.665 -33.5029 140.998s-53.5 50 -93.5 50c-41.333 0 -79.166 -15.5 -113.499 -46.5s-65.5 -77.833 -93.5 -140.5c-30.667 -69.333 -55.167 -145 -73.5 -227s-27.5 -155.667 -27.5 -221c0 -59.333 12.333 -105.166 37 -137.499
s59 -48.5 103 -48.5c36.667 0 71.834 15.667 105.501 47s63.834 77 90.501 137c30 67.333 54 141.833 72 223.5s27 155.834 27 222.501zM554.997 1546l101.499 -115c27.667 -32.667 53.167 -64.667 76.5 -96l277 95l34 -84l-253 -86
c86 -118.667 149.667 -233.167 191 -343.5s62 -220.5 62 -330.5c0 -174.667 -56.167 -319 -168.5 -433s-252.5 -171 -420.5 -171c-130.667 0 -233.667 38.167 -309 114.5s-113 181.5 -113 315.5c0 145.333 56.833 275.5 170.5 390.5s243.834 172.5 390.501 172.5
c22 0 43.833 -2 65.5 -6s43.5 -10.333 65.5 -19c-15.333 47.333 -32 91.166 -50 131.499s-37.667 78.5 -59 114.5l-303 -104l-30 84l290 100l-68 109c-21.333 32.667 -42.333 63.334 -63 92.001z" />
    <glyph glyph-name="ntilde" unicode="&#xf1;" horiz-adv-x="1341" 
d="M508 659c76.667 120 150.165 206.332 220.498 258.999s145.5 79 225.5 79c63.333 0 114 -17.833 152 -53.5s57 -83.167 57 -142.5c0 -22 -2.83301 -47.167 -8.5 -75.5s-15.167 -63.166 -28.5 -104.499l-112 -356l-2 -7c-14 -46 -21 -76.667 -21 -92
c0 -17.333 5.33301 -31.166 16 -41.499s24.667 -15.5 42 -15.5c26 0 54 15.5 84 46.5s60 76.167 90 135.5l61 -31c-48.667 -98 -101.167 -168.833 -157.5 -212.5s-123.166 -65.5 -200.499 -65.5c-70 0 -125.167 16.667 -165.5 50s-60.5 78.666 -60.5 135.999
c0 16.667 1.83301 34.667 5.5 54s8.83398 39.666 15.501 60.999l123 383c11.333 34.667 19.166 62.334 23.499 83.001s6.5 38 6.5 52c0 18.667 -4.33301 32.834 -13 42.501s-22 14.5 -40 14.5c-51.333 0 -115.166 -48.833 -191.499 -146.5
s-127.166 -203.834 -152.499 -318.501l-88 -393h-289l162 727c3.33301 15.333 5.83301 29.833 7.5 43.5s2.5 26.5 2.5 38.5c0 21.333 -4.33301 38 -13 50s-20.667 18 -36 18c-28 0 -57.667 -13.833 -89 -41.5s-64.333 -69.834 -99 -126.501l-58 39
c49.333 84.667 104.5 147.334 165.5 188.001s130.167 61 207.5 61c61.333 0 108.166 -13.5 140.499 -40.5s48.5 -66.5 48.5 -118.5c0 -16 -2.33301 -37.167 -7 -63.5s-12.667 -64.833 -24 -115.5zM1061 1431l62 0.999023c-18 -79.333 -43.5 -138.166 -76.5 -176.499
s-74.5 -57.5 -124.5 -57.5c-12 0 -24 0.666992 -36 2s-24 3.33301 -36 6l-117 29c-16 4 -30 7 -42 9s-21.667 3 -29 3c-27.333 0 -49.666 -7.16699 -66.999 -21.5s-30.666 -36.5 -39.999 -66.5h-63c17.333 80.667 42 140.167 74 178.5s72.667 57.5 122 57.5
c13.333 0 27.166 -1 41.499 -3s28.166 -4.66699 41.499 -8l124 -30c7.33301 -2 15.333 -3.5 24 -4.5s20.667 -1.5 36 -1.5c26 0 47.833 6.83301 65.5 20.5s31.167 34.5 40.5 62.5z" />
    <glyph glyph-name="ograve" unicode="&#xf2;" horiz-adv-x="1157" 
d="M631 1010c133.333 0 239.333 -39.501 318 -118.501s118 -184.5 118 -316.5c0 -163.333 -58.167 -303 -174.5 -419s-257.5 -174 -423.5 -174c-130.667 0 -236 39.833 -316 119.5s-120 184.5 -120 314.5c0 158.667 59.167 297.334 177.5 416.001s258.5 178 420.5 178z
M770 730.999c0 64 -10.833 112.499 -32.5 145.499s-53.834 49.5 -96.501 49.5c-42 0 -80.5 -16 -115.5 -48s-66.167 -80.333 -93.5 -145c-31.333 -72.667 -56.166 -151.5 -74.499 -236.5s-27.5 -163.167 -27.5 -234.5c0 -61.333 12.333 -108.666 37 -141.999
s59.334 -50 104.001 -50c38 0 74.167 16.5 108.5 49.5s65.166 80.5 92.499 142.5c29.333 68 53 145.333 71 232s27 165.667 27 237zM629 1436l248.001 -314h-104l-273 185c-24 16.667 -42 33.167 -54 49.5s-18 33.166 -18 50.499c0 26.667 9.16699 49.334 27.5 68.001
s40.166 28 65.499 28c18.667 0 37 -5.5 55 -16.5s35.667 -27.833 53 -50.5z" />
    <glyph glyph-name="oacute" unicode="&#xf3;" horiz-adv-x="1157" 
d="M631 1010c133.333 0 239.333 -39.501 318 -118.501s118 -184.5 118 -316.5c0 -163.333 -58.167 -303 -174.5 -419s-257.5 -174 -423.5 -174c-130.667 0 -236 39.833 -316 119.5s-120 184.5 -120 314.5c0 158.667 59.167 297.334 177.5 416.001s258.5 178 420.5 178z
M770 730.999c0 64 -10.833 112.499 -32.5 145.499s-53.834 49.5 -96.501 49.5c-42 0 -80.5 -16 -115.5 -48s-66.167 -80.333 -93.5 -145c-31.333 -72.667 -56.166 -151.5 -74.499 -236.5s-27.5 -163.167 -27.5 -234.5c0 -61.333 12.333 -108.666 37 -141.999
s59.334 -50 104.001 -50c38 0 74.167 16.5 108.5 49.5s65.166 80.5 92.499 142.5c29.333 68 53 145.333 71 232s27 165.667 27 237zM936 1303l-333 -181h-109l303 312c23.333 23.333 45 40.333 65 51s40 16 60 16c26 0 48.167 -9.33301 66.5 -28s27.5 -41.334 27.5 -68.001
c0 -19.333 -6.66699 -37.666 -20 -54.999s-33.333 -33 -60 -47z" />
    <glyph glyph-name="ocircumflex" unicode="&#xf4;" horiz-adv-x="1157" 
d="M631 1010c133.333 0 239.333 -39.501 318 -118.501s118 -184.5 118 -316.5c0 -163.333 -58.167 -303 -174.5 -419s-257.5 -174 -423.5 -174c-130.667 0 -236 39.833 -316 119.5s-120 184.5 -120 314.5c0 158.667 59.167 297.334 177.5 416.001s258.5 178 420.5 178z
M770 730.999c0 64 -10.833 112.499 -32.5 145.499s-53.834 49.5 -96.501 49.5c-42 0 -80.5 -16 -115.5 -48s-66.167 -80.333 -93.5 -145c-31.333 -72.667 -56.166 -151.5 -74.499 -236.5s-27.5 -163.167 -27.5 -234.5c0 -61.333 12.333 -108.666 37 -141.999
s59.334 -50 104.001 -50c38 0 74.167 16.5 108.5 49.5s65.166 80.5 92.499 142.5c29.333 68 53 145.333 71 232s27 165.667 27 237zM666 1479h145l160 -359h-80l-172 183l-258 -183h-102z" />
    <glyph glyph-name="otilde" unicode="&#xf5;" horiz-adv-x="1157" 
d="M631 1010c133.333 0 239.333 -39.501 318 -118.501s118 -184.5 118 -316.5c0 -163.333 -58.167 -303 -174.5 -419s-257.5 -174 -423.5 -174c-130.667 0 -236 39.833 -316 119.5s-120 184.5 -120 314.5c0 158.667 59.167 297.334 177.5 416.001s258.5 178 420.5 178z
M770 730.999c0 64 -10.833 112.499 -32.5 145.499s-53.834 49.5 -96.501 49.5c-42 0 -80.5 -16 -115.5 -48s-66.167 -80.333 -93.5 -145c-31.333 -72.667 -56.166 -151.5 -74.499 -236.5s-27.5 -163.167 -27.5 -234.5c0 -61.333 12.333 -108.666 37 -141.999
s59.334 -50 104.001 -50c38 0 74.167 16.5 108.5 49.5s65.166 80.5 92.499 142.5c29.333 68 53 145.333 71 232s27 165.667 27 237zM969 1431l62 0.999023c-18 -79.333 -43.5 -138.166 -76.5 -176.499s-74.5 -57.5 -124.5 -57.5c-12 0 -24 0.666992 -36 2s-24 3.33301 -36 6
l-117 29c-16 4 -30 7 -42 9s-21.667 3 -29 3c-27.333 0 -49.666 -7.16699 -66.999 -21.5s-30.666 -36.5 -39.999 -66.5h-63c17.333 80.667 42 140.167 74 178.5s72.667 57.5 122 57.5c13.333 0 27.166 -1 41.499 -3s28.166 -4.66699 41.499 -8l124 -30
c7.33301 -2 15.333 -3.5 24 -4.5s20.667 -1.5 36 -1.5c26 0 47.833 6.83301 65.5 20.5s31.167 34.5 40.5 62.5z" />
    <glyph glyph-name="odieresis" unicode="&#xf6;" horiz-adv-x="1157" 
d="M631 1010c133.333 0 239.333 -39.501 318 -118.501s118 -184.5 118 -316.5c0 -163.333 -58.167 -303 -174.5 -419s-257.5 -174 -423.5 -174c-130.667 0 -236 39.833 -316 119.5s-120 184.5 -120 314.5c0 158.667 59.167 297.334 177.5 416.001s258.5 178 420.5 178z
M770 730.999c0 64 -10.833 112.499 -32.5 145.499s-53.834 49.5 -96.501 49.5c-42 0 -80.5 -16 -115.5 -48s-66.167 -80.333 -93.5 -145c-31.333 -72.667 -56.166 -151.5 -74.499 -236.5s-27.5 -163.167 -27.5 -234.5c0 -61.333 12.333 -108.666 37 -141.999
s59.334 -50 104.001 -50c38 0 74.167 16.5 108.5 49.5s65.166 80.5 92.499 142.5c29.333 68 53 145.333 71 232s27 165.667 27 237zM904 1427c35.333 0 65.668 -12.667 91.001 -38s38 -55.666 38 -90.999c0 -37.333 -12.333 -68.5 -37 -93.5s-55.334 -37.5 -92.001 -37.5
s-67.667 12.833 -93 38.5s-38 56.5 -38 92.5c0 33.333 13.333 63.166 40 89.499s57 39.5 91 39.5zM529.002 1427c35.333 0 65.333 -12.501 90 -37.501s37 -55.5 37 -91.5c0 -37.333 -12 -68.5 -36 -93.5s-54.333 -37.5 -91 -37.5c-36 0 -66.833 12.833 -92.5 38.5
s-38.5 55.834 -38.5 90.501c0 34 13.333 64.333 40 91s57 40 91 40z" />
    <glyph glyph-name="divide" unicode="&#xf7;" horiz-adv-x="1706" 
d="M854 369c41.333 0 77 -15 107 -45s45 -65.667 45 -107c0 -40.667 -15 -75.667 -45 -105s-65.667 -44 -107 -44c-42 0 -77.833 14.333 -107.5 43s-44.5 64 -44.5 106s14.833 77.833 44.5 107.5s65.5 44.5 107.5 44.5zM254 711h1198v-199h-1198v199zM854 1155
c41.333 0 77 -14.833 107 -44.5s45 -65.167 45 -106.5c0 -42 -14.833 -77.833 -44.5 -107.5s-65.5 -44.5 -107.5 -44.5s-77.833 14.833 -107.5 44.5s-44.5 65.5 -44.5 107.5s14.833 77.667 44.5 107s65.5 44 107.5 44z" />
    <glyph glyph-name="oslash" unicode="&#xf8;" horiz-adv-x="1151" 
d="M776 762l-423.999 -627c13.333 -24 29.833 -41.5 49.5 -52.5s44.167 -16.5 73.5 -16.5c42 0 81.167 18.333 117.5 55s68.166 90 95.499 160c27.333 68 48.833 140.833 64.5 218.5s23.5 147.5 23.5 209.5v53zM748.001 866c-12.667 19.333 -28.835 33.833 -48.502 43.5
s-42.5 14.5 -68.5 14.5c-42.667 0 -81.167 -14.833 -115.5 -44.5s-64.833 -74.5 -91.5 -134.5c-31.333 -68.667 -56.166 -143.667 -74.499 -225s-27.5 -154.333 -27.5 -219c0 -7.33301 0.666992 -21.333 2 -42c0.666992 -8 1.33398 -14.333 2.00098 -19zM942 1157
l99.998 0.00292969l-147 -219c57.333 -42 100.333 -93.667 129 -155s43 -132 43 -212c0 -165.333 -59 -304.833 -177 -418.5s-265 -170.5 -441 -170.5c-30.667 0 -60.667 3 -90 9s-57.666 15 -84.999 27l-127 -188h-100l156 229c-57.333 42 -99.666 92.167 -126.999 150.5
s-41 127.166 -41 206.499c0 159.333 59 298.166 177 416.499s258.333 177.5 421 177.5c33.333 0 65.5 -2.83301 96.5 -8.5s61.5 -13.834 91.5 -24.501z" />
    <glyph glyph-name="ugrave" unicode="&#xf9;" horiz-adv-x="1343" 
d="M557 698l-122.994 -385.002c-10 -32.667 -17.167 -59.5 -21.5 -80.5s-6.5 -39.167 -6.5 -54.5c0 -19.333 4.16699 -33.666 12.5 -42.999s21.166 -14 38.499 -14c51.333 0 115.166 48.833 191.499 146.5s127.166 203.834 152.499 318.501l88 393h289l-160 -727
c-4 -20 -7 -36.667 -9 -50s-3 -24 -3 -32c0 -20 4.5 -36.333 13.5 -49s20.833 -19 35.5 -19c28 0 57.667 13.833 89 41.5s64.333 69.834 99 126.501l57 -39c-48.667 -84.667 -103.5 -147.334 -164.5 -188.001s-130.167 -61 -207.5 -61
c-61.333 0 -108.166 13.5 -140.499 40.5s-48.5 66.5 -48.5 118.5c0 17.333 2.16699 38.833 6.5 64.5s12.5 63.5 24.5 113.5c-75.333 -118.667 -148.333 -204.5 -219 -257.5s-146.334 -79.5 -227.001 -79.5c-62.667 0 -112.834 18 -150.501 54s-56.5 84 -56.5 144
c0 23.333 2.66699 48.833 8 76.5s14.333 61.5 27 101.5l112 358c1.33301 4 2.66602 8.66699 3.99902 14c12.667 40.667 19 68.334 19 83.001c0 17.333 -4.83301 31.166 -14.5 41.499s-22.834 15.5 -39.501 15.5c-25.333 0 -53.5 -16 -84.5 -48s-61.5 -76.667 -91.5 -134
l-63 33c50 95.333 103.833 165.166 161.5 209.499s123.834 66.5 198.501 66.5c70 0 124.833 -16.333 164.5 -49s59.5 -77.667 59.5 -135c0 -16.667 -1.83301 -34.667 -5.5 -54s-8.83398 -39.666 -15.501 -60.999zM700.006 1436l248.001 -314h-104l-273 185
c-24 16.667 -42 33.167 -54 49.5s-18 33.166 -18 50.499c0 26.667 9.16699 49.334 27.5 68.001s40.166 28 65.499 28c18.667 0 37 -5.5 55 -16.5s35.667 -27.833 53 -50.5z" />
    <glyph glyph-name="uacute" unicode="&#xfa;" horiz-adv-x="1343" 
d="M557 698l-122.994 -385.002c-10 -32.667 -17.167 -59.5 -21.5 -80.5s-6.5 -39.167 -6.5 -54.5c0 -19.333 4.16699 -33.666 12.5 -42.999s21.166 -14 38.499 -14c51.333 0 115.166 48.833 191.499 146.5s127.166 203.834 152.499 318.501l88 393h289l-160 -727
c-4 -20 -7 -36.667 -9 -50s-3 -24 -3 -32c0 -20 4.5 -36.333 13.5 -49s20.833 -19 35.5 -19c28 0 57.667 13.833 89 41.5s64.333 69.834 99 126.501l57 -39c-48.667 -84.667 -103.5 -147.334 -164.5 -188.001s-130.167 -61 -207.5 -61
c-61.333 0 -108.166 13.5 -140.499 40.5s-48.5 66.5 -48.5 118.5c0 17.333 2.16699 38.833 6.5 64.5s12.5 63.5 24.5 113.5c-75.333 -118.667 -148.333 -204.5 -219 -257.5s-146.334 -79.5 -227.001 -79.5c-62.667 0 -112.834 18 -150.501 54s-56.5 84 -56.5 144
c0 23.333 2.66699 48.833 8 76.5s14.333 61.5 27 101.5l112 358c1.33301 4 2.66602 8.66699 3.99902 14c12.667 40.667 19 68.334 19 83.001c0 17.333 -4.83301 31.166 -14.5 41.499s-22.834 15.5 -39.501 15.5c-25.333 0 -53.5 -16 -84.5 -48s-61.5 -76.667 -91.5 -134
l-63 33c50 95.333 103.833 165.166 161.5 209.499s123.834 66.5 198.501 66.5c70 0 124.833 -16.333 164.5 -49s59.5 -77.667 59.5 -135c0 -16.667 -1.83301 -34.667 -5.5 -54s-8.83398 -39.666 -15.501 -60.999zM1007.01 1303l-333 -181h-109l303 312
c23.333 23.333 45 40.333 65 51s40 16 60 16c26 0 48.167 -9.33301 66.5 -28s27.5 -41.334 27.5 -68.001c0 -19.333 -6.66699 -37.666 -20 -54.999s-33.333 -33 -60 -47z" />
    <glyph glyph-name="ucircumflex" unicode="&#xfb;" horiz-adv-x="1343" 
d="M557 698l-122.994 -385.002c-10 -32.667 -17.167 -59.5 -21.5 -80.5s-6.5 -39.167 -6.5 -54.5c0 -19.333 4.16699 -33.666 12.5 -42.999s21.166 -14 38.499 -14c51.333 0 115.166 48.833 191.499 146.5s127.166 203.834 152.499 318.501l88 393h289l-160 -727
c-4 -20 -7 -36.667 -9 -50s-3 -24 -3 -32c0 -20 4.5 -36.333 13.5 -49s20.833 -19 35.5 -19c28 0 57.667 13.833 89 41.5s64.333 69.834 99 126.501l57 -39c-48.667 -84.667 -103.5 -147.334 -164.5 -188.001s-130.167 -61 -207.5 -61
c-61.333 0 -108.166 13.5 -140.499 40.5s-48.5 66.5 -48.5 118.5c0 17.333 2.16699 38.833 6.5 64.5s12.5 63.5 24.5 113.5c-75.333 -118.667 -148.333 -204.5 -219 -257.5s-146.334 -79.5 -227.001 -79.5c-62.667 0 -112.834 18 -150.501 54s-56.5 84 -56.5 144
c0 23.333 2.66699 48.833 8 76.5s14.333 61.5 27 101.5l112 358c1.33301 4 2.66602 8.66699 3.99902 14c12.667 40.667 19 68.334 19 83.001c0 17.333 -4.83301 31.166 -14.5 41.499s-22.834 15.5 -39.501 15.5c-25.333 0 -53.5 -16 -84.5 -48s-61.5 -76.667 -91.5 -134
l-63 33c50 95.333 103.833 165.166 161.5 209.499s123.834 66.5 198.501 66.5c70 0 124.833 -16.333 164.5 -49s59.5 -77.667 59.5 -135c0 -16.667 -1.83301 -34.667 -5.5 -54s-8.83398 -39.666 -15.501 -60.999zM737.006 1479h145l160 -359h-80l-172 183l-258 -183h-102z
" />
    <glyph glyph-name="udieresis" unicode="&#xfc;" horiz-adv-x="1343" 
d="M557 698l-122.994 -385.002c-10 -32.667 -17.167 -59.5 -21.5 -80.5s-6.5 -39.167 -6.5 -54.5c0 -19.333 4.16699 -33.666 12.5 -42.999s21.166 -14 38.499 -14c51.333 0 115.166 48.833 191.499 146.5s127.166 203.834 152.499 318.501l88 393h289l-160 -727
c-4 -20 -7 -36.667 -9 -50s-3 -24 -3 -32c0 -20 4.5 -36.333 13.5 -49s20.833 -19 35.5 -19c28 0 57.667 13.833 89 41.5s64.333 69.834 99 126.501l57 -39c-48.667 -84.667 -103.5 -147.334 -164.5 -188.001s-130.167 -61 -207.5 -61
c-61.333 0 -108.166 13.5 -140.499 40.5s-48.5 66.5 -48.5 118.5c0 17.333 2.16699 38.833 6.5 64.5s12.5 63.5 24.5 113.5c-75.333 -118.667 -148.333 -204.5 -219 -257.5s-146.334 -79.5 -227.001 -79.5c-62.667 0 -112.834 18 -150.501 54s-56.5 84 -56.5 144
c0 23.333 2.66699 48.833 8 76.5s14.333 61.5 27 101.5l112 358c1.33301 4 2.66602 8.66699 3.99902 14c12.667 40.667 19 68.334 19 83.001c0 17.333 -4.83301 31.166 -14.5 41.499s-22.834 15.5 -39.501 15.5c-25.333 0 -53.5 -16 -84.5 -48s-61.5 -76.667 -91.5 -134
l-63 33c50 95.333 103.833 165.166 161.5 209.499s123.834 66.5 198.501 66.5c70 0 124.833 -16.333 164.5 -49s59.5 -77.667 59.5 -135c0 -16.667 -1.83301 -34.667 -5.5 -54s-8.83398 -39.666 -15.501 -60.999zM975.006 1427c35.333 0 65.668 -12.667 91.001 -38
s38 -55.666 38 -90.999c0 -37.333 -12.333 -68.5 -37 -93.5s-55.334 -37.5 -92.001 -37.5s-67.667 12.833 -93 38.5s-38 56.5 -38 92.5c0 33.333 13.333 63.166 40 89.499s57 39.5 91 39.5zM600.008 1427c35.333 0 65.333 -12.501 90 -37.501s37 -55.5 37 -91.5
c0 -37.333 -12 -68.5 -36 -93.5s-54.333 -37.5 -91 -37.5c-36 0 -66.833 12.833 -92.5 38.5s-38.5 55.834 -38.5 90.501c0 34 13.333 64.333 40 91s57 40 91 40z" />
    <glyph glyph-name="yacute" unicode="&#xfd;" horiz-adv-x="1251" 
d="M549 688l-75.999 -262.001c-0.666992 -3.33301 -2.33398 -9 -5.00098 -17c-20 -70.667 -30 -121 -30 -151c0 -20.667 4 -35.667 12 -45s20.333 -14 37 -14c43.333 0 100.333 46.5 171 139.5s117.667 189.833 141 290.5l82 350h284l-164 -750
c-58 -264.667 -134.833 -447.834 -230.5 -549.501s-230.834 -152.5 -405.501 -152.5c-103.333 0 -188.666 21.333 -255.999 64s-101 95 -101 157c0 31.333 11.5 57.666 34.5 78.999s51.167 32 84.5 32c44 0 79.167 -14.167 105.5 -42.5s39.5 -66.166 39.5 -113.499
c0 -7.33301 -0.5 -15.333 -1.5 -24s-2.83301 -21.334 -5.5 -38.001c14 -9.33301 29.333 -16.333 46 -21s34.667 -7 54 -7c87.333 0 157.666 48.833 210.999 146.5s106.333 288.5 159 572.5c-64 -103.333 -130 -180.666 -198 -231.999s-137.667 -77 -209 -77
c-60 0 -106.167 16.667 -138.5 50s-48.5 81.333 -48.5 144c0 20.667 2.83301 46.5 8.5 77.5s13.834 65.167 24.501 102.5l92 315c6 22.667 10.667 42.334 14 59.001s5 30 5 40c0 18.667 -5.16699 33.167 -15.5 43.5s-24.5 15.5 -42.5 15.5c-26 0 -53.667 -15.167 -83 -45.5
s-59 -75.166 -89 -134.499l-61 31c46.667 96 98.667 166.333 156 211s124.666 67 201.999 67c70 0 124.333 -16 163 -48s58 -76.667 58 -134c0 -13.333 -1.66699 -29.5 -5 -48.5s-9.66602 -45.833 -18.999 -80.5zM983.001 1303l-333 -181h-109l303 312
c23.333 23.333 45 40.333 65 51s40 16 60 16c26 0 48.167 -9.33301 66.5 -28s27.5 -41.334 27.5 -68.001c0 -19.333 -6.66699 -37.666 -20 -54.999s-33.333 -33 -60 -47z" />
    <glyph glyph-name="thorn" unicode="&#xfe;" horiz-adv-x="1210" 
d="M391 217c13.333 -31.333 31.1689 -55.167 53.502 -71.5s48.166 -24.5 77.499 -24.5c36.667 0 70.167 11.5 100.5 34.5s57.833 57.167 82.5 102.5c30.667 57.333 56.667 127.5 78 210.5s32 156.167 32 219.5c0 52 -8.33301 91.667 -25 119s-41 41 -73 41
c-43.333 0 -86.833 -25.167 -130.5 -75.5s-86.834 -124.833 -129.501 -223.5zM659.003 1522l-157.006 -742.004c43.333 69.333 94.333 122.833 153 160.5s120.334 56.5 185.001 56.5c89.333 0 158 -29.167 206 -87.5s72 -142.5 72 -252.5
c0 -85.333 -16.333 -173.166 -49 -263.499s-75.667 -166.166 -129 -227.499c-45.333 -52.667 -95.666 -92.5 -150.999 -119.5s-114.333 -40.5 -177 -40.5c-53.333 0 -99.166 9.33301 -137.499 28s-72.166 48.334 -101.499 89.001l-72 -367
c-3.33301 -14.667 -5.83301 -27.667 -7.5 -39s-2.5 -20.666 -2.5 -27.999c0 -28 10.333 -47.333 31 -58s64.334 -16 131.001 -16l-15 -82l-80 3c-108.667 3.33301 -182.334 5 -221.001 5c-30 0 -69.833 -0.666992 -119.5 -2s-104.5 -3.33301 -164.5 -6l14 82h8
c72.667 0 118.334 44.333 137.001 133v4l303 1489c4.66699 22.667 8.33398 43.834 11.001 63.501s4 35.5 4 47.5c0 49.333 -43.333 75.666 -130 78.999c-6 0 -10.667 0.333008 -14 1l15 79h18c77.333 -2.66699 132 -4 164 -4c28.667 0 62.167 1 100.5 3s96.833 6 175.5 12z
" />
    <glyph glyph-name="ydieresis" unicode="&#xff;" horiz-adv-x="1251" 
d="M549 688l-75.999 -262.001c-0.666992 -3.33301 -2.33398 -9 -5.00098 -17c-20 -70.667 -30 -121 -30 -151c0 -20.667 4 -35.667 12 -45s20.333 -14 37 -14c43.333 0 100.333 46.5 171 139.5s117.667 189.833 141 290.5l82 350h284l-164 -750
c-58 -264.667 -134.833 -447.834 -230.5 -549.501s-230.834 -152.5 -405.501 -152.5c-103.333 0 -188.666 21.333 -255.999 64s-101 95 -101 157c0 31.333 11.5 57.666 34.5 78.999s51.167 32 84.5 32c44 0 79.167 -14.167 105.5 -42.5s39.5 -66.166 39.5 -113.499
c0 -7.33301 -0.5 -15.333 -1.5 -24s-2.83301 -21.334 -5.5 -38.001c14 -9.33301 29.333 -16.333 46 -21s34.667 -7 54 -7c87.333 0 157.666 48.833 210.999 146.5s106.333 288.5 159 572.5c-64 -103.333 -130 -180.666 -198 -231.999s-137.667 -77 -209 -77
c-60 0 -106.167 16.667 -138.5 50s-48.5 81.333 -48.5 144c0 20.667 2.83301 46.5 8.5 77.5s13.834 65.167 24.501 102.5l92 315c6 22.667 10.667 42.334 14 59.001s5 30 5 40c0 18.667 -5.16699 33.167 -15.5 43.5s-24.5 15.5 -42.5 15.5c-26 0 -53.667 -15.167 -83 -45.5
s-59 -75.166 -89 -134.499l-61 31c46.667 96 98.667 166.333 156 211s124.666 67 201.999 67c70 0 124.333 -16 163 -48s58 -76.667 58 -134c0 -13.333 -1.66699 -29.5 -5 -48.5s-9.66602 -45.833 -18.999 -80.5zM951.001 1427c35.333 0 65.668 -12.667 91.001 -38
s38 -55.666 38 -90.999c0 -37.333 -12.333 -68.5 -37 -93.5s-55.334 -37.5 -92.001 -37.5s-67.667 12.833 -93 38.5s-38 56.5 -38 92.5c0 33.333 13.333 63.166 40 89.499s57 39.5 91 39.5zM576.003 1427c35.333 0 65.333 -12.501 90 -37.501s37 -55.5 37 -91.5
c0 -37.333 -12 -68.5 -36 -93.5s-54.333 -37.5 -91 -37.5c-36 0 -66.833 12.833 -92.5 38.5s-38.5 55.834 -38.5 90.501c0 34 13.333 64.333 40 91s57 40 91 40z" />
    <glyph glyph-name="Cacute" unicode="&#x106;" horiz-adv-x="1430" 
d="M1307 1315l36.002 83.999l84 -4c-13.333 -68 -26.166 -138.833 -38.499 -212.5s-25.166 -155.834 -38.499 -246.501h-92c1.33301 25.333 2.66602 46.833 3.99902 64.5s2 29.5 2 35.5c0 102.667 -28.833 185 -86.5 247s-134.167 93 -229.5 93
c-155.333 0 -279.833 -69.5 -373.5 -208.5s-140.5 -323.5 -140.5 -553.5c0 -165.333 32.5 -291.666 97.5 -378.999s158.833 -131 281.5 -131c91.333 0 172.166 25.5 242.499 76.5s130.166 127.5 179.499 229.5l82 -41c-59.333 -130 -139 -227 -239 -291
s-221.667 -96 -365 -96c-198.667 0 -355.834 58.5 -471.501 175.5s-173.5 276.167 -173.5 477.5c0 247.333 76.333 451.5 229 612.5s346 241.5 580 241.5c86 0 165.333 -14.667 238 -44s136.667 -72.666 192 -129.999zM1130 1784l-333 -181h-109l303 312
c23.333 23.333 45 40.333 65 51s40 16 60 16c26 0 48.167 -9.33301 66.5 -28s27.5 -41.334 27.5 -68.001c0 -19.333 -6.66699 -37.666 -20 -54.999s-33.333 -33 -60 -47z" />
    <glyph glyph-name="cacute" unicode="&#x107;" horiz-adv-x="1067" 
d="M895 319l61.002 -40.001c-44.667 -99.333 -106.5 -173.666 -185.5 -222.999s-175.5 -74 -289.5 -74c-140.667 0 -250.5 36.167 -329.5 108.5s-118.5 173.166 -118.5 302.499c0 170.667 59.667 316.167 179 436.5s263.666 180.5 432.999 180.5
c106.667 0 192 -23.833 256 -71.5s96 -109.834 96 -186.501c0 -44 -11.833 -79.667 -35.5 -107s-54.167 -41 -91.5 -41c-36.667 0 -65.834 12.333 -87.501 37s-32.5 57.334 -32.5 98.001c0 20 2 43.833 6 71.5s6 44.834 6 51.501c0 18.667 -9 33.334 -27 44.001
s-42.333 16 -73 16c-88 0 -162.333 -52.167 -223 -156.5s-91 -233.166 -91 -386.499c0 -94.667 20.5 -167.834 61.5 -219.501s98.5 -77.5 172.5 -77.5c62 0 121 21.167 177 63.5s101.333 100.166 136 173.499zM891.002 1303l-333 -181h-109l303 312
c23.333 23.333 45 40.333 65 51s40 16 60 16c26 0 48.167 -9.33301 66.5 -28s27.5 -41.334 27.5 -68.001c0 -19.333 -6.66699 -37.666 -20 -54.999s-33.333 -33 -60 -47z" />
    <glyph glyph-name="Ccaron" unicode="&#x10c;" horiz-adv-x="1430" 
d="M1307 1315l36.002 83.999l84 -4c-13.333 -68 -26.166 -138.833 -38.499 -212.5s-25.166 -155.834 -38.499 -246.501h-92c1.33301 25.333 2.66602 46.833 3.99902 64.5s2 29.5 2 35.5c0 102.667 -28.833 185 -86.5 247s-134.167 93 -229.5 93
c-155.333 0 -279.833 -69.5 -373.5 -208.5s-140.5 -323.5 -140.5 -553.5c0 -165.333 32.5 -291.666 97.5 -378.999s158.833 -131 281.5 -131c91.333 0 172.166 25.5 242.499 76.5s130.166 127.5 179.499 229.5l82 -41c-59.333 -130 -139 -227 -239 -291
s-221.667 -96 -365 -96c-198.667 0 -355.834 58.5 -471.501 175.5s-173.5 276.167 -173.5 477.5c0 247.333 76.333 451.5 229 612.5s346 241.5 580 241.5c86 0 165.333 -14.667 238 -44s136.667 -72.666 192 -129.999zM639.002 1960h82l172 -181l258 181h100l-305 -359h-147
z" />
    <glyph glyph-name="ccaron" unicode="&#x10d;" horiz-adv-x="1067" 
d="M895 319l61.002 -40.001c-44.667 -99.333 -106.5 -173.666 -185.5 -222.999s-175.5 -74 -289.5 -74c-140.667 0 -250.5 36.167 -329.5 108.5s-118.5 173.166 -118.5 302.499c0 170.667 59.667 316.167 179 436.5s263.666 180.5 432.999 180.5
c106.667 0 192 -23.833 256 -71.5s96 -109.834 96 -186.501c0 -44 -11.833 -79.667 -35.5 -107s-54.167 -41 -91.5 -41c-36.667 0 -65.834 12.333 -87.501 37s-32.5 57.334 -32.5 98.001c0 20 2 43.833 6 71.5s6 44.834 6 51.501c0 18.667 -9 33.334 -27 44.001
s-42.333 16 -73 16c-88 0 -162.333 -52.167 -223 -156.5s-91 -233.166 -91 -386.499c0 -94.667 20.5 -167.834 61.5 -219.501s98.5 -77.5 172.5 -77.5c62 0 121 21.167 177 63.5s101.333 100.166 136 173.499zM400.002 1479h82l172 -181l258 181h100l-305 -359h-147z" />
    <glyph glyph-name="dcroat" unicode="&#x111;" horiz-adv-x="1274" 
d="M764 717c-7.33301 46.667 -22.502 82.1699 -45.502 106.503s-52.833 36.5 -89.5 36.5s-71 -12.5 -103 -37.5s-62 -62.833 -90 -113.5c-32.667 -58.667 -59.5 -126.334 -80.5 -203.001s-31.5 -144.334 -31.5 -203.001c0 -52.667 9.33301 -92.834 28 -120.501
s46 -41.5 82 -41.5c46.667 0 98.834 33 156.501 99s94.834 136.333 111.501 211zM1231 1522l-61.999 -272.999h191l-19 -92h-192l-199 -891c-3.33301 -13.333 -5.83301 -26 -7.5 -38s-2.5 -21.667 -2.5 -29c0 -24.667 5 -43.834 15 -57.501s23.333 -20.5 40 -20.5
c24 0 49 13.833 75 41.5s53.667 70.5 83 128.5l61 -31c-48 -98 -100.5 -168.833 -157.5 -212.5s-125.167 -65.5 -204.5 -65.5c-58 0 -102.5 14.5 -133.5 43.5s-46.5 70.5 -46.5 124.5c0 17.333 1.16699 34.833 3.5 52.5s5.83301 36.167 10.5 55.5
c-56.667 -90.667 -119 -159.334 -187 -206.001s-139.333 -70 -214 -70c-83.333 0 -148.666 27.167 -195.999 81.5s-71 129.5 -71 225.5c0 78 14.5 158 43.5 240s69.167 157.667 120.5 227c55.333 73.333 116 129.5 182 168.5s133 58.5 201 58.5c56 0 102.167 -11 138.5 -33
s66.166 -56.667 89.499 -104l67 311h-348l20 92l349 1c5.33301 28.667 9.33301 51.834 12 69.501s4 31.834 4 42.501c0 43.333 -42.667 66.333 -128 69c-10 0 -18 0.333008 -24 1l15 79c11.333 0 27.333 -0.333008 48 -1c70.667 -2 118.667 -3 144 -3
c31.333 0 68.166 1.16699 110.499 3.5s98.5 6.16602 168.5 11.499z" />
    <glyph glyph-name="Gbreve" unicode="&#x11e;" horiz-adv-x="1548" 
d="M1329 1303l35.002 86.001l84 -5c-13.333 -64.667 -26.166 -134.5 -38.499 -209.5s-25.5 -161.5 -39.5 -259.5l-90 1c2 20 3.16699 34.833 3.5 44.5s0.5 18.5 0.5 26.5c0 120.667 -29.167 215.667 -87.5 285s-137.833 104 -238.5 104
c-162.667 0 -292.334 -73.333 -389.001 -220s-145 -344.334 -145 -593.001c0 -158 28.5 -278.333 85.5 -361s139.833 -124 248.5 -124c42.667 0 83.167 7 121.5 21s77.5 36.333 117.5 67l29 180c2 12 3.5 23.333 4.5 34s1.5 20.667 1.5 30
c0 29.333 -9.33301 48.833 -28 58.5s-64.667 14.5 -138 14.5v94c71.333 -3.33301 131.833 -5.83301 181.5 -7.5s93.834 -2.5 132.501 -2.5c30.667 0 70 0.833008 118 2.5s112.333 4.16699 193 7.5v-94c-60 -2.66699 -99.5 -11.834 -118.5 -27.501
s-34.167 -60.167 -45.5 -133.5l-49 -322h-88l-10 104c-69.333 -40.667 -141.833 -71.167 -217.5 -91.5s-154.834 -30.5 -237.501 -30.5c-209.333 0 -372 56.333 -488 169s-174 271.334 -174 476.001c0 247.333 77.333 452.833 232 616.5s347.667 245.5 579 245.5
c97.333 0 183.666 -15.5 258.999 -46.5s140.666 -77.5 195.999 -139.5zM670.002 1929h75c6.66699 -45.333 24.667 -78.833 54 -100.5s71.666 -32.5 126.999 -32.5c56 0 108 10.833 156 32.5s94 55.167 138 100.5l78 -2c-63.333 -105.333 -126.166 -180.833 -188.499 -226.5
s-131.833 -68.5 -208.5 -68.5c-77.333 0 -135 24.5 -173 73.5s-57.333 123.5 -58 223.5z" />
    <glyph glyph-name="gbreve" unicode="&#x11f;" horiz-adv-x="1151" 
d="M737 772c-6.66699 40 -20.834 71.167 -42.501 93.5s-48.5 33.5 -80.5 33.5c-36 0 -70.5 -13.5 -103.5 -40.5s-62.5 -66.167 -88.5 -117.5c-29.333 -56 -53 -122 -71 -198s-27 -146.333 -27 -211c0 -49.333 8.83301 -87.333 26.5 -114s42.834 -40 75.501 -40
c47.333 0 98.333 33 153 99s89 136 103 210zM762 897l24.0029 94.0029h281c-36 -167.333 -74.833 -368.833 -116.5 -604.5s-71.167 -382.834 -88.5 -441.501c-38 -132 -106.333 -234.667 -205 -308s-217.334 -110 -356.001 -110c-112 0 -201.5 22.333 -268.5 67
s-100.5 103.667 -100.5 177c0 40 12.833 73.833 38.5 101.5s56.5 41.5 92.5 41.5c33.333 0 60.166 -11 80.499 -33s30.5 -50.667 30.5 -86c0 -18.667 -4.83301 -41.334 -14.5 -68.001s-14.5 -44.334 -14.5 -53.001c0 -16.667 12.667 -31 38 -43s57.333 -18 96 -18
c91.333 0 163.666 44.5 216.999 133.5s103 256.833 149 503.5c-53.333 -77.333 -109.666 -135 -168.999 -173s-123 -57 -191 -57c-82 0 -146.167 28.333 -192.5 85s-69.5 134.334 -69.5 233.001c0 76.667 14 156.667 42 240s65.667 157.666 113 222.999
c49.333 67.333 105.666 119 168.999 155s130 54 200 54c46.667 0 87.667 -9.33301 123 -28s66 -47 92 -85zM428.003 1448h75c6.66699 -45.333 24.667 -78.833 54 -100.5s71.666 -32.5 126.999 -32.5c56 0 108 10.833 156 32.5s94 55.167 138 100.5l78 -2
c-63.333 -105.333 -126.166 -180.833 -188.499 -226.5s-131.833 -68.5 -208.5 -68.5c-77.333 0 -135 24.5 -173 73.5s-57.333 123.5 -58 223.5z" />
    <glyph glyph-name="Idotaccent" unicode="&#x130;" horiz-adv-x="817" 
d="M193 1470c78 -3.33301 142.002 -5.83398 192.002 -7.50098s92.333 -2.5 127 -2.5c34 0 75.167 0.833008 123.5 2.5s112.166 4.16699 191.499 7.5v-94c-60.667 -0.666992 -102.5 -9 -125.5 -25s-39.167 -54 -48.5 -114l-157 -969c-4.66699 -22.667 -8 -41.667 -10 -57
s-3 -27.666 -3 -36.999c0 -28.667 8.5 -48.5 25.5 -59.5s59.167 -18.5 126.5 -22.5l-1 -92c-86.667 4 -154.167 6.66699 -202.5 8s-87.833 2 -118.5 2c-29.333 0 -67.5 -0.666992 -114.5 -2s-116.5 -4 -208.5 -8v92c61.333 1.33301 103.333 10 126 26s38.667 53.667 48 113
l158 969c4 29.333 7 52 9 68s3 27.667 3 35c0 25.333 -9.33301 43.333 -28 54s-56.334 17 -113.001 19v94zM588.002 1915c36.667 0 68.665 -13.665 95.998 -40.998s41 -59 41 -95c0 -38.667 -13 -70.834 -39 -96.501s-58.667 -38.5 -98 -38.5
c-37.333 0 -69.166 13.167 -95.499 39.5s-39.5 58.166 -39.5 95.499c0 35.333 13.833 66.833 41.5 94.5s58.834 41.5 93.501 41.5z" />
    <glyph glyph-name="dotlessi" unicode="&#x131;" horiz-adv-x="743" 
d="M547 680l-127.002 -428.001c-4 -13.333 -7 -26.166 -9 -38.499s-3 -24.166 -3 -35.499c0 -23.333 4.5 -40.666 13.5 -51.999s22.833 -17 41.5 -17c26.667 0 54.667 15.333 84 46s59.333 76 90 136l61 -31c-47.333 -96 -100.5 -166.333 -159.5 -211
s-127.833 -67 -206.5 -67c-66 0 -118.667 17 -158 51s-59 79.667 -59 137c0 15.333 1.66699 32.666 5 51.999s8.33301 39.666 15 60.999l135 456c2.66699 9.33301 4.83398 19.333 6.50098 30s2.5 22 2.5 34c0 23.333 -4.5 40.666 -13.5 51.999s-22.5 17 -40.5 17
c-24 0 -50.667 -14.167 -80 -42.5s-60 -69.833 -92 -124.5l-59 36c42.667 81.333 96.334 144.333 161.001 189s133 67 205 67c66 0 117.667 -15.833 155 -47.5s56 -75.167 56 -130.5c0 -17.333 -2 -37.666 -6 -60.999s-10 -49.333 -18 -78z" />
    <glyph glyph-name="Lslash" unicode="&#x141;" horiz-adv-x="1325" 
d="M205 1470c74 -3.33301 135.501 -5.83008 184.501 -7.49707s91.167 -2.5 126.5 -2.5s78 0.833008 128 2.5s115.333 4.16699 196 7.5l-1 -94c-70 -2.66699 -115.667 -11.834 -137 -27.501s-37 -52.834 -47 -111.501l-53 -332l318 193l-21 -127l-319 -197l-107 -676h270
c86.667 0 149.5 4.66699 188.5 14s71.833 25.333 98.5 48c30.667 26 56.667 61.5 78 106.5s41.666 109.833 60.999 194.5h95l-49.5 -237c-15.667 -76.667 -30.167 -151.334 -43.5 -224.001h-1167v98c56.667 0 95.5 7.33301 116.5 22s36.167 49.667 45.5 105l59 357
l-235 -144l20 127l236 146l78 489c4 26.667 7.33301 50 10 70s4 31.667 4 35c0 24.667 -9.16699 42.167 -27.5 52.5s-53.5 16.833 -105.5 19.5v93z" />
    <glyph glyph-name="lslash" unicode="&#x142;" horiz-adv-x="727" 
d="M662 1522l-135.996 -615.001l185 113l-27 -123l-184 -113l-109 -516c-4 -20 -7 -37.833 -9 -53.5s-3 -28.5 -3 -38.5c0 -20 5.16699 -35.833 15.5 -47.5s24.166 -17.5 41.499 -17.5c25.333 0 53 15.667 83 47s59.667 76.333 89 135l62 -31
c-46.667 -95.333 -98.834 -165.833 -156.501 -211.5s-123.167 -68.5 -196.5 -68.5c-70.667 0 -125.5 16.5 -164.5 49.5s-58.5 79.833 -58.5 140.5c0 14 1.33301 30.5 4 49.5s7 41.5 13 67.5l69 317l-176 -106l27 123l176 110l110 510c5.33301 26 9.16602 47.5 11.499 64.5
s3.5 32.5 3.5 46.5c0 48.667 -41.333 74.334 -124 77.001c-8.66699 0 -15.334 0.333008 -20.001 1l17 81c20.667 0 52 -1 94 -3s72 -3 90 -3c28 0 61.5 1 100.5 3s96.5 6 172.5 12z" />
    <glyph glyph-name="OE" unicode="&#x152;" horiz-adv-x="2286" 
d="M1313 1470l847.998 -0.00195312v-415h-95v35c0 109.333 -17.833 183.333 -53.5 222s-107.167 58 -214.5 58h-295l-90 -561h82c100 0 167.333 14.333 202 43s58 84.667 70 168h88c-18 -89.333 -33.667 -179.833 -47 -271.5s-24.666 -185.5 -33.999 -281.5h-88
c0 4.66699 0.666992 12.334 2 23.001c4 42.667 6 73.334 6 92.001c0 50.667 -11.167 84.834 -33.5 102.501s-71.5 26.5 -147.5 26.5h-116l-99 -613h324c85.333 0 147.333 4.66699 186 14s71.667 25.333 99 48c28 24 52.5 56.333 73.5 97s43.5 102.334 67.5 185.001h94
c-18 -76.667 -34.833 -151.834 -50.5 -225.501s-29.5 -145.834 -41.5 -216.501h-874c-37.333 -0 -106.5 -2.66699 -207.5 -8s-183.5 -8 -247.5 -8c-209.333 0 -370.5 56 -483.5 168s-169.5 272.333 -169.5 481c0 128 23 247.833 69 359.5s112.333 208.167 199 289.5
c70.667 66.667 153.334 117.167 248.001 151.5s199 51.5 313 51.5c42.667 0 110.167 -2.5 202.5 -7.5s163.5 -7.5 213.5 -7.5zM1155 1169c4 24 7.00195 46.5 9.00195 67.5s3 38.167 3 51.5c0 36.667 -13.5 63 -40.5 79s-72.167 24 -135.5 24
c-166 0 -301.667 -76.5 -407 -229.5s-158 -351.167 -158 -594.5c0 -158.667 31.333 -280.5 94 -365.5s152 -127.5 268 -127.5c77.333 0 130.166 11.333 158.499 34s48.166 68.667 59.499 138z" />
    <glyph glyph-name="oe" unicode="&#x153;" horiz-adv-x="1720" 
d="M770 731c0 64 -10.833 112.499 -32.5 145.499s-53.834 49.5 -96.501 49.5c-42 0 -80.5 -16 -115.5 -48s-66.167 -80.333 -93.5 -145c-31.333 -72.667 -56.166 -151.5 -74.499 -236.5s-27.5 -163.167 -27.5 -234.5c0 -61.333 12.333 -108.666 37 -141.999
s59.334 -50 104.001 -50c38 0 74.167 16.5 108.5 49.5s65.166 80.5 92.499 142.5c29.333 68 53 145.333 71 232s27 165.667 27 237zM1051 568.999c121.333 4.66699 212.333 27.3311 273 67.998s91 100 91 178c0 34.667 -8.66699 61.834 -26 81.501s-41.333 29.5 -72 29.5
c-62 0 -115.5 -30.167 -160.5 -90.5s-80.167 -149.166 -105.5 -266.499zM963 845.996c59.333 55.333 121.831 96.499 187.498 123.499s136.167 40.5 211.5 40.5c92.667 0 164 -18 214 -54s75 -87 75 -153c0 -99.333 -53.333 -176.833 -160 -232.5s-257 -83.5 -451 -83.5h-10
c-6.66699 -31.333 -11.667 -63.166 -15 -95.499s-5 -63.833 -5 -94.5c0 -68.667 13 -120 39 -154s65.333 -51 118 -51c62 0 121 19.667 177 59s105 95.333 147 168l59 -40c-49.333 -95.333 -114 -169 -194 -221s-168 -78 -264 -78c-63.333 0 -118.333 11.833 -165 35.5
s-84.667 58.834 -114 105.501c-45.333 -46.667 -97.666 -81.5 -156.999 -104.5s-125 -34.5 -197 -34.5c-127.333 0 -230.166 39.833 -308.499 119.5s-117.5 184.5 -117.5 314.5c0 159.333 58.667 298.166 176 416.499s257.333 177.5 420 177.5c76.667 0 142 -13.333 196 -40
s100 -68 138 -124z" />
    <glyph glyph-name="Scedilla" unicode="&#x15e;" horiz-adv-x="1247" 
d="M1051 1356l32.001 70.999h82c-14 -66 -26.167 -134.5 -36.5 -205.5s-19.166 -147.167 -26.499 -228.5h-92v6c0 127.333 -26.5 224.166 -79.5 290.499s-130.5 99.5 -232.5 99.5c-72 0 -129.833 -20 -173.5 -60s-65.5 -92.667 -65.5 -158c0 -82 83 -172.667 249 -272
l53 -32c132 -80 223.167 -152.833 273.5 -218.5s75.5 -140.5 75.5 -224.5c0 -129.333 -48.833 -235.333 -146.5 -318s-223.5 -124 -377.5 -124c-82 0 -158.333 11.667 -229 35s-135 58.666 -193 105.999l-23 -84h-90c17.333 82 31.666 164.5 42.999 247.5
s19.666 166.5 24.999 250.5h94c-1.33301 -10 -2.33301 -20.667 -3 -32s-1 -27.333 -1 -48c0 -116.667 29.833 -209 89.5 -277s140.5 -102 242.5 -102c74 0 134.167 20.833 180.5 62.5s69.5 95.834 69.5 162.501c0 106 -88 213 -264 321l-58 35
c-122.667 76.667 -205.5 143.334 -248.5 200.001s-64.5 121.334 -64.5 194.001c0 125.333 46.5 229.333 139.5 312s212.167 124 357.5 124c72.667 0 141.5 -10.833 206.5 -32.5s128.833 -55.167 191.5 -100.5zM547.001 -0.000976562h72l-35 -114c6 0 14.333 0.666992 25 2
c26.667 3.33301 44.334 5.33301 53.001 6c53.333 0 95.666 -15.667 126.999 -47s47 -74 47 -128c0 -52.667 -20 -95.167 -60 -127.5s-93.333 -48.5 -160 -48.5c-44.667 0 -93 7.16699 -145 21.5s-109.333 35.833 -172 64.5l41 90c40 -24 80.333 -42.5 121 -55.5
s78 -19.5 112 -19.5c32.667 0 57.667 7 75 21s26 34.333 26 61c0 27.333 -8.83301 48.5 -26.5 63.5s-43.167 22.5 -76.5 22.5c-11.333 0 -24.5 -1.16699 -39.5 -3.5s-31.833 -5.5 -50.5 -9.5z" />
    <glyph glyph-name="scedilla" unicode="&#x15f;" horiz-adv-x="930" 
d="M647 877c-18 16 -38.833 28.1689 -62.5 36.502s-49.834 12.5 -78.501 12.5c-49.333 0 -88 -11.833 -116 -35.5s-42 -56.167 -42 -97.5c0 -58 48.667 -110 146 -156l31 -15c95.333 -46 162 -92.167 200 -138.5s57 -103.166 57 -170.499c0 -100.667 -37 -181 -111 -241
s-173.333 -90 -298 -90c-111.333 0 -201 22.5 -269 67.5s-102 103.5 -102 175.5c0 41.333 11.5 75.333 34.5 102s52.5 40 88.5 40c32.667 0 59.334 -10.5 80.001 -31.5s31 -48.167 31 -81.5c0 -20.667 -5.5 -43.167 -16.5 -67.5s-16.5 -38.833 -16.5 -43.5
c0 -20 15.667 -37.833 47 -53.5s69.666 -23.5 114.999 -23.5c53.333 0 96 12.667 128 38s48 59.666 48 102.999c0 61.333 -52 117 -156 167c-17.333 8.66699 -30.333 15 -39 19c-86 42 -147.5 85.333 -184.5 130s-55.5 97.667 -55.5 159c0 99.333 36 179.166 108 239.499
s168 90.5 288 90.5c103.333 0 187.5 -21.167 252.5 -63.5s97.5 -96.5 97.5 -162.5c0 -36.667 -10.667 -66.167 -32 -88.5s-49.666 -33.5 -84.999 -33.5c-34 0 -61.5 10 -82.5 30s-31.5 46.667 -31.5 80c0 13.333 2.16699 28.666 6.5 45.999s10.833 36.333 19.5 57z
M330 0.00195312h72l-35 -114c6 0 14.333 0.666992 25 2c26.667 3.33301 44.334 5.33301 53.001 6c53.333 0 95.666 -15.667 126.999 -47s47 -74 47 -128c0 -52.667 -20 -95.167 -60 -127.5s-93.333 -48.5 -160 -48.5c-44.667 0 -93 7.16699 -145 21.5
s-109.333 35.833 -172 64.5l41 90c40 -24 80.333 -42.5 121 -55.5s78 -19.5 112 -19.5c32.667 0 57.667 7 75 21s26 34.333 26 61c0 27.333 -8.83301 48.5 -26.5 63.5s-43.167 22.5 -76.5 22.5c-11.333 0 -24.5 -1.16699 -39.5 -3.5s-31.833 -5.5 -50.5 -9.5z" />
    <glyph glyph-name="Scaron" unicode="&#x160;" horiz-adv-x="1247" 
d="M1051 1356l32.001 70.999h82c-14 -66 -26.167 -134.5 -36.5 -205.5s-19.166 -147.167 -26.499 -228.5h-92v6c0 127.333 -26.5 224.166 -79.5 290.499s-130.5 99.5 -232.5 99.5c-72 0 -129.833 -20 -173.5 -60s-65.5 -92.667 -65.5 -158c0 -82 83 -172.667 249 -272
l53 -32c132 -80 223.167 -152.833 273.5 -218.5s75.5 -140.5 75.5 -224.5c0 -129.333 -48.833 -235.333 -146.5 -318s-223.5 -124 -377.5 -124c-82 0 -158.333 11.667 -229 35s-135 58.666 -193 105.999l-23 -84h-90c17.333 82 31.666 164.5 42.999 247.5
s19.666 166.5 24.999 250.5h94c-1.33301 -10 -2.33301 -20.667 -3 -32s-1 -27.333 -1 -48c0 -116.667 29.833 -209 89.5 -277s140.5 -102 242.5 -102c74 0 134.167 20.833 180.5 62.5s69.5 95.834 69.5 162.501c0 106 -88 213 -264 321l-58 35
c-122.667 76.667 -205.5 143.334 -248.5 200.001s-64.5 121.334 -64.5 194.001c0 125.333 46.5 229.333 139.5 312s212.167 124 357.5 124c72.667 0 141.5 -10.833 206.5 -32.5s128.833 -55.167 191.5 -100.5zM533.001 1960h82l172 -181l258 181h100l-305 -359h-147z" />
    <glyph glyph-name="scaron" unicode="&#x161;" horiz-adv-x="930" 
d="M647 877c-18 16 -38.833 28.1689 -62.5 36.502s-49.834 12.5 -78.501 12.5c-49.333 0 -88 -11.833 -116 -35.5s-42 -56.167 -42 -97.5c0 -58 48.667 -110 146 -156l31 -15c95.333 -46 162 -92.167 200 -138.5s57 -103.166 57 -170.499c0 -100.667 -37 -181 -111 -241
s-173.333 -90 -298 -90c-111.333 0 -201 22.5 -269 67.5s-102 103.5 -102 175.5c0 41.333 11.5 75.333 34.5 102s52.5 40 88.5 40c32.667 0 59.334 -10.5 80.001 -31.5s31 -48.167 31 -81.5c0 -20.667 -5.5 -43.167 -16.5 -67.5s-16.5 -38.833 -16.5 -43.5
c0 -20 15.667 -37.833 47 -53.5s69.666 -23.5 114.999 -23.5c53.333 0 96 12.667 128 38s48 59.666 48 102.999c0 61.333 -52 117 -156 167c-17.333 8.66699 -30.333 15 -39 19c-86 42 -147.5 85.333 -184.5 130s-55.5 97.667 -55.5 159c0 99.333 36 179.166 108 239.499
s168 90.5 288 90.5c103.333 0 187.5 -21.167 252.5 -63.5s97.5 -96.5 97.5 -162.5c0 -36.667 -10.667 -66.167 -32 -88.5s-49.666 -33.5 -84.999 -33.5c-34 0 -61.5 10 -82.5 30s-31.5 46.667 -31.5 80c0 13.333 2.16699 28.666 6.5 45.999s10.833 36.333 19.5 57zM330 1479
h82l172 -181l258 181h100l-305 -359h-147z" />
    <glyph glyph-name="Ydieresis" unicode="&#x178;" horiz-adv-x="1245" 
d="M-6 1470c94 -4 161.999 -6.66895 203.999 -8.00195s75.667 -2 101 -2c32.667 0 74.334 0.833008 125.001 2.5s119 4.16699 205 7.5v-94c-48.667 -4.66699 -80.334 -11.167 -95.001 -19.5s-22 -21.5 -22 -39.5c0 -8 2 -18.667 6 -32s10.333 -29.333 19 -48l213 -485
l282 489c8 14.667 14.5 29.334 19.5 44.001s7.5 26.667 7.5 36c0 18.667 -9.66699 32.334 -29 41.001s-52.666 13.667 -99.999 15v93c51.333 -3.33301 93.333 -5.83301 126 -7.5s60.334 -2.5 83.001 -2.5c21.333 0 47.666 0.833008 78.999 2.5s73 4.16699 125 7.5l2 -94
c-38 -2 -69.833 -11.833 -95.5 -29.5s-57.167 -56.834 -94.5 -117.501l-358 -580l-62 -381c-3.33301 -18.667 -5.83301 -36 -7.5 -52s-2.5 -30 -2.5 -42c0 -28.667 8.33301 -48.5 25 -59.5s58 -18.5 124 -22.5v-92c-86.667 4 -154.167 6.66699 -202.5 8s-87.833 2 -118.5 2
s-69.834 -0.666992 -117.501 -2s-116.5 -4 -206.5 -8l1 92c61.333 1.33301 103.333 10.333 126 27s38.334 54 47.001 112l64 383l-272 596c-29.333 62.667 -57.833 104.834 -85.5 126.501s-66.167 35.167 -115.5 40.5v93zM989.999 1908c35.333 0 65.668 -12.667 91.001 -38
s38 -55.666 38 -90.999c0 -37.333 -12.333 -68.5 -37 -93.5s-55.334 -37.5 -92.001 -37.5s-67.667 12.833 -93 38.5s-38 56.5 -38 92.5c0 33.333 13.333 63.166 40 89.499s57 39.5 91 39.5zM615.001 1908c35.333 0 65.333 -12.501 90 -37.501s37 -55.5 37 -91.5
c0 -37.333 -12 -68.5 -36 -93.5s-54.333 -37.5 -91 -37.5c-36 0 -66.833 12.833 -92.5 38.5s-38.5 55.834 -38.5 90.501c0 34 13.333 64.333 40 91s57 40 91 40z" />
    <glyph glyph-name="Zcaron" unicode="&#x17d;" horiz-adv-x="1432" 
d="M189 1485c56.667 -4.66699 116.335 -8.33301 179.002 -11s127.667 -4 195 -4h795l-918 -1368h371c140 0 237.667 23.5 293 70.5s95.666 136.833 120.999 269.5h88c-15.333 -76.667 -29.333 -152.667 -42 -228s-24 -150.666 -34 -225.999c-75.333 4 -145.333 7 -210 9
s-117 3 -157 3h-872l917 1368h-249c-170 0 -278.833 -20 -326.5 -60s-80.834 -116.333 -99.501 -229h-88c11.333 85.333 20 160.666 26 225.999s9.66699 125.333 11 180zM625.001 1960h82l172 -181l258 181h100l-305 -359h-147z" />
    </font>
</defs>
</svg>
