<?xml version="1.0" standalone="no"?>
<!DOCTYPE svg PUBLIC "-//W3C//DTD SVG 1.1//EN" "http://www.w3.org/Graphics/SVG/1.1/DTD/svg11.dtd" >
<svg>
<metadata>
Created by FontForge 20090914 at Mon Jul  4 06:56:38 2016
 By www-data
Copyright 1990-2003 Bitstream Inc. All rights reserved.
</metadata>
<defs>
<font id="Century751BT-RomanNo2B" horiz-adv-x="1024" >
  <font-face 
    font-family="Century751 No2 BT"
    font-weight="400"
    font-stretch="normal"
    units-per-em="2048"
    panose-1="2 4 6 4 5 5 5 2 2 4"
    ascent="1556"
    descent="-492"
    x-height="977"
    cap-height="1470"
    bbox="-342 -483 2214 1972"
    underline-thickness="84"
    underline-position="-175"
    unicode-range="U+0020-U+F002"
  />
<missing-glyph horiz-adv-x="1229" 
d="M102 -362v1806h1024v-1806h-1024zM217 -248h795v1577h-795v-1577z" />
    <glyph glyph-name=".notdef" horiz-adv-x="1229" 
d="M102 -362v1806h1024v-1806h-1024zM217 -248h795v1577h-795v-1577z" />
    <glyph glyph-name="space" unicode=" " horiz-adv-x="569" 
 />
    <glyph glyph-name="exclam" unicode="!" horiz-adv-x="729" 
d="M367 193c28 0 52.333 -10.499 73 -31.499s31 -45.5 31 -73.5c0 -31.333 -9.83301 -56.833 -29.5 -76.5s-44.5 -29.5 -74.5 -29.5s-55.667 10.333 -77 31s-32 45.667 -32 75c0 27.333 11 51.666 33 72.999s47.333 32 76 32zM365 1489c34.667 -16 61 -41.166 79 -75.499
s27 -76.833 27 -127.5c0 -26.667 -11.833 -147.334 -35.5 -362.001s-37.834 -418 -42.501 -610l-57 -1c-5.33301 198 -19.666 403.167 -42.999 615.5s-35 328.166 -35 347.499c0 56.667 8.66699 102.334 26 137.001s44.333 60 81 76z" />
    <glyph glyph-name="quotedbl" unicode="&#x22;" horiz-adv-x="678" 
d="M518 864l-31.001 -0.000976562l-65 457c0 1.33301 -0.333008 3.33301 -1 6c-2 14.667 -3 25.667 -3 33c0 32.667 7.5 57.834 22.5 75.501s36.167 26.5 63.5 26.5c26.667 0 47.334 -8.66699 62.001 -26s22 -42 22 -74c0 -9.33301 -0.166992 -17 -0.5 -23
s-0.833008 -12 -1.5 -18zM189.999 863.999l-32.001 -0.000976562l-64 457l-3 26c-0.666992 6 -1 11 -1 15c0 32 7.33301 56.667 22 74s35.334 26 62.001 26c27.333 0 48.5 -8.66699 63.5 -26s22.5 -42 22.5 -74c0 -6 -1 -17.333 -3 -34
c-0.666992 -3.33301 -1 -5.66602 -1 -6.99902z" />
    <glyph glyph-name="numbersign" unicode="#" horiz-adv-x="1575" 
d="M700 868l-100 -286h289l102 286h-291zM778 1456h133l-168 -471h287l168 471h131l-166 -471h307l-40 -117h-310l-100 -286h332l-43 -115h-330l-166 -469h-133l166 469h-287l-166 -469h-131l166 469h-324l43 115h322l100 286h-348l43 117h348z" />
    <glyph glyph-name="dollar" unicode="$" horiz-adv-x="1139" 
d="M582 645v-598c84 9.33301 150.333 39.666 199 90.999s73 117.333 73 198c0 84 -20.5 149.333 -61.5 196s-111.167 84.334 -210.5 113.001zM543 1386c-82.667 -10.667 -146.334 -40.165 -191.001 -88.498s-67 -111.5 -67 -189.5c0 -74.667 19.833 -133.834 59.5 -177.501
s105.834 -78.834 198.501 -105.501v561zM543 1593l64.998 -0.000976562v-147c105.333 -6.66699 191.833 -35 259.5 -85s101.5 -109 101.5 -177c0 -32.667 -6.66699 -58.667 -20 -78s-30.666 -29 -51.999 -29c-22.667 0 -40.667 9.83301 -54 29.5s-20 46.167 -20 79.5
c0 20 1.83301 38.833 5.5 56.5s9.16699 35.167 16.5 52.5c-28.667 27.333 -63.5 48.833 -104.5 64.5s-85.167 23.834 -132.5 24.501v-581c145.333 -48 249.333 -104.833 312 -170.5s94 -149.5 94 -251.5c0 -112 -37.833 -203 -113.5 -273s-181.834 -112 -318.501 -126v-187
h-66v188c-121.333 5.33301 -223 42.833 -305 112.5s-123 149.834 -123 240.501c0 38 7 68 21 90s33 33 57 33c22.667 0 40.334 -9.16699 53.001 -27.5s19 -44.166 19 -77.499c0 -22.667 -3.16699 -43.334 -9.5 -62.001s-16.166 -37.334 -29.499 -56.001
c20.667 -56 59.167 -101 115.5 -135s123.5 -52.667 201.5 -56v625c-132 35.333 -229.5 85.833 -292.5 151.5s-94.5 149.5 -94.5 251.5c0 110.667 37 199.5 111 266.5s175 103.167 303 108.5v145z" />
    <glyph glyph-name="percent" unicode="%" horiz-adv-x="1597" 
d="M1202 809c-56.667 0 -101.834 -37.333 -135.501 -112s-50.5 -176.667 -50.5 -306c0 -114 15.167 -201.833 45.5 -263.5s73.833 -92.5 130.5 -92.5c56 0 100.667 37.333 134 112s50 176.667 50 306c0 112.667 -15.167 200.167 -45.5 262.5s-73.166 93.5 -128.499 93.5z
M1198 862c94 0 168.999 -38 224.999 -114s84 -178.667 84 -308c0 -142 -28.167 -253.833 -84.5 -335.5s-133.166 -122.5 -230.499 -122.5c-94.667 0 -169.5 37.667 -224.5 113s-82.5 179 -82.5 311c0 140 28.167 251 84.5 333s132.5 123 228.5 123zM405.999 1397
c-56.667 0 -101.666 -37.498 -134.999 -112.498s-50 -176.833 -50 -305.5c0 -112.667 15 -200.167 45 -262.5s71.667 -93.5 125 -93.5c59.333 0 105.666 36.667 138.999 110s50 175.666 50 306.999c0 115.333 -15 203.666 -45 264.999s-73 92 -129 92zM1217 1450h88
l-924 -1468h-90zM403 1450c98 0 173.833 -38.333 227.5 -115s80.5 -185 80.5 -325c0 -132.667 -28.833 -239.334 -86.5 -320.001s-133.5 -121 -227.5 -121s-168.667 37.833 -224 113.5s-83 178.5 -83 308.5c0 142.667 28 254.834 84 336.501s132.333 122.5 229 122.5z" />
    <glyph glyph-name="ampersand" unicode="&#x26;" horiz-adv-x="1470" 
d="M461 776c-64.667 -36.667 -113.667 -84.5 -147 -143.5s-50 -127.167 -50 -204.5c0 -105.333 28.5 -189 85.5 -251s134.5 -93 232.5 -93c58 0 111.333 13.5 160 40.5s95 68.833 139 125.5l-15 30c-134.667 280.667 -269.667 446 -405 496zM614 860
c69.333 -31.333 130.835 -78.835 184.502 -142.502s115.167 -166.167 184.5 -307.5c33.333 57.333 59.5 113.333 78.5 168s28.5 100.334 28.5 137.001s-11.833 62.5 -35.5 77.5s-67.834 23.167 -132.501 24.5v62c39.333 -3.33301 77.166 -5.66602 113.499 -6.99902
s71.5 -2 105.5 -2s69.833 0.666992 107.5 2s77.5 3.66602 119.5 6.99902v-62c-60.667 0 -105.667 -6.5 -135 -19.5s-48.333 -34.167 -57 -63.5c-2 -6.66699 -5 -18.667 -9 -36c-27.333 -127.333 -75.666 -247.333 -144.999 -360c34.667 -72 73.5 -127.5 116.5 -166.5
s86.167 -58.5 129.5 -58.5c39.333 0 73.833 13.5 103.5 40.5s53.834 67.167 72.501 120.5l47 -16c-29.333 -93.333 -69 -162.666 -119 -207.999s-112 -68 -186 -68c-57.333 0 -109.833 16.833 -157.5 50.5s-88.167 82.167 -121.5 145.5c-59.333 -66.667 -123 -116 -191 -148
s-142.667 -48 -224 -48c-119.333 0 -215.5 36 -288.5 108s-109.5 167 -109.5 285c0 94.667 26.667 179.5 80 254.5s129.666 134.833 228.999 179.5c-67.333 42.667 -117.5 91.5 -150.5 146.5s-49.5 116.833 -49.5 185.5c0 100 35.167 183.333 105.5 250
s159.166 100 266.499 100c90.667 0 164 -26.5 220 -79.5s84 -122.167 84 -207.5c0 -78.667 -22.167 -146.667 -66.5 -204s-110.5 -104 -198.5 -140zM557.002 890.998c67.333 35.333 115.167 73.499 143.5 114.499s42.5 92.833 42.5 155.5c0 82 -18.167 146.833 -54.5 194.5
s-84.833 71.5 -145.5 71.5c-58 0 -105.333 -20.333 -142 -61s-55 -94 -55 -160c0 -72 18.167 -135.167 54.5 -189.5s88.5 -96.166 156.5 -125.499z" />
    <glyph glyph-name="quotesingle" unicode="'" horiz-adv-x="348" 
d="M190 864l-31.999 0.000976562l-66 457c-0.666992 5.33301 -1.16699 10.666 -1.5 15.999s-0.5 13 -0.5 23c0 33.333 7.16699 58.666 21.5 75.999s35.166 26 62.499 26s48.5 -8.66699 63.5 -26s22.5 -42 22.5 -74c0 -6 -1 -17.333 -3 -34
c-0.666992 -3.33301 -1 -5.66602 -1 -6.99902z" />
    <glyph glyph-name="parenleft" unicode="(" horiz-adv-x="825" 
d="M799 1518l17.998 -33c-164 -114.667 -286.167 -245.5 -366.5 -392.5s-120.5 -312.5 -120.5 -496.5c0 -192 39.833 -371.167 119.5 -537.5s200.834 -322.5 363.501 -468.5l-25 -32c-201.333 154 -350.166 313.5 -446.499 478.5s-144.5 342.5 -144.5 532.5
c0 199.333 51.5 380.333 154.5 543s252.167 298 447.5 406z" />
    <glyph glyph-name="parenright" unicode=")" horiz-adv-x="825" 
d="M35 1518c202.667 -155.333 352 -315 448 -479s144 -341.667 144 -533c0 -199.333 -51.667 -380 -155 -542s-252.333 -297.333 -447 -406l-19 32c164 115.333 286.333 246.333 367 393s121 312.667 121 498c0 191.333 -40 370 -120 536s-201.333 322 -364 468z" />
    <glyph glyph-name="asterisk" unicode="*" horiz-adv-x="985" 
d="M471 1077l43 0.000976562c2.66699 -14.667 6 -34.667 10 -60c12.667 -76.667 19 -124.334 19 -143.001c0 -21.333 -3.83301 -37.666 -11.5 -48.999s-20.5 -19.333 -38.5 -24c-18 5.33301 -31 13.666 -39 24.999s-12 27.333 -12 48s6.66699 71 20 151zM426 1130
l20.001 -36l-58 -47c-78 -63.333 -126.667 -95 -146 -95c-9.33301 0 -17.833 1.66699 -25.5 5s-14.834 8.33301 -21.501 15c-1.33301 4 -2 7.5 -2 10.5v12.5c0 32 58.333 70 175 114c24.667 9.33301 44 16.333 58 21zM561.001 1128
c15.333 -5.33301 36.668 -13.334 64.001 -24.001c112 -41.333 168 -77.666 168 -108.999c0 -4.66699 -0.166992 -8.5 -0.5 -11.5s-1.16602 -6.83301 -2.49902 -11.5c-6.66699 -6 -13.834 -10.833 -21.501 -14.5s-16.167 -5.5 -25.5 -5.5
c-20.667 0 -78.334 38.667 -173.001 116l-31 26zM446.003 1196l-20 -36.999l-55 21c-118.667 45.333 -178 83.333 -178 114v4c0 2.66699 0.166992 5.16699 0.5 7.5s1.5 6.16602 3.5 11.499c6.66699 6.66699 13.667 11.667 21 15s15.333 5 24 5c22.667 0 90 -46.333 202 -139
zM791.003 1316c0.666992 -4 1.16699 -7.66797 1.5 -11.001s0.5 -7 0.5 -11c0 -32.667 -56.333 -69.667 -169 -111l-63 -24l-20 37l34 28c90.667 75.333 146.667 113 168 113c9.33301 0 17.833 -1.66699 25.5 -5s15.167 -8.66602 22.5 -15.999zM494.003 1489
c16.667 -4.66699 29 -12.665 37 -23.998s12 -28 12 -50c0 -18.667 -6.66699 -69 -20 -151l-9 -53l-42 -1c-2.66699 12.667 -6 30.667 -10 54c-13.333 82 -20 132.333 -20 151c0 21.333 4 37.666 12 48.999s21.333 19.666 40 24.999z" />
    <glyph glyph-name="plus" unicode="+" horiz-adv-x="1706" 
d="M795 1221h118v-551h539v-117h-539v-553h-118v553h-541v117h541v551z" />
    <glyph glyph-name="comma" unicode="," horiz-adv-x="569" 
d="M190 -330l-35.998 40.999c49.333 42.667 86.166 85.334 110.499 128.001s36.5 86.667 36.5 132c0 10 -0.166992 17.333 -0.5 22s-0.833008 9 -1.5 13c-8.66699 -2 -17 -3.5 -25 -4.5s-15.333 -1.5 -22 -1.5c-30.667 0 -55.334 9.5 -74.001 28.5s-28 44.167 -28 75.5
c0 32 10 58.5 30 79.5s45.333 31.5 76 31.5c40.667 0 73.667 -16.833 99 -50.5s38 -78.167 38 -133.5c0 -62 -17.5 -124.333 -52.5 -187s-85.167 -120.667 -150.5 -174z" />
    <glyph glyph-name="hyphen" unicode="-" horiz-adv-x="707" 
d="M94 561h498v-123h-498v123z" />
    <glyph glyph-name="period" unicode="." horiz-adv-x="569" 
d="M285 215c28 0 50.667 -10.333 68 -31s26 -48 26 -82s-8.66699 -61.167 -26 -81.5s-40 -30.5 -68 -30.5c-28.667 0 -51.667 10.167 -69 30.5s-26 47.5 -26 81.5s8.66699 61.333 26 82s40.333 31 69 31z" />
    <glyph glyph-name="slash" unicode="/" horiz-adv-x="606" 
d="M530 1489h103l-610 -1679h-103z" />
    <glyph glyph-name="zero" unicode="0" horiz-adv-x="1139" 
d="M580 1389c-95.333 0 -171.166 -65.332 -227.499 -195.999s-84.5 -307.667 -84.5 -531c0 -197.333 25.167 -349.5 75.5 -456.5s121.5 -160.5 213.5 -160.5c96.667 0 172.667 64 228 192s83 305 83 531c0 199.333 -24.833 352.666 -74.5 459.999s-120.834 161 -213.501 161
zM573 1450c146.667 0 262.668 -63.166 348.001 -189.499s128 -298.833 128 -517.5c0 -234.667 -43.833 -420.167 -131.5 -556.5s-205.834 -204.5 -354.501 -204.5c-146 0 -261.333 62.833 -346 188.5s-127 298.167 -127 517.5c0 235.333 43.5 421.166 130.5 557.499
s204.5 204.5 352.5 204.5z" />
    <glyph glyph-name="one" unicode="1" horiz-adv-x="1139" 
d="M672 1450v-1227c0 -75.333 10 -121.166 30 -137.499s69.333 -24.5 148 -24.5h27v-61c-91.333 4 -158.333 6.66699 -201 8s-77 2 -103 2c-30 0 -68.667 -0.666992 -116 -2s-118.333 -4 -213 -8v61h57c90 0 145.667 8.33301 167 25s32 63 32 139v1080
c-45.333 -10 -89.333 -20.5 -132 -31.5s-84 -23.167 -124 -36.5v72c34.667 11.333 86 26 154 44c128.667 35.333 220 67.666 274 96.999z" />
    <glyph glyph-name="two" unicode="2" horiz-adv-x="1139" 
d="M221 117c46.667 12 94.6621 20.8301 143.995 26.4971s111.333 8.5 186 8.5c40.667 0 92.334 -2.16699 155.001 -6.5s105.334 -6.5 128.001 -6.5c76.667 0 126.334 75.667 149.001 227l2 15h59c-4.66699 -65.333 -11.667 -130.666 -21 -195.999
s-20.666 -129.666 -33.999 -192.999c-15.333 -0.666992 -30.5 -1.16699 -45.5 -1.5s-31.167 -0.5 -48.5 -0.5c-90.667 0 -196.667 1.66699 -318 5s-197.666 5 -228.999 5h-55c-51.333 0 -92.333 -0.833008 -123 -2.5s-60 -4.16699 -88 -7.5l-10 14
c23.333 56 57.333 110.833 102 164.5s108.334 114.834 191.001 183.501c174.667 146.667 287.5 265.667 338.5 357s76.5 195 76.5 311c0 108 -29.333 193.667 -88 257s-137.667 95 -237 95c-94.667 0 -172.334 -28.5 -233.001 -85.5s-91 -130.167 -91 -219.5v-20
c46.667 -11.333 84 -29.666 112 -54.999s42 -53.666 42 -84.999c0 -20 -5.66699 -35.167 -17 -45.5s-28.333 -15.5 -51 -15.5c-44.667 0 -81.834 20.167 -111.501 60.5s-44.5 92.5 -44.5 156.5c0 114 40 207 120 279s185 108 315 108c135.333 0 245.833 -39.5 331.5 -118.5
s128.5 -180.167 128.5 -303.5c0 -103.333 -30.5 -204 -91.5 -302s-154.5 -196.667 -280.5 -296c-23.333 -18.667 -58.666 -45.334 -105.999 -80.001c-126 -92.667 -211.667 -170.334 -257 -233.001z" />
    <glyph glyph-name="three" unicode="3" horiz-adv-x="1139" 
d="M569 743l0.000976562 -1.99512c150 -8 262.333 -42 337 -102s112 -146 112 -258c0 -118.667 -45.833 -214.834 -137.5 -288.501s-213.167 -110.5 -364.5 -110.5c-121.333 0 -223.666 30.167 -306.999 90.5s-125 132.5 -125 216.5c0 28.667 7.33301 52.167 22 70.5
s32.667 27.5 54 27.5c26.667 0 46.667 -10.667 60 -32s20 -53 20 -95c0 -12 -1.83301 -26.667 -5.5 -44s-5.5 -28 -5.5 -32c0 -34 28.5 -65.333 85.5 -94s124.833 -43 203.5 -43c98.667 0 176.667 30 234 90s86 142 86 246c0 105.333 -29.333 183.166 -88 233.499
s-149 75.5 -271 75.5c-16.667 0 -41.667 -1 -75 -3l-7 -1l1 74c122 2 216.167 32.5 282.5 91.5s99.5 141.833 99.5 248.5c0 87.333 -24.5 157 -73.5 209s-115.167 78 -198.5 78c-48.667 0 -93.334 -8.33301 -134.001 -25s-74.334 -40.334 -101.001 -71.001l6 -49
c1.33301 -10.667 2 -19.667 2 -27c0 -42 -7.83301 -75.167 -23.5 -99.5s-36.5 -36.5 -62.5 -36.5c-20.667 0 -36.167 7.16699 -46.5 21.5s-15.5 35.166 -15.5 62.499c0 75.333 38.833 141.666 116.5 198.999s171.167 86 280.5 86c122 0 221.167 -33 297.5 -99
s114.5 -151.667 114.5 -257c0 -95.333 -31.667 -172.833 -95 -232.5s-156 -99.167 -278 -118.5z" />
    <glyph glyph-name="four" unicode="4" horiz-adv-x="1139" 
d="M686 1311l-547 -799h547v799zM848 1445l-0.00195312 -920.997h174v-92h-174v-252c0 -58.667 6.5 -93.834 19.5 -105.501s48.167 -17.5 105.5 -17.5l-1 -57c-52 2 -96.833 3.5 -134.5 4.5s-67.5 1.5 -89.5 1.5c-26.667 0 -61.167 -0.5 -103.5 -1.5
s-93.166 -2.5 -152.499 -4.5v57c82.667 0 133.667 7.66699 153 23s29 50.666 29 105.999v246h-604v66c0 8 3.33301 19 10 33s17 31 31 51l563 821c28.667 5.33301 57.834 11.666 87.501 18.999s58.5 15 86.5 23z" />
    <glyph glyph-name="five" unicode="5" horiz-adv-x="1139" 
d="M973 1458l30.999 -31.001c-58.667 -68 -110.334 -114 -155.001 -138s-97 -36 -157 -36c-21.333 0 -81.666 5.33301 -180.999 16s-183.666 19 -252.999 25c-12 -76.667 -22.167 -157.167 -30.5 -241.5s-15.166 -173.833 -20.499 -268.5
c47.333 46.667 100.333 81.334 159 104.001s125 34 199 34c140 0 251.5 -40.5 334.5 -121.5s124.5 -190.167 124.5 -327.5c0 -149.333 -46.667 -268.5 -140 -357.5s-218 -133.5 -374 -133.5c-118 0 -215.833 30.667 -293.5 92s-116.5 136.333 -116.5 225
c0 42.667 8.83301 77.5 26.5 104.5s39.834 40.5 66.501 40.5c21.333 0 38.833 -8.5 52.5 -25.5s20.5 -39.833 20.5 -68.5c0 -23.333 -4.16699 -46.833 -12.5 -70.5s-20.5 -46.5 -36.5 -68.5c19.333 -49.333 54 -88 104 -116s109 -42 177 -42c106 0 191.833 38.5 257.5 115.5
s98.5 177.833 98.5 302.5c0 115.333 -30.333 206.333 -91 273s-143 100 -247 100c-59.333 0 -115.5 -12 -168.5 -36s-109.5 -63.333 -169.5 -118l-41 39c10.667 92 21.5 198 32.5 318l35.5 401c191.333 -19.333 327 -32.333 407 -39s136.667 -10 170 -10
c39.333 0 73.166 4.5 101.499 13.5s58.166 24.167 89.499 45.5z" />
    <glyph glyph-name="six" unicode="6" horiz-adv-x="1139" 
d="M273 623c-1.33301 -11.333 -2.16797 -23.167 -2.50098 -35.5s-0.5 -30.833 -0.5 -55.5c0 -162.667 26.5 -284.167 79.5 -364.5s133.167 -120.5 240.5 -120.5c94.667 0 168.5 34.167 221.5 102.5s79.5 163.833 79.5 286.5c0 118 -25.167 209.667 -75.5 275
s-120.833 98 -211.5 98c-61.333 0 -119.666 -15.5 -174.999 -46.5s-107.333 -77.5 -156 -139.5zM880.998 1290c-21.333 30.667 -51.167 54.333 -89.5 71s-81.5 25 -129.5 25c-126.667 0 -221.334 -55.167 -284.001 -165.5s-96.667 -281.5 -102 -513.5
c58 58.667 115.667 101.167 173 127.5s120 39.5 188 39.5c123.333 0 222.833 -39 298.5 -117s113.5 -181.667 113.5 -311c0 -136 -43.833 -247.333 -131.5 -334s-199.5 -130 -335.5 -130c-154.667 0 -274.667 57 -360 171s-128 274.667 -128 482
c0 249.333 50.833 447.833 152.5 595.5s235.834 221.5 402.501 221.5c96.667 0 180.667 -28.833 252 -86.5s107 -121.5 107 -191.5c0 -28.667 -5.66699 -51 -17 -67s-27 -24 -47 -24c-24 0 -42.667 10 -56 30s-20 47.667 -20 83c0 12.667 1.16699 27 3.5 43s5.5 33 9.5 51z
" />
    <glyph glyph-name="seven" unicode="7" horiz-adv-x="1139" 
d="M131 1441c62.667 -4.66699 129.668 -8.16895 201.001 -10.502s156 -3.5 254 -3.5h135c91.333 0 158.833 1.16699 202.5 3.5s83.167 6.16602 118.5 11.499l25 -33l-229 -444c-108.667 -208 -178.167 -359.833 -208.5 -455.5s-45.5 -188.5 -45.5 -278.5
c0 -29.333 0.666992 -60.666 2 -93.999s2 -52.333 2 -57c0 -32.667 -17.667 -62.667 -53 -90s-65 -41 -89 -41c-14 0 -23.5 7.83301 -28.5 23.5s-7.5 52.834 -7.5 111.501c0 85.333 12.167 170.5 36.5 255.5s62.5 175.167 114.5 270.5l375 684
c-80 -3.33301 -141.333 -5.5 -184 -6.5s-82.334 -1.5 -119.001 -1.5c-43.333 0 -95 0.666992 -155 2s-97.667 2 -113 2c-70.667 0 -116 -12 -136 -36s-30 -73.333 -30 -148v-29l-62 1c-0.666992 70 -1.5 135.333 -2.5 196s-2.16699 116.334 -3.5 167.001z" />
    <glyph glyph-name="eight" unicode="8" horiz-adv-x="1139" 
d="M465 692c-73.333 -31.333 -129.499 -76.333 -168.499 -135s-58.5 -127 -58.5 -205c0 -92 29.167 -166.5 87.5 -223.5s134.833 -85.5 229.5 -85.5c91.333 0 165.666 27.833 222.999 83.5s86 127.5 86 215.5c0 84 -25.5 150.167 -76.5 198.5s-158.5 98.833 -322.5 151.5z
M713.001 748c110 -33.333 191.667 -79.334 245 -138.001s80 -131.667 80 -219c0 -124 -43.667 -223.167 -131 -297.5s-204 -111.5 -350 -111.5c-138 0 -249.333 35 -334 105s-127 161 -127 273c0 86 24.833 158.333 74.5 217s127.167 107.334 232.5 146.001
c-86.667 34 -149.5 77.667 -188.5 131s-58.5 122.333 -58.5 207c0 116 37.833 209.833 113.5 281.5s175.5 107.5 299.5 107.5c116.667 0 212.5 -33.167 287.5 -99.5s112.5 -150.5 112.5 -252.5c0 -76 -21.5 -143.5 -64.5 -202.5s-106.833 -108.167 -191.5 -147.5z
M651.001 773.999c61.333 31.333 107.5 73.501 138.5 126.501s46.5 116.167 46.5 189.5c0 89.333 -23.5 161.5 -70.5 216.5s-108.167 82.5 -183.5 82.5c-81.333 0 -147.5 -26 -198.5 -78s-76.5 -119 -76.5 -201c0 -78.667 25 -142.834 75 -192.501s139.667 -97.5 269 -143.5z
" />
    <glyph glyph-name="nine" unicode="9" horiz-adv-x="1139" 
d="M229 166c20 -38 50.667 -67.665 92 -88.998s89.333 -32 144 -32c123.333 0 216.333 49.333 279 148s94.667 245.667 96 441c-58.667 -45.333 -115.834 -78.666 -171.501 -99.999s-113.167 -32 -172.5 -32c-123.333 0 -221.166 41 -293.499 123s-108.5 193 -108.5 333
c0 145.333 42.167 263.666 126.5 354.999s192.5 137 324.5 137c154.667 0 274.167 -62.833 358.5 -188.5s126.5 -303.834 126.5 -534.501c0 -229.333 -51.167 -411.166 -153.5 -545.499s-238.833 -201.5 -409.5 -201.5c-103.333 0 -190.333 29.667 -261 89
s-106 130.666 -106 213.999c0 27.333 6 49.166 18 65.499s28 24.5 48 24.5c23.333 0 41.833 -10.167 55.5 -30.5s20.5 -48.5 20.5 -84.5c0 -12 -1 -25.667 -3 -41s-5.33301 -32.333 -10 -51zM839 704.002c2 37.333 3.33594 65.001 4.00293 83.001s1 34.333 1 49
c0 189.333 -23.5 328 -70.5 416s-121.167 132 -222.5 132c-92.667 0 -164.667 -34.833 -216 -104.5s-77 -167.834 -77 -294.501c0 -128 25.667 -227.5 77 -298.5s122.666 -106.5 213.999 -106.5c47.333 0 95.166 10.333 143.499 31s97.166 51.667 146.499 93z" />
    <glyph glyph-name="colon" unicode=":" horiz-adv-x="627" 
d="M313 203c28.667 0 53.667 -10.498 75 -31.498s32 -45.5 32 -73.5c0 -30.667 -10.167 -56.334 -30.5 -77.001s-45.833 -31 -76.5 -31c-29.333 0 -54.333 10.5 -75 31.5s-31 46.5 -31 76.5c0 27.333 10.667 51.666 32 72.999s46 32 74 32zM305 868.002
c28.667 0 53.334 -10.333 74.001 -31s31 -45 31 -73c0 -31.333 -9.83301 -57 -29.5 -77s-44.834 -30 -75.501 -30c-30 0 -55.5 10.5 -76.5 31.5s-31.5 46.167 -31.5 75.5c0 26.667 11 50.667 33 72s47 32 75 32z" />
    <glyph glyph-name="semicolon" unicode=";" horiz-adv-x="627" 
d="M213 -330l-35.002 40.998c49.333 42 86 84.333 110 127s36 86.334 36 131.001c0 10 -0.166992 17.5 -0.5 22.5s-1.16602 9.83301 -2.49902 14.5c-8 -2 -16 -3.5 -24 -4.5s-15.667 -1.5 -23 -1.5c-30 0 -54.167 9.5 -72.5 28.5s-27.5 44.167 -27.5 75.5
c0 32.667 9.83301 59.334 29.5 80.001s44.834 31 75.501 31c40.667 0 73.667 -16.833 99 -50.5s38 -78.167 38 -133.5c0 -62 -17.667 -124.333 -53 -187s-85.333 -120.667 -150 -174zM292.998 867.998c28 0 52.333 -10.333 73 -31s31 -45 31 -73
c0 -31.333 -9.83301 -57 -29.5 -77s-44.5 -30 -74.5 -30s-55.667 10.5 -77 31.5s-32 46.167 -32 75.5c0 26.667 11 50.667 33 72s47.333 32 76 32z" />
    <glyph glyph-name="less" unicode="&#x3c;" horiz-adv-x="1706" 
d="M1442 1145v-127l-1000 -408l1000 -405v-129l-1178 483v103z" />
    <glyph glyph-name="equal" unicode="=" horiz-adv-x="1706" 
d="M254 477h1198v-117h-1198v117zM254 860h1198v-117h-1198v117z" />
    <glyph glyph-name="greater" unicode="&#x3e;" horiz-adv-x="1706" 
d="M264 1145l1178 -483v-103l-1178 -483v129l1000 405l-1000 408v127z" />
    <glyph glyph-name="question" unicode="?" horiz-adv-x="1028" 
d="M412 203c28 0 52.333 -10.5 73 -31.5s31 -45.5 31 -73.5c0 -31.333 -9.83301 -57.166 -29.5 -77.499s-44.5 -30.5 -74.5 -30.5s-55.333 10.5 -76 31.5s-31 46.5 -31 76.5c0 27.333 10.833 51.666 32.5 72.999s46.5 32 74.5 32zM440 340l-59.001 0.00390625
c-0.666992 8 -1.16699 17.167 -1.5 27.5s-0.5 25.166 -0.5 44.499c0 74.667 9.5 136 28.5 184s51.833 94.333 98.5 139l21 20c114 111.333 171 231.666 171 360.999c0 102.667 -21.167 181.334 -63.5 236.001s-102.833 82 -181.5 82c-46 0 -87.167 -13.833 -123.5 -41.5
s-58.166 -61.834 -65.499 -102.501c18.667 -16 32.167 -34.5 40.5 -55.5s12.5 -45.5 12.5 -73.5c0 -21.333 -5.5 -38.5 -16.5 -51.5s-25.167 -19.5 -42.5 -19.5c-21.333 0 -40 10.667 -56 32s-24 47.333 -24 78c0 82 30.667 150.667 92 206s139.333 83 234 83
c104 0 189.333 -33.5 256 -100.5s100 -152.167 100 -255.5c0 -66 -10.167 -124 -30.5 -174s-53.833 -98.667 -100.5 -146c-20 -20.667 -55.167 -50.834 -105.5 -90.501s-86.833 -72.834 -109.5 -99.501c-26 -31.333 -44.833 -66.333 -56.5 -105s-17.5 -89.667 -17.5 -153
v-25z" />
    <glyph glyph-name="at" unicode="@" horiz-adv-x="2019" 
d="M1190 336c-41.333 -70.667 -87.667 -123.501 -139 -158.501s-108 -52.5 -170 -52.5c-83.333 0 -150.333 30.667 -201 92s-76 142.666 -76 243.999c0 72 16.333 144 49 216s78.667 136.333 138 193c43.333 42.667 91.333 76 144 100s104.334 36 155.001 36
c58 0 105.667 -16.5 143 -49.5s63.333 -81.5 78 -145.5l53 180h143l-170 -610c0 -1.33301 -0.333008 -3 -1 -5c-11.333 -39.333 -17 -74 -17 -104c0 -31.333 8.5 -56.166 25.5 -74.499s39.833 -27.5 68.5 -27.5c22.667 0 49 5.83301 79 17.5s58.333 27.834 85 48.501
c81.333 60 143.666 137 186.999 231s65 199 65 315c0 93.333 -16.667 177.333 -50 252s-84.333 142.334 -153 203.001c-60 52.667 -132 93.5 -216 122.5s-173 43.5 -267 43.5c-124.667 0 -238.5 -19.5 -341.5 -58.5s-194.833 -97.5 -275.5 -175.5
c-86.667 -84 -152.334 -181.833 -197.001 -293.5s-67 -234.834 -67 -369.501c0 -116.667 19 -218.167 57 -304.5s98.333 -164.5 181 -234.5c76 -64.667 163 -113.5 261 -146.5s204.667 -49.5 320 -49.5c108.667 0 214.5 17.333 317.5 52s201.5 86 295.5 154l30 -36
c-98.667 -73.333 -203 -128.666 -313 -165.999s-224 -56 -342 -56c-124.667 0 -238.667 15.5 -342 46.5s-194.666 77.167 -273.999 138.5c-100.667 75.333 -177.167 166.833 -229.5 274.5s-78.5 227.167 -78.5 358.5c0 136 28.667 263 86 381s140.666 222.333 249.999 313
c87.333 73.333 184.333 128.5 291 165.5s221.334 55.5 344.001 55.5c231.333 0 415.833 -62.333 553.5 -187s206.5 -291 206.5 -499c0 -104.667 -19.333 -203.667 -58 -297s-93 -172 -163 -236c-38 -34.667 -79.167 -61.334 -123.5 -80.001s-89.166 -28 -134.499 -28
c-64.667 0 -114.334 17.5 -149.001 52.5s-54 87.833 -58 158.5zM1098 964.999c-36 0 -68.999 -10.332 -98.999 -30.999s-60.667 -54 -92 -100c-48 -72 -86.167 -150 -114.5 -234s-42.5 -159 -42.5 -225c0 -62 13.5 -111 40.5 -147s63.167 -54 108.5 -54
c44 0 86 14.833 126 44.5s78.667 74.167 116 133.5c38 62.667 68.333 130.167 91 202.5s34 138.166 34 197.499c0 62 -15.833 113 -47.5 153s-71.834 60 -120.501 60z" />
    <glyph glyph-name="A" unicode="A" horiz-adv-x="1280" 
d="M571 1190l-209 -578h404zM610 1489l42.999 0.00390625l473 -1311c17.333 -45.333 35.833 -75.333 55.5 -90s49.834 -22 90.501 -22h8v-66c-50 2.66699 -95.333 4.66699 -136 6s-74.667 2 -102 2c-40 0 -82.833 -0.666992 -128.5 -2s-92.834 -3.33301 -141.501 -6v66h10
c44.667 0 77.334 6.83301 98.001 20.5s31 35.5 31 65.5c0 10.667 -0.5 20.5 -1.5 29.5s-2.5 16.833 -4.5 23.5l-114 340h-447l-80 -223c-17.333 -48.667 -28.833 -84.334 -34.5 -107.001s-8.5 -42.334 -8.5 -59.001c0 -32.667 8.16699 -55.334 24.5 -68.001
s46.5 -20.334 90.5 -23.001v-65c-34 2.66699 -67 4.66699 -99 6s-62 2 -90 2c-22 0 -48 -0.666992 -78 -2s-62 -3.33301 -96 -6v66h11c40 0 69.5 7 88.5 21s37.167 44.333 54.5 91z" />
    <glyph glyph-name="B" unicode="B" horiz-adv-x="1360" 
d="M473 719v-652.999h148c150.667 0 255.167 24.667 313.5 74s87.5 133.666 87.5 252.999c0 117.333 -31.833 201 -95.5 251s-170.5 75 -320.5 75h-133zM473 1403l0.000976562 -619h182c114 0 197.167 24.667 249.5 74s78.5 127.333 78.5 234
c0 113.333 -24.833 193.5 -74.5 240.5s-142.834 70.5 -279.501 70.5h-156zM119.001 1470c3.33301 0 8.00098 -0.332031 14.001 -0.999023s10.667 -1 14 -1h18c58 -2.66699 115.667 -4 173 -4c54 0 117 1 189 3s117 3 135 3c171.333 0 298 -29.833 380 -89.5
s123 -151.834 123 -276.501c0 -95.333 -27.833 -172.5 -83.5 -231.5s-138.167 -99.167 -247.5 -120.5c134 -27.333 232.667 -70.333 296 -129s95 -136.667 95 -234c0 -70.667 -13.333 -132.5 -40 -185.5s-66 -96.167 -118 -129.5c-41.333 -26.667 -92.5 -45.667 -153.5 -57
s-156.5 -17 -286.5 -17c-29.333 0 -74 0.666992 -134 2s-105.667 2 -137 2c-58.667 0 -104.834 -0.333008 -138.501 -1s-66.5 -1.66699 -98.5 -3v66c72 0 117.667 9.16699 137 27.5s29 64.833 29 139.5v1004c0 75.333 -9.33301 121.5 -28 138.5s-64.667 26.167 -138 27.5v67
z" />
    <glyph glyph-name="C" unicode="C" horiz-adv-x="1450" 
d="M1249 1288l22.999 102.999h49v-7c-5.33301 -116 -8 -201.333 -8 -256c0 -15.333 0.666992 -51 2 -107c0.666992 -36 1.33398 -65 2.00098 -87h-51c-13.333 152.667 -62.333 272.334 -147 359.001s-194 130 -328 130c-154 0 -272.167 -57.667 -354.5 -173
s-123.5 -280.666 -123.5 -495.999c0 -218.667 45.833 -388.5 137.5 -509.5s219.5 -181.5 383.5 -181.5c110.667 0 204.5 28.833 281.5 86.5s131.833 140.167 164.5 247.5h57c-31.333 -134 -94.5 -236.667 -189.5 -308s-216.167 -107 -363.5 -107
c-206.667 0 -373.334 68.333 -500.001 205s-190 316.667 -190 540c0 225.333 64 408.666 192 549.999s294 212 498 212c94 0 180.333 -17 259 -51s147.334 -84 206.001 -150z" />
    <glyph glyph-name="D" unicode="D" horiz-adv-x="1569" 
d="M473 1403v-1337h164c94.667 0 168 5 220 15s98.667 26.667 140 50c86 47.333 150.833 122.166 194.5 224.499s65.5 229.5 65.5 381.5c0 134.667 -17.333 249 -52 343s-86.667 167.333 -156 220c-48 37.333 -104 63.833 -168 79.5s-155 23.5 -273 23.5h-135zM119 1470
c4 0 9.66797 -0.333008 17.001 -1s12.666 -1 15.999 -1h24c55.333 -2.66699 107.333 -4 156 -4c43.333 0 100.5 1 171.5 3s120.167 3 147.5 3c263.333 0 466.5 -64.167 609.5 -192.5s214.5 -310.5 214.5 -546.5c0 -237.333 -67.5 -418.5 -202.5 -543.5
s-330.5 -187.5 -586.5 -187.5c-36 0 -94.833 0.666992 -176.5 2s-145.834 2 -192.501 2c-59.333 0 -102.166 -0.333008 -128.499 -1s-49.5 -1.66699 -69.5 -3v66c72 0 117.667 9.16699 137 27.5s29 64.833 29 139.5v1004c0 75.333 -9.33301 121.5 -28 138.5
s-64.667 26.167 -138 27.5v67z" />
    <glyph glyph-name="E" unicode="E" horiz-adv-x="1407" 
d="M1200 1476c2.66699 -64 5.66406 -127.668 8.99707 -191.001s7.33301 -127.666 12 -192.999h-52c-13.333 124 -44 206.833 -92 248.5s-143.333 62.5 -286 62.5h-318v-594h160c96.667 0 157.5 14.333 182.5 43s39.833 91.334 44.5 188.001h49
c-2 -67.333 -3.5 -124.5 -4.5 -171.5s-1.5 -83.167 -1.5 -108.5c0 -34 0.5 -75.167 1.5 -123.5s2.5 -104.833 4.5 -169.5h-48c-5.33301 118 -20.666 193.5 -45.999 226.5s-86 49.5 -182 49.5h-160v-677h406c142 0 238.333 24 289 72s82 141.333 94 280h51
c-9.33301 -87.333 -16.5 -164.333 -21.5 -231s-8.83301 -129 -11.5 -187h-1161v66c72 0 117.667 9.16699 137 27.5s29 64.833 29 139.5v1004c0 75.333 -9.33301 121.5 -28 138.5s-64.667 26.167 -138 27.5v67c222.667 0 424.334 0.666992 605.001 2
s339.334 2.66602 476.001 3.99902z" />
    <glyph glyph-name="F" unicode="F" horiz-adv-x="1264" 
d="M119 1470h1089c0.666992 -36.667 2.5 -81.334 5.5 -134.001s8.16699 -134 15.5 -244h-51c-18 124.667 -51.667 207.667 -101 249s-144.666 62 -285.999 62h-318v-612h160c96.667 0 157.5 14.333 182.5 43s40.167 91.334 45.5 188.001h48
c-2 -67.333 -3.5 -124.5 -4.5 -171.5s-1.5 -83.5 -1.5 -109.5c0 -34 0.5 -75.667 1.5 -125s2.5 -105.666 4.5 -168.999h-49c-4.66699 117.333 -19.667 192.666 -45 225.999s-86 50 -182 50h-160v-490c0 -76 9.83301 -122.833 29.5 -140.5s66.5 -26.5 140.5 -26.5h25v-66
h-549v66c72 0 117.667 9.16699 137 27.5s29 64.833 29 139.5v1004c0 75.333 -9.33301 121.5 -28 138.5s-64.667 26.167 -138 27.5v67z" />
    <glyph glyph-name="G" unicode="G" horiz-adv-x="1485" 
d="M1212 1358l22.9961 102.002h51l-3 -72c-4.66699 -84.667 -7 -147.334 -7 -188.001c0 -16 0.666992 -52.667 2 -110c0.666992 -36 1.33398 -64.667 2.00098 -86h-51c-11.333 132.667 -53.666 235.667 -126.999 309s-171 110 -293 110
c-163.333 0 -286.833 -57.833 -370.5 -173.5s-125.5 -287.167 -125.5 -514.5c0 -222.667 43 -392.334 129 -509.001s211 -175 375 -175c70.667 0 133.167 11 187.5 33s90.166 50 107.499 84c3.33301 6 5.5 13.167 6.5 21.5s1.5 23.833 1.5 46.5v157
c0 70 -67.333 107.333 -202 112c-34 1.33301 -60.667 2.33301 -80 3v65c53.333 -2.66699 104.666 -4.66699 153.999 -6s96.333 -2 141 -2c42.667 0 88.334 0.666992 137.001 2s99.667 3.33301 153 6v-65c-45.333 -4 -76 -12.667 -92 -26s-24 -36.666 -24 -69.999v-328h-13
l-67 47c-59.333 -49.333 -126.5 -86.5 -201.5 -111.5s-155.5 -37.5 -241.5 -37.5c-217.333 0 -386.666 64.167 -507.999 192.5s-182 307.166 -182 536.499c0 234 63.333 422.167 190 564.5s293.334 213.5 500.001 213.5c76.667 0 150.334 -10.833 221.001 -32.5
s139.667 -54.5 207 -98.5z" />
    <glyph glyph-name="H" unicode="H" horiz-adv-x="1673" 
d="M119 1470l160.002 -7.5c36 -1.66699 66 -2.5 90 -2.5c29.333 0 65.166 0.833008 107.499 2.5s96.5 4.16699 162.5 7.5v-67c-72.667 0 -118.5 -9.33301 -137.5 -28s-28.5 -64.667 -28.5 -138v-422h727v422c0 73.333 -9.16699 119 -27.5 137s-64.166 27.667 -137.499 29
l-1 67l160 -7.5c36 -1.66699 65.333 -2.5 88 -2.5c31.333 0 68.333 0.833008 111 2.5s96.334 4.16699 161.001 7.5v-67c-74 -1.33301 -120 -10.666 -138 -27.999s-27 -63.333 -27 -138v-1004c0 -76.667 9.5 -123.5 28.5 -140.5s64.5 -26.167 136.5 -27.5v-65
c-72.667 4 -127.167 6.66699 -163.5 8s-64.833 2 -85.5 2c-24.667 0 -56.834 -0.666992 -96.501 -2s-97.834 -4 -174.501 -8v66c72 0 117.667 9.5 137 28.5s29 65.167 29 138.5v515h-727v-515c0 -72.667 8.66699 -118.334 26 -137.001s64 -29 140 -31v-65
c-82 4 -139.333 6.66699 -172 8s-58 2 -76 2c-25.333 0 -58.333 -0.666992 -99 -2s-98.334 -4 -173.001 -8v66c72 0 117.667 9.16699 137 27.5s29 64.833 29 139.5v1004c0 75.333 -9.33301 121.5 -28 138.5s-64.667 26.167 -138 27.5v67z" />
    <glyph glyph-name="I" unicode="I" horiz-adv-x="758" 
d="M109 1470l165.502 -7.5c38.333 -1.66699 69.833 -2.5 94.5 -2.5c30.667 0 68 0.833008 112 2.5s100 4.16699 168 7.5v-67c-78.667 0 -127.667 -9 -147 -27s-29 -64.333 -29 -139v-1004c0 -77.333 9.83301 -124.5 29.5 -141.5s68.5 -25.5 146.5 -25.5v-66
c-90 4.66699 -150.833 7.5 -182.5 8.5s-56.834 1.5 -75.501 1.5c-26.667 0 -61.334 -0.666992 -104.001 -2s-102 -4 -178 -8v66c77.333 0 126 9 146 27s30 64.667 30 140v1004c0 76.667 -9.66699 123.5 -29 140.5s-68.333 25.5 -147 25.5v67z" />
    <glyph glyph-name="J" unicode="J" horiz-adv-x="840" 
d="M172 1470c64.667 -3.33301 120.665 -5.83301 167.998 -7.5s90.333 -2.5 129 -2.5c24 0 54.833 0.833008 92.5 2.5l169.5 7.5v-67c-68 -1.33301 -111 -11 -129 -29s-27 -63.667 -27 -137v-995c0 -96 -4.83301 -166.5 -14.5 -211.5s-25.834 -85.167 -48.501 -120.5
c-32.667 -52 -76 -92.667 -130 -122s-112.333 -44 -175 -44c-79.333 0 -145.666 22.5 -198.999 67.5s-80 101.167 -80 168.5c0 34 8.5 61.5 25.5 82.5s39.167 31.5 66.5 31.5c28.667 0 53 -11.5 73 -34.5s30 -51.167 30 -84.5c0 -22.667 -4.66699 -42.834 -14 -60.501
s-24.666 -34.167 -45.999 -49.5c13.333 -19.333 30.333 -33.333 51 -42s47 -13 79 -13c68 0 117.667 22.833 149 68.5s47 118.834 47 219.501c0 24.667 -0.666992 61.667 -2 111s-2 87 -2 113v915c0 76.667 -9.66699 123 -29 139s-80.666 25 -183.999 27v67z" />
    <glyph glyph-name="K" unicode="K" horiz-adv-x="1360" 
d="M119 1470l160.001 -7.5c36 -1.66699 66 -2.5 90 -2.5c29.333 0 65.166 0.833008 107.499 2.5s96.5 4.16699 162.5 7.5v-67c-72.667 0 -118.5 -9.33301 -137.5 -28s-28.5 -64.667 -28.5 -138v-528l492 555l2 2c38 42.667 57 74 57 94c0 19.333 -9.5 33 -28.5 41
s-53.833 12 -104.5 12v57c57.333 -3.33301 101.666 -5.83301 132.999 -7.5s56.666 -2.5 75.999 -2.5c24.667 0 54.834 0.833008 90.501 2.5s79.834 4.16699 132.501 7.5v-56c-85.333 -3.33301 -157 -37.666 -215 -102.999c-7.33301 -8.66699 -12.666 -14.667 -15.999 -18
l-406 -453l481 -650c32 -43.333 65 -74.833 99 -94.5s72 -29.5 114 -29.5h6v-66c-72.667 4 -127.167 6.66699 -163.5 8s-64.833 2 -85.5 2c-21.333 0 -49.5 -0.666992 -84.5 -2s-88.833 -4 -161.5 -8v66c30 0 51.833 3.66699 65.5 11s20.5 19.333 20.5 36
c0 14 -8.33301 32.667 -25 56l-8 11l-377 529l-94 -99v-377c0 -72.667 8.66699 -118.334 26 -137.001s64 -29 140 -31v-65c-82 4 -139.333 6.66699 -172 8s-58 2 -76 2c-25.333 0 -58.333 -0.666992 -99 -2s-98.334 -4 -173.001 -8v66c72 0 117.667 9.16699 137 27.5
s29 64.833 29 139.5v1004c0 75.333 -9.33301 121.5 -28 138.5s-64.667 26.167 -138 27.5v67z" />
    <glyph glyph-name="L" unicode="L" horiz-adv-x="1270" 
d="M119 1470c69.333 -3.33301 123.334 -5.83398 162.001 -7.50098s70 -2.5 94 -2.5c38.667 0 82.167 0.833008 130.5 2.5s104.5 4.16699 168.5 7.5v-67h-29c-76 0 -123.667 -8.5 -143 -25.5s-29 -63.833 -29 -140.5v-1171h346c140 0 235.167 25.5 285.5 76.5
s82.166 157.167 95.499 318.5h64c0 -47.333 -9.66699 -160.666 -29 -339.999c-5.33301 -52 -9.33301 -92.333 -12 -121l-327 2.5c-128.667 1 -207.667 1.5 -237 1.5c-109.333 0 -281.333 -1.33301 -516 -4h-24v66c72 0 117.667 9.16699 137 27.5s29 64.833 29 139.5v1004
c0 75.333 -9.33301 121.5 -28 138.5s-64.667 26.167 -138 27.5v67z" />
    <glyph glyph-name="M" unicode="M" horiz-adv-x="1858" 
d="M109 1470c51.333 -3.33301 91.1689 -5.83301 119.502 -7.5s50.5 -2.5 66.5 -2.5c26 0 56.333 0.833008 91 2.5s76.667 4.16699 126 7.5l414 -1163l415 1163c48.667 -3.33301 87 -5.83301 115 -7.5s50.667 -2.5 68 -2.5c27.333 0 58.333 0.833008 93 2.5
s75.334 4.16699 122.001 7.5l-1 -67c-70 -1.33301 -115 -9.83301 -135 -25.5s-30 -59.167 -30 -130.5v-1014c0 -76.667 9.5 -123.5 28.5 -140.5s64.833 -26.167 137.5 -27.5v-65c-73.333 4 -128.166 6.66699 -164.499 8s-64.833 2 -85.5 2
c-25.333 0 -58.333 -0.666992 -99 -2s-98.334 -4 -173.001 -8v66c71.333 0 116.666 9.5 135.999 28.5s29 65.167 29 138.5v1145h-8l-485 -1360l-45 11l-479 1349h-17l-8 -1085v-29c0 -85.333 10.5 -139.666 31.5 -162.999s65.833 -35 134.5 -35v-66
c-58.667 4 -103.834 6.66699 -135.501 8s-57.5 2 -77.5 2c-19.333 0 -44.833 -0.666992 -76.5 -2s-77.834 -4 -138.501 -8v66c122.667 1.33301 184.667 73.666 186 216.999v8l10 991v12c0 44 -9.5 72.667 -28.5 86s-64.5 21 -136.5 23v67z" />
    <glyph glyph-name="N" unicode="N" horiz-adv-x="1612" 
d="M68 1470c46.667 -3.33301 87.6699 -5.83301 123.003 -7.5s66.666 -2.5 93.999 -2.5c15.333 0 35.333 0.666992 60 2s65.334 4 122.001 8l829 -1114v820c0 104 -11.833 167.833 -35.5 191.5s-75.167 35.5 -154.5 35.5h-12v67
c53.333 -3.33301 100.166 -5.83301 140.499 -7.5s76.5 -2.5 108.5 -2.5c20.667 0 45.834 0.833008 75.501 2.5s71.5 4.16699 125.5 7.5v-67c-71.333 -2 -117.833 -13.167 -139.5 -33.5s-32.5 -80.166 -32.5 -179.499v-12v-1188l-49 10l-983 1323v-1030
c0 -110.667 11.667 -176.167 35 -196.5s78.666 -30.5 165.999 -30.5l-1 -66c-62 4 -111.833 6.66699 -149.5 8s-70.167 2 -97.5 2c-18.667 0 -43.334 -0.666992 -74.001 -2s-77.667 -4 -141 -8v65c79.333 1.33301 130.166 12.666 152.499 33.999s33.5 85.333 33.5 192v946
c0 75.333 -10 121.833 -30 139.5s-68 26.5 -144 26.5h-22v67z" />
    <glyph glyph-name="O" unicode="O" horiz-adv-x="1579" 
d="M780 1421c-142.667 0 -257.168 -62 -343.501 -186s-129.5 -290.667 -129.5 -500c0 -213.333 43.167 -381.333 129.5 -504s203.5 -184 351.5 -184c148.667 0 266.5 61.667 353.5 185s130.5 291 130.5 503c0 214.667 -43.667 382.667 -131 504s-207.666 182 -360.999 182z
M796.999 1489c209.333 0 376.334 -68.167 501.001 -204.5s187 -319.5 187 -549.5c0 -220 -66.833 -400.5 -200.5 -541.5s-303.834 -211.5 -510.501 -211.5c-202.667 0 -366.667 67.5 -492 202.5s-188 312.5 -188 532.5c0 228 65.667 413.667 197 557s300 215 506 215z" />
    <glyph glyph-name="P" unicode="P" horiz-adv-x="1247" 
d="M474 727c25.333 -0.666992 51.334 -1.83398 78.001 -3.50098s40.667 -2.5 42 -2.5c139.333 0 239.333 27.333 300 82s91 143.334 91 266.001c0 120 -30 206.333 -90 259s-159.667 79 -299 79c-18.667 0 -38.334 -0.333008 -59.001 -1s-42 -1.66699 -64 -3zM119.001 1470
c35.333 -2 68.1699 -3.5 98.5029 -4.5s56.833 -1.5 79.5 -1.5c53.333 0 113.166 1 179.499 3s106.166 3 119.499 3c207.333 0 356.833 -31.333 448.5 -94s137.5 -163.667 137.5 -303c0 -143.333 -43.333 -249.5 -130 -318.5s-220.334 -103.5 -401.001 -103.5
c-24 0 -51.167 0.666992 -81.5 2s-62.5 3.33301 -96.5 6v-426c0 -75.333 10 -122 30 -140s68.667 -27 146 -27h27v-66c-81.333 4 -142.666 6.66699 -183.999 8s-75 2 -101 2c-25.333 0 -57.833 -0.666992 -97.5 -2s-97.834 -4 -174.501 -8v66c72 0 117.667 9.16699 137 27.5
s29 64.833 29 139.5v1004c0 74.667 -9.5 121 -28.5 139s-64.833 28.333 -137.5 31v63z" />
    <glyph glyph-name="Q" unicode="Q" horiz-adv-x="1579" 
d="M1085 49c7.33301 -78.667 25.334 -136.831 54.001 -174.498s69 -56.5 121 -56.5c44 0 80.5 13.667 109.5 41s51.833 69.666 68.5 126.999l45 -17c-16.667 -84.667 -49 -147.834 -97 -189.501s-112.667 -62.5 -194 -62.5c-85.333 0 -150.5 23.333 -195.5 70
s-70.833 117 -77.5 211c-25.333 -6 -49.833 -10.5 -73.5 -13.5s-46.834 -4.5 -69.501 -4.5c-201.333 0 -365.333 68.167 -492 204.5s-190 314.5 -190 534.5c0 228 65.667 413.333 197 556s300 214 506 214c208 0 374.667 -68.333 500 -205s188 -319.667 188 -549
c0 -156.667 -34.333 -293.667 -103 -411s-167.667 -209 -297 -275zM911.001 70.0029c-11.333 76 -33.001 131.833 -65.001 167.5s-76.333 53.5 -133 53.5c-45.333 0 -86.666 -11 -123.999 -33s-69 -54 -95 -96c42 -40 86.167 -69.5 132.5 -88.5s97.5 -28.5 153.5 -28.5
c22 0 43.5 2 64.5 6s43.167 10.333 66.5 19zM1067 150.003c64.667 57.333 115.001 137.167 151.001 239.5s54 217.5 54 345.5c0 210.667 -43.333 378 -130 502s-202.334 186 -347.001 186c-148.667 0 -267.167 -62 -355.5 -186s-132.5 -291.333 -132.5 -502
c0 -120.667 12.5 -224 37.5 -310s63.833 -160 116.5 -222c40 55.333 85.5 96.5 136.5 123.5s109.167 40.5 174.5 40.5c72 0 131.5 -17.333 178.5 -52s85.833 -89.667 116.5 -165z" />
    <glyph glyph-name="R" unicode="R" horiz-adv-x="1407" 
d="M473 774c8.66699 0 21.332 -0.332031 37.999 -0.999023c54 -2 89.667 -3 107 -3c127.333 0 220.333 26.167 279 78.5s88 134.833 88 247.5c0 108 -29.167 187.167 -87.5 237.5s-149.833 75.5 -274.5 75.5c-14 0 -37.667 -0.833008 -71 -2.5
s-59.666 -2.83398 -78.999 -3.50098v-629zM118.998 1470c30 -2 60.333 -3.5 91 -4.5s61.667 -1.5 93 -1.5h66c12 0 44.5 1 97.5 3s99.5 3 139.5 3c202 0 348.5 -29.167 439.5 -87.5s136.5 -151.833 136.5 -280.5c0 -112.667 -37.333 -199.167 -112 -259.5
s-186.334 -94.833 -335.001 -103.5c133.333 -14.667 230.333 -47.5 291 -98.5s98.334 -131.5 113.001 -241.5c3.33301 -28.667 6.33301 -70 9 -124c6.66699 -128.667 39.667 -193 99 -193c28.667 0 51.834 9.33301 69.501 28s31.5 48.334 41.5 89.001l43 -11
c-11.333 -68.667 -35.666 -120.167 -72.999 -154.5s-87.333 -51.5 -150 -51.5c-75.333 0 -130.833 20 -166.5 60s-53.5 102.333 -53.5 187c0 22.667 0.5 50 1.5 82s1.5 53.333 1.5 64c0 128.667 -25.833 215 -77.5 259s-146.834 66 -285.501 66h-125v-467
c0 -72.667 8.66699 -118.334 26 -137.001s64 -29 140 -31v-65c-82 4 -139.333 6.66699 -172 8s-58 2 -76 2c-25.333 0 -58.333 -0.666992 -99 -2s-98.334 -4 -173.001 -8v66c72 0 117.667 9.16699 137 27.5s29 64.833 29 139.5v1004c0 75.333 -9.33301 121.5 -28 138.5
s-64.667 26.167 -138 27.5v67z" />
    <glyph glyph-name="S" unicode="S" horiz-adv-x="1251" 
d="M993 1366l17 75.998h44l-3.5 -109.5c-1 -31.667 -1.5 -58.167 -1.5 -79.5c0 -31.333 0.5 -65 1.5 -101s2.16699 -74.667 3.5 -116h-48c-11.333 125.333 -49 220.833 -113 286.5s-151.333 98.5 -262 98.5c-86.667 0 -157.5 -26 -212.5 -78s-82.5 -118.667 -82.5 -200
c0 -70.667 20.667 -127.834 62 -171.501s121.666 -87.5 240.999 -131.5c200 -75.333 328.833 -143.833 386.5 -205.5s86.5 -141.5 86.5 -239.5c0 -120.667 -45.5 -219.667 -136.5 -297s-208.5 -116 -352.5 -116c-72.667 0 -141.167 12.333 -205.5 37s-125.833 62 -184.5 112
l-22 -92h-45c0 48 0.666992 98.333 2 151s2 81.334 2 86.001c0 5.33301 -0.666992 33.166 -2 83.499s-2 98.5 -2 144.5h57c6.66699 -144.667 45.167 -257 115.5 -337s165.833 -120 286.5 -120c92 0 165.833 26.333 221.5 79s83.5 122.667 83.5 210c0 66 -21 120.667 -63 164
s-119 86.333 -231 129c-12 4.66699 -30.333 11.334 -55 20.001c-128 46.667 -217.333 88.334 -268 125.001c-51.333 38 -88.666 80.333 -111.999 127s-35 103.334 -35 170.001c0 126 40.5 227.167 121.5 303.5s188.5 114.5 322.5 114.5c74.667 0 143 -10 205 -30
s121.333 -51 178 -93z" />
    <glyph glyph-name="T" unicode="T" horiz-adv-x="1366" 
d="M74 1470h1218l43 -374h-51c-16 117.333 -47.5 197.833 -94.5 241.5s-126.167 65.5 -237.5 65.5h-174v-1170c0 -76 9.83301 -122.833 29.5 -140.5s66.5 -26.5 140.5 -26.5h25v-66c-80.667 4 -141.334 6.66699 -182.001 8s-73 2 -97 2c-28 0 -64.833 -0.666992 -110.5 -2
s-108.834 -4 -189.501 -8l-1 66h25c74 0 120.833 9.16699 140.5 27.5s29.5 64.833 29.5 139.5v1170h-174c-112 0 -191.5 -22 -238.5 -66s-78.167 -124.333 -93.5 -241h-51z" />
    <glyph glyph-name="U" unicode="U" horiz-adv-x="1630" 
d="M1368 666c0 -131.333 -3 -223.501 -9 -276.501s-16 -98.167 -30 -135.5c-34 -92.667 -92.333 -161.167 -175 -205.5s-193.667 -66.5 -333 -66.5c-115.333 0 -213 14.5 -293 43.5s-140 71.833 -180 128.5c-27.333 39.333 -46.833 84.333 -58.5 135
s-17.5 128.334 -17.5 233.001v45v670c0 75.333 -9.16699 121.5 -27.5 138.5s-64.166 26.167 -137.499 27.5l-1 67l160 -7.5c37.333 -1.66699 68 -2.5 92 -2.5c30 0 66.167 0.833008 108.5 2.5s96.5 4.16699 162.5 7.5v-67c-73.333 0 -119.333 -9.33301 -138 -28
s-28 -64.667 -28 -138v-662c0 -194 30.667 -325.667 92 -395s168.666 -104 321.999 -104c152 0 258.167 37.167 318.5 111.5s90.5 212.5 90.5 414.5v569c0 108.667 -10.333 174.5 -31 197.5s-65.667 34.5 -135 34.5v67c52 -3.33301 95.167 -5.83301 129.5 -7.5
s63.5 -2.5 87.5 -2.5c18 0 40.833 0.666992 68.5 2s70.5 4 128.5 8v-67c-69.333 0 -114.333 -11.5 -135 -34.5s-31 -88.833 -31 -197.5v-505z" />
    <glyph glyph-name="V" unicode="V" horiz-adv-x="1294" 
d="M0 1470l151.498 -7.5c34.333 -1.66699 62.5 -2.5 84.5 -2.5c34.667 0 73.667 0.833008 117 2.5s94.333 4.16699 153 7.5l-1 -67c-51.333 -1.33301 -87.166 -6.66602 -107.499 -15.999s-30.5 -24.666 -30.5 -45.999c0 -12 2.16699 -27.333 6.5 -46
s10.833 -40.667 19.5 -66l330 -940l311 940c5.33301 16 9.5 32.667 12.5 50s4.5 32.666 4.5 45.999c0 27.333 -10 47.166 -30 59.499s-52.333 18.5 -97 18.5h-13v67c46 -3.33301 84.333 -5.83301 115 -7.5s56.667 -2.5 78 -2.5c20.667 0 45.5 0.833008 74.5 2.5
s66.167 4.16699 111.5 7.5v-67c-49.333 -5.33301 -82.666 -13.833 -99.999 -25.5s-31 -31.167 -41 -58.5l-344 -981l-77 -215.5c-28.667 -79.667 -45.334 -126.5 -50.001 -140.5l-35 8l-475 1276l-5 13c-29.333 82.667 -83.666 124 -162.999 124v67z" />
    <glyph glyph-name="W" unicode="W" horiz-adv-x="2028" 
d="M12 1470l151.501 -7.50391c34.333 -1.66699 62.5 -2.5 84.5 -2.5c34.667 0 73.167 0.833008 115.5 2.5s93.166 4.16699 152.499 7.5v-67c-51.333 -1.33301 -87 -6.66602 -107 -15.999s-30 -24.666 -30 -45.999c0 -17.333 7 -48.333 21 -93c2 -8 4 -14.667 6 -20l286 -929
l293 872l-33 95c-20 60.667 -41 98.667 -63 114s-57 23 -105 23v67l151.5 -7.5c34.333 -1.66699 62.5 -2.5 84.5 -2.5c34.667 0 73.167 0.833008 115.5 2.5s93.166 4.16699 152.499 7.5v-67c-51.333 -1.33301 -87 -6.66602 -107 -15.999s-30 -24.666 -30 -45.999
c0 -17.333 7 -48.333 21 -93l6 -20l288 -929l310 930c4.66699 16.667 8.5 33.334 11.5 50.001s4.5 32 4.5 46c0 27.333 -9.83301 47.166 -29.5 59.499s-52.167 18.5 -97.5 18.5h-12v67c46 -3.33301 84 -5.83301 114 -7.5s55.333 -2.5 76 -2.5s45.5 0.833008 74.5 2.5
s66.167 4.16699 111.5 7.5l1 -67c-50 -5.33301 -83.667 -13.833 -101 -25.5s-31 -31.167 -41 -58.5l-334 -954c-5.33301 -18 -36.666 -105.333 -93.999 -262l-45 -121l-29 8l-362 1067l-246 -703l-55 -154.5l-80 -217.5l-31 8l-432 1276c-20 60.667 -41 98.667 -63 114
s-57 23 -105 23v67z" />
    <glyph glyph-name="X" unicode="X" horiz-adv-x="1309" 
d="M39 1470c30.667 -0.666992 73.1689 -2.50098 127.502 -5.50098s93.166 -4.5 116.499 -4.5c26 0 67.833 1.5 125.5 4.5s101.834 4.83301 132.501 5.5l-1 -67c-44.667 -1.33301 -76.167 -7.33301 -94.5 -18s-27.5 -28 -27.5 -52c0 -10 2 -20.5 6 -31.5
s12.333 -27.167 25 -48.5l247 -389l254 418c10 16.667 17 30 21 40s6 20 6 30c0 16 -9.16699 28.5 -27.5 37.5s-44.833 13.5 -79.5 13.5h-20v67c48.667 -3.33301 91 -5.83301 127 -7.5s68 -2.5 96 -2.5c16.667 0 38.5 0.666992 65.5 2s69.5 4 127.5 8v-67h-9
c-51.333 0 -93.666 -10.167 -126.999 -30.5s-67.333 -57.166 -102 -110.499l-289 -453l381 -580c5.33301 -7.33301 12.666 -18 21.999 -32c56 -87.333 110.333 -131 163 -131h8l-1 -66c-50 0.666992 -101.833 2.16699 -155.5 4.5s-82.834 3.5 -87.501 3.5
c-16.667 0 -55.834 -1.16699 -117.501 -3.5s-115.167 -3.83301 -160.5 -4.5v66c54.667 0 92.5 5.16699 113.5 15.5s31.5 28.166 31.5 53.499c0 10 -2 20.5 -6 31.5s-13 27.833 -27 50.5l-297 461l-297 -490l-1 -1c-16.667 -29.333 -25 -52 -25 -68s9.5 -28.5 28.5 -37.5
s45.5 -13.5 79.5 -13.5h19v-68c-41.333 2.66699 -81 4.66699 -119 6s-73 2 -105 2c-20 0 -46.667 -0.666992 -80 -2s-70.666 -3.33301 -111.999 -6v68h8c52.667 0 95.667 10 129 30s66.666 56.333 99.999 109l334 524l-332 510c-2.66699 4.66699 -7 11.334 -13 20.001
c-62 94.667 -119.667 142 -173 142h-8v67z" />
    <glyph glyph-name="Y" unicode="Y" horiz-adv-x="1210" 
d="M-16 1470l150.499 -7.49902c34.333 -1.66699 62.5 -2.5 84.5 -2.5c34.667 0 73.167 0.833008 115.5 2.5s93.166 4.16699 152.499 7.5v-67c-45.333 0 -77 -4.66699 -95 -14s-27 -25.333 -27 -48c0 -6.66699 0.666992 -12.667 2 -18s3.33301 -10.333 6 -15l305 -542
l252 469c12 21.333 20.833 40.166 26.5 56.499s8.5 30.833 8.5 43.5c0 25.333 -9.16699 43 -27.5 53s-52.833 15 -103.5 15v67c46 -3.33301 84 -5.83301 114 -7.5s55.333 -2.5 76 -2.5s45.5 0.833008 74.5 2.5s66.167 4.16699 111.5 7.5v-67
c-43.333 -4 -74.166 -11 -92.499 -21s-35.833 -30.333 -52.5 -61l-352 -631v-457c0 -76 9.66699 -122.833 29 -140.5s66.333 -26.5 141 -26.5h24v-66c-82 4 -142.667 6.66699 -182 8s-70.666 2 -93.999 2c-28.667 0 -65.667 -0.666992 -111 -2s-108.666 -4 -189.999 -8v66
h24c74.667 0 121.667 9.16699 141 27.5s29 64.833 29 139.5v437l-352 600v0c-50.667 88.667 -111.334 133 -182.001 133h-6v67z" />
    <glyph glyph-name="Z" unicode="Z" horiz-adv-x="1327" 
d="M111 1475c36.667 -0.666992 81.332 -1.66699 133.999 -3s84.334 -2 95.001 -2h879v-6l-865 -1398h494c144.667 0 237.834 23.167 279.501 69.5s67.167 145.833 76.5 298.5h56l-19 -434h-1161v4l866 1399h-442c-148.667 0 -243.334 -20.667 -284.001 -62
s-65.667 -126 -75 -254h-55z" />
    <glyph glyph-name="bracketleft" unicode="[" horiz-adv-x="635" 
d="M526 1507l19 -56.998c-26.667 -8.66699 -54.667 -15.334 -84 -20.001s-60 -7 -92 -7h-21v-1704h25c31.333 0 59.333 -1.83301 84 -5.5s47.667 -9.16699 69 -16.5l19 -62c-26 10 -53.333 17.333 -82 22s-59.334 7 -92.001 7c-30 0 -56.667 -2.33301 -80 -7
s-45.666 -11.667 -66.999 -21c2.66699 78 4.83398 156.667 6.50098 236s2.5 159.666 2.5 240.999v917c0 81.333 -0.833008 161.5 -2.5 240.5s-3.83398 157.833 -6.50098 236.5c20.667 -9.33301 43 -16.333 67 -21s51.333 -7 82 -7c33.333 0 62 2.16699 86 6.5
s46.333 11.5 67 21.5z" />
    <glyph glyph-name="backslash" unicode="\" horiz-adv-x="606" 
d="M-80 1489h103l610 -1679h-103z" />
    <glyph glyph-name="bracketright" unicode="]" horiz-adv-x="635" 
d="M109 1507c20.667 -10 42.998 -17.167 66.998 -21.5s52.667 -6.5 86 -6.5c30.667 0 57.834 2.33301 81.501 7s46.167 11.667 67.5 21c-3.33301 -64 -5.83301 -133.5 -7.5 -208.5s-2.5 -164.5 -2.5 -268.5v-917c0 -104 0.833008 -193.833 2.5 -269.5
s4.16699 -144.834 7.5 -207.501c-21.333 9.33301 -43.666 16.333 -66.999 21s-50 7 -80 7c-32 0 -62 -2.33301 -90 -7s-55.333 -12 -82 -22l17 62c20 7.33301 43 12.833 69 16.5s54.667 5.5 86 5.5h25v1704h-21c-30 0 -59.833 2.33301 -89.5 7s-58.5 11.334 -86.5 20.001z
" />
    <glyph glyph-name="asciicircum" unicode="^" horiz-adv-x="2048" 
d="M934 1462h178l520 -565h-92l-518 436l-520 -436h-90z" />
    <glyph glyph-name="underscore" unicode="_" 
d="M0 -365h1024v-118h-1024v118z" />
    <glyph glyph-name="grave" unicode="`" 
d="M412 1407l275.999 -301.001h-74l-301 184c-33.333 20.667 -55.666 37.834 -66.999 51.501s-17 29.5 -17 47.5c0 21.333 7.5 39.833 22.5 55.5s32.833 23.5 53.5 23.5c16.667 0 34.167 -5.16699 52.5 -15.5s36.5 -25.5 54.5 -45.5z" />
    <glyph glyph-name="a" unicode="a" 
d="M627 483c-170.667 -34 -280.667 -67.5 -330 -100.5s-74 -80.5 -74 -142.5c0 -50.667 14.5 -91.667 43.5 -123s66.5 -47 112.5 -47s88.833 12.833 128.5 38.5s77.5 65.167 113.5 118.5zM793 637l-9.00195 -325.999c0 -12 -0.333008 -30.833 -1 -56.5
s-1 -44.834 -1 -57.501c0 -37.333 7 -64.833 21 -82.5s35.667 -26.5 65 -26.5c21.333 0 39.666 4.83301 54.999 14.5s28.666 24.5 39.999 44.5l34 -20c-23.333 -48.667 -52.5 -85 -87.5 -109s-76.833 -36 -125.5 -36c-49.333 0 -88.166 13.5 -116.499 40.5
s-44.166 65.167 -47.499 114.5c-44 -53.333 -92 -92.5 -144 -117.5s-111.667 -37.5 -179 -37.5c-69.333 0 -124.833 20 -166.5 60s-62.5 93.667 -62.5 161c0 78.667 26.5 139.5 79.5 182.5s170.5 84.5 352.5 124.5c22.667 5.33301 48.334 10.333 77.001 15
c34.667 6.66699 52 14 52 22l2 94v35c0 97.333 -13.167 165 -39.5 203s-70.5 57 -132.5 57c-39.333 0 -75 -5.5 -107 -16.5s-62 -28.167 -90 -51.5l3 -21c3.33301 -33.333 5 -55.666 5 -66.999c0 -36.667 -8.5 -66.334 -25.5 -89.001s-39.167 -34 -66.5 -34
c-18 0 -32.333 6.83301 -43 20.5s-16 32.167 -16 55.5c0 65.333 35.833 125.333 107.5 180s154.5 82 248.5 82c110.667 0 191.334 -26 242.001 -78s76 -137 76 -255v-25z" />
    <glyph glyph-name="b" unicode="b" horiz-adv-x="1067" 
d="M289 223c0 -43.333 24.667 -83.5 74 -120.5s105 -55.5 167 -55.5c92.667 0 162 35.667 208 107s69 179 69 323c0 143.333 -21.5 253.666 -64.5 330.999s-104.167 116 -183.5 116c-28 0 -56.5 -6.16699 -85.5 -18.5s-56.5 -30.166 -82.5 -53.499
c-26 -22.667 -49.5 -49.167 -70.5 -79.5s-31.5 -48.833 -31.5 -55.5v-494zM289 1521v-699.999c38.667 58 84 101.5 136 130.5s110.333 43.5 175 43.5c114.667 0 207.5 -44.333 278.5 -133s106.5 -205.334 106.5 -350.001c0 -163.333 -40.167 -292.5 -120.5 -387.5
s-188.833 -142.5 -325.5 -142.5c-82 0 -160.667 24.333 -236 73c-20.667 14 -34.334 21 -41.001 21c-13.333 0 -27.666 -7.83301 -42.999 -23.5s-32.333 -39.167 -51 -70.5h-41v1376c-0.666992 60 -43.667 90.667 -129 92h-16v57c50 2.66699 110.833 5.66699 182.5 9
s113.167 5 124.5 5z" />
    <glyph glyph-name="c" unicode="c" horiz-adv-x="1010" 
d="M893 293l43.002 -17c-30 -96 -79.5 -169 -148.5 -219s-154.833 -75 -257.5 -75c-138 0 -247.5 42.833 -328.5 128.5s-121.5 201.834 -121.5 348.501c0 158.667 45.5 287.667 136.5 387s208.5 149 352.5 149c95.333 0 175.833 -26.5 241.5 -79.5
s98.5 -115.833 98.5 -188.5c0 -26.667 -6.66699 -48 -20 -64s-31 -24 -53 -24c-23.333 0 -43.166 9.33301 -59.499 28s-24.5 42 -24.5 70c0 17.333 3.66699 36.666 11 57.999s11 33.333 11 36c0 28 -19.333 52.5 -58 73.5s-86.334 31.5 -143.001 31.5
c-94.667 0 -170.5 -41.5 -227.5 -124.5s-85.5 -195.167 -85.5 -336.5c0 -126.667 27.667 -223.5 83 -290.5s135.666 -100.5 240.999 -100.5c74 0 137.667 18 191 54s92.666 87.667 117.999 155z" />
    <glyph glyph-name="d" unicode="d" horiz-adv-x="1133" 
d="M778 805c-31.333 42.667 -66.168 74.499 -104.501 95.499s-80.5 31.5 -126.5 31.5c-90 0 -160.333 -39 -211 -117s-76 -187.333 -76 -328c0 -139.333 23.333 -246.166 70 -320.499s113.334 -111.5 200.001 -111.5c52.667 0 99.167 10.667 139.5 32s76.5 54.333 108.5 99
v619zM937.998 1521l-0.000976562 -1341c0 -52.667 7.33301 -85.334 22 -98.001s50.334 -20.334 107.001 -23.001v-55c-40 -4 -105 -9.33301 -195 -16c-38.667 -2.66699 -68.667 -4.66699 -90 -6v131c-39.333 -44.667 -83 -77.667 -131 -99s-102.667 -32 -164 -32
c-123.333 0 -222 43.5 -296 130.5s-111 203.833 -111 350.5c0 166 39 296.167 117 390.5s185.667 141.5 323 141.5c49.333 0 95 -8.83301 137 -26.5s82.333 -44.834 121 -81.501v440c0 54.667 -8.5 88.5 -25.5 101.5s-64.833 20.167 -143.5 21.5l-1 57h43
c42 0 85.833 1.16699 131.5 3.5s97.5 5.83301 155.5 10.5z" />
    <glyph glyph-name="e" unicode="e" horiz-adv-x="1034" 
d="M786 602v27c0 99.333 -20.333 176 -61 230s-98.667 81 -174 81c-81.333 0 -147.5 -31.167 -198.5 -93.5s-80.5 -148.5 -88.5 -258.5zM940 543l-677.999 -17.001v-14c0 -140.667 27.5 -247.167 82.5 -319.5s136.167 -108.5 243.5 -108.5c74 0 137.667 18 191 54
s92.666 87.667 117.999 155l45 -17c-28.667 -93.333 -78.834 -165.666 -150.501 -216.999s-158.834 -77 -261.501 -77c-141.333 0 -251.666 43.833 -330.999 131.5s-119 210.167 -119 367.5c0 152 43.333 275.667 130 371s198.334 143 335.001 143
c122.667 0 219.5 -36 290.5 -108s106.5 -171 106.5 -297c0 -6 -0.333008 -14.167 -1 -24.5s-1 -17.833 -1 -22.5z" />
    <glyph glyph-name="f" unicode="f" horiz-adv-x="653" 
d="M371 1143l0.000976562 -205h284v-55h-284v-688c0 -88.667 73.333 -134.667 220 -138h1l-1 -57c-77.333 4 -140 6.66699 -188 8s-89.333 2 -124 2c-18 0 -44.333 -0.666992 -79 -2s-95.334 -4 -182.001 -8v57c94 5.33301 149.333 14.5 166 27.5s25 49.833 25 110.5v688
h-191v55h37h66c36.667 0 59.667 3.33301 69 10s15.666 26 18.999 58c0.666992 14 1.33398 34.667 2.00098 62c4 140.667 24.333 241.334 61 302.001c30 49.333 69.333 87 118 113s104.334 39 167.001 39c72 0 131 -18.5 177 -55.5s69 -82.833 69 -137.5
c0 -30.667 -7.33301 -54.334 -22 -71.001s-35.334 -25 -62.001 -25c-24.667 0 -44.5 7.66699 -59.5 23s-22.5 35.666 -22.5 60.999c0 20 5.83301 38.833 17.5 56.5s17.5 28.834 17.5 33.501c0 14 -10.667 27.333 -32 40s-46.333 19 -75 19c-69.333 0 -119 -24.667 -149 -74
s-45 -132.333 -45 -249z" />
    <glyph glyph-name="g" unicode="g" horiz-adv-x="977" 
d="M279 -29c-40.667 -14.667 -72 -37.001 -94 -67.001s-33 -64.333 -33 -103c0 -64 28 -113.667 84 -149s134.333 -53 235 -53c111.333 0 202 20.667 272 62s105 93 105 155c0 78 -96.667 122 -290 132c-114.667 6.66699 -207.667 14.334 -279 23.001zM449 937.999
c-69.333 0 -121.5 -23.499 -156.5 -70.499s-52.5 -116.5 -52.5 -208.5s17.333 -161.333 52 -208s87 -70 157 -70c68 0 119.667 23.667 155 71s53 116.333 53 207c0 91.333 -17.833 160.666 -53.5 207.999s-87.167 71 -154.5 71zM980 996
c5.33301 -8.66699 8.83203 -15.835 10.499 -21.502s2.5 -12.5 2.5 -20.5c0 -19.333 -6.16699 -34.333 -18.5 -45s-29.833 -16 -52.5 -16c-16 0 -35.167 5.5 -57.5 16.5s-36.833 16.5 -43.5 16.5c-9.33301 0 -20.166 -5.33301 -32.499 -16s-25.833 -26.667 -40.5 -48
c19.333 -22.667 34 -50.834 44 -84.501s15 -72.167 15 -115.5c0 -102 -27.5 -181.833 -82.5 -239.5s-134.5 -90.5 -238.5 -98.5c-16.667 -1.33301 -41 -2.66602 -73 -3.99902c-122.667 -4 -184 -37 -184 -99c0 -64.667 107 -100.334 321 -107.001
c22 -0.666992 38.667 -1 50 -1c141.333 -4.66699 239.166 -25 293.499 -61s81.5 -95 81.5 -177c0 -96.667 -48.833 -176.167 -146.5 -238.5s-224.167 -93.5 -379.5 -93.5c-119.333 0 -214.166 22.5 -284.499 67.5s-105.5 104.5 -105.5 178.5c0 47.333 13.333 88.333 40 123
s66.667 63.334 120 86.001c-32.667 15.333 -57.5 35.833 -74.5 61.5s-25.5 55.834 -25.5 90.501c0 46.667 13.833 87.834 41.5 123.501s68.5 64.5 122.5 86.5c-62.667 22 -111.167 58.167 -145.5 108.5s-51.5 110.5 -51.5 180.5c0 101.333 33.333 184 100 248s152 96 256 96
c60.667 0 114.167 -8.16699 160.5 -24.5s84.5 -40.166 114.5 -71.499c31.333 41.333 62.166 71.166 92.499 89.499s63.5 27.5 99.5 27.5c12.667 0 24.834 -1.5 36.501 -4.5s23.167 -7.5 34.5 -13.5z" />
    <glyph glyph-name="h" unicode="h" horiz-adv-x="1223" 
d="M356 1521v-752.998c44 74.667 96.833 131.167 158.5 169.5s130.5 57.5 206.5 57.5c110 0 188.667 -27.333 236 -82s71 -149.334 71 -284.001v-434c0 -62 6.83301 -99 20.5 -111s47.834 -21 102.501 -27v-57c-72.667 4.66699 -122.334 7.5 -149.001 8.5s-48 1.5 -64 1.5
c-22 0 -50.667 -0.666992 -86 -2s-85.333 -4 -150 -8l1 57c82 8 130 18.333 144 31s21 48.334 21 107.001v458c0 98 -14.167 167.333 -42.5 208s-75.5 61 -141.5 61c-84 0 -159.667 -35 -227 -105s-101 -146.333 -101 -229v-404c0 -55.333 6.83301 -88.833 20.5 -100.5
s47.167 -20.5 100.5 -26.5v-57c-72.667 4.66699 -122.334 7.5 -149.001 8.5s-48 1.5 -64 1.5c-21.333 0 -49 -0.666992 -83 -2s-84 -4 -150 -8v57c80.667 7.33301 128.167 17.333 142.5 30s21.5 48.667 21.5 108v1132c0 53.333 -7.16699 86.5 -21.5 99.5
s-56.166 20.833 -125.499 23.5l-1 57c54.667 1.33301 107.5 3.16602 158.5 5.49902s101.167 5.16602 150.5 8.49902z" />
    <glyph glyph-name="i" unicode="i" horiz-adv-x="555" 
d="M360 995l-0.00292969 -800.001c0 -65.333 9.16699 -104.166 27.5 -116.499s65.833 -19.5 142.5 -21.5v-57c-70.667 4 -125.667 6.66699 -165 8s-71.666 2 -96.999 2c-24.667 0 -56.5 -0.666992 -95.5 -2s-95.167 -4 -168.5 -8v57h2c128.667 7.33301 193 53.333 193 138
v585c0 56.667 -9.16699 91.667 -27.5 105s-74.166 20 -167.499 20v57c60.667 2.66699 120.834 6.66699 180.501 12s118.167 12.333 175.5 21zM282.997 1366c28.667 0 50.833 -7.5 66.5 -22.5s23.5 -36.167 23.5 -63.5c0 -26.667 -12.667 -52.167 -38 -76.5
s-53 -36.5 -83 -36.5c-26 0 -46.5 7.83301 -61.5 23.5s-22.5 37.167 -22.5 64.5c0 26 12.333 51 37 75s50.667 36 78 36z" />
    <glyph glyph-name="j" unicode="j" horiz-adv-x="516" 
d="M356 995l-0.00195312 -1030c0 -146.667 -25.167 -253.334 -75.5 -320.001s-130.166 -100 -239.499 -100c-68.667 0 -125.167 18.167 -169.5 54.5s-66.5 81.833 -66.5 136.5c0 31.333 7.66699 56.5 23 75.5s35 28.5 59 28.5c22.667 0 41 -8.33301 55 -25
s21 -38.334 21 -65.001c0 -20 -5.83301 -40.333 -17.5 -61s-17.5 -32.334 -17.5 -35.001c0 -16.667 10.5 -30.334 31.5 -41.001s48.167 -16 81.5 -16c54.667 0 94 19.667 118 59s36 106.333 36 201v923c0 56.667 -9.66699 91.667 -29 105s-78 20 -176 20v57
c66 2.66699 129.333 6.66699 190 12s119.334 12.333 176.001 21zM214.998 1399c28 0 51.667 -9.83301 71 -29.5s29 -43.5 29 -71.5c0 -26 -10 -48.833 -30 -68.5s-43.333 -29.5 -70 -29.5c-25.333 0 -48 10 -68 30s-30 42.667 -30 68c0 26.667 9.83301 50.167 29.5 70.5
s42.5 30.5 68.5 30.5z" />
    <glyph glyph-name="k" unicode="k" horiz-adv-x="1053" 
d="M356 1522l0.00585938 -1057l330 330c12.667 12 23.334 26 32.001 42s13 28.333 13 37c0 14 -6.33301 25.167 -19 33.5s-29.334 12.5 -50.001 12.5h-13v57c49.333 -4 86.166 -6.66699 110.499 -8s44.166 -2 59.499 -2c20.667 0 45.167 0.666992 73.5 2s65.166 4 110.499 8
l1 -57h-21c-29.333 0 -55 -4.33301 -77 -13s-43.333 -23 -64 -43l-307 -297l350 -389c41.333 -46 76.5 -77.667 105.5 -95s59.833 -26 92.5 -26h7l-1 -57c-55.333 4 -98.5 6.66699 -129.5 8s-56.5 2 -76.5 2s-45.667 -0.666992 -77 -2s-77.333 -4 -138 -8v57
c24 1.33301 40.833 4.83301 50.5 10.5s14.5 14.5 14.5 26.5c0 6 -1.5 12.167 -4.5 18.5s-7.83301 13.5 -14.5 21.5l-286 329l-72 -70v-209c0 -55.333 6.83301 -88.833 20.5 -100.5s47.167 -20.5 100.5 -26.5v-57c-72.667 4.66699 -122.334 7.5 -149.001 8.5s-48 1.5 -64 1.5
c-21.333 0 -49 -0.666992 -83 -2s-84 -4 -150 -8v57c80.667 7.33301 128.167 17.333 142.5 30s21.5 48.667 21.5 108v1112c0 52.667 -8.5 86.334 -25.5 101.001s-57.833 22.667 -122.5 24l1 57c57.333 4.66699 111.166 9.66699 161.499 15s99.166 11.333 146.499 18z" />
    <glyph glyph-name="l" unicode="l" horiz-adv-x="551" 
d="M356 1522l0.000976562 -1327c0 -64.667 8.66699 -103 26 -115s63.333 -19.667 138 -23v-57c-72 4 -126.833 6.66699 -164.5 8s-68.167 2 -91.5 2c-16.667 0 -39.334 -0.5 -68.001 -1.5s-83.667 -3.83301 -165 -8.5v57c80.667 7.33301 128.167 17.333 142.5 30
s21.5 48.667 21.5 108v1112c0 54 -9.5 88.333 -28.5 103s-68.5 22 -148.5 22l1 57c59.333 3.33301 117 7.66602 173 12.999s110.667 12 164 20z" />
    <glyph glyph-name="m" unicode="m" horiz-adv-x="1806" 
d="M356 995l-0.000976562 -233.001c43.333 78.667 93 137.167 149 175.5s120.333 57.5 193 57.5c82.667 0 148.5 -20.167 197.5 -60.5s77.5 -97.833 85.5 -172.5c42.667 78 92.5 136.333 149.5 175s121.833 58 194.5 58c102.667 0 176.167 -27.5 220.5 -82.5
s66.5 -149.5 66.5 -283.5v-445c0 -56 7.16699 -90 21.5 -102s48.166 -20.333 101.499 -25v-57c-68.667 4 -117 6.66699 -145 8s-49.333 2 -64 2c-27.333 0 -59.666 -0.833008 -96.999 -2.5s-84 -4.16699 -140 -7.5l-1 57c76.667 6 122.834 15.333 138.501 28
s23.5 49.334 23.5 110.001v458c0 95.333 -13 164.333 -39 207s-67.667 64 -125 64c-68.667 0 -131.834 -29.5 -189.501 -88.5s-94.834 -133.5 -111.501 -223.5v-417c0 -62.667 7.33301 -100.167 22 -112.5s49 -20.833 103 -25.5v-57c-68.667 4 -116.834 6.66699 -144.501 8
s-49.167 2 -64.5 2c-27.333 0 -60.166 -0.833008 -98.499 -2.5s-85.166 -4.16699 -140.499 -7.5v57c78 6.66699 124.667 16.334 140 29.001s23 49 23 109v458c0 94.667 -13.167 163.5 -39.5 206.5s-68.5 64.5 -126.5 64.5c-68.667 0 -131.5 -29.333 -188.5 -88
s-93.833 -133.334 -110.5 -224.001v-417c0 -62 6.83301 -99 20.5 -111s47.834 -21 102.501 -27v-57c-68.667 4 -117.667 6.66699 -147 8s-52 2 -68 2c-21.333 0 -49 -0.666992 -83 -2s-84 -4 -150 -8v57c80.667 7.33301 128.167 17.333 142.5 30s21.5 48.667 21.5 108v585
c0 56 -8.83301 90.5 -26.5 103.5s-65.5 20.167 -143.5 21.5v57c55.333 3.33301 110.333 7.83301 165 13.5s108.667 12.167 162 19.5z" />
    <glyph glyph-name="n" unicode="n" horiz-adv-x="1229" 
d="M356 995v-233.001c47.333 80 101.5 138.833 162.5 176.5s131.833 56.5 212.5 56.5c107.333 0 184.666 -28.167 231.999 -84.5s71 -150.166 71 -281.499v-445c0 -55.333 6.83301 -88.833 20.5 -100.5s47.167 -20.5 100.5 -26.5v-57
c-72.667 4.66699 -122.334 7.5 -149.001 8.5s-48 1.5 -64 1.5c-21.333 0 -49 -0.666992 -83 -2s-84 -4 -150 -8v57c80.667 7.33301 128 17.333 142 30s21 48.667 21 108v458c0 95.333 -14.667 164.333 -44 207s-76.666 64 -141.999 64c-81.333 0 -156 -35.667 -224 -107
s-102 -147.666 -102 -228.999v-393c0 -62 6.83301 -99 20.5 -111s47.834 -21 102.501 -27v-57c-68.667 4 -117.667 6.66699 -147 8s-52 2 -68 2c-20 0 -46.667 -0.666992 -80 -2s-85.666 -4 -156.999 -8v57c83.333 8 132.166 18.167 146.499 30.5s21.5 48.166 21.5 107.499
v585c0 56 -8.66699 90.5 -26 103.5s-64.666 20.167 -141.999 21.5v57c69.333 4.66699 129.166 9.66699 179.499 15s98.833 11.333 145.5 18z" />
    <glyph glyph-name="o" unicode="o" horiz-adv-x="1042" 
d="M526 940c-81.333 0 -146 -40.332 -194 -120.999s-72 -191.334 -72 -332.001s23 -250.834 69 -330.501s109 -119.5 189 -119.5c82 0 146.5 40 193.5 120s70.5 190 70.5 330c0 142.667 -22.5 253.834 -67.5 333.501s-107.833 119.5 -188.5 119.5zM80 471.001
c0 158.667 42 285.668 126 381.001s195 143 333 143c128 0 230.667 -44.333 308 -133s116 -208 116 -358c0 -158.667 -42.167 -285.334 -126.5 -380.001s-195.833 -142 -334.5 -142c-128.667 0 -231.167 44 -307.5 132s-114.5 207 -114.5 357z" />
    <glyph glyph-name="p" unicode="p" horiz-adv-x="1130" 
d="M356 276c29.333 -59.333 66.668 -105.5 112.001 -138.5s94.666 -49.5 147.999 -49.5c82.667 0 145.667 36.333 189 109s65 177.667 65 315c0 132.667 -21.5 234.5 -64.5 305.5s-104.5 106.5 -184.5 106.5c-51.333 0 -99 -17.667 -143 -53s-84.667 -88 -122 -158v-437z
M195.002 780c0 52.667 -8.99707 86.666 -26.9971 101.999s-64.333 23 -139 23v57c56.667 4 111.5 8.66699 164.5 14s104.5 11.666 154.5 18.999v-180c41.333 60.667 88.166 105.834 140.499 135.501s111.5 44.5 177.5 44.5c114.667 0 207.5 -44.333 278.5 -133
s106.5 -205.334 106.5 -350.001c0 -149.333 -35.833 -269.333 -107.5 -360s-166.5 -136 -284.5 -136c-62.667 0 -119.167 12.667 -169.5 38s-94.833 63.333 -133.5 114v-418c0 -59.333 8 -94.666 24 -105.999s66 -19 150 -23v-57
c-58.667 3.33301 -109.334 5.83301 -152.001 7.5s-81.334 2.5 -116.001 2.5c-22 0 -50.333 -0.666992 -85 -2s-84 -4 -148 -8v57c74.667 4.66699 121 13.834 139 27.501s27 50.167 27 109.5v1022z" />
    <glyph glyph-name="q" unicode="q" horiz-adv-x="1110" 
d="M776 813c-26 38.667 -58 68.167 -96 88.5s-80.333 30.5 -127 30.5c-92.667 0 -165 -37.667 -217 -113s-78 -181 -78 -317c0 -130 24.167 -229.167 72.5 -297.5s118.5 -102.5 210.5 -102.5c48 0 91 9.5 129 28.5s73.333 48.5 106 88.5v594zM823 868l78.0029 127h37v-1302
c0 -24.667 4.66699 -41.334 14 -50.001s34 -16 74 -22v-57c-42 3.33301 -78.833 5.83301 -110.5 7.5s-59.834 2.5 -84.501 2.5c-18.667 0 -44.834 -0.666992 -78.501 -2s-84.5 -4 -152.5 -8v57c86.667 4 137.667 12.167 153 24.5s23 49.833 23 112.5v373
c-44 -36.667 -90 -63.834 -138 -81.501s-100.333 -26.5 -157 -26.5c-120.667 0 -217.334 41.833 -290.001 125.5s-109 195.834 -109 336.501c0 152.667 40.833 275.834 122.5 369.501s188.167 140.5 319.5 140.5c56.667 0 108.5 -9.83301 155.5 -29.5
s94.833 -52.167 143.5 -97.5z" />
    <glyph glyph-name="r" unicode="r" horiz-adv-x="819" 
d="M356 995v-272.003c36.667 90.667 78 158.667 124 204s96.333 68 151 68c42.667 0 77.5 -14.167 104.5 -42.5s40.5 -64.5 40.5 -108.5c0 -32.667 -7.5 -58 -22.5 -76s-36.167 -27 -63.5 -27s-48.5 8.5 -63.5 25.5s-22.5 41.5 -22.5 73.5c0 14.667 2 29.834 6 45.501
s10.333 31.834 19 48.501h-13c-65.333 0 -124.333 -47.667 -177 -143s-79 -207.333 -79 -336v-260c0 -57.333 11 -94 33 -110s88.333 -25.333 199 -28l-1 -57c-69.333 3.33301 -129.666 5.83301 -180.999 7.5s-98 2.5 -140 2.5c-10.667 0 -55.334 -1.66699 -134.001 -5
l-105 -5v57c84 8 133.333 18.333 148 31s22 48.334 22 107.001v585c0 56 -8.83301 90.5 -26.5 103.5s-65.5 20.167 -143.5 21.5v57c54.667 3.33301 109 7.83301 163 13.5s108 12.167 162 19.5z" />
    <glyph glyph-name="s" unicode="s" horiz-adv-x="854" 
d="M662 909l16 58.002h45c-1.33301 -22 -2.33301 -44 -3 -66s-1 -49.333 -1 -82c0 -26.667 1 -68.334 3 -125.001c0.666992 -5.33301 1 -9.33301 1 -12h-49c-9.33301 83.333 -37 146.833 -83 190.5s-108.667 65.5 -188 65.5c-56 0 -101.333 -16 -136 -48
s-52 -73.333 -52 -124c0 -44.667 14.833 -79.834 44.5 -105.501s102.167 -55.5 217.5 -89.5c110.667 -32 188.834 -70.333 234.501 -115s68.5 -103 68.5 -175c0 -92 -32 -164.833 -96 -218.5s-151.333 -80.5 -262 -80.5c-51.333 0 -99 6.83301 -143 20.5
s-86.333 34.834 -127 63.501l-13 -66h-48c1.33301 40.667 2.5 82.167 3.5 124.5s1.5 86.166 1.5 131.499c0 24.667 -0.5 43.167 -1.5 55.5s-2.16699 23.833 -3.5 34.5h56c5.33301 -102.667 31.666 -179.5 78.999 -230.5s116 -76.5 206 -76.5c66 0 117.333 16 154 48
s55 76.667 55 134c0 48 -14.833 85.833 -44.5 113.5s-86.5 54.167 -170.5 79.5v0c-230.667 69.333 -346 166.333 -346 291c0 86 29.833 155.833 89.5 209.5s138.5 80.5 236.5 80.5c51.333 0 98 -7 140 -21s80.667 -35.667 116 -65z" />
    <glyph glyph-name="t" unicode="t" horiz-adv-x="684" 
d="M287 1237l61.0029 0.00195312l-8 -299h248v-55h-248l-14 -543v-49c0 -78.667 9.66699 -132.167 29 -160.5s52.666 -42.5 99.999 -42.5c33.333 0 61.666 8.5 84.999 25.5s42.666 43.5 57.999 79.5l41 -17c-17.333 -60.667 -49.166 -108.167 -95.499 -142.5
s-101.833 -51.5 -166.5 -51.5c-76 0 -130.833 20.333 -164.5 61s-50.5 107.667 -50.5 201v30l16 609h-108v43c62.667 29.333 112.167 70.166 148.5 122.499s59.166 115.166 68.499 188.499z" />
    <glyph glyph-name="u" unicode="u" horiz-adv-x="1233" 
d="M350 995l-0.00292969 -672.997c0 -93.333 16.667 -158.333 50 -195s89 -55 167 -55c78.667 0 145.834 18.833 201.501 56.5s86.167 84.167 91.5 139.5v512c0 54.667 -8.16699 88.667 -24.5 102s-57.166 21 -122.499 23v57c58.667 5.33301 113.167 10.666 163.5 15.999
s98.833 11 145.5 17v-809c0 -56 6.66699 -90 20 -102s47 -21 101 -27l-1 -57c-32.667 2 -60.667 3.5 -84 4.5s-41.333 1.5 -54 1.5c-16.667 0 -36.5 -0.5 -59.5 -1.5s-48.833 -2.5 -77.5 -4.5l-1 145c-42 -55.333 -93.167 -96.333 -153.5 -123s-131.833 -40 -214.5 -40
c-110.667 0 -189.667 27.167 -237 81.5s-71 149.166 -71 284.499v432c0 54.667 -8.16699 88.667 -24.5 102s-57.166 21.333 -122.499 24v56c57.333 5.33301 111 10.666 161 15.999s98.667 11 146 17z" />
    <glyph glyph-name="v" unicode="v" horiz-adv-x="958" 
d="M-12 977c57.333 -4 101.333 -6.66895 132 -8.00195s55.667 -2 75 -2c22 0 49.5 0.666992 82.5 2s78.167 4 135.5 8l1 -57c-57.333 -4 -92.833 -9.16699 -106.5 -15.5s-20.5 -17.833 -20.5 -34.5c0 -11.333 1 -22.166 3 -32.499s5 -20.5 9 -30.5l223 -610l236 610
c4 12 7 23.5 9 34.5s3 20.5 3 28.5c0 16.667 -6.66699 28.167 -20 34.5s-47.666 11.5 -102.999 15.5v56c38 -3.33301 69.333 -5.66602 94 -6.99902s46 -2 64 -2c16 0 35 0.666992 57 2s52.667 4 92 8v-57c-56.667 0 -99.334 -35.667 -128.001 -107h-1l-225 -557l-70.5 -173
l-44.5 -101l-45 8l-329 837l-7 17c-18.667 50.667 -52.667 76 -102 76h-14v57z" />
    <glyph glyph-name="w" unicode="w" horiz-adv-x="1473" 
d="M4 977c50 -4 90.166 -6.66992 120.499 -8.00293s56.5 -2 78.5 -2c22.667 0 49.667 0.666992 81 2s72.333 4 123 8l1 -57c-48 -4 -78.5 -10.167 -91.5 -18.5s-19.5 -23.5 -19.5 -45.5c0 -13.333 0.5 -23.5 1.5 -30.5s2.5 -13.167 4.5 -18.5l191 -582l208 581
c4.66699 12 8.33398 23.833 11.001 35.5s4 21.167 4 28.5c0 24 -32 40.333 -96 49l-7 1v57c52 -4 91.167 -6.66699 117.5 -8s48.833 -2 67.5 -2c25.333 0 53.5 0.666992 84.5 2s68.833 4 113.5 8v-57l-4 -1c-60 -8.66699 -90 -25 -90 -49c0 -10 0.833008 -21 2.5 -33
s3.5 -22 5.5 -30l170 -594l203 594c4 10.667 7 21.334 9 32.001s3 21 3 31c0 24 -31.667 40.333 -95 49l-7 1v56c34 -3.33301 61.333 -5.66602 82 -6.99902s39 -2 55 -2c19.333 0 40.5 0.666992 63.5 2s51.5 4 85.5 8l1 -57c-36 0 -62.5 -6.66699 -79.5 -20
s-33.5 -42.333 -49.5 -87l-176 -485l-61 -160l-71 -186l-45 8l-243 794l-185 -495l-49 -129l-67 -178l-47 8l-281 837c-13.333 40.667 -27 66.334 -41 77.001s-36 16 -66 16h-16v57z" />
    <glyph glyph-name="x" unicode="x" horiz-adv-x="1042" 
d="M25 977c41.333 -2 78.832 -3.49902 112.499 -4.49902s62.834 -1.5 87.501 -1.5c31.333 0 64.333 0.5 99 1.5s72 2.5 112 4.5v-57c-22.667 0 -40.667 -4.16699 -54 -12.5s-20 -19.5 -20 -33.5c0 -9.33301 2.33301 -19.5 7 -30.5s11.334 -22.5 20.001 -34.5l150 -215
l178 232c7.33301 9.33301 12.833 18.166 16.5 26.499s5.5 16.5 5.5 24.5c0 13.333 -5.16699 22.833 -15.5 28.5s-35.833 10.5 -76.5 14.5l1 57c36.667 -2 67.334 -3.5 92.001 -4.5s44.334 -1.5 59.001 -1.5c23.333 0 49.666 0.5 78.999 1.5s60 2.5 92 4.5l1 -57h-10
c-34.667 0 -66.5 -9.16699 -95.5 -27.5s-62.833 -51.5 -101.5 -99.5l-189 -238l295 -410c24 -33.333 45.833 -55.333 65.5 -66s46.5 -18 80.5 -22l-1 -57c-46.667 2 -85.834 3.5 -117.501 4.5s-55.167 1.5 -70.5 1.5c-27.333 0 -60 -0.5 -98 -1.5s-82.333 -2.5 -133 -4.5v57
h16c24.667 0 43.5 4 56.5 12s19.5 19 19.5 33c0 10.667 -2 21.5 -6 32.5s-10 22.167 -18 33.5l-195 274l-225 -270c-8 -10 -14.5 -21.5 -19.5 -34.5s-7.5 -24.167 -7.5 -33.5c0 -14.667 9.33301 -25.834 28 -33.501s47.667 -12.167 87 -13.5l-1 -57
c-32.667 0.666992 -69.334 1.83398 -110.001 3.50098s-64.334 2.5 -71.001 2.5c-8 0 -31.167 -0.833008 -69.5 -2.5s-73.166 -2.83398 -104.499 -3.50098v57c35.333 1.33301 64.5 7.5 87.5 18.5s46.167 30.167 69.5 57.5l299 348l-250 350
c-24 35.333 -46.833 58.333 -68.5 69s-51.167 17.334 -88.5 20.001v57z" />
    <glyph glyph-name="y" unicode="y" horiz-adv-x="924" 
d="M-25 977c54.667 -4 97.001 -6.66699 127.001 -8s54.667 -2 74 -2c24 0 52.5 0.666992 85.5 2s76.167 4 129.5 8v-57h-16c-28.667 0 -51.5 -4.5 -68.5 -13.5s-25.5 -20.5 -25.5 -34.5c0 -20.667 6 -46.334 18 -77.001c2.66699 -7.33301 4.66699 -13 6 -17l213 -545l79 227
c80 226.667 120 356.667 120 390c0 22 -10.667 38.5 -32 49.5s-55 17.833 -101 20.5v57c42.667 -4 76.5 -6.66699 101.5 -8s46.5 -2 64.5 -2c17.333 0 38.166 0.666992 62.499 2s57.166 4 98.499 8v-57c-33.333 -1.33301 -59.5 -10.166 -78.5 -26.499
s-35.833 -45.166 -50.5 -86.499l-315 -897c-51.333 -146 -97.666 -243.333 -138.999 -292s-93.333 -73 -156 -73c-33.333 0 -60.5 8.16699 -81.5 24.5s-31.5 36.833 -31.5 61.5c0 21.333 7.66699 38.666 23 51.999s35 20 59 20s49.167 -8.5 75.5 -25.5
s43.5 -25.5 51.5 -25.5c22.667 0 47.667 28.833 75 86.5s60.333 151.5 99 281.5l-311 756c-0.666992 2 -2 5.33301 -4 10c-32 77.333 -82.667 122 -152 134v57z" />
    <glyph glyph-name="z" unicode="z" horiz-adv-x="934" 
d="M74 977h773.999v-10l-592 -910h266c120 0 196.5 15.5 229.5 46.5s50.167 92.5 51.5 184.5l45 1v-289h-813v10l588 910h-224c-112.667 0 -186.167 -13.167 -220.5 -39.5s-55.166 -77.5 -62.499 -153.5h-42v250z" />
    <glyph glyph-name="braceleft" unicode="{" 
d="M846 1516l0.00195312 -51c-94.667 -1.33301 -159.334 -19.833 -194.001 -55.5s-52 -105.5 -52 -209.5v-143c0 -150.667 -20.333 -253.5 -61 -308.5s-116 -92.833 -226 -113.5c110 -20.667 185.333 -58.5 226 -113.5s61 -157.833 61 -308.5v-143
c0 -104 17.167 -173.5 51.5 -208.5s99.166 -53.167 194.499 -54.5v-51h-10c-144.667 0 -244 24.5 -298 73.5s-81 139.833 -81 272.5v213c0 105.333 -19.667 178 -59 218s-113.333 64.333 -222 73v60c110 10 184.333 34.667 223 74s58 111.333 58 216v213
c0 133.333 27 224.5 81 273.5s153.333 73.5 298 73.5h10z" />
    <glyph glyph-name="bar" unicode="|" 
d="M449 1565h126v-2048h-126v2048z" />
    <glyph glyph-name="braceright" unicode="}" 
d="M178 1516h10.002c144 0 243.167 -24.667 297.5 -74s81.5 -140.333 81.5 -273v-213c0 -104.667 19.333 -176.667 58 -216s113 -64 223 -74v-60c-108.667 -8.66699 -182.667 -33 -222 -73s-59 -112.667 -59 -218v-213c0 -132 -27.167 -222.667 -81.5 -272
s-153.5 -74 -297.5 -74h-10v51c95.333 1.33301 160.166 19.5 194.499 54.5s51.5 104.5 51.5 208.5v143c0 150.667 20.333 253.5 61 308.5s116 92.833 226 113.5c-110 20.667 -185.333 58.5 -226 113.5s-61 157.833 -61 308.5v143c0 104 -17.333 173.833 -52 209.5
s-99.334 54.167 -194.001 55.5v51z" />
    <glyph glyph-name="asciitilde" unicode="~" horiz-adv-x="1706" 
d="M1530 758l-0.00195312 -130.999c-67.333 -48 -133.166 -84 -197.499 -108s-127.5 -36 -189.5 -36c-28.667 0 -58.834 3 -90.501 9s-65.167 14.667 -100.5 26c-20 6.66699 -49 17 -87 31c-134.667 48 -235.334 72 -302.001 72c-55.333 0 -113.166 -12.5 -173.499 -37.5
s-130.833 -65.833 -211.5 -122.5v133c70 48.667 137.333 85 202 109s126.334 36 185.001 36c37.333 0 76.166 -4.16699 116.499 -12.5s98.5 -25.833 174.5 -52.5c8 -2.66699 19.667 -7 35 -13c109.333 -39.333 194 -59 254 -59c56.667 0 115.334 12.167 176.001 36.5
s130.334 64.166 209.001 119.499z" />
    <glyph glyph-name="Euro" horiz-adv-x="1139" 
d="M70 618l134.999 0.999023c-0.666992 9.33301 -1.16699 20.333 -1.5 33s-0.5 31.667 -0.5 57c0 22.667 0.5 45.167 1.5 67.5s2.5 43.833 4.5 64.5l-154 1l21 61h141c24.667 168 80.167 301.167 166.5 399.5s191.166 147.5 314.499 147.5c65.333 0 122.333 -15.5 171 -46.5
s88.667 -77.5 120 -139.5l15 88h47l-1 -7c-2 -115.333 -3 -200.333 -3 -255v-86h-52c-14 128 -45.5 223.333 -94.5 286s-116.5 94 -202.5 94c-74.667 0 -140.5 -43.5 -197.5 -130.5s-94.167 -203.833 -111.5 -350.5h578l-21 -61h-560
c-2.66699 -29.333 -4.16699 -51.166 -4.5 -65.499s-0.5 -28.166 -0.5 -41.499c0 -33.333 0.166992 -57.833 0.5 -73.5s0.833008 -29.834 1.5 -42.501l485 -1l-22 -61h-459c14.667 -170 47.334 -294.833 98.001 -374.5s121.667 -119.5 213 -119.5
c78.667 0 143.834 27 195.501 81s88.5 133 110.5 237h55c-23.333 -132 -67.5 -231.5 -132.5 -298.5s-150.5 -100.5 -256.5 -100.5c-125.333 0 -228.333 50.667 -309 152s-130.667 242.333 -150 423h-164z" />
    <glyph glyph-name="Euro" unicode="&#x20ac;" horiz-adv-x="1139" 
d="M70 618l134.999 0.999023c-0.666992 9.33301 -1.16699 20.333 -1.5 33s-0.5 31.667 -0.5 57c0 22.667 0.5 45.167 1.5 67.5s2.5 43.833 4.5 64.5l-154 1l21 61h141c24.667 168 80.167 301.167 166.5 399.5s191.166 147.5 314.499 147.5c65.333 0 122.333 -15.5 171 -46.5
s88.667 -77.5 120 -139.5l15 88h47l-1 -7c-2 -115.333 -3 -200.333 -3 -255v-86h-52c-14 128 -45.5 223.333 -94.5 286s-116.5 94 -202.5 94c-74.667 0 -140.5 -43.5 -197.5 -130.5s-94.167 -203.833 -111.5 -350.5h578l-21 -61h-560
c-2.66699 -29.333 -4.16699 -51.166 -4.5 -65.499s-0.5 -28.166 -0.5 -41.499c0 -33.333 0.166992 -57.833 0.5 -73.5s0.833008 -29.834 1.5 -42.501l485 -1l-22 -61h-459c14.667 -170 47.334 -294.833 98.001 -374.5s121.667 -119.5 213 -119.5
c78.667 0 143.834 27 195.501 81s88.5 133 110.5 237h55c-23.333 -132 -67.5 -231.5 -132.5 -298.5s-150.5 -100.5 -256.5 -100.5c-125.333 0 -228.333 50.667 -309 152s-130.667 242.333 -150 423h-164z" />
    <glyph glyph-name="nonbreakingspace" unicode="&#xa0;" horiz-adv-x="1139" 
 />
    <glyph glyph-name="exclamdown" unicode="&#xa1;" horiz-adv-x="729" 
d="M336 1157l57 0.000976562c4.66699 -192.667 18.834 -396.5 42.501 -611.5s35.5 -336.167 35.5 -363.5c0 -50 -9 -91.833 -27 -125.5s-44.333 -58.5 -79 -74.5c-36.667 16 -63.667 41.167 -81 75.5s-26 80.166 -26 137.499c0 19.333 11.667 135 35 347
s37.666 417 42.999 615zM365 1489c29.333 0 54.333 -10.667 75 -32s31 -47 31 -77c0 -26.667 -10.667 -50.667 -32 -72s-46 -32 -74 -32c-28.667 0 -53.667 10.5 -75 31.5s-32 45.167 -32 72.5c0 31.333 10.167 57.333 30.5 78s45.833 31 76.5 31z" />
    <glyph glyph-name="cent" unicode="&#xa2;" horiz-adv-x="1139" 
d="M690 930c-16 2 -30 3.49902 -42 4.49902s-22.667 1.5 -32 1.5c-90 0 -164.333 -42.333 -223 -127s-88 -194.667 -88 -330c0 -68.667 8.83301 -129.667 26.5 -183s44.5 -98.666 80.5 -135.999zM801 1233h71l-98 -268c54 -20 97.833 -51.167 131.5 -93.5
s50.5 -87.166 50.5 -134.499c0 -30.667 -6.66699 -54.667 -20 -72s-31.666 -26 -54.999 -26c-24 0 -43 9.66699 -57 29s-21 46 -21 80c0 16.667 2.16699 33.334 6.5 50.001s10.833 33.667 19.5 51c-8 12.667 -17.833 23.667 -29.5 33s-26.167 18.333 -43.5 27l-289 -788
c26 -12.667 52 -22 78 -28s53.333 -9 82 -9c77.333 0 142.5 17.5 195.5 52.5s92.833 87.167 119.5 156.5l43 -17c-27.333 -94 -76.333 -166.5 -147 -217.5s-156.667 -76.5 -258 -76.5c-25.333 0 -50.833 1.5 -76.5 4.5s-52.167 7.5 -79.5 13.5l-92 -256h-72l102 283
c-76.667 42 -134.334 99.167 -173.001 171.5s-58 159.833 -58 262.5c0 157.333 45 285.666 135 384.999s204.667 149 344 149c16.667 0 33.5 -0.833008 50.5 -2.5s34.5 -3.83398 52.5 -6.50098z" />
    <glyph glyph-name="sterling" unicode="&#xa3;" horiz-adv-x="1139" 
d="M350 135c-26.667 7.33301 -48.667 12.667 -66 16s-32 5 -44 5c-38.667 0 -71 -7.83301 -97 -23.5s-39 -34.5 -39 -56.5c0 -11.333 6.16699 -21 18.5 -29s26.833 -12 43.5 -12c37.333 0 71.333 8.33301 102 25s58 41.667 82 75zM907 1108
c2 10 3.50195 19.666 4.50195 28.999s1.5 16.666 1.5 21.999c0 62 -25.333 116.5 -76 163.5s-111.334 70.5 -182.001 70.5c-83.333 0 -149.833 -26.167 -199.5 -78.5s-74.5 -122.5 -74.5 -210.5c0 -39.333 7.5 -93.666 22.5 -162.999s39.5 -161.666 73.5 -276.999h350v-68
h-331c4 -26.667 7 -52.334 9 -77.001s3 -48 3 -70c0 -35.333 -4.33301 -71.666 -13 -108.999s-24 -83 -46 -137c78 -14 165.5 -32.5 262.5 -55.5s154.833 -34.5 173.5 -34.5c42.667 0 76 12.333 100 37s46 71 66 139l43 -10c-27.333 -122.667 -57 -202.834 -89 -240.501
s-81.667 -56.5 -149 -56.5c-43.333 0 -101.5 9.83301 -174.5 29.5s-167.833 51.167 -284.5 94.5c-37.333 -41.333 -76.333 -72.333 -117 -93s-82.667 -31 -126 -31c-33.333 0 -59.5 7.83301 -78.5 23.5s-28.5 37.167 -28.5 64.5c0 40.667 22.667 74.334 68 101.001
s104.666 40 177.999 40c12 0 24.833 -0.166992 38.5 -0.5s28.167 -0.833008 43.5 -1.5c0.666992 6.66699 1.66699 16 3 28c3.33301 34 5 56 5 66c0 36.667 -4.83301 78.167 -14.5 124.5s-25.167 102.5 -46.5 168.5h-181v68h162l-27 90c-40.667 129.333 -61 225.333 -61 288
c0 122 38 220.833 114 296.5s176 113.5 300 113.5c105.333 0 190.333 -30.833 255 -92.5s97 -142.167 97 -241.5c0 -57.333 -13 -105.833 -39 -145.5s-56 -59.5 -90 -59.5c-22 0 -39.167 5.5 -51.5 16.5s-18.5 26.167 -18.5 45.5c0 29.333 10.833 55.5 32.5 78.5
s52.5 41.167 92.5 54.5z" />
    <glyph glyph-name="currency" unicode="&#xa4;" horiz-adv-x="1139" 
d="M70 618l134.999 0.999023c-0.666992 9.33301 -1.16699 20.333 -1.5 33s-0.5 31.667 -0.5 57c0 22.667 0.5 45.167 1.5 67.5s2.5 43.833 4.5 64.5l-154 1l21 61h141c24.667 168 80.167 301.167 166.5 399.5s191.166 147.5 314.499 147.5c65.333 0 122.333 -15.5 171 -46.5
s88.667 -77.5 120 -139.5l15 88h47l-1 -7c-2 -115.333 -3 -200.333 -3 -255v-86h-52c-14 128 -45.5 223.333 -94.5 286s-116.5 94 -202.5 94c-74.667 0 -140.5 -43.5 -197.5 -130.5s-94.167 -203.833 -111.5 -350.5h578l-21 -61h-560
c-2.66699 -29.333 -4.16699 -51.166 -4.5 -65.499s-0.5 -28.166 -0.5 -41.499c0 -33.333 0.166992 -57.833 0.5 -73.5s0.833008 -29.834 1.5 -42.501l485 -1l-22 -61h-459c14.667 -170 47.334 -294.833 98.001 -374.5s121.667 -119.5 213 -119.5
c78.667 0 143.834 27 195.501 81s88.5 133 110.5 237h55c-23.333 -132 -67.5 -231.5 -132.5 -298.5s-150.5 -100.5 -256.5 -100.5c-125.333 0 -228.333 50.667 -309 152s-130.667 242.333 -150 423h-164z" />
    <glyph glyph-name="yen" unicode="&#xa5;" horiz-adv-x="1139" 
d="M-20 1432c42.667 -2.66699 84.002 -4.83594 124.002 -6.50293s77 -2.5 111 -2.5c31.333 0 66.333 0.833008 105 2.5s79.334 3.83398 122.001 6.50098v-64c-42 0 -72.5 -4.66699 -91.5 -14s-28.5 -24.333 -28.5 -45c0 -6.66699 0.5 -12.5 1.5 -17.5
s3.16699 -10.167 6.5 -15.5l297 -531l245 457c12.667 24 21.667 43.667 27 59s8 28.333 8 39c0 25.333 -9.33301 43 -28 53s-52.334 15 -101.001 15v64c36.667 -3.33301 70.667 -5.66602 102 -6.99902s60.333 -2 87 -2c22 0 48.833 0.833008 80.5 2.5
s66.167 3.83398 103.5 6.50098v-64c-42 -4 -71.667 -10.5 -89 -19.5s-34.666 -29.167 -51.999 -60.5l-160 -282h250v-62h-287l-145 -268h432v-62h-432v-387c0 -74 9.16699 -119.333 27.5 -136s63.5 -25 135.5 -25h25v-66c-78 4 -136 6.66699 -174 8s-68.667 2 -92 2
c-25.333 0 -58 -0.666992 -98 -2s-98.333 -4 -175 -8v66h27c71.333 0 116.166 8.5 134.499 25.5s27.5 62.167 27.5 135.5v387h-467v62h455l-162 268h-293v62h260l-135 231c-32.667 57.333 -60.834 93.5 -84.501 108.5s-54.834 22.5 -93.501 22.5h-6v64z" />
    <glyph glyph-name="brokenbar" unicode="&#xa6;" 
d="M449 408h126v-758h-126v758zM449 1432h126v-758h-126v758z" />
    <glyph glyph-name="section" unicode="&#xa7;" horiz-adv-x="985" 
d="M391 926c-37.333 -26 -65.001 -53.667 -83.001 -83s-27 -61 -27 -95c0 -66.667 52 -173.334 156 -320.001l14 -18l176 -244c38.667 27.333 67.334 56 86.001 86s28 62 28 96c0 40.667 -12.167 85.834 -36.5 135.501s-68.833 117.167 -133.5 202.5zM617.999 1374
c-13.333 19.333 -29.6699 33.502 -49.0029 42.502s-43 13.5 -71 13.5c-38 0 -68.667 -12.833 -92 -38.5s-35 -59.5 -35 -101.5c0 -32.667 8.33301 -66.667 25 -102s53.334 -90 110.001 -164l158 -207c60.667 -80 105.167 -151.333 133.5 -214s42.5 -121 42.5 -175
c0 -62.667 -15 -119 -45 -169s-74.333 -93.333 -133 -130c36 -46.667 62.667 -91.834 80 -135.501s26 -87.167 26 -130.5c0 -78 -25.5 -140.167 -76.5 -186.5s-119.167 -69.5 -204.5 -69.5c-73.333 0 -131.166 17.167 -173.499 51.5s-63.5 80.5 -63.5 138.5
c0 32 5.83301 56.5 17.5 73.5s28.167 25.5 49.5 25.5c20 0 35.333 -7.33301 46 -22s16 -35.334 16 -62.001c0 -12 -1.66699 -25.333 -5 -40s-8.66602 -32.334 -15.999 -53.001c13.333 -18.667 29.333 -32.167 48 -40.5s43 -12.5 73 -12.5c49.333 0 89 14.167 119 42.5
s45 65.5 45 111.5c0 47.333 -30.667 112 -92 194l-23 32l-210 287l-23 32c-84.667 114.667 -127 214.334 -127 299.001c0 60.667 14.833 114.834 44.5 162.501s76.834 93.167 141.501 136.5c-37.333 50 -64.333 95.333 -81 136s-25 82 -25 124c0 78 24.667 141.833 74 191.5
s112.666 74.5 189.999 74.5c61.333 0 112.833 -18.333 154.5 -55s62.5 -82.667 62.5 -138c0 -31.333 -5.83301 -55.5 -17.5 -72.5s-28.167 -25.5 -49.5 -25.5c-20 0 -35.667 7.66699 -47 23s-17 36.333 -17 63c0 10 1.5 21.667 4.5 35s8.16699 31.666 15.5 54.999z" />
    <glyph glyph-name="dieresis" unicode="&#xa8;" 
d="M694 1382c30 0 56.333 -11.167 79 -33.5s34 -48.5 34 -78.5c0 -32.667 -10.667 -59.667 -32 -81s-48.333 -32 -81 -32c-32 0 -58.667 10.667 -80 32s-32 48.333 -32 81c0 30 11.167 56.167 33.5 78.5s48.5 33.5 78.5 33.5zM332 1382c29.333 0 55 -11.167 77 -33.5
s33 -48.5 33 -78.5c0 -32.667 -10.333 -59.667 -31 -81s-47 -32 -79 -32c-33.333 0 -60.833 10.667 -82.5 32s-32.5 48.333 -32.5 81c0 30 11.5 56.167 34.5 78.5s49.833 33.5 80.5 33.5z" />
    <glyph glyph-name="copyright" unicode="&#xa9;" horiz-adv-x="1683" 
d="M1120 1096l35.0049 -0.000976562l2 -314h-41c-22.667 91.333 -57.334 160 -104.001 206s-105.334 69 -176.001 69c-82 0 -143.833 -31.5 -185.5 -94.5s-62.5 -155.833 -62.5 -278.5c0 -126 22.333 -221 67 -285s111 -96 199 -96c57.333 0 109.333 14.333 156 43
s89 72.334 127 131.001l34 -24c-38.667 -70 -86.334 -122.333 -143.001 -157s-123 -52 -199 -52c-111.333 0 -206.333 41 -285 123s-118 181 -118 297c0 124 38.667 228 116 312s172.333 126 285 126c49.333 0 98.666 -11.333 147.999 -34s76.666 -34 81.999 -34
c18 0 32 4.83301 42 14.5s17 25.5 21 47.5zM844.005 1303c-82 0 -161.169 -16.167 -237.502 -48.5s-143.166 -77.833 -200.499 -136.5c-58.667 -59.333 -103.5 -126.833 -134.5 -202.5s-46.5 -154.834 -46.5 -237.501c0 -83.333 15.667 -162.833 47 -238.5
s76.666 -142.834 135.999 -201.501c58.667 -59.333 124.834 -104.333 198.501 -135s152.167 -46 235.5 -46c84 0 162.833 15.333 236.5 46s139.5 75.667 197.5 135c58.667 60 103.667 127.667 135 203s47 154.333 47 237s-15.833 162.834 -47.5 240.501
s-75.834 144.834 -132.501 201.501c-57.333 58 -124.166 103 -200.499 135s-154.166 48 -233.499 48zM844.003 1382c91.333 0 180.165 -17.833 266.498 -53.5s161.833 -85.834 226.5 -150.501c65.333 -64.667 116.166 -140.834 152.499 -228.501s54.5 -178.167 54.5 -271.5
s-17.667 -182.666 -53 -267.999s-86.666 -162 -153.999 -230c-65.333 -66.667 -140.333 -117.5 -225 -152.5s-174.667 -52.5 -270 -52.5s-185 17.5 -269 52.5s-159.667 85.833 -227 152.5s-118.666 142.334 -153.999 227.001s-53 175 -53 271
c0 93.333 17.667 182.833 53 268.5s86 162.167 152 229.5c65.333 66 141.333 116.833 228 152.5s177.334 53.5 272.001 53.5z" />
    <glyph glyph-name="ordfeminine" unicode="&#xaa;" horiz-adv-x="768" 
d="M471 1124c-128.667 -24 -211.333 -47.5 -248 -70.5s-55 -56.167 -55 -99.5c0 -35.333 10.667 -63.833 32 -85.5s49.666 -32.5 84.999 -32.5c34.667 0 66.834 9.16699 96.501 27.5s57.5 45.833 83.5 82.5zM594.001 1233l-6.00098 -228.998v-80c0 -26.667 5 -46 15 -58
s26 -18 48 -18c16 0 29.833 3.33301 41.5 10s21.834 17 30.501 31l25 -15c-18 -34 -40 -59.167 -66 -75.5s-57.333 -24.5 -94 -24.5s-65.5 9.33301 -86.5 28s-33.167 45.334 -36.5 80.001c-33.333 -36.667 -69.5 -63.834 -108.5 -81.501s-83.5 -26.5 -133.5 -26.5
c-52 0 -93.667 14 -125 42s-47 65.333 -47 112c0 55.333 19.833 98 59.5 128s127.834 59 264.501 87c16 3.33301 35 7 57 11c26 4.66699 39 9.66699 39 15l2 66v25c0 68 -9.83301 115.333 -29.5 142s-52.834 40 -99.501 40c-29.333 0 -56 -3.83301 -80 -11.5
s-46.333 -19.5 -67 -35.5c2 -14 3.5 -26 4.5 -36s1.5 -18.667 1.5 -26c0 -26 -6.5 -46.833 -19.5 -62.5s-29.833 -23.5 -50.5 -23.5c-13.333 0 -23.833 4.83301 -31.5 14.5s-11.5 22.5 -11.5 38.5c0 45.333 26.833 87.166 80.5 125.499s115.5 57.5 185.5 57.5
c83.333 0 143.833 -18.333 181.5 -55s56.5 -96.334 56.5 -179.001v-16z" />
    <glyph glyph-name="guillemotleft" unicode="&#xab;" horiz-adv-x="829" 
d="M543 487c84 -104.667 139.167 -175.671 165.5 -213.004s39.5 -61.666 39.5 -72.999c0 -4 -1.66699 -7.5 -5 -10.5s-7.33301 -4.5 -12 -4.5c-5.33301 0 -43 34.5 -113 103.5s-144.333 133.5 -223 193.5v11c78 58.667 152 122.834 222 192.501s108.667 104.5 116 104.5
c3.33301 0 6.5 -1.66699 9.5 -5s4.83301 -7.33301 5.5 -12c0 -11.333 -13.167 -35.666 -39.5 -72.999s-81.5 -108.666 -165.5 -213.999zM227 486.996c84.667 -104.667 140 -175.671 166 -213.004s39 -61.666 39 -72.999c0 -4 -1.66699 -7.5 -5 -10.5s-7 -4.5 -11 -4.5
c-5.33301 0 -43 34.5 -113 103.5s-144.333 133.5 -223 193.5v11c78 58.667 151.833 122.834 221.5 192.501s108.5 104.5 116.5 104.5c3.33301 -0.666992 6.5 -2.66699 9.5 -6s4.5 -7 4.5 -11c0 -11.333 -13 -35.666 -39 -72.999s-81.333 -108.666 -166 -213.999z" />
    <glyph glyph-name="logicalnot" unicode="&#xac;" horiz-adv-x="1706" 
d="M254 858h1198v-502h-115v385h-1083v117z" />
    <glyph glyph-name="sfthyphen" unicode="&#xad;" horiz-adv-x="707" 
d="M94 561h498v-123h-498v123z" />
    <glyph glyph-name="registered" unicode="&#xae;" horiz-adv-x="1683" 
d="M729 719c10.667 -0.666992 21.334 -1.16797 32.001 -1.50098s22 -0.5 34 -0.5c74.667 0 132.5 15.167 173.5 45.5s61.5 73.166 61.5 128.499c0 48.667 -17.667 87.834 -53 117.501s-83 44.5 -143 44.5c-34.667 0 -60.834 -6.16699 -78.501 -18.5
s-26.5 -30.166 -26.5 -53.499v-262zM469 1092l393 -0.000976562c98 0 175.5 -18.167 232.5 -54.5s85.5 -85.166 85.5 -146.499c0 -50.667 -23.167 -92 -69.5 -124s-118.833 -57 -217.5 -75c62 -19.333 109.333 -45.166 142 -77.499s56.334 -76.833 71.001 -133.5
c4 -14.667 7.66699 -35.667 11 -63c8.66699 -58.667 28.334 -88 59.001 -88c21.333 0 37.833 11.333 49.5 34s17.5 55.667 17.5 99h43v-12c0 -58.667 -13.5 -103.167 -40.5 -133.5s-66.833 -45.5 -119.5 -45.5c-30.667 0 -56.834 5.66699 -78.501 17
s-37.834 27.666 -48.501 48.999c-12 26.667 -19 64.5 -21 113.5s-5 80.833 -9 95.5c-13.333 45.333 -36.833 78.833 -70.5 100.5s-79.167 32.5 -136.5 32.5h-33v-248c0 -36 8.83301 -61.167 26.5 -75.5s50.5 -22.833 98.5 -25.5v-40h-385v40c48 2 81.167 10.167 99.5 24.5
s27.5 39.833 27.5 76.5v516c0 36.667 -8.66699 62 -26 76s-51 22.333 -101 25v43zM844 1303c-81.333 0 -160.002 -15.9971 -236.002 -47.9971s-143.333 -77.667 -202 -137s-103.5 -126.833 -134.5 -202.5s-46.5 -154.834 -46.5 -237.501
c0 -84.667 15.5 -164.334 46.5 -239.001s76.5 -141.667 136.5 -201c58.667 -59.333 124.834 -104.333 198.501 -135s152.167 -46 235.5 -46c84 0 162.833 15.333 236.5 46s139.5 75.667 197.5 135c58.667 60 103.667 127.667 135 203s47 154.333 47 237
s-15.833 163.167 -47.5 241.5s-75.834 145.166 -132.501 200.499c-57.333 58 -124.166 103 -200.499 135s-154.166 48 -233.499 48zM843.998 1382c92 0 181.499 -18.001 268.499 -54.001s163.167 -86.667 228.5 -152c64.667 -64.667 114.667 -140.667 150 -228
s53 -178 53 -272c0 -91.333 -18.5 -180.5 -55.5 -267.5s-89.5 -164.5 -157.5 -232.5c-66 -66 -140.833 -116 -224.5 -150s-173.834 -51 -270.501 -51c-91.333 0 -179 17.5 -263 52.5s-159.667 85.833 -227 152.5s-118.666 142.334 -153.999 227.001s-53 175 -53 271
c0 93.333 17.667 182.833 53 268.5s86 162.167 152 229.5c65.333 66 141.333 116.833 228 152.5s177.334 53.5 272.001 53.5z" />
    <glyph glyph-name="macron" unicode="&#xaf;" 
d="M250 1325h524v-127h-524v127z" />
    <glyph glyph-name="degree" unicode="&#xb0;" horiz-adv-x="674" 
d="M338 1372c-56 0 -103.833 -19.5 -143.5 -58.5s-59.5 -86.5 -59.5 -142.5s19.833 -103.667 59.5 -143s87.5 -59 143.5 -59s103.5 19.667 142.5 59s58.5 87 58.5 143s-19.5 103.5 -58.5 142.5s-86.5 58.5 -142.5 58.5zM338 1454c78 0 144.668 -27.6689 200.001 -83.002
s83 -122 83 -200c0 -77.333 -27.833 -143.666 -83.5 -198.999s-122.834 -83 -201.501 -83s-145.167 27.333 -199.5 82s-81.5 121.334 -81.5 200.001c0 79.333 27.5 146.333 82.5 201s121.833 82 200.5 82z" />
    <glyph glyph-name="plusminus" unicode="&#xb1;" horiz-adv-x="1706" 
d="M254 158h1198v-117h-1198v117zM795 1180h118v-344h539v-117h-539v-344h-118v344h-541v117h541v344z" />
    <glyph glyph-name="twosuperior" unicode="&#xb2;" horiz-adv-x="752" 
d="M145 641c29.333 7.33301 59.6699 12.667 91.0029 16s74.333 5 129 5c26 0 59.667 -1.16699 101 -3.5s69.666 -3.5 84.999 -3.5c50 0 82.333 45.333 97 136l1 9l41 1c-4 -40.667 -9.16699 -80.667 -15.5 -120s-13.5 -77.333 -21.5 -114
c-10.667 -0.666992 -20.834 -1.16699 -30.501 -1.5s-20.5 -0.5 -32.5 -0.5c-58.667 0 -128.167 1 -208.5 3s-131.166 3 -152.499 3h-36c-34.667 0 -61.834 -0.5 -81.501 -1.5s-38.834 -2.5 -57.501 -4.5l-7 8c15.333 34 37.833 67.167 67.5 99.5s71.5 68.833 125.5 109.5
c114 86.667 188.167 157.667 222.5 213s51.5 118.333 51.5 189c0 64.667 -19.167 116 -57.5 154s-90.166 57 -155.499 57c-62.667 0 -114.167 -17.167 -154.5 -51.5s-60.5 -78.166 -60.5 -131.499v-12c31.333 -6.66699 56.166 -17.667 74.499 -33s27.5 -32.333 27.5 -51
c0 -12 -3.83301 -21.167 -11.5 -27.5s-18.834 -9.5 -33.501 -9.5c-30 0 -54.5 12 -73.5 36s-28.5 55 -28.5 93c0 69.333 26.5 125.666 79.5 168.999s122.167 65 207.5 65c89.333 0 162.166 -23.833 218.499 -71.5s84.5 -108.5 84.5 -182.5
c0 -62 -20.167 -122.333 -60.5 -181s-102.166 -118 -185.499 -178l-74 -51c-81.333 -54 -136.666 -99.667 -165.999 -137z" />
    <glyph glyph-name="threesuperior" unicode="&#xb3;" horiz-adv-x="752" 
d="M375 1018v-1.99902c100 -5.33301 174.5 -25.833 223.5 -61.5s73.5 -86.834 73.5 -153.501c0 -72 -30.167 -130 -90.5 -174s-140.833 -66 -241.5 -66c-80 0 -147.5 18 -202.5 54s-82.5 79.333 -82.5 130c0 17.333 4.83301 31.333 14.5 42s21.167 16 34.5 16
c18.667 0 32.334 -6.16699 41.001 -18.5s13 -31.5 13 -57.5c0 -6.66699 -1 -15.167 -3 -25.5s-3 -16.833 -3 -19.5c0 -20.667 18.667 -39.5 56 -56.5s82 -25.5 134 -25.5c65.333 0 116.833 18 154.5 54s56.5 85 56.5 147c0 63.333 -19.333 110.166 -58 140.499
s-98.667 45.5 -180 45.5c-5.33301 0 -13.833 -0.333008 -25.5 -1s-20.834 -1 -27.501 -1l1 43c80 1.33301 141.833 19.666 185.5 54.999s65.5 85.333 65.5 150c0 52 -16.167 93.667 -48.5 125s-75.5 47 -129.5 47c-32.667 0 -62.5 -5 -89.5 -15s-49.167 -24.333 -66.5 -43
c2 -13.333 3.16699 -23 3.5 -29s0.5 -12 0.5 -18c0 -24.667 -4.83301 -44 -14.5 -58s-23.167 -21 -40.5 -21c-13.333 0 -23.5 4 -30.5 12s-10.5 20.333 -10.5 37c0 45.333 25.5 85.333 76.5 120s112.833 52 185.5 52c80 0 145.5 -20 196.5 -60s76.5 -91.667 76.5 -155
c0 -57.333 -21.167 -103.666 -63.5 -138.999s-103.833 -58.666 -184.5 -69.999z" />
    <glyph glyph-name="acute" unicode="&#xb4;" 
d="M711 1290l-301.001 -183.999h-74l276 301c18 20 36.167 35.167 54.5 45.5s35.833 15.5 52.5 15.5c20.667 0 38.5 -7.83301 53.5 -23.5s22.5 -34.167 22.5 -55.5c0 -18 -5.66699 -33.833 -17 -47.5s-33.666 -30.834 -66.999 -51.501z" />
    <glyph glyph-name="mu" unicode="&#xb5;" horiz-adv-x="1120" 
d="M164 193c-18 -90.667 -35.3301 -203.666 -51.9971 -338.999c-22.667 -181.333 -60 -272 -112 -272c-24.667 0 -44.167 7.83301 -58.5 23.5s-21.5 37.167 -21.5 64.5c0 26.667 21.5 117.834 64.5 273.501s78.167 298.167 105.5 427.5l109 514h147l-104 -492
c-4 -20 -7.16699 -39.5 -9.5 -58.5s-3.5 -36.833 -3.5 -53.5c0 -55.333 14 -98.333 42 -129s67.333 -46 118 -46c65.333 0 119.833 22.833 163.5 68.5s75.167 112.5 94.5 200.5l111 510h149l-114 -531c-8.66699 -39.333 -14.334 -68.5 -17.001 -87.5s-4 -35.5 -4 -49.5
c0 -32 8.66699 -58 26 -78s39.333 -30 66 -30c23.333 0 45.166 6 65.499 18s37.5 29 51.5 51s27.667 53.167 41 93.5s26.333 60.5 39 60.5c8 0 14.333 -3.33301 19 -10s7 -15.667 7 -27c0 -16.667 -3.66699 -38.834 -11 -66.501s-17 -55.5 -29 -83.5
c-25.333 -54.667 -57 -95.5 -95 -122.5s-83 -40.5 -135 -40.5c-45.333 0 -81.5 17 -108.5 51s-40.5 80.333 -40.5 139v23c-30.667 -73.333 -69.334 -128 -116.001 -164s-101.667 -54 -165 -54c-64 0 -114.833 18.167 -152.5 54.5s-61.167 90.166 -70.5 161.499z" />
    <glyph glyph-name="paragraph" unicode="&#xb6;" 
d="M948 1479l-0.00195312 -78h-125v-1401h-94v1401h-182v-1401h-96v782c-115.333 5.33301 -206.666 39.5 -273.999 102.5s-101 144.833 -101 245.5c0 104.667 35.833 189 107.5 253s166.834 96 285.501 96h479z" />
    <glyph glyph-name="periodcentered" unicode="&#xb7;" horiz-adv-x="569" 
d="M287 817c26 0 48.833 -10 68.5 -30s29.5 -43.333 29.5 -70c0 -28.667 -9.5 -52.667 -28.5 -72s-42.167 -29 -69.5 -29c-29.333 0 -53.833 9.66699 -73.5 29s-29.5 43.333 -29.5 72c0 26 10.333 49.167 31 69.5s44.667 30.5 72 30.5z" />
    <glyph glyph-name="cedilla" unicode="&#xb8;" 
d="M463 2l47.0029 0.000976562v-114c17.333 2 32 3.33301 44 4s22.667 1.33398 32 2.00098c52 0 93.667 -14.833 125 -44.5s47 -68.834 47 -117.501c0 -54.667 -19.167 -97 -57.5 -127s-91.5 -45 -159.5 -45c-43.333 0 -89.666 6.66699 -138.999 20s-98 32.666 -146 57.999
l31 71c39.333 -23.333 78.666 -41.5 117.999 -54.5s75.666 -19.5 108.999 -19.5c39.333 0 69 8.16699 89 24.5s30 40.5 30 72.5c0 28.667 -9.83301 51.167 -29.5 67.5s-46.834 24.5 -81.501 24.5c-7.33301 0 -22.333 -1 -45 -3c-6.66699 -0.666992 -11.334 -1 -14.001 -1
v182z" />
    <glyph glyph-name="onesuperior" unicode="&#xb9;" horiz-adv-x="752" 
d="M442 1442l0.000976562 -736.999c0 -45.333 6.66699 -72.833 20 -82.5s45.666 -14.5 96.999 -14.5h19l-1 -37c-46.667 2.66699 -86.5 4.5 -119.5 5.5s-59.833 1.5 -80.5 1.5c-23.333 0 -52.833 -0.5 -88.5 -1.5s-78.5 -2.5 -128.5 -4.5v36h39c58.667 0 95.167 5 109.5 15
s21.5 38 21.5 84v646c-28.667 -4.66699 -57 -10.334 -85 -17.001s-56.333 -14.334 -85 -23.001v43c22 6.66699 54.333 15.334 97 26.001c87.333 22 149 42 185 60z" />
    <glyph glyph-name="ordmasculine" unicode="&#xba;" horiz-adv-x="782" 
d="M395 1444c-61.333 0 -110 -28.168 -146 -84.501s-54 -133.5 -54 -231.5s17.333 -175 52 -231s82 -84 142 -84c62 0 110.667 27.833 146 83.5s53 132.834 53 231.501c0 100 -17 177.667 -51 233s-81.333 83 -142 83zM59 1116c0 110.667 31.668 199.5 95.001 266.5
s146.333 100.5 249 100.5c97.333 0 175 -31 233 -93s87 -145.667 87 -251c0 -110.667 -31.667 -199.167 -95 -265.5s-147 -99.5 -251 -99.5c-96.667 0 -173.834 31 -231.501 93s-86.5 145 -86.5 249z" />
    <glyph glyph-name="guillemotright" unicode="&#xbb;" horiz-adv-x="829" 
d="M729 494l0.000976562 -10.998c-78 -59.333 -151.833 -123.666 -221.5 -192.999s-107.834 -104 -114.501 -104c-4.66699 0 -8.5 1.66699 -11.5 5s-4.5 7.33301 -4.5 12c0 11.333 16.167 39.5 48.5 84.5s84.5 111.5 156.5 199.5c-84.667 105.333 -140 176.666 -166 213.999
s-39 61.666 -39 72.999c0 4 1.5 7.66699 4.5 11s6.16699 5.33301 9.5 6c8 0 46.833 -34.833 116.5 -104.5s143.5 -133.834 221.5 -192.501zM414.001 494.002v-10.998c-78.667 -59.333 -152.834 -123.666 -222.501 -192.999s-107.5 -104 -113.5 -104
c-4.66699 0 -8.66699 1.66699 -12 5s-5 7.33301 -5 12c0 11.333 16.167 39.5 48.5 84.5s84.5 111.5 156.5 199.5c-84 105.333 -139.167 176.666 -165.5 213.999s-39.5 61.666 -39.5 72.999c0.666992 4.66699 2.33398 8.5 5.00098 11.5s6 4.83301 10 5.5
c7.33301 0 46 -34.833 116 -104.5s144 -133.834 222 -192.501z" />
    <glyph glyph-name="onequarter" unicode="&#xbc;" horiz-adv-x="1776" 
d="M1491 733l-344 -446h344v446zM1593 809l-0.00195312 -516h109v-51h-109v-142c0 -32.667 3.83301 -52 11.5 -58s29.834 -9 66.501 -9v-33c-15.333 0.666992 -35.666 1.33398 -60.999 2.00098c-42 1.33301 -68.667 2 -80 2c-14.667 0 -46.667 -0.666992 -96 -2
c-27.333 -0.666992 -49.333 -1.33398 -66 -2.00098v33c53.333 0 85.833 4.16699 97.5 12.5s17.5 27.833 17.5 58.5v138h-381v37c0 3.33301 1.5 8 4.5 14s10.167 16.667 21.5 32l354 461c16.667 2 34.5 5 53.5 9s38.167 8.66699 57.5 14zM1309 1432h90l-934 -1450h-90z
M423.998 1440v-686c0 -42.667 6 -68.334 18 -77.001s43 -13 93 -13h18v-35c-44.667 2 -83 3.5 -115 4.5s-58 1.5 -78 1.5c-22 0 -50.333 -0.5 -85 -1.5s-75 -2.5 -121 -4.5v35h36c57.333 0 92.5 4.5 105.5 13.5s19.5 35.167 19.5 78.5v604c-32 -6 -61.333 -12.167 -88 -18.5
s-51 -13.166 -73 -20.499v41c19.333 5.33301 61 16 125 32s112.333 31.333 145 46z" />
    <glyph glyph-name="onehalf" unicode="&#xbd;" horiz-adv-x="1776" 
d="M1198 66c28 6 56.6621 10.4971 85.9951 13.4971s69.666 4.5 120.999 4.5c26 0 58.833 -1 98.5 -3s66.167 -3 79.5 -3c48.667 0 80 41 94 123c1.33301 6 2 10 2 12h37c-2.66699 -34.667 -7 -70.167 -13 -106.5s-13.333 -73.166 -22 -110.499
c-9.33301 -0.666992 -18.666 -1.16699 -27.999 -1.5s-19.666 -0.5 -30.999 -0.5c-56.667 0 -123.167 1 -199.5 3s-124.5 3 -144.5 3h-35c-32 0 -57.667 -0.5 -77 -1.5s-37.666 -2.5 -54.999 -4.5l-7 8c14.667 31.333 35.834 62 63.501 92s67.834 64.333 120.501 103
c112 84 183.667 151.333 215 202s47 108 47 172c0 60.667 -18.5 108.667 -55.5 144s-86.5 53 -148.5 53c-59.333 0 -108.333 -16 -147 -48s-58 -72.667 -58 -122v-12c30 -6 53.833 -16.167 71.5 -30.5s26.5 -30.166 26.5 -47.499c0 -11.333 -3.66699 -20 -11 -26
s-18 -9 -32 -9c-28.667 0 -52.167 11.333 -70.5 34s-27.5 52.334 -27.5 89.001c0 63.333 25.167 115 75.5 155s115.833 60 196.5 60c86 0 156 -22 210 -66s81 -100.667 81 -170c0 -57.333 -19.167 -113.5 -57.5 -168.5s-97.166 -109.833 -176.499 -164.5
c-14.667 -10.667 -37 -26 -67 -46c-80 -52 -134 -95.333 -162 -130zM1309 1432h90l-934 -1450h-90zM423.995 1440v-686c0 -42.667 6 -68.334 18 -77.001s43 -13 93 -13h18v-35c-44.667 2 -83 3.5 -115 4.5s-58 1.5 -78 1.5c-22 0 -50.333 -0.5 -85 -1.5s-75 -2.5 -121 -4.5
v35h36c57.333 0 92.5 4.5 105.5 13.5s19.5 35.167 19.5 78.5v604c-32 -6 -61.333 -12.167 -88 -18.5s-51 -13.166 -73 -20.499v41c19.333 5.33301 61 16 125 32s112.333 31.333 145 46z" />
    <glyph glyph-name="threequarters" unicode="&#xbe;" horiz-adv-x="1778" 
d="M1491 733l-344 -446h344v446zM1593 809l-0.00195312 -516h109v-51h-109v-142c0 -32.667 3.83301 -52 11.5 -58s29.834 -9 66.501 -9v-33c-15.333 0.666992 -35.666 1.33398 -60.999 2.00098c-42 1.33301 -68.667 2 -80 2c-14.667 0 -46.667 -0.666992 -96 -2
c-27.333 -0.666992 -49.333 -1.33398 -66 -2.00098v33c53.333 0 85.833 4.16699 97.5 12.5s17.5 27.833 17.5 58.5v138h-381v37c0 3.33301 1.5 8 4.5 14s10.167 16.667 21.5 32l354 461c16.667 2 34.5 5 53.5 9s38.167 8.66699 57.5 14zM1309 1432h90l-934 -1450h-90z
M357.998 1044c95.333 -4.66699 166.335 -23.8271 213.002 -57.4941s70 -81.834 70 -144.501c0 -66.667 -28.833 -120.667 -86.5 -162s-133.834 -62 -228.501 -62c-76.667 0 -141.334 17 -194.001 51s-79 74.667 -79 122c0 16 4.5 29.167 13.5 39.5s20.167 15.5 33.5 15.5
c17.333 0 30.333 -6 39 -18s13 -30 13 -54c0 -6.66699 -1.16699 -14.834 -3.5 -24.501s-3.5 -15.834 -3.5 -18.501c0 -18 17.833 -35.167 53.5 -51.5s78.167 -24.5 127.5 -24.5c62 0 111.167 16.833 147.5 50.5s54.5 79.834 54.5 138.501c0 58 -18.667 101.167 -56 129.5
s-94.333 42.5 -171 42.5c-13.333 0 -23.5 -0.166992 -30.5 -0.5s-13.833 -0.833008 -20.5 -1.5v40c76 1.33301 135.333 18.666 178 51.999s64 79.666 64 138.999c0 49.333 -15.667 88.666 -47 117.999s-73.333 44 -126 44c-30 0 -57.833 -4.83301 -83.5 -14.5
s-46.834 -23.5 -63.501 -41.5c2 -12 3.16699 -20.5 3.5 -25.5s0.5 -9.83301 0.5 -14.5c0 -24 -4.66699 -42.667 -14 -56s-22.333 -20 -39 -20c-13.333 0 -23.166 3.83301 -29.499 11.5s-9.5 19.5 -9.5 35.5c0 41.333 24.5 78 73.5 110s107.833 48 176.5 48
c77.333 0 140 -18.333 188 -55s72 -84.667 72 -144c0 -52.667 -20 -95.834 -60 -129.501s-98.667 -56.167 -176 -67.5z" />
    <glyph glyph-name="questiondown" unicode="&#xbf;" horiz-adv-x="1028" 
d="M602 1128l59.001 -0.00390625c1.33301 -9.33301 2.16602 -19 2.49902 -29s0.5 -24.667 0.5 -44c0 -69.333 -7.83301 -126.166 -23.5 -170.499s-42.167 -86.5 -79.5 -126.5c-10 -11.333 -26.667 -27.666 -50 -48.999c-111.333 -105.333 -167 -224.333 -167 -357
c0 -99.333 21 -177 63 -233s99.667 -84 173 -84c50 0 93.167 13.167 129.5 39.5s58.5 60.833 66.5 103.5c-16.667 14 -29.334 31.5 -38.001 52.5s-13 44.5 -13 70.5c0 25.333 5 44.333 15 57s25.333 19 46 19s38.834 -10.667 54.501 -32s23.5 -47 23.5 -77
c0 -82 -30.833 -151 -92.5 -207s-139.834 -84 -234.501 -84c-105.333 0 -190.833 34.167 -256.5 102.5s-98.5 157.166 -98.5 266.499c0 62.667 10.333 118.334 31 167.001s53.334 95.334 98.001 140.001c19.333 19.333 54.5 49.5 105.5 90.5s88.167 75.167 111.5 102.5
c26.667 30 45.667 64.333 57 103s17 90.334 17 155.001v24zM631.001 1479c29.333 0 54.333 -10.665 75 -31.998s31 -47 31 -77c0 -26.667 -10.667 -50.334 -32 -71.001s-46 -31 -74 -31c-28.667 0 -53.667 10.167 -75 30.5s-32 44.166 -32 71.499
c0 31.333 10.167 57.333 30.5 78s45.833 31 76.5 31z" />
    <glyph glyph-name="Agrave" unicode="&#xc0;" horiz-adv-x="1280" 
d="M571 1190l-209 -578h404zM610 1489l42.999 0.00390625l473 -1311c17.333 -45.333 35.833 -75.333 55.5 -90s49.834 -22 90.501 -22h8v-66c-50 2.66699 -95.333 4.66699 -136 6s-74.667 2 -102 2c-40 0 -82.833 -0.666992 -128.5 -2s-92.834 -3.33301 -141.501 -6v66h10
c44.667 0 77.334 6.83301 98.001 20.5s31 35.5 31 65.5c0 10.667 -0.5 20.5 -1.5 29.5s-2.5 16.833 -4.5 23.5l-114 340h-447l-80 -223c-17.333 -48.667 -28.833 -84.334 -34.5 -107.001s-8.5 -42.334 -8.5 -59.001c0 -32.667 8.16699 -55.334 24.5 -68.001
s46.5 -20.334 90.5 -23.001v-65c-34 2.66699 -67 4.66699 -99 6s-62 2 -90 2c-22 0 -48 -0.666992 -78 -2s-62 -3.33301 -96 -6v66h11c40 0 69.5 7 88.5 21s37.167 44.333 54.5 91zM507.999 1909l275.999 -301.001h-74l-301 184
c-33.333 20.667 -55.666 37.834 -66.999 51.501s-17 29.5 -17 47.5c0 21.333 7.5 39.833 22.5 55.5s32.833 23.5 53.5 23.5c16.667 0 34.167 -5.16699 52.5 -15.5s36.5 -25.5 54.5 -45.5z" />
    <glyph glyph-name="Aacute" unicode="&#xc1;" horiz-adv-x="1280" 
d="M571 1190l-209 -578h404zM610 1489l42.999 0.00390625l473 -1311c17.333 -45.333 35.833 -75.333 55.5 -90s49.834 -22 90.501 -22h8v-66c-50 2.66699 -95.333 4.66699 -136 6s-74.667 2 -102 2c-40 0 -82.833 -0.666992 -128.5 -2s-92.834 -3.33301 -141.501 -6v66h10
c44.667 0 77.334 6.83301 98.001 20.5s31 35.5 31 65.5c0 10.667 -0.5 20.5 -1.5 29.5s-2.5 16.833 -4.5 23.5l-114 340h-447l-80 -223c-17.333 -48.667 -28.833 -84.334 -34.5 -107.001s-8.5 -42.334 -8.5 -59.001c0 -32.667 8.16699 -55.334 24.5 -68.001
s46.5 -20.334 90.5 -23.001v-65c-34 2.66699 -67 4.66699 -99 6s-62 2 -90 2c-22 0 -48 -0.666992 -78 -2s-62 -3.33301 -96 -6v66h11c40 0 69.5 7 88.5 21s37.167 44.333 54.5 91zM806.999 1792l-301.001 -183.999h-74l276 301c18 20 36.167 35.167 54.5 45.5
s35.833 15.5 52.5 15.5c20.667 0 38.5 -7.83301 53.5 -23.5s22.5 -34.167 22.5 -55.5c0 -18 -5.66699 -33.833 -17 -47.5s-33.666 -30.834 -66.999 -51.501z" />
    <glyph glyph-name="Acircumflex" unicode="&#xc2;" horiz-adv-x="1280" 
d="M571 1190l-209 -578h404zM610 1489l42.999 0.00390625l473 -1311c17.333 -45.333 35.833 -75.333 55.5 -90s49.834 -22 90.501 -22h8v-66c-50 2.66699 -95.333 4.66699 -136 6s-74.667 2 -102 2c-40 0 -82.833 -0.666992 -128.5 -2s-92.834 -3.33301 -141.501 -6v66h10
c44.667 0 77.334 6.83301 98.001 20.5s31 35.5 31 65.5c0 10.667 -0.5 20.5 -1.5 29.5s-2.5 16.833 -4.5 23.5l-114 340h-447l-80 -223c-17.333 -48.667 -28.833 -84.334 -34.5 -107.001s-8.5 -42.334 -8.5 -59.001c0 -32.667 8.16699 -55.334 24.5 -68.001
s46.5 -20.334 90.5 -23.001v-65c-34 2.66699 -67 4.66699 -99 6s-62 2 -90 2c-22 0 -48 -0.666992 -78 -2s-62 -3.33301 -96 -6v66h11c40 0 69.5 7 88.5 21s37.167 44.333 54.5 91zM546.999 1944h122l220 -338h-56l-225 199l-225 -199h-58z" />
    <glyph glyph-name="Atilde" unicode="&#xc3;" horiz-adv-x="1280" 
d="M571 1190l-209 -578h404zM610 1489l42.999 0.00390625l473 -1311c17.333 -45.333 35.833 -75.333 55.5 -90s49.834 -22 90.501 -22h8v-66c-50 2.66699 -95.333 4.66699 -136 6s-74.667 2 -102 2c-40 0 -82.833 -0.666992 -128.5 -2s-92.834 -3.33301 -141.501 -6v66h10
c44.667 0 77.334 6.83301 98.001 20.5s31 35.5 31 65.5c0 10.667 -0.5 20.5 -1.5 29.5s-2.5 16.833 -4.5 23.5l-114 340h-447l-80 -223c-17.333 -48.667 -28.833 -84.334 -34.5 -107.001s-8.5 -42.334 -8.5 -59.001c0 -32.667 8.16699 -55.334 24.5 -68.001
s46.5 -20.334 90.5 -23.001v-65c-34 2.66699 -67 4.66699 -99 6s-62 2 -90 2c-22 0 -48 -0.666992 -78 -2s-62 -3.33301 -96 -6v66h11c40 0 69.5 7 88.5 21s37.167 44.333 54.5 91zM838.999 1913h41.001c-14 -72.667 -36.333 -127.334 -67 -164.001s-69 -55 -115 -55
c-8 0 -16.167 0.5 -24.5 1.5s-17.166 2.5 -26.499 4.5l-107 27c-18.667 4 -32.334 6.66699 -41.001 8s-15.334 2 -20.001 2c-26.667 0 -48.167 -7.16699 -64.5 -21.5s-28.833 -37.166 -37.5 -68.499h-41c12.667 70 34.834 124.333 66.501 163s69.5 58 113.5 58
c8 0 17.333 -0.833008 28 -2.5s23.667 -4.16699 39 -7.5l109 -27c8.66699 -2 16.667 -3.5 24 -4.5s14.333 -1.5 21 -1.5c27.333 0 49.166 7 65.499 21s28.5 36.333 36.5 67z" />
    <glyph glyph-name="Adieresis" unicode="&#xc4;" horiz-adv-x="1280" 
d="M571 1190l-209 -578h404zM610 1489l42.999 0.00390625l473 -1311c17.333 -45.333 35.833 -75.333 55.5 -90s49.834 -22 90.501 -22h8v-66c-50 2.66699 -95.333 4.66699 -136 6s-74.667 2 -102 2c-40 0 -82.833 -0.666992 -128.5 -2s-92.834 -3.33301 -141.501 -6v66h10
c44.667 0 77.334 6.83301 98.001 20.5s31 35.5 31 65.5c0 10.667 -0.5 20.5 -1.5 29.5s-2.5 16.833 -4.5 23.5l-114 340h-447l-80 -223c-17.333 -48.667 -28.833 -84.334 -34.5 -107.001s-8.5 -42.334 -8.5 -59.001c0 -32.667 8.16699 -55.334 24.5 -68.001
s46.5 -20.334 90.5 -23.001v-65c-34 2.66699 -67 4.66699 -99 6s-62 2 -90 2c-22 0 -48 -0.666992 -78 -2s-62 -3.33301 -96 -6v66h11c40 0 69.5 7 88.5 21s37.167 44.333 54.5 91zM789.999 1884c30 0 56.333 -11.167 79 -33.5s34 -48.5 34 -78.5
c0 -32.667 -10.667 -59.667 -32 -81s-48.333 -32 -81 -32c-32 0 -58.667 10.667 -80 32s-32 48.333 -32 81c0 30 11.167 56.167 33.5 78.5s48.5 33.5 78.5 33.5zM427.999 1884c29.333 0 55 -11.167 77 -33.5s33 -48.5 33 -78.5c0 -32.667 -10.333 -59.667 -31 -81
s-47 -32 -79 -32c-33.333 0 -60.833 10.667 -82.5 32s-32.5 48.333 -32.5 81c0 30 11.5 56.167 34.5 78.5s49.833 33.5 80.5 33.5z" />
    <glyph glyph-name="Aring" unicode="&#xc5;" horiz-adv-x="1280" 
d="M571 1190l-209 -578h404zM604 1470l61.999 0.00390625l460 -1292c17.333 -45.333 35.833 -75.333 55.5 -90s49.834 -22 90.501 -22h8v-66c-50 2.66699 -95.333 4.66699 -136 6s-74.667 2 -102 2c-40 0 -82.833 -0.666992 -128.5 -2s-92.834 -3.33301 -141.501 -6v66h10
c44.667 0 77.334 6.83301 98.001 20.5s31 35.5 31 65.5c0 10.667 -0.5 20.5 -1.5 29.5s-2.5 16.833 -4.5 23.5l-114 340h-447l-80 -223c-17.333 -48.667 -28.833 -84.334 -34.5 -107.001s-8.5 -42.334 -8.5 -59.001c0 -32.667 8.16699 -55.334 24.5 -68.001
s46.5 -20.334 90.5 -23.001v-65c-34 2.66699 -67 4.66699 -99 6s-62 2 -90 2c-22 0 -48 -0.666992 -78 -2s-62 -3.33301 -96 -6v66h11c40 0 69.5 7 88.5 21s37.167 44.333 54.5 91zM636.999 1876c-34.667 0 -64.5 -12.5 -89.5 -37.5s-37.5 -54.833 -37.5 -89.5
c0 -34 12.5 -63.667 37.5 -89s54.833 -38 89.5 -38s64.5 12.5 89.5 37.5s37.5 54.833 37.5 89.5c0 35.333 -12.333 65.333 -37 90s-54.667 37 -90 37zM636.999 1972c62 0 114.667 -21.667 158 -65s65 -96 65 -158c0 -61.333 -21.667 -113.5 -65 -156.5s-96 -64.5 -158 -64.5
c-62.667 0 -115.5 21.333 -158.5 64s-64.5 95 -64.5 157s21.667 114.667 65 158s96 65 158 65z" />
    <glyph glyph-name="AE" unicode="&#xc6;" horiz-adv-x="1933" 
d="M850 1395l-434 -774h434v774zM1726 1477c2.66699 -64 5.66602 -127.832 8.99902 -191.499s7.33301 -128.167 12 -193.5h-51c-13.333 124 -44.166 206.833 -92.499 248.5s-143.833 62.5 -286.5 62.5h-279v-594h125c97.333 0 158.333 14.333 183 43
s39.667 91.334 45 188.001h49c-2 -66.667 -3.5 -123.5 -4.5 -170.5s-1.5 -83.5 -1.5 -109.5c0 -34.667 0.5 -76.167 1.5 -124.5l3.5 -168.5h-48c-5.33301 118.667 -20.5 194.334 -45.5 227.001s-85.833 49 -182.5 49h-125v-677h367c142 0 238.333 24 289 72
s82 141.333 94 280h51c-8.66699 -87.333 -15.667 -164.333 -21 -231s-9.33301 -129 -12 -187h-1122v66c72 0 117.667 9.16699 137 27.5s29 64.833 29 139.5v322h-471l-158 -285c-16 -28 -28.5 -53.667 -37.5 -77s-13.5 -41.333 -13.5 -54c0 -25.333 8.66699 -43.333 26 -54
s50.333 -17.334 99 -20.001v-65h-381v66h4c60 0 118 48.333 174 145l8 14l584 1024c10 17.333 17.667 33.666 23 48.999s8 29.666 8 42.999c0 21.333 -8.16699 37 -24.5 47s-42.5 15 -78.5 15h-43h-41v67c290.667 0 536 0.666992 736 2s354 3 462 5z" />
    <glyph glyph-name="Ccedilla" unicode="&#xc7;" horiz-adv-x="1450" 
d="M1249 1288l22.999 102.999h49v-7c-5.33301 -116 -8 -201.333 -8 -256c0 -15.333 0.666992 -51 2 -107c0.666992 -36 1.33398 -65 2.00098 -87h-51c-13.333 152.667 -62.333 272.334 -147 359.001s-194 130 -328 130c-154 0 -272.167 -57.667 -354.5 -173
s-123.5 -280.666 -123.5 -495.999c0 -218.667 45.833 -388.5 137.5 -509.5s219.5 -181.5 383.5 -181.5c110.667 0 204.5 28.833 281.5 86.5s131.833 140.167 164.5 247.5h57c-31.333 -134 -94.5 -236.667 -189.5 -308s-216.167 -107 -363.5 -107
c-206.667 0 -373.334 68.333 -500.001 205s-190 316.667 -190 540c0 225.333 64 408.666 192 549.999s294 212 498 212c94 0 180.333 -17 259 -51s147.334 -84 206.001 -150zM708.999 1.99902l47.0029 0.000976562v-114c17.333 2 32 3.33301 44 4s22.667 1.33398 32 2.00098
c52 0 93.667 -14.833 125 -44.5s47 -68.834 47 -117.501c0 -54.667 -19.167 -97 -57.5 -127s-91.5 -45 -159.5 -45c-43.333 0 -89.666 6.66699 -138.999 20s-98 32.666 -146 57.999l31 71c39.333 -23.333 78.666 -41.5 117.999 -54.5s75.666 -19.5 108.999 -19.5
c39.333 0 69 8.16699 89 24.5s30 40.5 30 72.5c0 28.667 -9.83301 51.167 -29.5 67.5s-46.834 24.5 -81.501 24.5c-7.33301 0 -22.333 -1 -45 -3c-6.66699 -0.666992 -11.334 -1 -14.001 -1v182z" />
    <glyph glyph-name="Egrave" unicode="&#xc8;" horiz-adv-x="1407" 
d="M1200 1476c2.66699 -64 5.66406 -127.668 8.99707 -191.001s7.33301 -127.666 12 -192.999h-52c-13.333 124 -44 206.833 -92 248.5s-143.333 62.5 -286 62.5h-318v-594h160c96.667 0 157.5 14.333 182.5 43s39.833 91.334 44.5 188.001h49
c-2 -67.333 -3.5 -124.5 -4.5 -171.5s-1.5 -83.167 -1.5 -108.5c0 -34 0.5 -75.167 1.5 -123.5s2.5 -104.833 4.5 -169.5h-48c-5.33301 118 -20.666 193.5 -45.999 226.5s-86 49.5 -182 49.5h-160v-677h406c142 0 238.333 24 289 72s82 141.333 94 280h51
c-9.33301 -87.333 -16.5 -164.333 -21.5 -231s-8.83301 -129 -11.5 -187h-1161v66c72 0 117.667 9.16699 137 27.5s29 64.833 29 139.5v1004c0 75.333 -9.33301 121.5 -28 138.5s-64.667 26.167 -138 27.5v67c222.667 0 424.334 0.666992 605.001 2
s339.334 2.66602 476.001 3.99902zM604.997 1909l275.999 -301.001h-74l-301 184c-33.333 20.667 -55.666 37.834 -66.999 51.501s-17 29.5 -17 47.5c0 21.333 7.5 39.833 22.5 55.5s32.833 23.5 53.5 23.5c16.667 0 34.167 -5.16699 52.5 -15.5s36.5 -25.5 54.5 -45.5z" />
    <glyph glyph-name="Eacute" unicode="&#xc9;" horiz-adv-x="1407" 
d="M1200 1476c2.66699 -64 5.66406 -127.668 8.99707 -191.001s7.33301 -127.666 12 -192.999h-52c-13.333 124 -44 206.833 -92 248.5s-143.333 62.5 -286 62.5h-318v-594h160c96.667 0 157.5 14.333 182.5 43s39.833 91.334 44.5 188.001h49
c-2 -67.333 -3.5 -124.5 -4.5 -171.5s-1.5 -83.167 -1.5 -108.5c0 -34 0.5 -75.167 1.5 -123.5s2.5 -104.833 4.5 -169.5h-48c-5.33301 118 -20.666 193.5 -45.999 226.5s-86 49.5 -182 49.5h-160v-677h406c142 0 238.333 24 289 72s82 141.333 94 280h51
c-9.33301 -87.333 -16.5 -164.333 -21.5 -231s-8.83301 -129 -11.5 -187h-1161v66c72 0 117.667 9.16699 137 27.5s29 64.833 29 139.5v1004c0 75.333 -9.33301 121.5 -28 138.5s-64.667 26.167 -138 27.5v67c222.667 0 424.334 0.666992 605.001 2
s339.334 2.66602 476.001 3.99902zM903.997 1792l-301.001 -183.999h-74l276 301c18 20 36.167 35.167 54.5 45.5s35.833 15.5 52.5 15.5c20.667 0 38.5 -7.83301 53.5 -23.5s22.5 -34.167 22.5 -55.5c0 -18 -5.66699 -33.833 -17 -47.5s-33.666 -30.834 -66.999 -51.501z
" />
    <glyph glyph-name="Ecircumflex" unicode="&#xca;" horiz-adv-x="1407" 
d="M1200 1476c2.66699 -64 5.66406 -127.668 8.99707 -191.001s7.33301 -127.666 12 -192.999h-52c-13.333 124 -44 206.833 -92 248.5s-143.333 62.5 -286 62.5h-318v-594h160c96.667 0 157.5 14.333 182.5 43s39.833 91.334 44.5 188.001h49
c-2 -67.333 -3.5 -124.5 -4.5 -171.5s-1.5 -83.167 -1.5 -108.5c0 -34 0.5 -75.167 1.5 -123.5s2.5 -104.833 4.5 -169.5h-48c-5.33301 118 -20.666 193.5 -45.999 226.5s-86 49.5 -182 49.5h-160v-677h406c142 0 238.333 24 289 72s82 141.333 94 280h51
c-9.33301 -87.333 -16.5 -164.333 -21.5 -231s-8.83301 -129 -11.5 -187h-1161v66c72 0 117.667 9.16699 137 27.5s29 64.833 29 139.5v1004c0 75.333 -9.33301 121.5 -28 138.5s-64.667 26.167 -138 27.5v67c222.667 0 424.334 0.666992 605.001 2
s339.334 2.66602 476.001 3.99902zM643.997 1944h122l220 -338h-56l-225 199l-225 -199h-58z" />
    <glyph glyph-name="Edieresis" unicode="&#xcb;" horiz-adv-x="1407" 
d="M1200 1476c2.66699 -64 5.66406 -127.668 8.99707 -191.001s7.33301 -127.666 12 -192.999h-52c-13.333 124 -44 206.833 -92 248.5s-143.333 62.5 -286 62.5h-318v-594h160c96.667 0 157.5 14.333 182.5 43s39.833 91.334 44.5 188.001h49
c-2 -67.333 -3.5 -124.5 -4.5 -171.5s-1.5 -83.167 -1.5 -108.5c0 -34 0.5 -75.167 1.5 -123.5s2.5 -104.833 4.5 -169.5h-48c-5.33301 118 -20.666 193.5 -45.999 226.5s-86 49.5 -182 49.5h-160v-677h406c142 0 238.333 24 289 72s82 141.333 94 280h51
c-9.33301 -87.333 -16.5 -164.333 -21.5 -231s-8.83301 -129 -11.5 -187h-1161v66c72 0 117.667 9.16699 137 27.5s29 64.833 29 139.5v1004c0 75.333 -9.33301 121.5 -28 138.5s-64.667 26.167 -138 27.5v67c222.667 0 424.334 0.666992 605.001 2
s339.334 2.66602 476.001 3.99902zM886.997 1884c30 0 56.333 -11.167 79 -33.5s34 -48.5 34 -78.5c0 -32.667 -10.667 -59.667 -32 -81s-48.333 -32 -81 -32c-32 0 -58.667 10.667 -80 32s-32 48.333 -32 81c0 30 11.167 56.167 33.5 78.5s48.5 33.5 78.5 33.5z
M524.997 1884c29.333 0 55 -11.167 77 -33.5s33 -48.5 33 -78.5c0 -32.667 -10.333 -59.667 -31 -81s-47 -32 -79 -32c-33.333 0 -60.833 10.667 -82.5 32s-32.5 48.333 -32.5 81c0 30 11.5 56.167 34.5 78.5s49.833 33.5 80.5 33.5z" />
    <glyph glyph-name="Igrave" unicode="&#xcc;" horiz-adv-x="758" 
d="M109 1470l165.502 -7.5c38.333 -1.66699 69.833 -2.5 94.5 -2.5c30.667 0 68 0.833008 112 2.5s100 4.16699 168 7.5v-67c-78.667 0 -127.667 -9 -147 -27s-29 -64.333 -29 -139v-1004c0 -77.333 9.83301 -124.5 29.5 -141.5s68.5 -25.5 146.5 -25.5v-66
c-90 4.66699 -150.833 7.5 -182.5 8.5s-56.834 1.5 -75.501 1.5c-26.667 0 -61.334 -0.666992 -104.001 -2s-102 -4 -178 -8v66c77.333 0 126 9 146 27s30 64.667 30 140v1004c0 76.667 -9.66699 123.5 -29 140.5s-68.333 25.5 -147 25.5v67zM279.002 1909l275.999 -301.001
h-74l-301 184c-33.333 20.667 -55.666 37.834 -66.999 51.501s-17 29.5 -17 47.5c0 21.333 7.5 39.833 22.5 55.5s32.833 23.5 53.5 23.5c16.667 0 34.167 -5.16699 52.5 -15.5s36.5 -25.5 54.5 -45.5z" />
    <glyph glyph-name="Iacute" unicode="&#xcd;" horiz-adv-x="758" 
d="M109 1470l165.502 -7.5c38.333 -1.66699 69.833 -2.5 94.5 -2.5c30.667 0 68 0.833008 112 2.5s100 4.16699 168 7.5v-67c-78.667 0 -127.667 -9 -147 -27s-29 -64.333 -29 -139v-1004c0 -77.333 9.83301 -124.5 29.5 -141.5s68.5 -25.5 146.5 -25.5v-66
c-90 4.66699 -150.833 7.5 -182.5 8.5s-56.834 1.5 -75.501 1.5c-26.667 0 -61.334 -0.666992 -104.001 -2s-102 -4 -178 -8v66c77.333 0 126 9 146 27s30 64.667 30 140v1004c0 76.667 -9.66699 123.5 -29 140.5s-68.333 25.5 -147 25.5v67zM578.002 1792
l-301.001 -183.999h-74l276 301c18 20 36.167 35.167 54.5 45.5s35.833 15.5 52.5 15.5c20.667 0 38.5 -7.83301 53.5 -23.5s22.5 -34.167 22.5 -55.5c0 -18 -5.66699 -33.833 -17 -47.5s-33.666 -30.834 -66.999 -51.501z" />
    <glyph glyph-name="Icircumflex" unicode="&#xce;" horiz-adv-x="758" 
d="M109 1470l165.502 -7.5c38.333 -1.66699 69.833 -2.5 94.5 -2.5c30.667 0 68 0.833008 112 2.5s100 4.16699 168 7.5v-67c-78.667 0 -127.667 -9 -147 -27s-29 -64.333 -29 -139v-1004c0 -77.333 9.83301 -124.5 29.5 -141.5s68.5 -25.5 146.5 -25.5v-66
c-90 4.66699 -150.833 7.5 -182.5 8.5s-56.834 1.5 -75.501 1.5c-26.667 0 -61.334 -0.666992 -104.001 -2s-102 -4 -178 -8v66c77.333 0 126 9 146 27s30 64.667 30 140v1004c0 76.667 -9.66699 123.5 -29 140.5s-68.333 25.5 -147 25.5v67zM318.002 1944h122l220 -338h-56
l-225 199l-225 -199h-58z" />
    <glyph glyph-name="Idieresis" unicode="&#xcf;" horiz-adv-x="758" 
d="M109 1470l165.502 -7.5c38.333 -1.66699 69.833 -2.5 94.5 -2.5c30.667 0 68 0.833008 112 2.5s100 4.16699 168 7.5v-67c-78.667 0 -127.667 -9 -147 -27s-29 -64.333 -29 -139v-1004c0 -77.333 9.83301 -124.5 29.5 -141.5s68.5 -25.5 146.5 -25.5v-66
c-90 4.66699 -150.833 7.5 -182.5 8.5s-56.834 1.5 -75.501 1.5c-26.667 0 -61.334 -0.666992 -104.001 -2s-102 -4 -178 -8v66c77.333 0 126 9 146 27s30 64.667 30 140v1004c0 76.667 -9.66699 123.5 -29 140.5s-68.333 25.5 -147 25.5v67zM561.002 1884
c30 0 56.333 -11.167 79 -33.5s34 -48.5 34 -78.5c0 -32.667 -10.667 -59.667 -32 -81s-48.333 -32 -81 -32c-32 0 -58.667 10.667 -80 32s-32 48.333 -32 81c0 30 11.167 56.167 33.5 78.5s48.5 33.5 78.5 33.5zM199.002 1884c29.333 0 55 -11.167 77 -33.5
s33 -48.5 33 -78.5c0 -32.667 -10.333 -59.667 -31 -81s-47 -32 -79 -32c-33.333 0 -60.833 10.667 -82.5 32s-32.5 48.333 -32.5 81c0 30 11.5 56.167 34.5 78.5s49.833 33.5 80.5 33.5z" />
    <glyph glyph-name="Eth" unicode="&#xd0;" horiz-adv-x="1579" 
d="M483 1403l0.00292969 -588.001h398v-72h-398v-677h162c95.333 0 169.166 5 221.499 15s99.5 26.667 141.5 50c85.333 47.333 149.666 122 192.999 224s65 229.333 65 382c0 135.333 -17.333 249.833 -52 343.5s-86.334 166.834 -155.001 219.501
c-48 37.333 -104.167 63.833 -168.5 79.5s-155.833 23.5 -274.5 23.5h-133zM127.003 1470c4 0 10.001 -0.333008 18.001 -1s13.667 -1 17 -1h24c55.333 -2.66699 107.333 -4 156 -4c44 0 101 1 171 3s118.667 3 146 3c264 0 467.667 -64.167 611 -192.5
s215 -310.5 215 -546.5c0 -236.667 -67.667 -417.667 -203 -543s-331.333 -188 -588 -188c-35.333 0 -94 0.666992 -176 2s-146 2 -192 2c-60 0 -103 -0.333008 -129 -1s-49.333 -1.66699 -70 -3v66c73.333 0 119.666 9.33301 138.999 28s29 65 29 139v510h-295v72h295v422
c0 74 -9.5 119.833 -28.5 137.5s-65.5 27.167 -139.5 28.5v67z" />
    <glyph glyph-name="Ntilde" unicode="&#xd1;" horiz-adv-x="1612" 
d="M68 1470c46.667 -3.33301 87.6699 -5.83301 123.003 -7.5s66.666 -2.5 93.999 -2.5c15.333 0 35.333 0.666992 60 2s65.334 4 122.001 8l829 -1114v820c0 104 -11.833 167.833 -35.5 191.5s-75.167 35.5 -154.5 35.5h-12v67
c53.333 -3.33301 100.166 -5.83301 140.499 -7.5s76.5 -2.5 108.5 -2.5c20.667 0 45.834 0.833008 75.501 2.5s71.5 4.16699 125.5 7.5v-67c-71.333 -2 -117.833 -13.167 -139.5 -33.5s-32.5 -80.166 -32.5 -179.499v-12v-1188l-49 10l-983 1323v-1030
c0 -110.667 11.667 -176.167 35 -196.5s78.666 -30.5 165.999 -30.5l-1 -66c-62 4 -111.833 6.66699 -149.5 8s-70.167 2 -97.5 2c-18.667 0 -43.334 -0.666992 -74.001 -2s-77.667 -4 -141 -8v65c79.333 1.33301 130.166 12.666 152.499 33.999s33.5 85.333 33.5 192v946
c0 75.333 -10 121.833 -30 139.5s-68 26.5 -144 26.5h-22v67zM1038 1913h41.001c-14 -72.667 -36.333 -127.334 -67 -164.001s-69 -55 -115 -55c-8 0 -16.167 0.5 -24.5 1.5s-17.166 2.5 -26.499 4.5l-107 27c-18.667 4 -32.334 6.66699 -41.001 8s-15.334 2 -20.001 2
c-26.667 0 -48.167 -7.16699 -64.5 -21.5s-28.833 -37.166 -37.5 -68.499h-41c12.667 70 34.834 124.333 66.501 163s69.5 58 113.5 58c8 0 17.333 -0.833008 28 -2.5s23.667 -4.16699 39 -7.5l109 -27c8.66699 -2 16.667 -3.5 24 -4.5s14.333 -1.5 21 -1.5
c27.333 0 49.166 7 65.499 21s28.5 36.333 36.5 67z" />
    <glyph glyph-name="Ograve" unicode="&#xd2;" horiz-adv-x="1579" 
d="M780 1421c-142.667 0 -257.168 -62 -343.501 -186s-129.5 -290.667 -129.5 -500c0 -213.333 43.167 -381.333 129.5 -504s203.5 -184 351.5 -184c148.667 0 266.5 61.667 353.5 185s130.5 291 130.5 503c0 214.667 -43.667 382.667 -131 504s-207.666 182 -360.999 182z
M796.999 1489c209.333 0 376.334 -68.167 501.001 -204.5s187 -319.5 187 -549.5c0 -220 -66.833 -400.5 -200.5 -541.5s-303.834 -211.5 -510.501 -211.5c-202.667 0 -366.667 67.5 -492 202.5s-188 312.5 -188 532.5c0 228 65.667 413.667 197 557s300 215 506 215z
M691 1909l275.999 -301.001h-74l-301 184c-33.333 20.667 -55.666 37.834 -66.999 51.501s-17 29.5 -17 47.5c0 21.333 7.5 39.833 22.5 55.5s32.833 23.5 53.5 23.5c16.667 0 34.167 -5.16699 52.5 -15.5s36.5 -25.5 54.5 -45.5z" />
    <glyph glyph-name="Oacute" unicode="&#xd3;" horiz-adv-x="1579" 
d="M780 1421c-142.667 0 -257.168 -62 -343.501 -186s-129.5 -290.667 -129.5 -500c0 -213.333 43.167 -381.333 129.5 -504s203.5 -184 351.5 -184c148.667 0 266.5 61.667 353.5 185s130.5 291 130.5 503c0 214.667 -43.667 382.667 -131 504s-207.666 182 -360.999 182z
M796.999 1489c209.333 0 376.334 -68.167 501.001 -204.5s187 -319.5 187 -549.5c0 -220 -66.833 -400.5 -200.5 -541.5s-303.834 -211.5 -510.501 -211.5c-202.667 0 -366.667 67.5 -492 202.5s-188 312.5 -188 532.5c0 228 65.667 413.667 197 557s300 215 506 215z
M990 1792l-301.001 -183.999h-74l276 301c18 20 36.167 35.167 54.5 45.5s35.833 15.5 52.5 15.5c20.667 0 38.5 -7.83301 53.5 -23.5s22.5 -34.167 22.5 -55.5c0 -18 -5.66699 -33.833 -17 -47.5s-33.666 -30.834 -66.999 -51.501z" />
    <glyph glyph-name="Ocircumflex" unicode="&#xd4;" horiz-adv-x="1579" 
d="M780 1421c-142.667 0 -257.168 -62 -343.501 -186s-129.5 -290.667 -129.5 -500c0 -213.333 43.167 -381.333 129.5 -504s203.5 -184 351.5 -184c148.667 0 266.5 61.667 353.5 185s130.5 291 130.5 503c0 214.667 -43.667 382.667 -131 504s-207.666 182 -360.999 182z
M796.999 1489c209.333 0 376.334 -68.167 501.001 -204.5s187 -319.5 187 -549.5c0 -220 -66.833 -400.5 -200.5 -541.5s-303.834 -211.5 -510.501 -211.5c-202.667 0 -366.667 67.5 -492 202.5s-188 312.5 -188 532.5c0 228 65.667 413.667 197 557s300 215 506 215z
M730 1944h122l220 -338h-56l-225 199l-225 -199h-58z" />
    <glyph glyph-name="Otilde" unicode="&#xd5;" horiz-adv-x="1579" 
d="M780 1421c-142.667 0 -257.168 -62 -343.501 -186s-129.5 -290.667 -129.5 -500c0 -213.333 43.167 -381.333 129.5 -504s203.5 -184 351.5 -184c148.667 0 266.5 61.667 353.5 185s130.5 291 130.5 503c0 214.667 -43.667 382.667 -131 504s-207.666 182 -360.999 182z
M796.999 1489c209.333 0 376.334 -68.167 501.001 -204.5s187 -319.5 187 -549.5c0 -220 -66.833 -400.5 -200.5 -541.5s-303.834 -211.5 -510.501 -211.5c-202.667 0 -366.667 67.5 -492 202.5s-188 312.5 -188 532.5c0 228 65.667 413.667 197 557s300 215 506 215z
M1022 1913h41.001c-14 -72.667 -36.333 -127.334 -67 -164.001s-69 -55 -115 -55c-8 0 -16.167 0.5 -24.5 1.5s-17.166 2.5 -26.499 4.5l-107 27c-18.667 4 -32.334 6.66699 -41.001 8s-15.334 2 -20.001 2c-26.667 0 -48.167 -7.16699 -64.5 -21.5
s-28.833 -37.166 -37.5 -68.499h-41c12.667 70 34.834 124.333 66.501 163s69.5 58 113.5 58c8 0 17.333 -0.833008 28 -2.5s23.667 -4.16699 39 -7.5l109 -27c8.66699 -2 16.667 -3.5 24 -4.5s14.333 -1.5 21 -1.5c27.333 0 49.166 7 65.499 21s28.5 36.333 36.5 67z" />
    <glyph glyph-name="Odieresis" unicode="&#xd6;" horiz-adv-x="1579" 
d="M780 1421c-142.667 0 -257.168 -62 -343.501 -186s-129.5 -290.667 -129.5 -500c0 -213.333 43.167 -381.333 129.5 -504s203.5 -184 351.5 -184c148.667 0 266.5 61.667 353.5 185s130.5 291 130.5 503c0 214.667 -43.667 382.667 -131 504s-207.666 182 -360.999 182z
M796.999 1489c209.333 0 376.334 -68.167 501.001 -204.5s187 -319.5 187 -549.5c0 -220 -66.833 -400.5 -200.5 -541.5s-303.834 -211.5 -510.501 -211.5c-202.667 0 -366.667 67.5 -492 202.5s-188 312.5 -188 532.5c0 228 65.667 413.667 197 557s300 215 506 215z
M973 1884c30 0 56.333 -11.167 79 -33.5s34 -48.5 34 -78.5c0 -32.667 -10.667 -59.667 -32 -81s-48.333 -32 -81 -32c-32 0 -58.667 10.667 -80 32s-32 48.333 -32 81c0 30 11.167 56.167 33.5 78.5s48.5 33.5 78.5 33.5zM611 1884c29.333 0 55 -11.167 77 -33.5
s33 -48.5 33 -78.5c0 -32.667 -10.333 -59.667 -31 -81s-47 -32 -79 -32c-33.333 0 -60.833 10.667 -82.5 32s-32.5 48.333 -32.5 81c0 30 11.5 56.167 34.5 78.5s49.833 33.5 80.5 33.5z" />
    <glyph glyph-name="multiply" unicode="&#xd7;" horiz-adv-x="1706" 
d="M381 1169l477 -477l475 477l82 -82l-475 -477l475 -475l-82 -82l-475 475l-477 -475l-80 82l475 475l-475 477z" />
    <glyph glyph-name="Oslash" unicode="&#xd8;" horiz-adv-x="1579" 
d="M1161 1204l-704.001 -998.999c40 -53.333 87 -93.333 141 -120s114.667 -40 182 -40c150 0 269.5 62.167 358.5 186.5s133.5 292.166 133.5 503.499c0 103.333 -9.16699 193.5 -27.5 270.5s-46.166 143.167 -83.499 198.5zM1108 1278
c-35.333 46.667 -79.832 82.501 -133.499 107.501s-112.834 37.5 -177.501 37.5c-150 0 -269.167 -61.833 -357.5 -185.5s-132.5 -291.167 -132.5 -502.5c0 -96.667 8.66699 -183.334 26 -260.001s43 -142 77 -196zM1311 1565l100 -0.000976562l-164 -234
c78.667 -67.333 138 -151 178 -251s60 -215 60 -345c0 -219.333 -66.333 -399.666 -199 -540.999s-300.667 -212 -504 -212c-77.333 0 -148.166 9.16699 -212.499 27.5s-126.5 47.166 -186.5 86.499l-180 -258h-103l219 309c-74.667 70 -130.834 153.333 -168.501 250
s-56.5 205.334 -56.5 326.001c0 225.333 65.833 409.333 197.5 552s300.167 214 505.5 214c76 0 146.333 -9.16699 211 -27.5s122 -45.5 172 -81.5z" />
    <glyph glyph-name="Ugrave" unicode="&#xd9;" horiz-adv-x="1630" 
d="M1368 666c0 -131.333 -3 -223.501 -9 -276.501s-16 -98.167 -30 -135.5c-34 -92.667 -92.333 -161.167 -175 -205.5s-193.667 -66.5 -333 -66.5c-115.333 0 -213 14.5 -293 43.5s-140 71.833 -180 128.5c-27.333 39.333 -46.833 84.333 -58.5 135
s-17.5 128.334 -17.5 233.001v45v670c0 75.333 -9.16699 121.5 -27.5 138.5s-64.166 26.167 -137.499 27.5l-1 67l160 -7.5c37.333 -1.66699 68 -2.5 92 -2.5c30 0 66.167 0.833008 108.5 2.5s96.5 4.16699 162.5 7.5v-67c-73.333 0 -119.333 -9.33301 -138 -28
s-28 -64.667 -28 -138v-662c0 -194 30.667 -325.667 92 -395s168.666 -104 321.999 -104c152 0 258.167 37.167 318.5 111.5s90.5 212.5 90.5 414.5v569c0 108.667 -10.333 174.5 -31 197.5s-65.667 34.5 -135 34.5v67c52 -3.33301 95.167 -5.83301 129.5 -7.5
s63.5 -2.5 87.5 -2.5c18 0 40.833 0.666992 68.5 2s70.5 4 128.5 8v-67c-69.333 0 -114.333 -11.5 -135 -34.5s-31 -88.833 -31 -197.5v-505zM766 1909l275.999 -301.001h-74l-301 184c-33.333 20.667 -55.666 37.834 -66.999 51.501s-17 29.5 -17 47.5
c0 21.333 7.5 39.833 22.5 55.5s32.833 23.5 53.5 23.5c16.667 0 34.167 -5.16699 52.5 -15.5s36.5 -25.5 54.5 -45.5z" />
    <glyph glyph-name="Uacute" unicode="&#xda;" horiz-adv-x="1630" 
d="M1368 666c0 -131.333 -3 -223.501 -9 -276.501s-16 -98.167 -30 -135.5c-34 -92.667 -92.333 -161.167 -175 -205.5s-193.667 -66.5 -333 -66.5c-115.333 0 -213 14.5 -293 43.5s-140 71.833 -180 128.5c-27.333 39.333 -46.833 84.333 -58.5 135
s-17.5 128.334 -17.5 233.001v45v670c0 75.333 -9.16699 121.5 -27.5 138.5s-64.166 26.167 -137.499 27.5l-1 67l160 -7.5c37.333 -1.66699 68 -2.5 92 -2.5c30 0 66.167 0.833008 108.5 2.5s96.5 4.16699 162.5 7.5v-67c-73.333 0 -119.333 -9.33301 -138 -28
s-28 -64.667 -28 -138v-662c0 -194 30.667 -325.667 92 -395s168.666 -104 321.999 -104c152 0 258.167 37.167 318.5 111.5s90.5 212.5 90.5 414.5v569c0 108.667 -10.333 174.5 -31 197.5s-65.667 34.5 -135 34.5v67c52 -3.33301 95.167 -5.83301 129.5 -7.5
s63.5 -2.5 87.5 -2.5c18 0 40.833 0.666992 68.5 2s70.5 4 128.5 8v-67c-69.333 0 -114.333 -11.5 -135 -34.5s-31 -88.833 -31 -197.5v-505zM1065 1792l-301.001 -183.999h-74l276 301c18 20 36.167 35.167 54.5 45.5s35.833 15.5 52.5 15.5
c20.667 0 38.5 -7.83301 53.5 -23.5s22.5 -34.167 22.5 -55.5c0 -18 -5.66699 -33.833 -17 -47.5s-33.666 -30.834 -66.999 -51.501z" />
    <glyph glyph-name="Ucircumflex" unicode="&#xdb;" horiz-adv-x="1630" 
d="M1368 666c0 -131.333 -3 -223.501 -9 -276.501s-16 -98.167 -30 -135.5c-34 -92.667 -92.333 -161.167 -175 -205.5s-193.667 -66.5 -333 -66.5c-115.333 0 -213 14.5 -293 43.5s-140 71.833 -180 128.5c-27.333 39.333 -46.833 84.333 -58.5 135
s-17.5 128.334 -17.5 233.001v45v670c0 75.333 -9.16699 121.5 -27.5 138.5s-64.166 26.167 -137.499 27.5l-1 67l160 -7.5c37.333 -1.66699 68 -2.5 92 -2.5c30 0 66.167 0.833008 108.5 2.5s96.5 4.16699 162.5 7.5v-67c-73.333 0 -119.333 -9.33301 -138 -28
s-28 -64.667 -28 -138v-662c0 -194 30.667 -325.667 92 -395s168.666 -104 321.999 -104c152 0 258.167 37.167 318.5 111.5s90.5 212.5 90.5 414.5v569c0 108.667 -10.333 174.5 -31 197.5s-65.667 34.5 -135 34.5v67c52 -3.33301 95.167 -5.83301 129.5 -7.5
s63.5 -2.5 87.5 -2.5c18 0 40.833 0.666992 68.5 2s70.5 4 128.5 8v-67c-69.333 0 -114.333 -11.5 -135 -34.5s-31 -88.833 -31 -197.5v-505zM805 1944h122l220 -338h-56l-225 199l-225 -199h-58z" />
    <glyph glyph-name="Udieresis" unicode="&#xdc;" horiz-adv-x="1630" 
d="M1368 666c0 -131.333 -3 -223.501 -9 -276.501s-16 -98.167 -30 -135.5c-34 -92.667 -92.333 -161.167 -175 -205.5s-193.667 -66.5 -333 -66.5c-115.333 0 -213 14.5 -293 43.5s-140 71.833 -180 128.5c-27.333 39.333 -46.833 84.333 -58.5 135
s-17.5 128.334 -17.5 233.001v45v670c0 75.333 -9.16699 121.5 -27.5 138.5s-64.166 26.167 -137.499 27.5l-1 67l160 -7.5c37.333 -1.66699 68 -2.5 92 -2.5c30 0 66.167 0.833008 108.5 2.5s96.5 4.16699 162.5 7.5v-67c-73.333 0 -119.333 -9.33301 -138 -28
s-28 -64.667 -28 -138v-662c0 -194 30.667 -325.667 92 -395s168.666 -104 321.999 -104c152 0 258.167 37.167 318.5 111.5s90.5 212.5 90.5 414.5v569c0 108.667 -10.333 174.5 -31 197.5s-65.667 34.5 -135 34.5v67c52 -3.33301 95.167 -5.83301 129.5 -7.5
s63.5 -2.5 87.5 -2.5c18 0 40.833 0.666992 68.5 2s70.5 4 128.5 8v-67c-69.333 0 -114.333 -11.5 -135 -34.5s-31 -88.833 -31 -197.5v-505zM1048 1884c30 0 56.333 -11.167 79 -33.5s34 -48.5 34 -78.5c0 -32.667 -10.667 -59.667 -32 -81s-48.333 -32 -81 -32
c-32 0 -58.667 10.667 -80 32s-32 48.333 -32 81c0 30 11.167 56.167 33.5 78.5s48.5 33.5 78.5 33.5zM686 1884c29.333 0 55 -11.167 77 -33.5s33 -48.5 33 -78.5c0 -32.667 -10.333 -59.667 -31 -81s-47 -32 -79 -32c-33.333 0 -60.833 10.667 -82.5 32
s-32.5 48.333 -32.5 81c0 30 11.5 56.167 34.5 78.5s49.833 33.5 80.5 33.5z" />
    <glyph glyph-name="Yacute" unicode="&#xdd;" horiz-adv-x="1210" 
d="M-16 1470l150.499 -7.49902c34.333 -1.66699 62.5 -2.5 84.5 -2.5c34.667 0 73.167 0.833008 115.5 2.5s93.166 4.16699 152.499 7.5v-67c-45.333 0 -77 -4.66699 -95 -14s-27 -25.333 -27 -48c0 -6.66699 0.666992 -12.667 2 -18s3.33301 -10.333 6 -15l305 -542
l252 469c12 21.333 20.833 40.166 26.5 56.499s8.5 30.833 8.5 43.5c0 25.333 -9.16699 43 -27.5 53s-52.833 15 -103.5 15v67c46 -3.33301 84 -5.83301 114 -7.5s55.333 -2.5 76 -2.5s45.5 0.833008 74.5 2.5s66.167 4.16699 111.5 7.5v-67
c-43.333 -4 -74.166 -11 -92.499 -21s-35.833 -30.333 -52.5 -61l-352 -631v-457c0 -76 9.66699 -122.833 29 -140.5s66.333 -26.5 141 -26.5h24v-66c-82 4 -142.667 6.66699 -182 8s-70.666 2 -93.999 2c-28.667 0 -65.667 -0.666992 -111 -2s-108.666 -4 -189.999 -8v66
h24c74.667 0 121.667 9.16699 141 27.5s29 64.833 29 139.5v437l-352 600v0c-50.667 88.667 -111.334 133 -182.001 133h-6v67zM804.999 1792l-301.001 -183.999h-74l276 301c18 20 36.167 35.167 54.5 45.5s35.833 15.5 52.5 15.5c20.667 0 38.5 -7.83301 53.5 -23.5
s22.5 -34.167 22.5 -55.5c0 -18 -5.66699 -33.833 -17 -47.5s-33.666 -30.834 -66.999 -51.501z" />
    <glyph glyph-name="Thorn" unicode="&#xde;" horiz-adv-x="1247" 
d="M473 420c26 -0.666992 52.334 -1.83203 79.001 -3.49902s40.667 -2.5 42 -2.5c140 0 240.167 27.333 300.5 82s90.5 144 90.5 268c0 117.333 -29.5 202.666 -88.5 255.999s-154.5 80 -286.5 80c-42.667 0 -72.834 -0.333008 -90.501 -1s-33.167 -2 -46.5 -4v-675z
M119.001 1470l168.501 -7.50098c37.667 -1.66699 68.167 -2.5 91.5 -2.5c26.667 0 60.5 0.833008 101.5 2.5s97.167 4.16699 168.5 7.5v-67c-78.667 0 -127.667 -9 -147 -27s-29 -64.333 -29 -139v-73c16 0 33.667 0.166992 53 0.5s47.333 0.5 84 0.5
c196.667 0 341.167 -32.167 433.5 -96.5s138.5 -165.166 138.5 -302.499c0 -143.333 -43.333 -249.5 -130 -318.5s-220.334 -103.5 -401.001 -103.5c-24 0 -51.167 0.666992 -81.5 2s-62.5 3.33301 -96.5 6v-119c0 -75.333 10 -122 30 -140s68.667 -27 146 -27h27v-66
c-81.333 4 -142.666 6.66699 -183.999 8s-75 2 -101 2c-25.333 0 -57.833 -0.666992 -97.5 -2s-97.834 -4 -174.501 -8v66c72 0 117.667 9.16699 137 27.5s29 64.833 29 139.5v1004c0 75.333 -9.33301 121.5 -28 138.5s-64.667 26.167 -138 27.5v67z" />
    <glyph glyph-name="germandbls" unicode="&#xdf;" horiz-adv-x="1114" 
d="M655 862c118 -19.333 210.333 -68.8311 277 -148.498s100 -180.167 100 -301.5c0 -126 -33.167 -229.5 -99.5 -310.5s-150.5 -121.5 -252.5 -121.5c-59.333 0 -108 16.167 -146 48.5s-57 73.5 -57 123.5c0 25.333 6.33301 45.666 19 60.999s29.667 23 51 23
c20.667 0 37.667 -9.33301 51 -28s20 -43 20 -73c0 -13.333 -1.5 -25.833 -4.5 -37.5s-8.16699 -24.5 -15.5 -38.5c12 -8 23.167 -13.667 33.5 -17s21.833 -5 34.5 -5c66 0 114.833 27.833 146.5 83.5s47.5 141.167 47.5 256.5c0 156.667 -26.833 269.5 -80.5 338.5
s-140.834 103.5 -261.501 103.5h-29l1 60c102 2 173.5 24.833 214.5 68.5s61.5 119.167 61.5 226.5c0 93.333 -17.667 164.666 -53 213.999s-86.666 74 -153.999 74c-72.667 0 -124.667 -29.667 -156 -89s-47 -163.333 -47 -312v-1061c-47.333 4 -82 6.66699 -104 8
s-40.333 2 -55 2c-16 0 -36 -0.666992 -60 -2s-59.333 -4 -106 -8v57c80.667 7.33301 128.167 17.333 142.5 30s21.5 48.667 21.5 108v819c0 177.333 29.833 306.333 89.5 387s154.5 121 284.5 121c111.333 0 200.333 -31 267 -93s100 -144.333 100 -247
c0 -82 -23.667 -150 -71 -204s-117.333 -92.667 -210 -116z" />
    <glyph glyph-name="agrave" unicode="&#xe0;" 
d="M627 483c-170.667 -34 -280.667 -67.5 -330 -100.5s-74 -80.5 -74 -142.5c0 -50.667 14.5 -91.667 43.5 -123s66.5 -47 112.5 -47s88.833 12.833 128.5 38.5s77.5 65.167 113.5 118.5zM793 637l-9.00195 -325.999c0 -12 -0.333008 -30.833 -1 -56.5
s-1 -44.834 -1 -57.501c0 -37.333 7 -64.833 21 -82.5s35.667 -26.5 65 -26.5c21.333 0 39.666 4.83301 54.999 14.5s28.666 24.5 39.999 44.5l34 -20c-23.333 -48.667 -52.5 -85 -87.5 -109s-76.833 -36 -125.5 -36c-49.333 0 -88.166 13.5 -116.499 40.5
s-44.166 65.167 -47.499 114.5c-44 -53.333 -92 -92.5 -144 -117.5s-111.667 -37.5 -179 -37.5c-69.333 0 -124.833 20 -166.5 60s-62.5 93.667 -62.5 161c0 78.667 26.5 139.5 79.5 182.5s170.5 84.5 352.5 124.5c22.667 5.33301 48.334 10.333 77.001 15
c34.667 6.66699 52 14 52 22l2 94v35c0 97.333 -13.167 165 -39.5 203s-70.5 57 -132.5 57c-39.333 0 -75 -5.5 -107 -16.5s-62 -28.167 -90 -51.5l3 -21c3.33301 -33.333 5 -55.666 5 -66.999c0 -36.667 -8.5 -66.334 -25.5 -89.001s-39.167 -34 -66.5 -34
c-18 0 -32.333 6.83301 -43 20.5s-16 32.167 -16 55.5c0 65.333 35.833 125.333 107.5 180s154.5 82 248.5 82c110.667 0 191.334 -26 242.001 -78s76 -137 76 -255v-25zM374.998 1407l275.999 -301.001h-74l-301 184c-33.333 20.667 -55.666 37.834 -66.999 51.501
s-17 29.5 -17 47.5c0 21.333 7.5 39.833 22.5 55.5s32.833 23.5 53.5 23.5c16.667 0 34.167 -5.16699 52.5 -15.5s36.5 -25.5 54.5 -45.5z" />
    <glyph glyph-name="aacute" unicode="&#xe1;" 
d="M627 483c-170.667 -34 -280.667 -67.5 -330 -100.5s-74 -80.5 -74 -142.5c0 -50.667 14.5 -91.667 43.5 -123s66.5 -47 112.5 -47s88.833 12.833 128.5 38.5s77.5 65.167 113.5 118.5zM793 637l-9.00195 -325.999c0 -12 -0.333008 -30.833 -1 -56.5
s-1 -44.834 -1 -57.501c0 -37.333 7 -64.833 21 -82.5s35.667 -26.5 65 -26.5c21.333 0 39.666 4.83301 54.999 14.5s28.666 24.5 39.999 44.5l34 -20c-23.333 -48.667 -52.5 -85 -87.5 -109s-76.833 -36 -125.5 -36c-49.333 0 -88.166 13.5 -116.499 40.5
s-44.166 65.167 -47.499 114.5c-44 -53.333 -92 -92.5 -144 -117.5s-111.667 -37.5 -179 -37.5c-69.333 0 -124.833 20 -166.5 60s-62.5 93.667 -62.5 161c0 78.667 26.5 139.5 79.5 182.5s170.5 84.5 352.5 124.5c22.667 5.33301 48.334 10.333 77.001 15
c34.667 6.66699 52 14 52 22l2 94v35c0 97.333 -13.167 165 -39.5 203s-70.5 57 -132.5 57c-39.333 0 -75 -5.5 -107 -16.5s-62 -28.167 -90 -51.5l3 -21c3.33301 -33.333 5 -55.666 5 -66.999c0 -36.667 -8.5 -66.334 -25.5 -89.001s-39.167 -34 -66.5 -34
c-18 0 -32.333 6.83301 -43 20.5s-16 32.167 -16 55.5c0 65.333 35.833 125.333 107.5 180s154.5 82 248.5 82c110.667 0 191.334 -26 242.001 -78s76 -137 76 -255v-25zM673.998 1290l-301.001 -183.999h-74l276 301c18 20 36.167 35.167 54.5 45.5s35.833 15.5 52.5 15.5
c20.667 0 38.5 -7.83301 53.5 -23.5s22.5 -34.167 22.5 -55.5c0 -18 -5.66699 -33.833 -17 -47.5s-33.666 -30.834 -66.999 -51.501z" />
    <glyph glyph-name="acircumflex" unicode="&#xe2;" 
d="M627 483c-170.667 -34 -280.667 -67.5 -330 -100.5s-74 -80.5 -74 -142.5c0 -50.667 14.5 -91.667 43.5 -123s66.5 -47 112.5 -47s88.833 12.833 128.5 38.5s77.5 65.167 113.5 118.5zM793 637l-9.00195 -325.999c0 -12 -0.333008 -30.833 -1 -56.5
s-1 -44.834 -1 -57.501c0 -37.333 7 -64.833 21 -82.5s35.667 -26.5 65 -26.5c21.333 0 39.666 4.83301 54.999 14.5s28.666 24.5 39.999 44.5l34 -20c-23.333 -48.667 -52.5 -85 -87.5 -109s-76.833 -36 -125.5 -36c-49.333 0 -88.166 13.5 -116.499 40.5
s-44.166 65.167 -47.499 114.5c-44 -53.333 -92 -92.5 -144 -117.5s-111.667 -37.5 -179 -37.5c-69.333 0 -124.833 20 -166.5 60s-62.5 93.667 -62.5 161c0 78.667 26.5 139.5 79.5 182.5s170.5 84.5 352.5 124.5c22.667 5.33301 48.334 10.333 77.001 15
c34.667 6.66699 52 14 52 22l2 94v35c0 97.333 -13.167 165 -39.5 203s-70.5 57 -132.5 57c-39.333 0 -75 -5.5 -107 -16.5s-62 -28.167 -90 -51.5l3 -21c3.33301 -33.333 5 -55.666 5 -66.999c0 -36.667 -8.5 -66.334 -25.5 -89.001s-39.167 -34 -66.5 -34
c-18 0 -32.333 6.83301 -43 20.5s-16 32.167 -16 55.5c0 65.333 35.833 125.333 107.5 180s154.5 82 248.5 82c110.667 0 191.334 -26 242.001 -78s76 -137 76 -255v-25zM413.998 1442h122l220 -338h-56l-225 199l-225 -199h-58z" />
    <glyph glyph-name="atilde" unicode="&#xe3;" 
d="M627 483c-170.667 -34 -280.667 -67.5 -330 -100.5s-74 -80.5 -74 -142.5c0 -50.667 14.5 -91.667 43.5 -123s66.5 -47 112.5 -47s88.833 12.833 128.5 38.5s77.5 65.167 113.5 118.5zM793 637l-9.00195 -325.999c0 -12 -0.333008 -30.833 -1 -56.5
s-1 -44.834 -1 -57.501c0 -37.333 7 -64.833 21 -82.5s35.667 -26.5 65 -26.5c21.333 0 39.666 4.83301 54.999 14.5s28.666 24.5 39.999 44.5l34 -20c-23.333 -48.667 -52.5 -85 -87.5 -109s-76.833 -36 -125.5 -36c-49.333 0 -88.166 13.5 -116.499 40.5
s-44.166 65.167 -47.499 114.5c-44 -53.333 -92 -92.5 -144 -117.5s-111.667 -37.5 -179 -37.5c-69.333 0 -124.833 20 -166.5 60s-62.5 93.667 -62.5 161c0 78.667 26.5 139.5 79.5 182.5s170.5 84.5 352.5 124.5c22.667 5.33301 48.334 10.333 77.001 15
c34.667 6.66699 52 14 52 22l2 94v35c0 97.333 -13.167 165 -39.5 203s-70.5 57 -132.5 57c-39.333 0 -75 -5.5 -107 -16.5s-62 -28.167 -90 -51.5l3 -21c3.33301 -33.333 5 -55.666 5 -66.999c0 -36.667 -8.5 -66.334 -25.5 -89.001s-39.167 -34 -66.5 -34
c-18 0 -32.333 6.83301 -43 20.5s-16 32.167 -16 55.5c0 65.333 35.833 125.333 107.5 180s154.5 82 248.5 82c110.667 0 191.334 -26 242.001 -78s76 -137 76 -255v-25zM705.998 1411h41.001c-14 -72.667 -36.333 -127.334 -67 -164.001s-69 -55 -115 -55
c-8 0 -16.167 0.5 -24.5 1.5s-17.166 2.5 -26.499 4.5l-107 27c-18.667 4 -32.334 6.66699 -41.001 8s-15.334 2 -20.001 2c-26.667 0 -48.167 -7.16699 -64.5 -21.5s-28.833 -37.166 -37.5 -68.499h-41c12.667 70 34.834 124.333 66.501 163s69.5 58 113.5 58
c8 0 17.333 -0.833008 28 -2.5s23.667 -4.16699 39 -7.5l109 -27c8.66699 -2 16.667 -3.5 24 -4.5s14.333 -1.5 21 -1.5c27.333 0 49.166 7 65.499 21s28.5 36.333 36.5 67z" />
    <glyph glyph-name="adieresis" unicode="&#xe4;" 
d="M627 483c-170.667 -34 -280.667 -67.5 -330 -100.5s-74 -80.5 -74 -142.5c0 -50.667 14.5 -91.667 43.5 -123s66.5 -47 112.5 -47s88.833 12.833 128.5 38.5s77.5 65.167 113.5 118.5zM793 637l-9.00195 -325.999c0 -12 -0.333008 -30.833 -1 -56.5
s-1 -44.834 -1 -57.501c0 -37.333 7 -64.833 21 -82.5s35.667 -26.5 65 -26.5c21.333 0 39.666 4.83301 54.999 14.5s28.666 24.5 39.999 44.5l34 -20c-23.333 -48.667 -52.5 -85 -87.5 -109s-76.833 -36 -125.5 -36c-49.333 0 -88.166 13.5 -116.499 40.5
s-44.166 65.167 -47.499 114.5c-44 -53.333 -92 -92.5 -144 -117.5s-111.667 -37.5 -179 -37.5c-69.333 0 -124.833 20 -166.5 60s-62.5 93.667 -62.5 161c0 78.667 26.5 139.5 79.5 182.5s170.5 84.5 352.5 124.5c22.667 5.33301 48.334 10.333 77.001 15
c34.667 6.66699 52 14 52 22l2 94v35c0 97.333 -13.167 165 -39.5 203s-70.5 57 -132.5 57c-39.333 0 -75 -5.5 -107 -16.5s-62 -28.167 -90 -51.5l3 -21c3.33301 -33.333 5 -55.666 5 -66.999c0 -36.667 -8.5 -66.334 -25.5 -89.001s-39.167 -34 -66.5 -34
c-18 0 -32.333 6.83301 -43 20.5s-16 32.167 -16 55.5c0 65.333 35.833 125.333 107.5 180s154.5 82 248.5 82c110.667 0 191.334 -26 242.001 -78s76 -137 76 -255v-25zM656.998 1382c30 0 56.333 -11.167 79 -33.5s34 -48.5 34 -78.5c0 -32.667 -10.667 -59.667 -32 -81
s-48.333 -32 -81 -32c-32 0 -58.667 10.667 -80 32s-32 48.333 -32 81c0 30 11.167 56.167 33.5 78.5s48.5 33.5 78.5 33.5zM294.998 1382c29.333 0 55 -11.167 77 -33.5s33 -48.5 33 -78.5c0 -32.667 -10.333 -59.667 -31 -81s-47 -32 -79 -32
c-33.333 0 -60.833 10.667 -82.5 32s-32.5 48.333 -32.5 81c0 30 11.5 56.167 34.5 78.5s49.833 33.5 80.5 33.5z" />
    <glyph glyph-name="aring" unicode="&#xe5;" 
d="M627 483c-170.667 -34 -280.667 -67.5 -330 -100.5s-74 -80.5 -74 -142.5c0 -50.667 14.5 -91.667 43.5 -123s66.5 -47 112.5 -47s88.833 12.833 128.5 38.5s77.5 65.167 113.5 118.5zM793 637l-9.00195 -325.999c0 -12 -0.333008 -30.833 -1 -56.5
s-1 -44.834 -1 -57.501c0 -37.333 7 -64.833 21 -82.5s35.667 -26.5 65 -26.5c21.333 0 39.666 4.83301 54.999 14.5s28.666 24.5 39.999 44.5l34 -20c-23.333 -48.667 -52.5 -85 -87.5 -109s-76.833 -36 -125.5 -36c-49.333 0 -88.166 13.5 -116.499 40.5
s-44.166 65.167 -47.499 114.5c-44 -53.333 -92 -92.5 -144 -117.5s-111.667 -37.5 -179 -37.5c-69.333 0 -124.833 20 -166.5 60s-62.5 93.667 -62.5 161c0 78.667 26.5 139.5 79.5 182.5s170.5 84.5 352.5 124.5c22.667 5.33301 48.334 10.333 77.001 15
c34.667 6.66699 52 14 52 22l2 94v35c0 97.333 -13.167 165 -39.5 203s-70.5 57 -132.5 57c-39.333 0 -75 -5.5 -107 -16.5s-62 -28.167 -90 -51.5l3 -21c3.33301 -33.333 5 -55.666 5 -66.999c0 -36.667 -8.5 -66.334 -25.5 -89.001s-39.167 -34 -66.5 -34
c-18 0 -32.333 6.83301 -43 20.5s-16 32.167 -16 55.5c0 65.333 35.833 125.333 107.5 180s154.5 82 248.5 82c110.667 0 191.334 -26 242.001 -78s76 -137 76 -255v-25zM497.998 1411c-35.333 0 -65.668 -12.832 -91.001 -38.499s-38 -55.834 -38 -90.501
c0 -34 12.833 -63.667 38.5 -89s55.834 -38 90.501 -38s64.5 12.5 89.5 37.5s37.5 54.833 37.5 89.5c0 36 -12.5 66.5 -37.5 91.5s-54.833 37.5 -89.5 37.5zM497.996 1505c62 0 114.667 -21.667 158 -65s65 -96 65 -158c0 -61.333 -21.667 -113.5 -65 -156.5
s-96 -64.5 -158 -64.5c-62.667 0 -115.667 21.333 -159 64s-65 95 -65 157s21.833 114.667 65.5 158s96.5 65 158.5 65z" />
    <glyph glyph-name="ae" unicode="&#xe6;" horiz-adv-x="1493" 
d="M1257 602v22.999c0 100.667 -19.167 178.334 -57.5 233.001s-92.833 82 -163.5 82c-75.333 0 -136.833 -31 -184.5 -93s-75.5 -148.333 -83.5 -259zM610 482.999c-172 -37.333 -280.167 -71.667 -324.5 -103s-66.5 -77.333 -66.5 -138c0 -54 13.167 -96.167 39.5 -126.5
s62.5 -45.5 108.5 -45.5c44.667 0 88.167 14 130.5 42s77.833 66.333 106.5 115zM729 867.998c42 43.333 87.8311 75.3369 137.498 96.0039s104.167 31 163.5 31c114 0 204.667 -35.667 272 -107s101 -167.333 101 -288c0 -1.33301 -0.333008 -4.33301 -1 -9
c-0.666992 -16.667 -1 -32.667 -1 -48l-635 -17v-16c0 -140.667 26 -246.834 78 -318.501s129 -107.5 231 -107.5c68 0 126.667 18 176 54s86.333 87.667 111 155l41 -17c-28 -95.333 -75.667 -168.166 -143 -218.499s-151.333 -75.5 -252 -75.5
c-80 0 -148.167 16.167 -204.5 48.5s-105.166 83.5 -146.499 153.5c-64.667 -72.667 -126 -124.834 -184 -156.501s-119.333 -47.5 -184 -47.5c-69.333 0 -123.5 19.667 -162.5 59s-58.5 94 -58.5 164c0 81.333 25.167 143.166 75.5 185.499s157.5 82.166 321.5 119.499
c27.333 6 58.333 11.667 93 17c36 6 54 13.333 54 22l2 94v35c0 97.333 -12.833 165 -38.5 203s-68.834 57 -129.501 57c-37.333 0 -71.666 -5.5 -102.999 -16.5s-60.333 -28.167 -87 -51.5c0.666992 -4 1.33398 -9.66699 2.00098 -17c4 -33.333 6 -57 6 -71
c0 -36.667 -8.16699 -66.334 -24.5 -89.001s-37.5 -34 -63.5 -34c-18 0 -32.333 7 -43 21s-16 32.333 -16 55c0 66 34.833 126.167 104.5 180.5s150.167 81.5 241.5 81.5c64 0 118.667 -10.833 164 -32.5s79.333 -53.167 102 -94.5z" />
    <glyph glyph-name="ccedilla" unicode="&#xe7;" horiz-adv-x="1010" 
d="M893 293l43.002 -17c-30 -96 -79.5 -169 -148.5 -219s-154.833 -75 -257.5 -75c-138 0 -247.5 42.833 -328.5 128.5s-121.5 201.834 -121.5 348.501c0 158.667 45.5 287.667 136.5 387s208.5 149 352.5 149c95.333 0 175.833 -26.5 241.5 -79.5
s98.5 -115.833 98.5 -188.5c0 -26.667 -6.66699 -48 -20 -64s-31 -24 -53 -24c-23.333 0 -43.166 9.33301 -59.499 28s-24.5 42 -24.5 70c0 17.333 3.66699 36.666 11 57.999s11 33.333 11 36c0 28 -19.333 52.5 -58 73.5s-86.334 31.5 -143.001 31.5
c-94.667 0 -170.5 -41.5 -227.5 -124.5s-85.5 -195.167 -85.5 -336.5c0 -126.667 27.667 -223.5 83 -290.5s135.666 -100.5 240.999 -100.5c74 0 137.667 18 191 54s92.666 87.667 117.999 155zM457.002 2l47.0029 0.000976562v-114c17.333 2 32 3.33301 44 4
s22.667 1.33398 32 2.00098c52 0 93.667 -14.833 125 -44.5s47 -68.834 47 -117.501c0 -54.667 -19.167 -97 -57.5 -127s-91.5 -45 -159.5 -45c-43.333 0 -89.666 6.66699 -138.999 20s-98 32.666 -146 57.999l31 71c39.333 -23.333 78.666 -41.5 117.999 -54.5
s75.666 -19.5 108.999 -19.5c39.333 0 69 8.16699 89 24.5s30 40.5 30 72.5c0 28.667 -9.83301 51.167 -29.5 67.5s-46.834 24.5 -81.501 24.5c-7.33301 0 -22.333 -1 -45 -3c-6.66699 -0.666992 -11.334 -1 -14.001 -1v182z" />
    <glyph glyph-name="egrave" unicode="&#xe8;" horiz-adv-x="1034" 
d="M786 602v27c0 99.333 -20.333 176 -61 230s-98.667 81 -174 81c-81.333 0 -147.5 -31.167 -198.5 -93.5s-80.5 -148.5 -88.5 -258.5zM940 543l-677.999 -17.001v-14c0 -140.667 27.5 -247.167 82.5 -319.5s136.167 -108.5 243.5 -108.5c74 0 137.667 18 191 54
s92.666 87.667 117.999 155l45 -17c-28.667 -93.333 -78.834 -165.666 -150.501 -216.999s-158.834 -77 -261.501 -77c-141.333 0 -251.666 43.833 -330.999 131.5s-119 210.167 -119 367.5c0 152 43.333 275.667 130 371s198.334 143 335.001 143
c122.667 0 219.5 -36 290.5 -108s106.5 -171 106.5 -297c0 -6 -0.333008 -14.167 -1 -24.5s-1 -17.833 -1 -22.5zM443.001 1407l275.999 -301.001h-74l-301 184c-33.333 20.667 -55.666 37.834 -66.999 51.501s-17 29.5 -17 47.5c0 21.333 7.5 39.833 22.5 55.5
s32.833 23.5 53.5 23.5c16.667 0 34.167 -5.16699 52.5 -15.5s36.5 -25.5 54.5 -45.5z" />
    <glyph glyph-name="eacute" unicode="&#xe9;" horiz-adv-x="1034" 
d="M786 602v27c0 99.333 -20.333 176 -61 230s-98.667 81 -174 81c-81.333 0 -147.5 -31.167 -198.5 -93.5s-80.5 -148.5 -88.5 -258.5zM940 543l-677.999 -17.001v-14c0 -140.667 27.5 -247.167 82.5 -319.5s136.167 -108.5 243.5 -108.5c74 0 137.667 18 191 54
s92.666 87.667 117.999 155l45 -17c-28.667 -93.333 -78.834 -165.666 -150.501 -216.999s-158.834 -77 -261.501 -77c-141.333 0 -251.666 43.833 -330.999 131.5s-119 210.167 -119 367.5c0 152 43.333 275.667 130 371s198.334 143 335.001 143
c122.667 0 219.5 -36 290.5 -108s106.5 -171 106.5 -297c0 -6 -0.333008 -14.167 -1 -24.5s-1 -17.833 -1 -22.5zM742.001 1290l-301.001 -183.999h-74l276 301c18 20 36.167 35.167 54.5 45.5s35.833 15.5 52.5 15.5c20.667 0 38.5 -7.83301 53.5 -23.5
s22.5 -34.167 22.5 -55.5c0 -18 -5.66699 -33.833 -17 -47.5s-33.666 -30.834 -66.999 -51.501z" />
    <glyph glyph-name="ecircumflex" unicode="&#xea;" horiz-adv-x="1034" 
d="M786 602v27c0 99.333 -20.333 176 -61 230s-98.667 81 -174 81c-81.333 0 -147.5 -31.167 -198.5 -93.5s-80.5 -148.5 -88.5 -258.5zM940 543l-677.999 -17.001v-14c0 -140.667 27.5 -247.167 82.5 -319.5s136.167 -108.5 243.5 -108.5c74 0 137.667 18 191 54
s92.666 87.667 117.999 155l45 -17c-28.667 -93.333 -78.834 -165.666 -150.501 -216.999s-158.834 -77 -261.501 -77c-141.333 0 -251.666 43.833 -330.999 131.5s-119 210.167 -119 367.5c0 152 43.333 275.667 130 371s198.334 143 335.001 143
c122.667 0 219.5 -36 290.5 -108s106.5 -171 106.5 -297c0 -6 -0.333008 -14.167 -1 -24.5s-1 -17.833 -1 -22.5zM482.001 1442h122l220 -338h-56l-225 199l-225 -199h-58z" />
    <glyph glyph-name="edieresis" unicode="&#xeb;" horiz-adv-x="1034" 
d="M786 602v27c0 99.333 -20.333 176 -61 230s-98.667 81 -174 81c-81.333 0 -147.5 -31.167 -198.5 -93.5s-80.5 -148.5 -88.5 -258.5zM940 543l-677.999 -17.001v-14c0 -140.667 27.5 -247.167 82.5 -319.5s136.167 -108.5 243.5 -108.5c74 0 137.667 18 191 54
s92.666 87.667 117.999 155l45 -17c-28.667 -93.333 -78.834 -165.666 -150.501 -216.999s-158.834 -77 -261.501 -77c-141.333 0 -251.666 43.833 -330.999 131.5s-119 210.167 -119 367.5c0 152 43.333 275.667 130 371s198.334 143 335.001 143
c122.667 0 219.5 -36 290.5 -108s106.5 -171 106.5 -297c0 -6 -0.333008 -14.167 -1 -24.5s-1 -17.833 -1 -22.5zM725.001 1382c30 0 56.333 -11.167 79 -33.5s34 -48.5 34 -78.5c0 -32.667 -10.667 -59.667 -32 -81s-48.333 -32 -81 -32c-32 0 -58.667 10.667 -80 32
s-32 48.333 -32 81c0 30 11.167 56.167 33.5 78.5s48.5 33.5 78.5 33.5zM363.001 1382c29.333 0 55 -11.167 77 -33.5s33 -48.5 33 -78.5c0 -32.667 -10.333 -59.667 -31 -81s-47 -32 -79 -32c-33.333 0 -60.833 10.667 -82.5 32s-32.5 48.333 -32.5 81
c0 30 11.5 56.167 34.5 78.5s49.833 33.5 80.5 33.5z" />
    <glyph glyph-name="igrave" unicode="&#xec;" horiz-adv-x="555" 
d="M360 995l-0.00292969 -800.001c0 -65.333 9.16699 -104.166 27.5 -116.499s65.833 -19.5 142.5 -21.5v-57c-70.667 4 -125.667 6.66699 -165 8s-71.666 2 -96.999 2c-24.667 0 -56.5 -0.666992 -95.5 -2s-95.167 -4 -168.5 -8v57h2c128.667 7.33301 193 53.333 193 138
v585c0 56.667 -9.16699 91.667 -27.5 105s-74.166 20 -167.499 20v57c60.667 2.66699 120.834 6.66699 180.501 12s118.167 12.333 175.5 21zM141.997 1407l275.999 -301.001h-74l-301 184c-33.333 20.667 -55.666 37.834 -66.999 51.501s-17 29.5 -17 47.5
c0 21.333 7.5 39.833 22.5 55.5s32.833 23.5 53.5 23.5c16.667 0 34.167 -5.16699 52.5 -15.5s36.5 -25.5 54.5 -45.5z" />
    <glyph glyph-name="iacute" unicode="&#xed;" horiz-adv-x="555" 
d="M360 995l-0.00292969 -800.001c0 -65.333 9.16699 -104.166 27.5 -116.499s65.833 -19.5 142.5 -21.5v-57c-70.667 4 -125.667 6.66699 -165 8s-71.666 2 -96.999 2c-24.667 0 -56.5 -0.666992 -95.5 -2s-95.167 -4 -168.5 -8v57h2c128.667 7.33301 193 53.333 193 138
v585c0 56.667 -9.16699 91.667 -27.5 105s-74.166 20 -167.499 20v57c60.667 2.66699 120.834 6.66699 180.501 12s118.167 12.333 175.5 21zM440.997 1290l-301.001 -183.999h-74l276 301c18 20 36.167 35.167 54.5 45.5s35.833 15.5 52.5 15.5
c20.667 0 38.5 -7.83301 53.5 -23.5s22.5 -34.167 22.5 -55.5c0 -18 -5.66699 -33.833 -17 -47.5s-33.666 -30.834 -66.999 -51.501z" />
    <glyph glyph-name="icircumflex" unicode="&#xee;" horiz-adv-x="555" 
d="M360 995l-0.00292969 -800.001c0 -65.333 9.16699 -104.166 27.5 -116.499s65.833 -19.5 142.5 -21.5v-57c-70.667 4 -125.667 6.66699 -165 8s-71.666 2 -96.999 2c-24.667 0 -56.5 -0.666992 -95.5 -2s-95.167 -4 -168.5 -8v57h2c128.667 7.33301 193 53.333 193 138
v585c0 56.667 -9.16699 91.667 -27.5 105s-74.166 20 -167.499 20v57c60.667 2.66699 120.834 6.66699 180.501 12s118.167 12.333 175.5 21zM180.997 1442h122l220 -338h-56l-225 199l-225 -199h-58z" />
    <glyph glyph-name="idieresis" unicode="&#xef;" horiz-adv-x="555" 
d="M360 995l-0.00292969 -800.001c0 -65.333 9.16699 -104.166 27.5 -116.499s65.833 -19.5 142.5 -21.5v-57c-70.667 4 -125.667 6.66699 -165 8s-71.666 2 -96.999 2c-24.667 0 -56.5 -0.666992 -95.5 -2s-95.167 -4 -168.5 -8v57h2c128.667 7.33301 193 53.333 193 138
v585c0 56.667 -9.16699 91.667 -27.5 105s-74.166 20 -167.499 20v57c60.667 2.66699 120.834 6.66699 180.501 12s118.167 12.333 175.5 21zM423.997 1382c30 0 56.333 -11.167 79 -33.5s34 -48.5 34 -78.5c0 -32.667 -10.667 -59.667 -32 -81s-48.333 -32 -81 -32
c-32 0 -58.667 10.667 -80 32s-32 48.333 -32 81c0 30 11.167 56.167 33.5 78.5s48.5 33.5 78.5 33.5zM61.9971 1382c29.333 0 55 -11.167 77 -33.5s33 -48.5 33 -78.5c0 -32.667 -10.333 -59.667 -31 -81s-47 -32 -79 -32c-33.333 0 -60.833 10.667 -82.5 32
s-32.5 48.333 -32.5 81c0 30 11.5 56.167 34.5 78.5s49.833 33.5 80.5 33.5z" />
    <glyph glyph-name="eth" unicode="&#xf0;" horiz-adv-x="1042" 
d="M522 889c-82.667 0 -147 -38.835 -193 -116.502s-69 -187.167 -69 -328.5c0 -127.333 22.667 -227 68 -299s108 -108 188 -108c82 0 146.5 37.833 193.5 113.5s70.5 179.834 70.5 312.501c0 134.667 -22.5 239.334 -67.5 314.001s-108.5 112 -190.5 112zM274 1524
c45.333 -30.667 90.498 -64 135.498 -100l137.5 -115l262 141l33 -59l-248 -131c124.667 -130 217.334 -258.5 278.001 -385.5s91 -256.167 91 -387.5c0 -154.667 -41.833 -277.5 -125.5 -368.5s-195.5 -136.5 -335.5 -136.5c-128.667 0 -231.167 42.167 -307.5 126.5
s-114.5 198.5 -114.5 342.5c0 148.667 40.5 268.667 121.5 360s186.5 137 316.5 137c29.333 0 57.333 -3.66699 84 -11s53.334 -18.666 80.001 -33.999c-33.333 56.667 -66.833 109.667 -100.5 159s-67.167 94.666 -100.5 135.999l-299 -156l-30 58l288 153
c-35.333 40 -71 78 -107 114s-72 69.667 -108 101z" />
    <glyph glyph-name="ntilde" unicode="&#xf1;" horiz-adv-x="1229" 
d="M356 995v-233.001c47.333 80 101.5 138.833 162.5 176.5s131.833 56.5 212.5 56.5c107.333 0 184.666 -28.167 231.999 -84.5s71 -150.166 71 -281.499v-445c0 -55.333 6.83301 -88.833 20.5 -100.5s47.167 -20.5 100.5 -26.5v-57
c-72.667 4.66699 -122.334 7.5 -149.001 8.5s-48 1.5 -64 1.5c-21.333 0 -49 -0.666992 -83 -2s-84 -4 -150 -8v57c80.667 7.33301 128 17.333 142 30s21 48.667 21 108v458c0 95.333 -14.667 164.333 -44 207s-76.666 64 -141.999 64c-81.333 0 -156 -35.667 -224 -107
s-102 -147.666 -102 -228.999v-393c0 -62 6.83301 -99 20.5 -111s47.834 -21 102.501 -27v-57c-68.667 4 -117.667 6.66699 -147 8s-52 2 -68 2c-20 0 -46.667 -0.666992 -80 -2s-85.666 -4 -156.999 -8v57c83.333 8 132.166 18.167 146.499 30.5s21.5 48.166 21.5 107.499
v585c0 56 -8.66699 90.5 -26 103.5s-64.666 20.167 -141.999 21.5v57c69.333 4.66699 129.166 9.66699 179.499 15s98.833 11.333 145.5 18zM833 1411h41.001c-14 -72.667 -36.333 -127.334 -67 -164.001s-69 -55 -115 -55c-8 0 -16.167 0.5 -24.5 1.5
s-17.166 2.5 -26.499 4.5l-107 27c-18.667 4 -32.334 6.66699 -41.001 8s-15.334 2 -20.001 2c-26.667 0 -48.167 -7.16699 -64.5 -21.5s-28.833 -37.166 -37.5 -68.499h-41c12.667 70 34.834 124.333 66.501 163s69.5 58 113.5 58c8 0 17.333 -0.833008 28 -2.5
s23.667 -4.16699 39 -7.5l109 -27c8.66699 -2 16.667 -3.5 24 -4.5s14.333 -1.5 21 -1.5c27.333 0 49.166 7 65.499 21s28.5 36.333 36.5 67z" />
    <glyph glyph-name="ograve" unicode="&#xf2;" horiz-adv-x="1042" 
d="M526 940c-81.333 0 -146 -40.332 -194 -120.999s-72 -191.334 -72 -332.001s23 -250.834 69 -330.501s109 -119.5 189 -119.5c82 0 146.5 40 193.5 120s70.5 190 70.5 330c0 142.667 -22.5 253.834 -67.5 333.501s-107.833 119.5 -188.5 119.5zM80 471.001
c0 158.667 42 285.668 126 381.001s195 143 333 143c128 0 230.667 -44.333 308 -133s116 -208 116 -358c0 -158.667 -42.167 -285.334 -126.5 -380.001s-195.833 -142 -334.5 -142c-128.667 0 -231.167 44 -307.5 132s-114.5 207 -114.5 357zM422 1407l275.999 -301.001
h-74l-301 184c-33.333 20.667 -55.666 37.834 -66.999 51.501s-17 29.5 -17 47.5c0 21.333 7.5 39.833 22.5 55.5s32.833 23.5 53.5 23.5c16.667 0 34.167 -5.16699 52.5 -15.5s36.5 -25.5 54.5 -45.5z" />
    <glyph glyph-name="oacute" unicode="&#xf3;" horiz-adv-x="1042" 
d="M526 940c-81.333 0 -146 -40.332 -194 -120.999s-72 -191.334 -72 -332.001s23 -250.834 69 -330.501s109 -119.5 189 -119.5c82 0 146.5 40 193.5 120s70.5 190 70.5 330c0 142.667 -22.5 253.834 -67.5 333.501s-107.833 119.5 -188.5 119.5zM80 471.001
c0 158.667 42 285.668 126 381.001s195 143 333 143c128 0 230.667 -44.333 308 -133s116 -208 116 -358c0 -158.667 -42.167 -285.334 -126.5 -380.001s-195.833 -142 -334.5 -142c-128.667 0 -231.167 44 -307.5 132s-114.5 207 -114.5 357zM721 1290l-301.001 -183.999
h-74l276 301c18 20 36.167 35.167 54.5 45.5s35.833 15.5 52.5 15.5c20.667 0 38.5 -7.83301 53.5 -23.5s22.5 -34.167 22.5 -55.5c0 -18 -5.66699 -33.833 -17 -47.5s-33.666 -30.834 -66.999 -51.501z" />
    <glyph glyph-name="ocircumflex" unicode="&#xf4;" horiz-adv-x="1042" 
d="M526 940c-81.333 0 -146 -40.332 -194 -120.999s-72 -191.334 -72 -332.001s23 -250.834 69 -330.501s109 -119.5 189 -119.5c82 0 146.5 40 193.5 120s70.5 190 70.5 330c0 142.667 -22.5 253.834 -67.5 333.501s-107.833 119.5 -188.5 119.5zM80 471.001
c0 158.667 42 285.668 126 381.001s195 143 333 143c128 0 230.667 -44.333 308 -133s116 -208 116 -358c0 -158.667 -42.167 -285.334 -126.5 -380.001s-195.833 -142 -334.5 -142c-128.667 0 -231.167 44 -307.5 132s-114.5 207 -114.5 357zM461 1442h122l220 -338h-56
l-225 199l-225 -199h-58z" />
    <glyph glyph-name="otilde" unicode="&#xf5;" horiz-adv-x="1042" 
d="M526 940c-81.333 0 -146 -40.332 -194 -120.999s-72 -191.334 -72 -332.001s23 -250.834 69 -330.501s109 -119.5 189 -119.5c82 0 146.5 40 193.5 120s70.5 190 70.5 330c0 142.667 -22.5 253.834 -67.5 333.501s-107.833 119.5 -188.5 119.5zM80 471.001
c0 158.667 42 285.668 126 381.001s195 143 333 143c128 0 230.667 -44.333 308 -133s116 -208 116 -358c0 -158.667 -42.167 -285.334 -126.5 -380.001s-195.833 -142 -334.5 -142c-128.667 0 -231.167 44 -307.5 132s-114.5 207 -114.5 357zM753 1411h41.001
c-14 -72.667 -36.333 -127.334 -67 -164.001s-69 -55 -115 -55c-8 0 -16.167 0.5 -24.5 1.5s-17.166 2.5 -26.499 4.5l-107 27c-18.667 4 -32.334 6.66699 -41.001 8s-15.334 2 -20.001 2c-26.667 0 -48.167 -7.16699 -64.5 -21.5s-28.833 -37.166 -37.5 -68.499h-41
c12.667 70 34.834 124.333 66.501 163s69.5 58 113.5 58c8 0 17.333 -0.833008 28 -2.5s23.667 -4.16699 39 -7.5l109 -27c8.66699 -2 16.667 -3.5 24 -4.5s14.333 -1.5 21 -1.5c27.333 0 49.166 7 65.499 21s28.5 36.333 36.5 67z" />
    <glyph glyph-name="odieresis" unicode="&#xf6;" horiz-adv-x="1042" 
d="M526 940c-81.333 0 -146 -40.332 -194 -120.999s-72 -191.334 -72 -332.001s23 -250.834 69 -330.501s109 -119.5 189 -119.5c82 0 146.5 40 193.5 120s70.5 190 70.5 330c0 142.667 -22.5 253.834 -67.5 333.501s-107.833 119.5 -188.5 119.5zM80 471.001
c0 158.667 42 285.668 126 381.001s195 143 333 143c128 0 230.667 -44.333 308 -133s116 -208 116 -358c0 -158.667 -42.167 -285.334 -126.5 -380.001s-195.833 -142 -334.5 -142c-128.667 0 -231.167 44 -307.5 132s-114.5 207 -114.5 357zM704 1382
c30 0 56.333 -11.167 79 -33.5s34 -48.5 34 -78.5c0 -32.667 -10.667 -59.667 -32 -81s-48.333 -32 -81 -32c-32 0 -58.667 10.667 -80 32s-32 48.333 -32 81c0 30 11.167 56.167 33.5 78.5s48.5 33.5 78.5 33.5zM342 1382c29.333 0 55 -11.167 77 -33.5s33 -48.5 33 -78.5
c0 -32.667 -10.333 -59.667 -31 -81s-47 -32 -79 -32c-33.333 0 -60.833 10.667 -82.5 32s-32.5 48.333 -32.5 81c0 30 11.5 56.167 34.5 78.5s49.833 33.5 80.5 33.5z" />
    <glyph glyph-name="divide" unicode="&#xf7;" horiz-adv-x="1706" 
d="M854 365c31.333 0 58.333 -11.333 81 -34s34 -49.667 34 -81s-11.167 -58.333 -33.5 -81s-49.5 -34 -81.5 -34s-59.167 11.167 -81.5 33.5s-33.5 49.5 -33.5 81.5s11.333 59.167 34 81.5s49.667 33.5 81 33.5zM254 670h1198v-117h-1198v117zM854 1085
c32 0 59.167 -11.167 81.5 -33.5s33.5 -49.166 33.5 -80.499c0 -32 -11.167 -59.167 -33.5 -81.5s-49.5 -33.5 -81.5 -33.5c-32.667 0 -60 11.167 -82 33.5s-33 49.5 -33 81.5c0 31.333 11.333 58.166 34 80.499s49.667 33.5 81 33.5z" />
    <glyph glyph-name="oslash" unicode="&#xf8;" horiz-adv-x="1042" 
d="M750 758l-431 -592c22.667 -43.333 50.667 -76 84 -98s71 -33 113 -33c82 0 146.5 40.333 193.5 121s70.5 191 70.5 331c0 56.667 -2.5 106.5 -7.5 149.5s-12.5 83.5 -22.5 121.5zM709 827c-20.667 36.667 -46.833 64.666 -78.5 83.999s-67.167 29 -106.5 29
c-85.333 0 -151 -42.167 -197 -126.5s-69 -205.166 -69 -362.499c0 -40.667 2.33301 -77.667 7 -111s12 -65.333 22 -96zM920.001 1118h92l-174 -239c44 -53.333 75.833 -108.5 95.5 -165.5s29.5 -123.5 29.5 -199.5c0 -163.333 -42 -292.833 -126 -388.5
s-196.333 -143.5 -337 -143.5c-50 0 -96.333 7 -139 21s-81 35 -115 63l-152 -209h-90l189 262c-40 50 -68.833 101.833 -86.5 155.5s-26.5 116.5 -26.5 188.5c0 164.667 42 294.5 126 389.5s198.333 142.5 343 142.5c42.667 0 82.667 -5.66699 120 -17
s74.333 -29.333 111 -54z" />
    <glyph glyph-name="ugrave" unicode="&#xf9;" horiz-adv-x="1233" 
d="M350 995l-0.00292969 -672.997c0 -93.333 16.667 -158.333 50 -195s89 -55 167 -55c78.667 0 145.834 18.833 201.501 56.5s86.167 84.167 91.5 139.5v512c0 54.667 -8.16699 88.667 -24.5 102s-57.166 21 -122.499 23v57c58.667 5.33301 113.167 10.666 163.5 15.999
s98.833 11 145.5 17v-809c0 -56 6.66699 -90 20 -102s47 -21 101 -27l-1 -57c-32.667 2 -60.667 3.5 -84 4.5s-41.333 1.5 -54 1.5c-16.667 0 -36.5 -0.5 -59.5 -1.5s-48.833 -2.5 -77.5 -4.5l-1 145c-42 -55.333 -93.167 -96.333 -153.5 -123s-131.833 -40 -214.5 -40
c-110.667 0 -189.667 27.167 -237 81.5s-71 149.166 -71 284.499v432c0 54.667 -8.16699 88.667 -24.5 102s-57.166 21.333 -122.499 24v56c57.333 5.33301 111 10.666 161 15.999s98.667 11 146 17zM497.997 1407l275.999 -301.001h-74l-301 184
c-33.333 20.667 -55.666 37.834 -66.999 51.501s-17 29.5 -17 47.5c0 21.333 7.5 39.833 22.5 55.5s32.833 23.5 53.5 23.5c16.667 0 34.167 -5.16699 52.5 -15.5s36.5 -25.5 54.5 -45.5z" />
    <glyph glyph-name="uacute" unicode="&#xfa;" horiz-adv-x="1233" 
d="M350 995l-0.00292969 -672.997c0 -93.333 16.667 -158.333 50 -195s89 -55 167 -55c78.667 0 145.834 18.833 201.501 56.5s86.167 84.167 91.5 139.5v512c0 54.667 -8.16699 88.667 -24.5 102s-57.166 21 -122.499 23v57c58.667 5.33301 113.167 10.666 163.5 15.999
s98.833 11 145.5 17v-809c0 -56 6.66699 -90 20 -102s47 -21 101 -27l-1 -57c-32.667 2 -60.667 3.5 -84 4.5s-41.333 1.5 -54 1.5c-16.667 0 -36.5 -0.5 -59.5 -1.5s-48.833 -2.5 -77.5 -4.5l-1 145c-42 -55.333 -93.167 -96.333 -153.5 -123s-131.833 -40 -214.5 -40
c-110.667 0 -189.667 27.167 -237 81.5s-71 149.166 -71 284.499v432c0 54.667 -8.16699 88.667 -24.5 102s-57.166 21.333 -122.499 24v56c57.333 5.33301 111 10.666 161 15.999s98.667 11 146 17zM796.997 1290l-301.001 -183.999h-74l276 301
c18 20 36.167 35.167 54.5 45.5s35.833 15.5 52.5 15.5c20.667 0 38.5 -7.83301 53.5 -23.5s22.5 -34.167 22.5 -55.5c0 -18 -5.66699 -33.833 -17 -47.5s-33.666 -30.834 -66.999 -51.501z" />
    <glyph glyph-name="ucircumflex" unicode="&#xfb;" horiz-adv-x="1233" 
d="M350 995l-0.00292969 -672.997c0 -93.333 16.667 -158.333 50 -195s89 -55 167 -55c78.667 0 145.834 18.833 201.501 56.5s86.167 84.167 91.5 139.5v512c0 54.667 -8.16699 88.667 -24.5 102s-57.166 21 -122.499 23v57c58.667 5.33301 113.167 10.666 163.5 15.999
s98.833 11 145.5 17v-809c0 -56 6.66699 -90 20 -102s47 -21 101 -27l-1 -57c-32.667 2 -60.667 3.5 -84 4.5s-41.333 1.5 -54 1.5c-16.667 0 -36.5 -0.5 -59.5 -1.5s-48.833 -2.5 -77.5 -4.5l-1 145c-42 -55.333 -93.167 -96.333 -153.5 -123s-131.833 -40 -214.5 -40
c-110.667 0 -189.667 27.167 -237 81.5s-71 149.166 -71 284.499v432c0 54.667 -8.16699 88.667 -24.5 102s-57.166 21.333 -122.499 24v56c57.333 5.33301 111 10.666 161 15.999s98.667 11 146 17zM536.997 1442h122l220 -338h-56l-225 199l-225 -199h-58z" />
    <glyph glyph-name="udieresis" unicode="&#xfc;" horiz-adv-x="1233" 
d="M350 995l-0.00292969 -672.997c0 -93.333 16.667 -158.333 50 -195s89 -55 167 -55c78.667 0 145.834 18.833 201.501 56.5s86.167 84.167 91.5 139.5v512c0 54.667 -8.16699 88.667 -24.5 102s-57.166 21 -122.499 23v57c58.667 5.33301 113.167 10.666 163.5 15.999
s98.833 11 145.5 17v-809c0 -56 6.66699 -90 20 -102s47 -21 101 -27l-1 -57c-32.667 2 -60.667 3.5 -84 4.5s-41.333 1.5 -54 1.5c-16.667 0 -36.5 -0.5 -59.5 -1.5s-48.833 -2.5 -77.5 -4.5l-1 145c-42 -55.333 -93.167 -96.333 -153.5 -123s-131.833 -40 -214.5 -40
c-110.667 0 -189.667 27.167 -237 81.5s-71 149.166 -71 284.499v432c0 54.667 -8.16699 88.667 -24.5 102s-57.166 21.333 -122.499 24v56c57.333 5.33301 111 10.666 161 15.999s98.667 11 146 17zM779.997 1382c30 0 56.333 -11.167 79 -33.5s34 -48.5 34 -78.5
c0 -32.667 -10.667 -59.667 -32 -81s-48.333 -32 -81 -32c-32 0 -58.667 10.667 -80 32s-32 48.333 -32 81c0 30 11.167 56.167 33.5 78.5s48.5 33.5 78.5 33.5zM417.997 1382c29.333 0 55 -11.167 77 -33.5s33 -48.5 33 -78.5c0 -32.667 -10.333 -59.667 -31 -81
s-47 -32 -79 -32c-33.333 0 -60.833 10.667 -82.5 32s-32.5 48.333 -32.5 81c0 30 11.5 56.167 34.5 78.5s49.833 33.5 80.5 33.5z" />
    <glyph glyph-name="yacute" unicode="&#xfd;" horiz-adv-x="924" 
d="M-25 977c54.667 -4 97.001 -6.66699 127.001 -8s54.667 -2 74 -2c24 0 52.5 0.666992 85.5 2s76.167 4 129.5 8v-57h-16c-28.667 0 -51.5 -4.5 -68.5 -13.5s-25.5 -20.5 -25.5 -34.5c0 -20.667 6 -46.334 18 -77.001c2.66699 -7.33301 4.66699 -13 6 -17l213 -545l79 227
c80 226.667 120 356.667 120 390c0 22 -10.667 38.5 -32 49.5s-55 17.833 -101 20.5v57c42.667 -4 76.5 -6.66699 101.5 -8s46.5 -2 64.5 -2c17.333 0 38.166 0.666992 62.499 2s57.166 4 98.499 8v-57c-33.333 -1.33301 -59.5 -10.166 -78.5 -26.499
s-35.833 -45.166 -50.5 -86.499l-315 -897c-51.333 -146 -97.666 -243.333 -138.999 -292s-93.333 -73 -156 -73c-33.333 0 -60.5 8.16699 -81.5 24.5s-31.5 36.833 -31.5 61.5c0 21.333 7.66699 38.666 23 51.999s35 20 59 20s49.167 -8.5 75.5 -25.5
s43.5 -25.5 51.5 -25.5c22.667 0 47.667 28.833 75 86.5s60.333 151.5 99 281.5l-311 756c-0.666992 2 -2 5.33301 -4 10c-32 77.333 -82.667 122 -152 134v57zM662.001 1290l-301.001 -183.999h-74l276 301c18 20 36.167 35.167 54.5 45.5s35.833 15.5 52.5 15.5
c20.667 0 38.5 -7.83301 53.5 -23.5s22.5 -34.167 22.5 -55.5c0 -18 -5.66699 -33.833 -17 -47.5s-33.666 -30.834 -66.999 -51.501z" />
    <glyph glyph-name="thorn" unicode="&#xfe;" horiz-adv-x="1108" 
d="M332 276c28.667 -59.333 66.001 -105.5 112.001 -138.5s96 -49.5 150 -49.5c82 0 144.5 36.167 187.5 108.5s64.5 177.5 64.5 315.5c0 133.333 -21.333 235.333 -64 306s-104 106 -184 106c-51.333 0 -99.333 -17.833 -144 -53.5s-85.334 -88.167 -122.001 -157.5v-437z
M332.001 1522l0.00195312 -698.996c36 56.667 80.167 99.5 132.5 128.5s111.166 43.5 176.499 43.5c114.667 0 207.5 -44.333 278.5 -133s106.5 -205.334 106.5 -350.001c0 -149.333 -35.833 -269.333 -107.5 -360s-166.167 -136 -283.5 -136
c-63.333 0 -120.166 12.667 -170.499 38s-94.5 63.333 -132.5 114v-410c0 -64 8 -101.833 24 -113.5s66.667 -19.5 152 -23.5v-57c-58.667 3.33301 -109.334 5.83301 -152.001 7.5s-81.334 2.5 -116.001 2.5c-22.667 0 -52.167 -0.833008 -88.5 -2.5
s-85.5 -4.16699 -147.5 -7.5v57c76 5.33301 122.667 14.666 140 27.999s26 49.666 26 108.999v1549c0 54 -9.33301 88.333 -28 103s-68 22 -148 22v57c60 3.33301 117.833 7.66602 173.5 12.999s110.5 12 164.5 20z" />
    <glyph glyph-name="ydieresis" unicode="&#xff;" horiz-adv-x="924" 
d="M-25 977c54.667 -4 97.001 -6.66699 127.001 -8s54.667 -2 74 -2c24 0 52.5 0.666992 85.5 2s76.167 4 129.5 8v-57h-16c-28.667 0 -51.5 -4.5 -68.5 -13.5s-25.5 -20.5 -25.5 -34.5c0 -20.667 6 -46.334 18 -77.001c2.66699 -7.33301 4.66699 -13 6 -17l213 -545l79 227
c80 226.667 120 356.667 120 390c0 22 -10.667 38.5 -32 49.5s-55 17.833 -101 20.5v57c42.667 -4 76.5 -6.66699 101.5 -8s46.5 -2 64.5 -2c17.333 0 38.166 0.666992 62.499 2s57.166 4 98.499 8v-57c-33.333 -1.33301 -59.5 -10.166 -78.5 -26.499
s-35.833 -45.166 -50.5 -86.499l-315 -897c-51.333 -146 -97.666 -243.333 -138.999 -292s-93.333 -73 -156 -73c-33.333 0 -60.5 8.16699 -81.5 24.5s-31.5 36.833 -31.5 61.5c0 21.333 7.66699 38.666 23 51.999s35 20 59 20s49.167 -8.5 75.5 -25.5
s43.5 -25.5 51.5 -25.5c22.667 0 47.667 28.833 75 86.5s60.333 151.5 99 281.5l-311 756c-0.666992 2 -2 5.33301 -4 10c-32 77.333 -82.667 122 -152 134v57zM645.001 1382c30 0 56.333 -11.167 79 -33.5s34 -48.5 34 -78.5c0 -32.667 -10.667 -59.667 -32 -81
s-48.333 -32 -81 -32c-32 0 -58.667 10.667 -80 32s-32 48.333 -32 81c0 30 11.167 56.167 33.5 78.5s48.5 33.5 78.5 33.5zM283.001 1382c29.333 0 55 -11.167 77 -33.5s33 -48.5 33 -78.5c0 -32.667 -10.333 -59.667 -31 -81s-47 -32 -79 -32
c-33.333 0 -60.833 10.667 -82.5 32s-32.5 48.333 -32.5 81c0 30 11.5 56.167 34.5 78.5s49.833 33.5 80.5 33.5z" />
    <glyph glyph-name="Cacute" unicode="&#x106;" horiz-adv-x="1450" 
d="M1249 1288l22.999 102.999h49v-7c-5.33301 -116 -8 -201.333 -8 -256c0 -15.333 0.666992 -51 2 -107c0.666992 -36 1.33398 -65 2.00098 -87h-51c-13.333 152.667 -62.333 272.334 -147 359.001s-194 130 -328 130c-154 0 -272.167 -57.667 -354.5 -173
s-123.5 -280.666 -123.5 -495.999c0 -218.667 45.833 -388.5 137.5 -509.5s219.5 -181.5 383.5 -181.5c110.667 0 204.5 28.833 281.5 86.5s131.833 140.167 164.5 247.5h57c-31.333 -134 -94.5 -236.667 -189.5 -308s-216.167 -107 -363.5 -107
c-206.667 0 -373.334 68.333 -500.001 205s-190 316.667 -190 540c0 225.333 64 408.666 192 549.999s294 212 498 212c94 0 180.333 -17 259 -51s147.334 -84 206.001 -150zM976.999 1792l-301.001 -183.999h-74l276 301c18 20 36.167 35.167 54.5 45.5
s35.833 15.5 52.5 15.5c20.667 0 38.5 -7.83301 53.5 -23.5s22.5 -34.167 22.5 -55.5c0 -18 -5.66699 -33.833 -17 -47.5s-33.666 -30.834 -66.999 -51.501z" />
    <glyph glyph-name="cacute" unicode="&#x107;" horiz-adv-x="1010" 
d="M893 293l43.002 -17c-30 -96 -79.5 -169 -148.5 -219s-154.833 -75 -257.5 -75c-138 0 -247.5 42.833 -328.5 128.5s-121.5 201.834 -121.5 348.501c0 158.667 45.5 287.667 136.5 387s208.5 149 352.5 149c95.333 0 175.833 -26.5 241.5 -79.5
s98.5 -115.833 98.5 -188.5c0 -26.667 -6.66699 -48 -20 -64s-31 -24 -53 -24c-23.333 0 -43.166 9.33301 -59.499 28s-24.5 42 -24.5 70c0 17.333 3.66699 36.666 11 57.999s11 33.333 11 36c0 28 -19.333 52.5 -58 73.5s-86.334 31.5 -143.001 31.5
c-94.667 0 -170.5 -41.5 -227.5 -124.5s-85.5 -195.167 -85.5 -336.5c0 -126.667 27.667 -223.5 83 -290.5s135.666 -100.5 240.999 -100.5c74 0 137.667 18 191 54s92.666 87.667 117.999 155zM740.002 1290l-301.001 -183.999h-74l276 301c18 20 36.167 35.167 54.5 45.5
s35.833 15.5 52.5 15.5c20.667 0 38.5 -7.83301 53.5 -23.5s22.5 -34.167 22.5 -55.5c0 -18 -5.66699 -33.833 -17 -47.5s-33.666 -30.834 -66.999 -51.501z" />
    <glyph glyph-name="Ccaron" unicode="&#x10c;" horiz-adv-x="1450" 
d="M1249 1288l22.999 102.999h49v-7c-5.33301 -116 -8 -201.333 -8 -256c0 -15.333 0.666992 -51 2 -107c0.666992 -36 1.33398 -65 2.00098 -87h-51c-13.333 152.667 -62.333 272.334 -147 359.001s-194 130 -328 130c-154 0 -272.167 -57.667 -354.5 -173
s-123.5 -280.666 -123.5 -495.999c0 -218.667 45.833 -388.5 137.5 -509.5s219.5 -181.5 383.5 -181.5c110.667 0 204.5 28.833 281.5 86.5s131.833 140.167 164.5 247.5h57c-31.333 -134 -94.5 -236.667 -189.5 -308s-216.167 -107 -363.5 -107
c-206.667 0 -373.334 68.333 -500.001 205s-190 316.667 -190 540c0 225.333 64 408.666 192 549.999s294 212 498 212c94 0 180.333 -17 259 -51s147.334 -84 206.001 -150zM494.999 1944h58l225 -199l225 199h56l-220 -338h-122z" />
    <glyph glyph-name="ccaron" unicode="&#x10d;" horiz-adv-x="1010" 
d="M893 293l43.002 -17c-30 -96 -79.5 -169 -148.5 -219s-154.833 -75 -257.5 -75c-138 0 -247.5 42.833 -328.5 128.5s-121.5 201.834 -121.5 348.501c0 158.667 45.5 287.667 136.5 387s208.5 149 352.5 149c95.333 0 175.833 -26.5 241.5 -79.5
s98.5 -115.833 98.5 -188.5c0 -26.667 -6.66699 -48 -20 -64s-31 -24 -53 -24c-23.333 0 -43.166 9.33301 -59.499 28s-24.5 42 -24.5 70c0 17.333 3.66699 36.666 11 57.999s11 33.333 11 36c0 28 -19.333 52.5 -58 73.5s-86.334 31.5 -143.001 31.5
c-94.667 0 -170.5 -41.5 -227.5 -124.5s-85.5 -195.167 -85.5 -336.5c0 -126.667 27.667 -223.5 83 -290.5s135.666 -100.5 240.999 -100.5c74 0 137.667 18 191 54s92.666 87.667 117.999 155zM258.002 1442h58l225 -199l225 199h56l-220 -338h-122z" />
    <glyph glyph-name="dcroat" unicode="&#x111;" horiz-adv-x="1143" 
d="M778 805c-30.667 42 -65.3311 73.667 -103.998 95s-80.334 32 -125.001 32c-92.667 0 -164 -38.833 -214 -116.5s-75 -188.5 -75 -332.5c0 -140 23.333 -246.333 70 -319s115.667 -109 207 -109c48.667 0 93.167 11 133.5 33s76.166 54.667 107.499 98v619zM938.003 1521
l-0.00195312 -314.998h217v-61h-217v-965c0 -52.667 7.33301 -85.334 22 -98.001s50.334 -20.334 107.001 -23.001v-55c-40 -4 -105 -9.33301 -195 -16c-38.667 -2.66699 -68.667 -4.66699 -90 -6v131c-38.667 -44.667 -82.167 -77.667 -130.5 -99s-102.5 -32 -162.5 -32
c-129.333 0 -229.833 42 -301.5 126s-107.5 202.333 -107.5 355c0 161.333 39.833 290.333 119.5 387s185.834 145 318.501 145c50 0 95.667 -8 137 -24s82.333 -42 123 -78v252h-389v61h389v121c0 54.667 -8.5 88.5 -25.5 101.5s-64.833 20.167 -143.5 21.5l-1 57h43
c42 0 85.833 1.16699 131.5 3.5s97.5 5.83301 155.5 10.5z" />
    <glyph glyph-name="Gbreve" unicode="&#x11e;" horiz-adv-x="1485" 
d="M1212 1358l22.9961 102.002h51l-3 -72c-4.66699 -84.667 -7 -147.334 -7 -188.001c0 -16 0.666992 -52.667 2 -110c0.666992 -36 1.33398 -64.667 2.00098 -86h-51c-11.333 132.667 -53.666 235.667 -126.999 309s-171 110 -293 110
c-163.333 0 -286.833 -57.833 -370.5 -173.5s-125.5 -287.167 -125.5 -514.5c0 -222.667 43 -392.334 129 -509.001s211 -175 375 -175c70.667 0 133.167 11 187.5 33s90.166 50 107.499 84c3.33301 6 5.5 13.167 6.5 21.5s1.5 23.833 1.5 46.5v157
c0 70 -67.333 107.333 -202 112c-34 1.33301 -60.667 2.33301 -80 3v65c53.333 -2.66699 104.666 -4.66699 153.999 -6s96.333 -2 141 -2c42.667 0 88.334 0.666992 137.001 2s99.667 3.33301 153 6v-65c-45.333 -4 -76 -12.667 -92 -26s-24 -36.666 -24 -69.999v-328h-13
l-67 47c-59.333 -49.333 -126.5 -86.5 -201.5 -111.5s-155.5 -37.5 -241.5 -37.5c-217.333 0 -386.666 64.167 -507.999 192.5s-182 307.166 -182 536.499c0 234 63.333 422.167 190 564.5s293.334 213.5 500.001 213.5c76.667 0 150.334 -10.833 221.001 -32.5
s139.667 -54.5 207 -98.5zM451.996 1909h49.0029c12 -46.667 37 -80.5 75 -101.5s93.667 -31.5 167 -31.5c74 0 129.667 10.5 167 31.5s61.666 54.833 72.999 101.5h49c-14.667 -88.667 -46.334 -155.5 -95.001 -200.5s-113.334 -67.5 -194.001 -67.5
s-145.667 22.667 -195 68s-81.333 112 -96 200z" />
    <glyph glyph-name="gbreve" unicode="&#x11f;" horiz-adv-x="977" 
d="M279 -29c-40.667 -14.667 -72 -37.001 -94 -67.001s-33 -64.333 -33 -103c0 -64 28 -113.667 84 -149s134.333 -53 235 -53c111.333 0 202 20.667 272 62s105 93 105 155c0 78 -96.667 122 -290 132c-114.667 6.66699 -207.667 14.334 -279 23.001zM449 937.999
c-69.333 0 -121.5 -23.499 -156.5 -70.499s-52.5 -116.5 -52.5 -208.5s17.333 -161.333 52 -208s87 -70 157 -70c68 0 119.667 23.667 155 71s53 116.333 53 207c0 91.333 -17.833 160.666 -53.5 207.999s-87.167 71 -154.5 71zM980 996
c5.33301 -8.66699 8.83203 -15.835 10.499 -21.502s2.5 -12.5 2.5 -20.5c0 -19.333 -6.16699 -34.333 -18.5 -45s-29.833 -16 -52.5 -16c-16 0 -35.167 5.5 -57.5 16.5s-36.833 16.5 -43.5 16.5c-9.33301 0 -20.166 -5.33301 -32.499 -16s-25.833 -26.667 -40.5 -48
c19.333 -22.667 34 -50.834 44 -84.501s15 -72.167 15 -115.5c0 -102 -27.5 -181.833 -82.5 -239.5s-134.5 -90.5 -238.5 -98.5c-16.667 -1.33301 -41 -2.66602 -73 -3.99902c-122.667 -4 -184 -37 -184 -99c0 -64.667 107 -100.334 321 -107.001
c22 -0.666992 38.667 -1 50 -1c141.333 -4.66699 239.166 -25 293.499 -61s81.5 -95 81.5 -177c0 -96.667 -48.833 -176.167 -146.5 -238.5s-224.167 -93.5 -379.5 -93.5c-119.333 0 -214.166 22.5 -284.499 67.5s-105.5 104.5 -105.5 178.5c0 47.333 13.333 88.333 40 123
s66.667 63.334 120 86.001c-32.667 15.333 -57.5 35.833 -74.5 61.5s-25.5 55.834 -25.5 90.501c0 46.667 13.833 87.834 41.5 123.501s68.5 64.5 122.5 86.5c-62.667 22 -111.167 58.167 -145.5 108.5s-51.5 110.5 -51.5 180.5c0 101.333 33.333 184 100 248s152 96 256 96
c60.667 0 114.167 -8.16699 160.5 -24.5s84.5 -40.166 114.5 -71.499c31.333 41.333 62.166 71.166 92.499 89.499s63.5 27.5 99.5 27.5c12.667 0 24.834 -1.5 36.501 -4.5s23.167 -7.5 34.5 -13.5zM197.999 1407h49.0029c12 -46.667 37 -80.5 75 -101.5
s93.667 -31.5 167 -31.5c74 0 129.667 10.5 167 31.5s61.666 54.833 72.999 101.5h49c-14.667 -88.667 -46.334 -155.5 -95.001 -200.5s-113.334 -67.5 -194.001 -67.5s-145.667 22.667 -195 68s-81.333 112 -96 200z" />
    <glyph glyph-name="Idotaccent" unicode="&#x130;" horiz-adv-x="758" 
d="M109 1470l165.502 -7.5c38.333 -1.66699 69.833 -2.5 94.5 -2.5c30.667 0 68 0.833008 112 2.5s100 4.16699 168 7.5v-67c-78.667 0 -127.667 -9 -147 -27s-29 -64.333 -29 -139v-1004c0 -77.333 9.83301 -124.5 29.5 -141.5s68.5 -25.5 146.5 -25.5v-66
c-90 4.66699 -150.833 7.5 -182.5 8.5s-56.834 1.5 -75.501 1.5c-26.667 0 -61.334 -0.666992 -104.001 -2s-102 -4 -178 -8v66c77.333 0 126 9 146 27s30 64.667 30 140v1004c0 76.667 -9.66699 123.5 -29 140.5s-68.333 25.5 -147 25.5v67zM379.002 1891
c32 0 59.833 -12 83.5 -36s35.5 -51.667 35.5 -83c0 -34 -11.333 -62.333 -34 -85s-51 -34 -85 -34c-33.333 0 -61.166 11.333 -83.499 34s-33.5 51 -33.5 85c0 32 11.667 59.833 35 83.5s50.666 35.5 81.999 35.5z" />
    <glyph glyph-name="dotlessi" unicode="&#x131;" horiz-adv-x="555" 
d="M360 995l-0.00292969 -800.001c0 -65.333 9.16699 -104.166 27.5 -116.499s65.833 -19.5 142.5 -21.5v-57c-70.667 4 -125.667 6.66699 -165 8s-71.666 2 -96.999 2c-24.667 0 -56.5 -0.666992 -95.5 -2s-95.167 -4 -168.5 -8v57h2c128.667 7.33301 193 53.333 193 138
v585c0 56.667 -9.16699 91.667 -27.5 105s-74.166 20 -167.499 20v57c60.667 2.66699 120.834 6.66699 180.501 12s118.167 12.333 175.5 21z" />
    <glyph glyph-name="Lslash" unicode="&#x141;" horiz-adv-x="1280" 
d="M127 1470c67.333 -3.33301 121.169 -5.83301 161.502 -7.5s72.5 -2.5 96.5 -2.5c38.667 0 82.167 0.833008 130.5 2.5s104.5 4.16699 168.5 7.5v-67h-29c-76 0 -123.667 -8.5 -143 -25.5s-29 -63.833 -29 -140.5v-397l416 288v-79l-416 -291v-692h346
c140 0 234.833 25.167 284.5 75.5s81.167 156.833 94.5 319.5h64c0 -55.333 -11.667 -196.333 -35 -423l-4 -38l-327 2.5c-128.667 1 -207.334 1.5 -236.001 1.5c-113.333 0 -290 -1.33301 -530 -4h-13v66c73.333 0 119.666 9.33301 138.999 28s29 65 29 139v416l-295 -200
v77l295 207v504c0 74 -9.5 119.833 -28.5 137.5s-65.5 27.167 -139.5 28.5v67z" />
    <glyph glyph-name="lslash" unicode="&#x142;" horiz-adv-x="569" 
d="M365 1522l0.000976562 -662.001l200 146v-84l-200 -146v-581c0 -64 8.66699 -102.167 26 -114.5s63.666 -20.166 138.999 -23.499v-57c-72 4 -126.667 6.66699 -164 8s-68 2 -92 2c-17.333 0 -41.5 -0.666992 -72.5 -2s-85.167 -4 -162.5 -8v57
c82 8 130.167 18.333 144.5 31s21.5 48.334 21.5 107.001v505l-201 -145v84l201 145v523c0 53.333 -9.5 87.5 -28.5 102.5s-68.833 22.5 -149.5 22.5v57c59.333 3.33301 117 7.66602 173 12.999s111 12 165 20z" />
    <glyph glyph-name="OE" unicode="&#x152;" horiz-adv-x="2109" 
d="M1071 1237c0 72.667 -17 122.166 -51 148.499s-95.333 39.5 -184 39.5c-165.333 0 -294.833 -61.167 -388.5 -183.5s-140.5 -291.166 -140.5 -506.499c0 -214 44.833 -381.5 134.5 -502.5s214.167 -181.5 373.5 -181.5c100 0 167.667 16 203 48s53 98.667 53 200v938z
M1900 1477c2 -41.333 4.49902 -89.335 7.49902 -144.002s8.16699 -135 15.5 -241h-51c-13.333 123.333 -44.333 206 -93 248s-144.667 63 -288 63h-229v-594h71c97.333 0 158.333 14.333 183 43s39.667 91.334 45 188.001h51
c-1.33301 -31.333 -2.66602 -72.666 -3.99902 -123.999c-2.66699 -82 -4 -134 -4 -156c0 -35.333 1.66699 -103.333 5 -204c1.33301 -38 2.33301 -67.667 3 -89h-51c-5.33301 118 -20.5 193.5 -45.5 226.5s-85.833 49.5 -182.5 49.5h-71v-677h319
c141.333 0 237.166 23.833 287.499 71.5s81.5 141.167 93.5 280.5h51c-7.33301 -70.667 -13.5 -141 -18.5 -211s-9.16699 -139 -12.5 -207h-653c-81.333 0 -180 -3.33301 -296 -10s-191.333 -10 -226 -10c-218 0 -391.333 66.667 -520 200s-193 313 -193 539
c0 230 66.333 415.833 199 557.5s306 212.5 520 212.5c16.667 0 78.834 -3.16699 186.501 -9.5s207.167 -9.5 298.5 -9.5h41c8.66699 0 35.667 0.333008 81 1c167.333 2.66699 327.333 4.66699 480 6z" />
    <glyph glyph-name="oe" unicode="&#x153;" horiz-adv-x="1675" 
d="M1436 602l0.00195312 22.999c0 100.667 -19.833 178.334 -59.5 233.001s-95.834 82 -168.501 82c-78.667 0 -142.334 -31 -191.001 -93s-77 -148.333 -85 -259zM852.002 824.999c39.333 54 89.001 95.501 149.001 124.501s125.667 43.5 197 43.5
c116.667 0 209.667 -35.667 279 -107s104 -167.333 104 -288v-55l-653 -17v-14c0 -138 26.5 -243.833 79.5 -317.5s129.5 -110.5 229.5 -110.5c73.333 0 135.666 17.833 186.999 53.5s89.333 87.5 114 155.5l43 -17c-28.667 -96 -77.167 -169 -145.5 -219
s-154.166 -75 -257.499 -75c-80.667 0 -150 14.167 -208 42.5s-102.667 70.166 -134 125.499c-48.667 -58 -100.834 -100.5 -156.501 -127.5s-118.167 -40.5 -187.5 -40.5c-125.333 0 -225.333 44 -300 132s-112 207 -112 357c0 158.667 41 285.667 123 381
s189.667 143 323 143c68 0 128.5 -13.667 181.5 -41s101.167 -70.333 144.5 -129zM510.003 940c-76.667 0 -137.167 -40.1689 -181.5 -120.502s-66.5 -191.166 -66.5 -332.499s21.5 -251.666 64.5 -330.999s102.167 -119 177.5 -119c76.667 0 137.167 40 181.5 120
s66.5 190 66.5 330c0 142 -21.5 253 -64.5 333s-102.167 120 -177.5 120z" />
    <glyph glyph-name="Scedilla" unicode="&#x15e;" horiz-adv-x="1251" 
d="M993 1366l17 75.998h44l-3.5 -109.5c-1 -31.667 -1.5 -58.167 -1.5 -79.5c0 -31.333 0.5 -65 1.5 -101s2.16699 -74.667 3.5 -116h-48c-11.333 125.333 -49 220.833 -113 286.5s-151.333 98.5 -262 98.5c-86.667 0 -157.5 -26 -212.5 -78s-82.5 -118.667 -82.5 -200
c0 -70.667 20.667 -127.834 62 -171.501s121.666 -87.5 240.999 -131.5c200 -75.333 328.833 -143.833 386.5 -205.5s86.5 -141.5 86.5 -239.5c0 -120.667 -45.5 -219.667 -136.5 -297s-208.5 -116 -352.5 -116c-72.667 0 -141.167 12.333 -205.5 37s-125.833 62 -184.5 112
l-22 -92h-45c0 48 0.666992 98.333 2 151s2 81.334 2 86.001c0 5.33301 -0.666992 33.166 -2 83.499s-2 98.5 -2 144.5h57c6.66699 -144.667 45.167 -257 115.5 -337s165.833 -120 286.5 -120c92 0 165.833 26.333 221.5 79s83.5 122.667 83.5 210c0 66 -21 120.667 -63 164
s-119 86.333 -231 129c-12 4.66699 -30.333 11.334 -55 20.001c-128 46.667 -217.333 88.334 -268 125.001c-51.333 38 -88.666 80.333 -111.999 127s-35 103.334 -35 170.001c0 126 40.5 227.167 121.5 303.5s188.5 114.5 322.5 114.5c74.667 0 143 -10 205 -30
s121.333 -51 178 -93zM578 1.99805l47.0029 0.000976562v-114c17.333 2 32 3.33301 44 4s22.667 1.33398 32 2.00098c52 0 93.667 -14.833 125 -44.5s47 -68.834 47 -117.501c0 -54.667 -19.167 -97 -57.5 -127s-91.5 -45 -159.5 -45c-43.333 0 -89.666 6.66699 -138.999 20
s-98 32.666 -146 57.999l31 71c39.333 -23.333 78.666 -41.5 117.999 -54.5s75.666 -19.5 108.999 -19.5c39.333 0 69 8.16699 89 24.5s30 40.5 30 72.5c0 28.667 -9.83301 51.167 -29.5 67.5s-46.834 24.5 -81.501 24.5c-7.33301 0 -22.333 -1 -45 -3
c-6.66699 -0.666992 -11.334 -1 -14.001 -1v182z" />
    <glyph glyph-name="scedilla" unicode="&#x15f;" horiz-adv-x="854" 
d="M662 909l16 58.002h45c-1.33301 -22 -2.33301 -44 -3 -66s-1 -49.333 -1 -82c0 -26.667 1 -68.334 3 -125.001c0.666992 -5.33301 1 -9.33301 1 -12h-49c-9.33301 83.333 -37 146.833 -83 190.5s-108.667 65.5 -188 65.5c-56 0 -101.333 -16 -136 -48
s-52 -73.333 -52 -124c0 -44.667 14.833 -79.834 44.5 -105.501s102.167 -55.5 217.5 -89.5c110.667 -32 188.834 -70.333 234.501 -115s68.5 -103 68.5 -175c0 -92 -32 -164.833 -96 -218.5s-151.333 -80.5 -262 -80.5c-51.333 0 -99 6.83301 -143 20.5
s-86.333 34.834 -127 63.501l-13 -66h-48c1.33301 40.667 2.5 82.167 3.5 124.5s1.5 86.166 1.5 131.499c0 24.667 -0.5 43.167 -1.5 55.5s-2.16699 23.833 -3.5 34.5h56c5.33301 -102.667 31.666 -179.5 78.999 -230.5s116 -76.5 206 -76.5c66 0 117.333 16 154 48
s55 76.667 55 134c0 48 -14.833 85.833 -44.5 113.5s-86.5 54.167 -170.5 79.5v0c-230.667 69.333 -346 166.333 -346 291c0 86 29.833 155.833 89.5 209.5s138.5 80.5 236.5 80.5c51.333 0 98 -7 140 -21s80.667 -35.667 116 -65zM379 2.00195l47.0029 0.000976562v-114
c17.333 2 32 3.33301 44 4s22.667 1.33398 32 2.00098c52 0 93.667 -14.833 125 -44.5s47 -68.834 47 -117.501c0 -54.667 -19.167 -97 -57.5 -127s-91.5 -45 -159.5 -45c-43.333 0 -89.666 6.66699 -138.999 20s-98 32.666 -146 57.999l31 71
c39.333 -23.333 78.666 -41.5 117.999 -54.5s75.666 -19.5 108.999 -19.5c39.333 0 69 8.16699 89 24.5s30 40.5 30 72.5c0 28.667 -9.83301 51.167 -29.5 67.5s-46.834 24.5 -81.501 24.5c-7.33301 0 -22.333 -1 -45 -3c-6.66699 -0.666992 -11.334 -1 -14.001 -1v182z" />
    <glyph glyph-name="Scaron" unicode="&#x160;" horiz-adv-x="1251" 
d="M993 1366l17 75.998h44l-3.5 -109.5c-1 -31.667 -1.5 -58.167 -1.5 -79.5c0 -31.333 0.5 -65 1.5 -101s2.16699 -74.667 3.5 -116h-48c-11.333 125.333 -49 220.833 -113 286.5s-151.333 98.5 -262 98.5c-86.667 0 -157.5 -26 -212.5 -78s-82.5 -118.667 -82.5 -200
c0 -70.667 20.667 -127.834 62 -171.501s121.666 -87.5 240.999 -131.5c200 -75.333 328.833 -143.833 386.5 -205.5s86.5 -141.5 86.5 -239.5c0 -120.667 -45.5 -219.667 -136.5 -297s-208.5 -116 -352.5 -116c-72.667 0 -141.167 12.333 -205.5 37s-125.833 62 -184.5 112
l-22 -92h-45c0 48 0.666992 98.333 2 151s2 81.334 2 86.001c0 5.33301 -0.666992 33.166 -2 83.499s-2 98.5 -2 144.5h57c6.66699 -144.667 45.167 -257 115.5 -337s165.833 -120 286.5 -120c92 0 165.833 26.333 221.5 79s83.5 122.667 83.5 210c0 66 -21 120.667 -63 164
s-119 86.333 -231 129c-12 4.66699 -30.333 11.334 -55 20.001c-128 46.667 -217.333 88.334 -268 125.001c-51.333 38 -88.666 80.333 -111.999 127s-35 103.334 -35 170.001c0 126 40.5 227.167 121.5 303.5s188.5 114.5 322.5 114.5c74.667 0 143 -10 205 -30
s121.333 -51 178 -93zM344 1944h58l225 -199l225 199h56l-220 -338h-122z" />
    <glyph glyph-name="scaron" unicode="&#x161;" horiz-adv-x="854" 
d="M662 909l16 58.002h45c-1.33301 -22 -2.33301 -44 -3 -66s-1 -49.333 -1 -82c0 -26.667 1 -68.334 3 -125.001c0.666992 -5.33301 1 -9.33301 1 -12h-49c-9.33301 83.333 -37 146.833 -83 190.5s-108.667 65.5 -188 65.5c-56 0 -101.333 -16 -136 -48
s-52 -73.333 -52 -124c0 -44.667 14.833 -79.834 44.5 -105.501s102.167 -55.5 217.5 -89.5c110.667 -32 188.834 -70.333 234.501 -115s68.5 -103 68.5 -175c0 -92 -32 -164.833 -96 -218.5s-151.333 -80.5 -262 -80.5c-51.333 0 -99 6.83301 -143 20.5
s-86.333 34.834 -127 63.501l-13 -66h-48c1.33301 40.667 2.5 82.167 3.5 124.5s1.5 86.166 1.5 131.499c0 24.667 -0.5 43.167 -1.5 55.5s-2.16699 23.833 -3.5 34.5h56c5.33301 -102.667 31.666 -179.5 78.999 -230.5s116 -76.5 206 -76.5c66 0 117.333 16 154 48
s55 76.667 55 134c0 48 -14.833 85.833 -44.5 113.5s-86.5 54.167 -170.5 79.5v0c-230.667 69.333 -346 166.333 -346 291c0 86 29.833 155.833 89.5 209.5s138.5 80.5 236.5 80.5c51.333 0 98 -7 140 -21s80.667 -35.667 116 -65zM145 1442h58l225 -199l225 199h56
l-220 -338h-122z" />
    <glyph glyph-name="Ydieresis" unicode="&#x178;" horiz-adv-x="1210" 
d="M-16 1470l150.499 -7.49902c34.333 -1.66699 62.5 -2.5 84.5 -2.5c34.667 0 73.167 0.833008 115.5 2.5s93.166 4.16699 152.499 7.5v-67c-45.333 0 -77 -4.66699 -95 -14s-27 -25.333 -27 -48c0 -6.66699 0.666992 -12.667 2 -18s3.33301 -10.333 6 -15l305 -542
l252 469c12 21.333 20.833 40.166 26.5 56.499s8.5 30.833 8.5 43.5c0 25.333 -9.16699 43 -27.5 53s-52.833 15 -103.5 15v67c46 -3.33301 84 -5.83301 114 -7.5s55.333 -2.5 76 -2.5s45.5 0.833008 74.5 2.5s66.167 4.16699 111.5 7.5v-67
c-43.333 -4 -74.166 -11 -92.499 -21s-35.833 -30.333 -52.5 -61l-352 -631v-457c0 -76 9.66699 -122.833 29 -140.5s66.333 -26.5 141 -26.5h24v-66c-82 4 -142.667 6.66699 -182 8s-70.666 2 -93.999 2c-28.667 0 -65.667 -0.666992 -111 -2s-108.666 -4 -189.999 -8v66
h24c74.667 0 121.667 9.16699 141 27.5s29 64.833 29 139.5v437l-352 600v0c-50.667 88.667 -111.334 133 -182.001 133h-6v67zM787.999 1884c30 0 56.333 -11.167 79 -33.5s34 -48.5 34 -78.5c0 -32.667 -10.667 -59.667 -32 -81s-48.333 -32 -81 -32
c-32 0 -58.667 10.667 -80 32s-32 48.333 -32 81c0 30 11.167 56.167 33.5 78.5s48.5 33.5 78.5 33.5zM425.999 1884c29.333 0 55 -11.167 77 -33.5s33 -48.5 33 -78.5c0 -32.667 -10.333 -59.667 -31 -81s-47 -32 -79 -32c-33.333 0 -60.833 10.667 -82.5 32
s-32.5 48.333 -32.5 81c0 30 11.5 56.167 34.5 78.5s49.833 33.5 80.5 33.5z" />
    <glyph glyph-name="Zcaron" unicode="&#x17d;" horiz-adv-x="1327" 
d="M111 1475c36.667 -0.666992 81.332 -1.66699 133.999 -3s84.334 -2 95.001 -2h879v-6l-865 -1398h494c144.667 0 237.834 23.167 279.501 69.5s67.167 145.833 76.5 298.5h56l-19 -434h-1161v4l866 1399h-442c-148.667 0 -243.334 -20.667 -284.001 -62
s-65.667 -126 -75 -254h-55zM380.998 1944h58l225 -199l225 199h56l-220 -338h-122z" />
    <glyph glyph-name="zcaron" unicode="&#x17e;" horiz-adv-x="934" 
d="M74 977h773.999v-10l-592 -910h266c120 0 196.5 15.5 229.5 46.5s50.167 92.5 51.5 184.5l45 1v-289h-813v10l588 910h-224c-112.667 0 -186.167 -13.167 -220.5 -39.5s-55.166 -77.5 -62.499 -153.5h-42v250zM183.999 1442h58l225 -199l225 199h56l-220 -338h-122z" />
    <glyph glyph-name="florin" unicode="&#x192;" horiz-adv-x="1139" 
d="M696 1083l-28.002 -233h206v-62h-215l-43 -370c-40 -342 -89.667 -570.167 -149 -684.5s-146.666 -171.5 -261.999 -171.5c-62.667 0 -114.5 16.833 -155.5 50.5s-61.5 76.167 -61.5 127.5c0 27.333 7.66699 49.833 23 67.5s35 26.5 59 26.5s44 -8.5 60 -25.5
s24 -38.5 24 -64.5c0 -20.667 -4.5 -40.334 -13.5 -59.001s-13.5 -29 -13.5 -31c0 -10 7.5 -19 22.5 -27s34.167 -12 57.5 -12c93.333 0 161 172 203 516l4 35l73 622h-198v62h209c26 214.667 67 368.334 123 461.001s135 139 237 139c66 0 120 -16.667 162 -50
s63 -75.333 63 -126c0 -28.667 -7.83301 -51.834 -23.5 -69.501s-36.5 -26.5 -62.5 -26.5c-21.333 0 -39.166 7.83301 -53.499 23.5s-21.5 35.167 -21.5 58.5c0 20 5 40.667 15 62s15 32.666 15 33.999c0 10.667 -8.5 20.834 -25.5 30.501s-37.167 14.5 -60.5 14.5
c-49.333 0 -86 -20.167 -110 -60.5s-44 -126.166 -60 -257.499z" />
    <glyph glyph-name="circumflex" unicode="&#x2c6;" 
d="M451 1442h122l220 -338h-56l-225 199l-225 -199h-58z" />
    <glyph glyph-name="caron" unicode="&#x2c7;" 
d="M229 1442h58l225 -199l225 199h56l-220 -338h-122z" />
    <glyph glyph-name="breve" unicode="&#x2d8;" 
d="M221 1407h49.0029c12 -46.667 37 -80.5 75 -101.5s93.667 -31.5 167 -31.5c74 0 129.667 10.5 167 31.5s61.666 54.833 72.999 101.5h49c-14.667 -88.667 -46.334 -155.5 -95.001 -200.5s-113.334 -67.5 -194.001 -67.5s-145.667 22.667 -195 68s-81.333 112 -96 200z
" />
    <glyph glyph-name="dotaccent" unicode="&#x2d9;" 
d="M512 1389c32 0 59.833 -12 83.5 -36s35.5 -51.667 35.5 -83c0 -34 -11.333 -62.333 -34 -85s-51 -34 -85 -34c-33.333 0 -61.166 11.333 -83.499 34s-33.5 51 -33.5 85c0 32 11.667 59.833 35 83.5s50.666 35.5 81.999 35.5z" />
    <glyph glyph-name="ring" unicode="&#x2da;" 
d="M512 1438c-34.667 0 -64.834 -12.8311 -90.501 -38.498s-38.5 -55.834 -38.5 -90.501c0 -34 12.833 -63.667 38.5 -89s55.834 -38 90.501 -38s64.5 12.333 89.5 37s37.5 54.667 37.5 90s-12.5 65.666 -37.5 90.999s-54.833 38 -89.5 38zM512 1532
c62.667 0 115.5 -21.5 158.5 -64.5s64.5 -95.167 64.5 -156.5c0 -62 -21.667 -114.833 -65 -158.5s-96 -65.5 -158 -65.5c-62.667 0 -115.5 21.667 -158.5 65s-64.5 96.333 -64.5 159c0 61.333 21.667 113.5 65 156.5s96 64.5 158 64.5z" />
    <glyph glyph-name="ogonek" unicode="&#x2db;" 
d="M584 35l46.998 0.000976562c-55.333 -42 -98.166 -85.5 -128.499 -130.5s-45.5 -86.833 -45.5 -125.5c0 -40 7.83301 -70.833 23.5 -92.5s37.834 -32.5 66.501 -32.5c24.667 0 46.834 5.66699 66.501 17s39.167 29.666 58.5 54.999l28 -17
c-24 -50 -54.833 -88.333 -92.5 -115s-79.834 -40 -126.501 -40c-47.333 0 -85.333 13.833 -114 41.5s-43 64.167 -43 109.5c0 56 21.333 111 64 165s108 109 196 165z" />
    <glyph glyph-name="tilde" unicode="&#x2dc;" 
d="M743 1411h41.001c-14 -72.667 -36.333 -127.334 -67 -164.001s-69 -55 -115 -55c-8 0 -16.167 0.5 -24.5 1.5s-17.166 2.5 -26.499 4.5l-107 27c-18.667 4 -32.334 6.66699 -41.001 8s-15.334 2 -20.001 2c-26.667 0 -48.167 -7.16699 -64.5 -21.5
s-28.833 -37.166 -37.5 -68.499h-41c12.667 70 34.834 124.333 66.501 163s69.5 58 113.5 58c8 0 17.333 -0.833008 28 -2.5s23.667 -4.16699 39 -7.5l109 -27c8.66699 -2 16.667 -3.5 24 -4.5s14.333 -1.5 21 -1.5c27.333 0 49.166 7 65.499 21s28.5 36.333 36.5 67z" />
    <glyph glyph-name="hungarumlaut" unicode="&#x2dd;" 
d="M848 1294l-221.002 -188h-60l174 285c16 26 31.833 45 47.5 57s32.834 18 51.501 18c20 0 36.833 -7 50.5 -21s20.5 -30.667 20.5 -50c0 -16.667 -4.66699 -32.667 -14 -48s-25.666 -33 -48.999 -53zM568.998 1303l-186.002 -197h-61l133 274
c13.333 29.333 27.833 51 43.5 65s33.167 21 52.5 21c18.667 0 35.334 -7 50.001 -21s22 -30.667 22 -50c0 -14 -4.16699 -28.167 -12.5 -42.5s-22.166 -30.833 -41.499 -49.5z" />
    <glyph glyph-name="Omega" unicode="&#x3a9;" horiz-adv-x="1567" 
d="M1100 188l0.00195312 -25.999h313l66 203h61l-108 -365h-500c89.333 155.333 156.666 305.666 201.999 450.999s68 283 68 413c0 180.667 -35.833 319.334 -107.5 416.001s-174.5 145 -308.5 145s-237 -48.333 -309 -145s-108 -235.334 -108 -416.001
c0 -130 22.667 -267 68 -411s113.333 -295 204 -453h-500l-110 365h61l68 -203h311v26c-110 135.333 -188 255.833 -234 361.5s-69 214.834 -69 327.501c0 181.333 58.167 330 174.5 446s264.166 174 443.499 174s327 -58.167 443 -174.5s174 -264.833 174 -445.5
c0 -112.667 -23 -221.834 -69 -327.501s-124 -226.167 -234 -361.5z" />
    <glyph glyph-name="pi" unicode="&#x3c0;" horiz-adv-x="1354" 
d="M1329 885l-35.002 -162h-329c-22.667 -119.333 -40.667 -270 -54 -452c-15.333 -209.333 -55.333 -314 -120 -314c-25.333 0 -44.666 8.16699 -57.999 24.5s-20 39.5 -20 69.5c0 38.667 25.667 132.167 77 280.5s90.333 278.833 117 391.5h-375
c-22 -118 -39.667 -267.333 -53 -448c-16.667 -212 -57.667 -318 -123 -318c-24.667 0 -43.667 8.33301 -57 25s-20 40.334 -20 71.001c0 37.333 25.833 129.666 77.5 276.999s91.167 278.333 118.5 393h-133c-90.667 0 -150.667 -14.5 -180 -43.5
s-53.333 -86.167 -72 -171.5h-59c24.667 138 63.834 235.333 117.501 292s133.167 85 238.5 85h942z" />
    <glyph glyph-name="endash" unicode="&#x2013;" 
d="M0 545h1024v-84h-1024v84z" />
    <glyph glyph-name="emdash" unicode="&#x2014;" horiz-adv-x="2048" 
d="M0 545h2048v-84h-2048v84z" />
    <glyph glyph-name="quoteleft" unicode="&#x2018;" horiz-adv-x="522" 
d="M334 1489l33.001 -39c-47.333 -40.667 -82.5 -81.167 -105.5 -121.5s-34.5 -81.166 -34.5 -122.499c0 -9.33301 0.166992 -16.166 0.5 -20.499s0.833008 -8.83301 1.5 -13.5h5c18.667 2.66699 32 4 40 4c29.333 0 52.833 -9 70.5 -27s26.5 -42 26.5 -72
s-9.5 -54.833 -28.5 -74.5s-43.167 -29.5 -72.5 -29.5c-36 0 -66.833 15.167 -92.5 45.5s-38.5 67.5 -38.5 111.5c0 65.333 16.667 128.666 50 189.999s81.666 117.666 144.999 168.999z" />
    <glyph glyph-name="quoteright" unicode="&#x2019;" horiz-adv-x="522" 
d="M193 973l-33.001 38.999c46 40 80.333 80.167 103 120.5s34 81.833 34 124.5c0 9.33301 -0.166992 16.333 -0.5 21s-1.16602 8.66699 -2.49902 12c-7.33301 -2 -15 -3.5 -23 -4.5s-15 -1.5 -21 -1.5c-28.667 0 -51.5 9.16699 -68.5 27.5s-25.5 42.5 -25.5 72.5
c0 30.667 9.5 55.834 28.5 75.501s42.833 29.5 71.5 29.5c36.667 0 67.667 -15.5 93 -46.5s38 -69.5 38 -115.5c0 -63.333 -16.667 -125.5 -50 -186.5s-81.333 -116.833 -144 -167.5z" />
    <glyph glyph-name="quotesinglbase" unicode="&#x201a;" horiz-adv-x="522" 
d="M170 -330l-37 40.999c50 42.667 87.167 85.334 111.5 128.001s36.5 86.667 36.5 132c0 10 -0.166992 17.167 -0.5 21.5s-1.16602 8.83301 -2.49902 13.5c-8 -2 -16 -3.5 -24 -4.5s-15.667 -1.5 -23 -1.5c-30.667 0 -55.334 9.5 -74.001 28.5s-28 44.167 -28 75.5
c0 32 10.167 58.5 30.5 79.5s45.833 31.5 76.5 31.5c40.667 0 73.667 -16.833 99 -50.5s38 -78.167 38 -133.5c0 -62 -17.667 -124.333 -53 -187s-85.333 -120.667 -150 -174z" />
    <glyph glyph-name="quotedblleft" unicode="&#x201c;" horiz-adv-x="895" 
d="M709 1489l31.999 -39.0029c-46.667 -40.667 -81.5 -81.167 -104.5 -121.5s-34.5 -81.166 -34.5 -122.499c0 -9.33301 0.166992 -16.166 0.5 -20.499s0.833008 -8.83301 1.5 -13.5h5c18.667 2.66699 32 4 40 4c28.667 0 51.834 -9 69.501 -27s26.5 -42 26.5 -72
s-9.33301 -54.833 -28 -74.5s-42.667 -29.5 -72 -29.5c-36.667 0 -68 15.167 -94 45.5s-39 67.5 -39 111.5c0 64.667 16.833 127.834 50.5 189.501s82.5 118.167 146.5 169.5zM333.999 1489l33.001 -39c-47.333 -40.667 -82.5 -81.167 -105.5 -121.5
s-34.5 -81.166 -34.5 -122.499c0 -9.33301 0.166992 -16.166 0.5 -20.499s0.833008 -8.83301 1.5 -13.5h5c18.667 2.66699 32 4 40 4c29.333 0 52.833 -9 70.5 -27s26.5 -42 26.5 -72s-9.5 -54.833 -28.5 -74.5s-43.167 -29.5 -72.5 -29.5c-36 0 -66.833 15.167 -92.5 45.5
s-38.5 67.5 -38.5 111.5c0 65.333 16.667 128.666 50 189.999s81.666 117.666 144.999 168.999z" />
    <glyph glyph-name="quotedblright" unicode="&#x201d;" horiz-adv-x="895" 
d="M567 973l-35.001 38.999c46.667 40 81.667 80.667 105 122s35 83.333 35 126c0 8 -0.166992 14 -0.5 18s-1.16602 8 -2.49902 12c-8 -2 -15.833 -3.5 -23.5 -4.5s-14.5 -1.5 -20.5 -1.5c-28.667 0 -51.667 9.16699 -69 27.5s-26 42.5 -26 72.5
c0 30.667 9.33301 55.834 28 75.501s42.334 29.5 71.001 29.5c36.667 0 68 -15.5 94 -46.5s39 -69.5 39 -115.5c0 -63.333 -16.833 -125.5 -50.5 -186.5s-81.834 -116.833 -144.501 -167.5zM192.999 972.999l-33.001 38.999c46 40 80.333 80.167 103 120.5
s34 81.833 34 124.5c0 9.33301 -0.166992 16.333 -0.5 21s-1.16602 8.66699 -2.49902 12c-7.33301 -2 -15 -3.5 -23 -4.5s-15 -1.5 -21 -1.5c-28.667 0 -51.5 9.16699 -68.5 27.5s-25.5 42.5 -25.5 72.5c0 30.667 9.5 55.834 28.5 75.501s42.833 29.5 71.5 29.5
c36.667 0 67.667 -15.5 93 -46.5s38 -69.5 38 -115.5c0 -63.333 -16.667 -125.5 -50 -186.5s-81.333 -116.833 -144 -167.5z" />
    <glyph glyph-name="quotedblbase" unicode="&#x201e;" horiz-adv-x="895" 
d="M545 -330l-37 40.999c50 42.667 87 85.334 111 128.001s36 86.667 36 132c0 10 -0.166992 17.333 -0.5 22s-0.833008 9 -1.5 13c-8 -2 -16 -3.5 -24 -4.5s-15.667 -1.5 -23 -1.5c-30.667 0 -55.334 9.5 -74.001 28.5s-28 44.167 -28 75.5c0 32 10.167 58.5 30.5 79.5
s45.5 31.5 75.5 31.5c40.667 0 73.834 -16.833 99.501 -50.5s38.5 -78.167 38.5 -133.5c0 -62.667 -17.5 -125 -52.5 -187s-85.167 -120 -150.5 -174zM170 -330.001l-37 40.999c50 42.667 87.167 85.334 111.5 128.001s36.5 86.667 36.5 132
c0 10 -0.166992 17.167 -0.5 21.5s-1.16602 8.83301 -2.49902 13.5c-8 -2 -16 -3.5 -24 -4.5s-15.667 -1.5 -23 -1.5c-30.667 0 -55.334 9.5 -74.001 28.5s-28 44.167 -28 75.5c0 32 10.167 58.5 30.5 79.5s45.833 31.5 76.5 31.5c40.667 0 73.667 -16.833 99 -50.5
s38 -78.167 38 -133.5c0 -62 -17.667 -124.333 -53 -187s-85.333 -120.667 -150 -174z" />
    <glyph glyph-name="dagger" unicode="&#x2020;" horiz-adv-x="985" 
d="M494 1489c30.667 -18 52.667 -36.6699 66 -56.0029s20 -43 20 -71c0 -8.66699 -3.66699 -52.167 -11 -130.5s-13.333 -152.833 -18 -223.5l103 22c61.333 14 99.333 21 114 21c26.667 0 48.167 -3.66699 64.5 -11s28.833 -18.666 37.5 -33.999
c-11.333 -21.333 -27.666 -37 -48.999 -47s-48 -15 -80 -15c-14 0 -42.833 2 -86.5 6s-78.167 6.66699 -103.5 8l-31 -1280h-55l-31 1280c-25.333 -1.33301 -59.833 -4 -103.5 -8s-72.5 -6 -86.5 -6c-31.333 0 -57.333 5 -78 15s-37 25.667 -49 47
c7.33301 14.667 19.166 25.834 35.499 33.501s37.833 11.5 64.5 11.5c15.333 0 53.333 -7 114 -21l103 -22c-4 68.667 -9.33301 142.334 -16 221.001s-10 123 -10 133c0 29.333 6.5 53.5 19.5 72.5s35.167 37.167 66.5 54.5z" />
    <glyph glyph-name="daggerdbl" unicode="&#x2021;" horiz-adv-x="985" 
d="M469 465l49 0.000976562l21 -522c21.333 1.33301 51.166 4 89.499 8s63.833 6 76.5 6c30.667 0 55.667 -4.16699 75 -12.5s32.333 -20.5 39 -36.5c-8 -13.333 -19.667 -23.5 -35 -30.5s-33.666 -10.5 -54.999 -10.5c-16.667 0 -46.334 4.5 -89.001 13.5
s-77 14.5 -103 16.5c1.33301 -54 4.33301 -110.333 9 -169s7 -91 7 -97c0 -26 -4.33301 -45.5 -13 -58.5s-24 -24.167 -46 -33.5c-23.333 9.33301 -39.5 20.666 -48.5 33.999s-13.5 32.666 -13.5 57.999c0 8.66699 2.16699 42.334 6.5 101.001s7.5 114 9.5 166
c-24.667 -2.66699 -58.5 -8.5 -101.5 -17.5s-73.167 -13.5 -90.5 -13.5c-21.333 0 -39.666 3.5 -54.999 10.5s-27 17.167 -35 30.5c8 16.667 21.167 29 39.5 37s43.5 12 75.5 12c13.333 0 39.333 -2 78 -6s67.667 -6.66699 87 -8zM494 1489
c22 -9.33301 37.333 -20.498 46 -33.498s13 -32.5 13 -58.5c0 -7.33301 -2.33301 -39.833 -7 -97.5s-7.66699 -113.167 -9 -166.5c25.333 2 59.333 7.16699 102 15.5s72.667 12.5 90 12.5c21.333 0 39.666 -3.5 54.999 -10.5s27 -17.167 35 -30.5
c-6.66699 -16 -19.667 -28.167 -39 -36.5s-44.333 -12.5 -75 -12.5c-12.667 0 -38.167 2 -76.5 6s-68.166 6.66699 -89.499 8l-21 -520h-49l-23 520c-21.333 -1.33301 -51.166 -4 -89.499 -8s-63.5 -6 -75.5 -6c-32 0 -57.167 4 -75.5 12s-31.5 20.333 -39.5 37
c8 13.333 19.667 23.5 35 30.5s33.666 10.5 54.999 10.5c17.333 0 47.5 -4.16699 90.5 -12.5s76.833 -13.5 101.5 -15.5c-2 51.333 -5.16699 106 -9.5 164s-6.5 91.333 -6.5 100c0 25.333 4.5 44.666 13.5 57.999s25.167 24.666 48.5 33.999z" />
    <glyph glyph-name="bullet" unicode="&#x2022;" horiz-adv-x="1208" 
d="M307 762c0 82 28.999 151.666 86.999 208.999s128 86 210 86c81.333 0 150.833 -28.833 208.5 -86.5s86.5 -127.167 86.5 -208.5s-29.167 -151.166 -87.5 -209.499s-128.166 -87.5 -209.499 -87.5c-82 0 -151.667 29 -209 87s-86 128 -86 210z" />
    <glyph glyph-name="ellipsis" unicode="&#x2026;" horiz-adv-x="2048" 
d="M342 215c28 0 50.667 -10.333 68 -31s26 -48 26 -82s-8.66699 -61.167 -26 -81.5s-40 -30.5 -68 -30.5c-28.667 0 -51.667 10.167 -69 30.5s-26 47.5 -26 81.5s8.66699 61.333 26 82s40.333 31 69 31zM1024 215c28 0 50.667 -10.333 68 -31s26 -48 26 -82
s-8.66699 -61.167 -26 -81.5s-40 -30.5 -68 -30.5c-28.667 0 -51.667 10.167 -69 30.5s-26 47.5 -26 81.5s8.66699 61.333 26 82s40.333 31 69 31zM1708 215c28 0 50.667 -10.333 68 -31s26 -48 26 -82s-8.66699 -61.167 -26 -81.5s-40 -30.5 -68 -30.5
c-28.667 0 -51.667 10.167 -69 30.5s-26 47.5 -26 81.5s8.66699 61.333 26 82s40.333 31 69 31z" />
    <glyph glyph-name="perthousand" unicode="&#x2030;" horiz-adv-x="2304" 
d="M1909 809c-57.333 0 -102.832 -37.333 -136.499 -112s-50.5 -176.667 -50.5 -306c0 -114 15.333 -201.833 46 -263.5s74 -92.5 130 -92.5c56.667 0 101.667 37.333 135 112s50 176.667 50 306c0 112.667 -15.333 200.167 -46 262.5s-73.334 93.5 -128.001 93.5zM1202 809
c-56.667 0 -101.834 -37.333 -135.501 -112s-50.5 -176.667 -50.5 -306c0 -114 15.167 -201.833 45.5 -263.5s73.833 -92.5 130.5 -92.5c56 0 100.667 37.333 134 112s50 176.667 50 306c0 112.667 -15.167 200.167 -45.5 262.5s-73.166 93.5 -128.499 93.5zM1905 862
c94 0 169 -38 225 -114s84 -178.667 84 -308c0 -142 -28.333 -253.833 -85 -335.5s-133.667 -122.5 -231 -122.5c-94.667 0 -169.5 37.667 -224.5 113s-82.5 179 -82.5 311c0 140 28.333 251 85 333s133 123 229 123zM1198 862c94 0 168.999 -38 224.999 -114
s84 -178.667 84 -308c0 -142 -28.167 -253.833 -84.5 -335.5s-133.166 -122.5 -230.499 -122.5c-94.667 0 -169.5 37.667 -224.5 113s-82.5 179 -82.5 311c0 140 28.167 251 84.5 333s132.5 123 228.5 123zM406 1397c-56.667 0 -101.666 -37.498 -134.999 -112.498
s-50 -176.833 -50 -305.5c0 -112.667 15 -200.167 45 -262.5s71.667 -93.5 125 -93.5c59.333 0 105.666 36.667 138.999 110s50 175.666 50 306.999c0 115.333 -15 203.666 -45 264.999s-73 92 -129 92zM1217 1450h88l-924 -1468h-90zM403.001 1450
c98 0 173.833 -38.333 227.5 -115s80.5 -185 80.5 -325c0 -132.667 -28.833 -239.334 -86.5 -320.001s-133.5 -121 -227.5 -121s-168.667 37.833 -224 113.5s-83 178.5 -83 308.5c0 142.667 28 254.834 84 336.501s132.333 122.5 229 122.5z" />
    <glyph glyph-name="guilsinglleft" unicode="&#x2039;" horiz-adv-x="516" 
d="M227 487c84.667 -104.667 140 -175.671 166 -213.004s39 -61.666 39 -72.999c0 -4 -1.66699 -7.5 -5 -10.5s-7 -4.5 -11 -4.5c-5.33301 0 -43 34.5 -113 103.5s-144.333 133.5 -223 193.5v11c78 58.667 151.833 122.834 221.5 192.501s108.5 104.5 116.5 104.5
c3.33301 -0.666992 6.5 -2.66699 9.5 -6s4.5 -7 4.5 -11c0 -11.333 -13 -35.666 -39 -72.999s-81.333 -108.666 -166 -213.999z" />
    <glyph glyph-name="guilsinglright" unicode="&#x203a;" horiz-adv-x="516" 
d="M414 494v-10.998c-78.667 -59.333 -152.834 -123.666 -222.501 -192.999s-107.5 -104 -113.5 -104c-4.66699 0 -8.66699 1.66699 -12 5s-5 7.33301 -5 12c0 11.333 16.167 39.5 48.5 84.5s84.5 111.5 156.5 199.5c-84 105.333 -139.167 176.666 -165.5 213.999
s-39.5 61.666 -39.5 72.999c0.666992 4.66699 2.33398 8.5 5.00098 11.5s6 4.83301 10 5.5c7.33301 0 46 -34.833 116 -104.5s144 -133.834 222 -192.501z" />
    <glyph glyph-name="franc" unicode="&#x20a3;" horiz-adv-x="2083" 
d="M119 1470h1089c0.666992 -36.667 2.5 -81.334 5.5 -134.001s8.16699 -134 15.5 -244h-51c-18 124.667 -51.667 207.667 -101 249s-144.666 62 -285.999 62h-318v-612h160c96.667 0 157.5 14.333 182.5 43s40.167 91.334 45.5 188.001h48
c-2 -67.333 -3.5 -124.5 -4.5 -171.5s-1.5 -83.5 -1.5 -109.5c0 -34 0.5 -75.667 1.5 -125s2.5 -105.666 4.5 -168.999h-49c-4.66699 117.333 -19.667 192.666 -45 225.999s-86 50 -182 50h-160v-490c0 -76 9.83301 -122.833 29.5 -140.5s66.5 -26.5 140.5 -26.5h25v-66
h-549v66c72 0 117.667 9.16699 137 27.5s29 64.833 29 139.5v1004c0 75.333 -9.33301 121.5 -28 138.5s-64.667 26.167 -138 27.5v67zM1620 995v-272.003c36.667 90.667 78 158.667 124 204s96.333 68 151 68c42.667 0 77.5 -14.167 104.5 -42.5s40.5 -64.5 40.5 -108.5
c0 -32.667 -7.5 -58 -22.5 -76s-36.167 -27 -63.5 -27s-48.5 8.5 -63.5 25.5s-22.5 41.5 -22.5 73.5c0 14.667 2 29.834 6 45.501s10.333 31.834 19 48.501h-13c-65.333 0 -124.333 -47.667 -177 -143s-79 -207.333 -79 -336v-260c0 -57.333 11 -94 33 -110
s88.333 -25.333 199 -28l-1 -57c-69.333 3.33301 -129.666 5.83301 -180.999 7.5s-98 2.5 -140 2.5c-10.667 0 -55.334 -1.66699 -134.001 -5l-105 -5v57c84 8 133.333 18.333 148 31s22 48.334 22 107.001v585c0 56 -8.83301 90.5 -26.5 103.5s-65.5 20.167 -143.5 21.5v57
c54.667 3.33301 109 7.83301 163 13.5s108 12.167 162 19.5z" />
    <glyph glyph-name="trademark" unicode="&#x2122;" horiz-adv-x="1683" 
d="M788 1438l183 0.00390625l141 -400l148 400h174v-25l-30 -2c-14.667 -1.33301 -26 -6.5 -34 -15.5s-12 -21.5 -12 -37.5v-373c0 -16 4 -28.5 12 -37.5s19.333 -14.167 34 -15.5l30 -2v-27h-236v27l31 2c14 1.33301 25 6.66602 33 15.999s12 21.666 12 36.999v395
l-178 -479h-15l-174 479v-395c0 -15.333 4.16699 -27.666 12.5 -36.999s19.833 -14.666 34.5 -15.999l31 -2v-27h-197v27l34 2c14 1.33301 24.833 6.66602 32.5 15.999s11.5 21.666 11.5 36.999v371c0 15.333 -4.16699 27.666 -12.5 36.999s-19.833 14.666 -34.5 15.999
l-31 2v27zM256 1438l440.001 -0.00292969l11 -178h-25c-5.33301 52.667 -18.833 91 -40.5 115s-53.834 36 -96.501 36h-21v-426c0 -15.333 4 -27.666 12 -36.999s19 -14.666 33 -15.999l31 -2v-27h-248v27l31 2c14 0.666992 25 5.83398 33 15.501s12 22.167 12 37.5v426h-20
c-42.667 0 -75 -12 -97 -36s-35.667 -62.333 -41 -115h-26z" />
    </font>
</defs>
</svg>
