<?xml version="1.0" encoding="utf-8"?>
<!-- Generator: Adobe Illustrator 19.2.1, SVG Export Plug-In . SVG Version: 6.00 Build 0)  -->
<svg version="1.1" id="Capa_1" xmlns="http://www.w3.org/2000/svg" xmlns:xlink="http://www.w3.org/1999/xlink" x="0px" y="0px"
	 viewBox="0 0 271.3 60" style="enable-background:new 0 0 271.3 60;" xml:space="preserve">
<style type="text/css">
	.st0{fill:#5E5E99;}
</style>
<g>
	<path class="st0" d="M78,23.7c-1.9-8.2-8.7-14.2-19.1-14.2c-8.6,0-19.1,4.9-21.3,13.8c-0.2,0.1-0.5,0.9-4.1,1.6
		c1.3,1.8,3,1.8,3.5,1.6c-0.1,0.8-0.1,1.6-0.1,2.5c0.1,9.7,5.7,20.1,20.6,20c12.1,0,22.2-9.9,20.9-21c1.3,0,2.7-0.5,3.7-2.5
		C79.1,26.7,78.1,24.3,78,23.7z M67.9,36.9c-1.3,5.8-3.2,9-6.1,10.2c-1.8,0.7-4,0.1-5.8-0.8c-7.1-3.7-10.5-14-8-25.1
		c1.6-7.2,4.6-9.4,7.3-9.8c1.3-0.3,3.1,0.2,4.5,0.9C67.3,16.1,70.4,26,67.9,36.9z"/>
	<path class="st0" d="M260.1,18.8h11.2v-5.6c-8.8,0-13.8,0.1-15,0.3c-3.5,0.5-6.3,1.6-8.4,4.6c-2.7,3.7-3.2,8.6-3.2,13.1
		c0,6.1,3.3,12.5,9.6,14c3.4,1.1,13.7,0.5,17,0.5v-5.6c-3.8,0-11.2,0.6-14.6-0.3c-3.9-1.1-4.6-5.8-4.6-9.3c0-3.2,0.5-7.6,2.8-9.9
		C256.2,19.4,257.9,18.8,260.1,18.8z"/>
	<path class="st0" d="M183.8,38.1c0.3-1.1,0.4-2.9,0.4-5.2V18.7v-0.2v-0.3v-0.3v-0.3v-0.3V17v-1.7c0-1.1-0.9-1.9-2-1.9h-2.8
		c-1.1,0-2,0.9-2,1.9V17c0,15.5-0.5,20.5-1.4,21.7c-1.1,1.3-3,2-5.8,2c-2.7,0-4.7-0.7-5.8-2c-0.9-1.1-1.4-3.1-1.4-6V18.6v-0.2v-0.3
		v-0.3v-0.3v-0.3V17v-1.7c0-1.1-0.9-2-2-2h-2.9c-1.1,0-2,0.9-2,2V17v0.3v0.3V18v0.3v0.3v0V35c0,1.7,0.2,3.1,0.7,4.2
		c1.5,3.2,4,6.1,7.9,6.3c2.7,0.4,6.6,0.2,9.4,0.1C178.9,45.6,182.5,42.9,183.8,38.1z"/>
	<polygon class="st0" points="130.5,38.2 122.3,13.3 112.3,13.3 112.3,45.8 119.3,45.8 118.5,20.3 127,45.8 134.3,45.8 142.6,20.5 
		142,45.8 148.7,45.8 148.7,13.3 138.8,13.3 	"/>
	<path class="st0" d="M222.5,37.7c0-2.3-0.2-4.1-0.5-5.3c-1.1-4.9-5.8-5.4-10-5.4c-7.2,0-11.3-0.3-12.1-0.9c-0.8-0.6-1.2-1.6-1.2-3
		c0-1.3,0.5-2.3,1.4-3c1-0.6,2.3-1,3.9-1c5.6,0,11.2,0,16.8,0c0-1.9,0-3.9,0-5.8c-6,0-12,0-17.9,0c-3.6,0-6.4,0.7-8.2,2.1
		c-2.1,1.7-3.2,4.4-3.2,8.4c0,3.9,1.7,6.5,5.1,7.9c1.6,0.6,4,0.9,7.5,0.9c2.5,0,8.8-0.5,10.4,1.1c0.8,0.8,0.8,2.4,0.8,3.4
		c0,0.9-0.6,1.7-1.7,2.3c-0.8,0.4-2,0.6-3.6,0.6c-5.7,0-11.4,0-17.1,0c0,1.9,0,3.9,0,5.8c9.4,0,16.3-0.2,20.7-0.7
		c3-0.3,4.9-0.8,5.7-1.3C221.5,42.1,222.5,40.1,222.5,37.7z"/>
	<path class="st0" d="M104,4c-0.6-0.9-1.2-1.7-1.9-2.4c-0.7-0.7-1.4-1.2-2-1.4c-0.3-0.1-0.6-0.2-0.9-0.2c-0.3,0-0.6,0-0.9,0
		c-1.1,0-2.1,0.2-3,0.6c-1,0.4-1.9,1-2.7,1.7c-0.8,0.7-1.5,1.5-2.1,2.3c-0.6,0.9-1.1,1.7-1.4,2.6c-0.4,1.1-0.8,2.4-1.1,3.8
		c-0.3,1.5-0.5,2.9-0.7,4.4c-0.2,1.5-0.3,3-0.4,4.5c-0.1,1.5-0.1,2.8-0.1,4c0,3.4,0.1,6.8,0.4,10.2c0.2,3,0.3,6,0.4,9.1
		c0.1,0.6,0,4.1-3.1,4.4c1.2,0.8,2.3,0.9,3.4-0.2c0.4,1.2,0.7,2.1,1.1,2.8c0.3,0.7,0.7,1.4,1.1,1.9c0.4,0.6,0.8,1.2,1.3,1.8
		c0.5,0.6,1.1,1.4,1.9,2.3c1.3-1.4,2.7-2.7,4.2-3.9c1.5-1.2,3-2.4,4.5-3.6c0.4-0.4,0.7-0.8,0.9-1.2c0.2-0.4,0.5-0.8,0.8-1.2
		l-0.4-0.2c-0.5,0.5-1,1-1.4,1.4c-0.4,0.5-0.9,1-1.3,1.5c-1.1-0.4-1.8-1.1-2.3-2.1c-0.5-1-0.7-2-0.7-3.1c0-1.4,0-2.9,0.1-4.3
		c0.1-1.5,0.1-2.9,0.1-4.4c0-3.3-0.1-6.6-0.2-9.9c-0.1-3.3-0.2-6.6-0.2-9.9c0-3.1,0.1-6.2,0.2-9.3c0.1-0.8,0.2-1.7,0.4-2.5
		c0.2-0.8,0.7-1.5,1.5-2c0.2-0.1,0.3-0.1,0.5-0.1c0.1,0,0.3,0,0.5,0c0.3,0,0.7,0.2,1.1,0.6c0.4,0.4,0.7,0.7,1,1
		c-0.6-0.2-1.2-0.1-1.9,0.2c-0.7,0.4-1,0.9-1,1.6c0,0.7,0.1,1.4,0.4,2c0.3,0.7,0.6,1.3,1.1,1.8c0.5,0.5,1,1,1.7,1.3
		c0.6,0.3,1.3,0.5,2.1,0.5c0.4,0,0.7-0.2,0.8-0.6c0.2-0.4,0.2-0.7,0.2-1c0-0.6-0.2-1.4-0.6-2.3C105.1,5.8,104.6,4.9,104,4z"/>
	<path class="st0" d="M23.5,28.8c-2.7-1.4-6.6-3-9.8-4.8c-3.3-2-5.4-4-5.4-7.9c0-2,1-4.2,3-5.6c4.2-3,7.6-2.5,10.2-1l0,0
		c0.1,0,0.2,0.1,0.3,0.1c0.2,0.2,0.5,0.3,0.7,0.5l0,0c0.4,0.3,0.7,0.6,1,0.9c0.1,0.1,0.2,0.2,0.3,0.3c-0.8-0.2-1.7,0-2.5,0.5
		c-3.5,2.1,0.7,7.4,3.5,8.5c4.7,1.9,4.9-0.9,3.8-3.8c-3.3-8.8-10-11.5-18.9-8c-4.2,2.1-7.4,5.7-7.3,9.9c0.1,6.2,4.8,9.6,11.9,13.1
		c7.1,3.6,10.4,5.8,10.4,10.3C24.6,51.2,4.3,53,1.6,43.5C2.2,44.1,3,44.4,4,44.4c8.6-0.1-3.5-19.7-4-6.9c-0.1,2.7,1.4,10.7,2.6,12.2
		c1.9,0.8,6.6,2.1,11.3,2.1c11.1,0,17.4-6.1,17.3-12.8C31.1,33.9,27.6,31,23.5,28.8z"/>
	<path class="st0" d="M230.4,46.3h4.7c1,0,1.8-0.8,1.8-1.8V15.1c0-1-0.8-1.8-1.8-1.8h-4.7c-1,0-1.8,0.8-1.8,1.8v29.3
		C228.6,45.5,229.4,46.3,230.4,46.3z"/>
	<polygon class="st0" points="156.2,59.9 157,59.9 157,56.6 160.1,56.6 160.1,55.8 157,55.8 157,53.4 160.5,53.4 160.5,52.6 
		156.2,52.6 	"/>
	<path class="st0" d="M167.7,53.5c-0.3-0.3-0.6-0.6-1.1-0.8c-0.4-0.2-0.9-0.3-1.4-0.3c-0.5,0-1,0.1-1.4,0.3
		c-0.4,0.2-0.8,0.4-1.1,0.8c-0.3,0.3-0.5,0.7-0.7,1.2c-0.2,0.5-0.2,1-0.2,1.5c0,0.6,0.1,1.1,0.2,1.5c0.2,0.5,0.4,0.9,0.7,1.2
		c0.3,0.3,0.6,0.6,1.1,0.8c0.4,0.2,0.9,0.3,1.4,0.3c0.5,0,1-0.1,1.4-0.3c0.4-0.2,0.8-0.4,1.1-0.8c0.3-0.3,0.5-0.7,0.7-1.2
		c0.2-0.5,0.2-1,0.2-1.5c0-0.6-0.1-1.1-0.2-1.5C168.2,54.2,168,53.9,167.7,53.5z M167.6,57.5c-0.1,0.4-0.3,0.7-0.5,0.9
		c-0.2,0.3-0.5,0.4-0.8,0.6c-0.3,0.1-0.6,0.2-1,0.2c-0.4,0-0.7-0.1-1-0.2c-0.3-0.1-0.6-0.3-0.8-0.6c-0.2-0.3-0.4-0.6-0.5-0.9
		c-0.1-0.4-0.2-0.8-0.2-1.3c0-0.5,0.1-0.9,0.2-1.3c0.1-0.4,0.3-0.7,0.5-0.9c0.2-0.3,0.5-0.4,0.8-0.6c0.3-0.1,0.6-0.2,1-0.2
		c0.4,0,0.7,0.1,1,0.2c0.3,0.1,0.6,0.3,0.8,0.6c0.2,0.3,0.4,0.6,0.5,0.9c0.1,0.4,0.2,0.8,0.2,1.3C167.8,56.7,167.7,57.2,167.6,57.5z
		"/>
	<path class="st0" d="M173.6,56.7c0.3,0,0.6-0.1,0.8-0.2c0.2-0.1,0.4-0.2,0.6-0.4c0.2-0.2,0.3-0.4,0.4-0.6c0.1-0.2,0.1-0.5,0.1-0.8
		c0-0.5-0.1-0.9-0.4-1.2c-0.3-0.3-0.7-0.6-1.2-0.7c-0.2-0.1-0.4-0.1-0.6-0.1c-0.2,0-0.5,0-0.8,0h-1.9v7.3h0.9v-3h1.1l2.2,3h0.9
		L173.6,56.7L173.6,56.7z M172.4,56.1h-0.9v-2.7h1c0.3,0,0.5,0,0.7,0c0.2,0,0.3,0,0.5,0.1c0.3,0.1,0.5,0.2,0.6,0.4
		c0.2,0.2,0.2,0.4,0.2,0.8c0,0.3-0.1,0.6-0.3,0.8c-0.2,0.2-0.4,0.4-0.7,0.5c-0.2,0-0.3,0.1-0.5,0.1
		C172.9,56.1,172.7,56.1,172.4,56.1z"/>
	<path class="st0" d="M189.4,52.6l-3,7.3h1l0.9-2.2h3.1l0.9,2.2h1l-3-7.3H189.4z M190.9,56.9h-2.4l0.3-0.7c0.3-0.7,0.6-1.6,0.9-2.5
		h0c0.3,0.9,0.6,1.7,0.9,2.5L190.9,56.9z"/>
	<polygon class="st0" points="234.5,53.4 236.9,53.4 236.9,59.9 237.8,59.9 237.8,53.4 240.2,53.4 240.2,52.6 234.5,52.6 	"/>
	<polygon class="st0" points="250.7,53.4 253.1,53.4 253.1,59.9 254,59.9 254,53.4 256.4,53.4 256.4,52.6 250.7,52.6 	"/>
	<rect x="241.7" y="52.6" class="st0" width="0.9" height="7.3"/>
	<path class="st0" d="M248.7,56.4c-0.2-0.1-0.5-0.3-0.7-0.3c-0.3-0.1-0.5-0.2-0.8-0.2c-0.2-0.1-0.4-0.1-0.6-0.2
		c-0.2-0.1-0.4-0.1-0.5-0.2c-0.1-0.1-0.3-0.2-0.3-0.3c-0.1-0.1-0.1-0.3-0.1-0.5c0-0.2,0-0.4,0.1-0.5c0.1-0.2,0.2-0.3,0.3-0.4
		c0.1-0.1,0.3-0.2,0.5-0.3c0.2-0.1,0.4-0.1,0.7-0.1c0.4,0,0.7,0,1,0.1c0.3,0.1,0.6,0.2,0.9,0.3v-0.8c-0.3-0.1-0.6-0.2-0.9-0.3
		c-0.3-0.1-0.7-0.1-1.1-0.1c-0.3,0-0.7,0-1,0.1c-0.3,0.1-0.6,0.2-0.8,0.4c-0.2,0.2-0.4,0.4-0.5,0.7c-0.1,0.3-0.2,0.6-0.2,1
		c0,0.4,0.1,0.6,0.2,0.9c0.1,0.2,0.3,0.4,0.5,0.6c0.2,0.1,0.5,0.3,0.7,0.3c0.3,0.1,0.5,0.2,0.8,0.2c0.2,0.1,0.4,0.1,0.6,0.2
		c0.2,0.1,0.4,0.1,0.5,0.2c0.1,0.1,0.3,0.2,0.4,0.4c0.1,0.1,0.1,0.3,0.1,0.5c0,0.3-0.1,0.5-0.2,0.7c-0.1,0.2-0.2,0.3-0.4,0.4
		c-0.2,0.1-0.4,0.2-0.6,0.2c-0.2,0-0.5,0.1-0.7,0.1c-0.2,0-0.3,0-0.5,0c-0.2,0-0.4-0.1-0.5-0.1c-0.2,0-0.3-0.1-0.5-0.1
		c-0.2-0.1-0.3-0.1-0.4-0.2v0.8c0.1,0.1,0.2,0.1,0.3,0.2c0.1,0.1,0.3,0.1,0.5,0.1c0.2,0,0.4,0.1,0.6,0.1c0.2,0,0.4,0,0.6,0
		c0.4,0,0.8,0,1.1-0.1c0.3-0.1,0.6-0.2,0.9-0.4c0.3-0.2,0.5-0.4,0.6-0.7c0.1-0.3,0.2-0.6,0.2-1c0-0.4-0.1-0.7-0.2-0.9
		C249.1,56.7,248.9,56.5,248.7,56.4z"/>
	<path class="st0" d="M259.6,52.6l-3,7.3h1l0.9-2.2h3.1l0.9,2.2h1l-3-7.3H259.6z M261.2,56.9h-2.4l0.3-0.7c0.3-0.7,0.6-1.6,0.9-2.5
		h0c0.3,0.9,0.6,1.7,0.9,2.5L261.2,56.9z"/>
	<path class="st0" d="M268.6,56.4c-0.2-0.1-0.5-0.3-0.7-0.3c-0.3-0.1-0.5-0.2-0.8-0.2c-0.2-0.1-0.4-0.1-0.6-0.2
		c-0.2-0.1-0.4-0.1-0.5-0.2c-0.1-0.1-0.3-0.2-0.3-0.3c-0.1-0.1-0.1-0.3-0.1-0.5c0-0.2,0-0.4,0.1-0.5c0.1-0.2,0.2-0.3,0.3-0.4
		c0.1-0.1,0.3-0.2,0.5-0.3c0.2-0.1,0.4-0.1,0.7-0.1c0.4,0,0.7,0,1,0.1c0.3,0.1,0.6,0.2,0.9,0.3v-0.8c-0.3-0.1-0.6-0.2-0.9-0.3
		c-0.3-0.1-0.7-0.1-1.1-0.1c-0.3,0-0.7,0-1,0.1c-0.3,0.1-0.6,0.2-0.8,0.4c-0.2,0.2-0.4,0.4-0.5,0.7c-0.1,0.3-0.2,0.6-0.2,1
		c0,0.4,0.1,0.6,0.2,0.9c0.1,0.2,0.3,0.4,0.5,0.6c0.2,0.1,0.5,0.3,0.7,0.3c0.3,0.1,0.5,0.2,0.8,0.2c0.2,0.1,0.4,0.1,0.6,0.2
		c0.2,0.1,0.4,0.1,0.5,0.2c0.1,0.1,0.3,0.2,0.4,0.4c0.1,0.1,0.1,0.3,0.1,0.5c0,0.3-0.1,0.5-0.2,0.7c-0.1,0.2-0.2,0.3-0.4,0.4
		c-0.2,0.1-0.4,0.2-0.6,0.2c-0.2,0-0.5,0.1-0.7,0.1c-0.2,0-0.3,0-0.5,0c-0.2,0-0.4-0.1-0.5-0.1c-0.2,0-0.3-0.1-0.5-0.1
		c-0.2-0.1-0.3-0.1-0.4-0.2v0.8c0.1,0.1,0.2,0.1,0.3,0.2c0.1,0.1,0.3,0.1,0.5,0.1c0.2,0,0.4,0.1,0.6,0.1c0.2,0,0.4,0,0.6,0
		c0.4,0,0.8,0,1.1-0.1c0.3-0.1,0.6-0.2,0.9-0.4c0.3-0.2,0.5-0.4,0.6-0.7c0.1-0.3,0.2-0.6,0.2-1c0-0.4-0.1-0.7-0.2-0.9
		C269,56.7,268.8,56.5,268.6,56.4z"/>
	<path class="st0" d="M231.2,56.7c0.3,0,0.6-0.1,0.8-0.2c0.2-0.1,0.4-0.2,0.6-0.4c0.2-0.2,0.3-0.4,0.4-0.6c0.1-0.2,0.1-0.5,0.1-0.8
		c0-0.5-0.1-0.9-0.4-1.2c-0.3-0.3-0.7-0.6-1.2-0.7c-0.2-0.1-0.4-0.1-0.6-0.1c-0.2,0-0.5,0-0.8,0h-1.9v7.3h0.9v-3h1.1l2.2,3h0.9
		L231.2,56.7L231.2,56.7z M230,56.1h-0.9v-2.7h1c0.3,0,0.5,0,0.7,0c0.2,0,0.3,0,0.5,0.1c0.3,0.1,0.5,0.2,0.6,0.4
		c0.2,0.2,0.2,0.4,0.2,0.8c0,0.3-0.1,0.6-0.3,0.8c-0.2,0.2-0.4,0.4-0.7,0.5c-0.2,0-0.3,0.1-0.5,0.1C230.5,56.1,230.3,56.1,230,56.1z
		"/>
	<path class="st0" d="M208,54c-0.2-0.3-0.5-0.5-0.8-0.8c-0.3-0.2-0.7-0.4-1.1-0.5c-0.2-0.1-0.5-0.1-0.8-0.1c-0.3,0-0.6,0-0.9,0h-1.7
		v7.3h1.6c0.3,0,0.6,0,0.9,0c0.3,0,0.5-0.1,0.8-0.1c0.4-0.1,0.8-0.3,1.1-0.5c0.3-0.2,0.6-0.5,0.8-0.8c0.2-0.3,0.4-0.6,0.5-1
		c0.1-0.4,0.2-0.8,0.2-1.2c0-0.4-0.1-0.8-0.2-1.2C208.3,54.7,208.2,54.3,208,54z M207.2,57.9c-0.3,0.5-0.7,0.8-1.3,0.9
		c-0.2,0.1-0.5,0.1-0.7,0.1c-0.3,0-0.6,0-0.9,0h-0.7v-5.7h0.7c0.3,0,0.6,0,0.9,0c0.3,0,0.5,0.1,0.7,0.1c0.6,0.2,1,0.5,1.3,0.9
		c0.3,0.4,0.5,1,0.5,1.7C207.7,56.9,207.5,57.5,207.2,57.9z"/>
	<path class="st0" d="M199.6,56.5c0,0.7,0,1.5,0.1,2.2h0c-0.4-0.7-0.9-1.3-1.3-2l-2.8-4h-0.9v7.3h0.9v-3.7c0-0.9,0-1.7-0.1-2.3h0
		c0.4,0.6,0.8,1.3,1.3,2l2.8,4h0.9v-7.3h-0.9V56.5z"/>
	<path class="st0" d="M223,52.6l-3,7.3h1l0.9-2.2h3.1l0.9,2.2h1l-3-7.3H223z M224.6,56.9h-2.4l0.3-0.7c0.3-0.7,0.6-1.6,0.9-2.5h0
		c0.3,0.9,0.6,1.7,0.9,2.5L224.6,56.9z"/>
	<path class="st0" d="M181.9,56.7c-0.2,0.4-0.4,1-0.6,1.7h0c-0.2-0.7-0.5-1.2-0.6-1.7l-1.7-4.1h-1.3v7.3h0.9v-3.5
		c0-0.8,0-1.8-0.1-2.8h0c0.3,0.7,0.5,1.4,0.8,1.9l1.8,4.3h0.4l1.8-4.3c0.2-0.6,0.5-1.2,0.8-1.9h0c-0.1,1-0.1,2-0.1,2.8v3.5h0.9v-7.3
		h-1.3L181.9,56.7z"/>
	<path class="st0" d="M216.1,53.5c-0.3-0.3-0.6-0.6-1.1-0.8c-0.4-0.2-0.9-0.3-1.4-0.3c-0.5,0-1,0.1-1.4,0.3
		c-0.4,0.2-0.8,0.4-1.1,0.8c-0.3,0.3-0.5,0.7-0.7,1.2c-0.2,0.5-0.2,1-0.2,1.5c0,0.6,0.1,1.1,0.2,1.5c0.2,0.5,0.4,0.9,0.7,1.2
		c0.3,0.3,0.6,0.6,1.1,0.8c0.4,0.2,0.9,0.3,1.4,0.3c0.5,0,1-0.1,1.4-0.3c0.4-0.2,0.8-0.4,1.1-0.8c0.3-0.3,0.5-0.7,0.7-1.2
		c0.2-0.5,0.2-1,0.2-1.5c0-0.6-0.1-1.1-0.2-1.5C216.6,54.2,216.4,53.9,216.1,53.5z M216,57.5c-0.1,0.4-0.3,0.7-0.5,0.9
		c-0.2,0.3-0.5,0.4-0.8,0.6c-0.3,0.1-0.6,0.2-1,0.2c-0.4,0-0.7-0.1-1-0.2c-0.3-0.1-0.6-0.3-0.8-0.6c-0.2-0.3-0.4-0.6-0.5-0.9
		c-0.1-0.4-0.2-0.8-0.2-1.3c0-0.5,0.1-0.9,0.2-1.3c0.1-0.4,0.3-0.7,0.5-0.9c0.2-0.3,0.5-0.4,0.8-0.6c0.3-0.1,0.6-0.2,1-0.2
		c0.4,0,0.7,0.1,1,0.2c0.3,0.1,0.6,0.3,0.8,0.6c0.2,0.3,0.4,0.6,0.5,0.9c0.1,0.4,0.2,0.8,0.2,1.3C216.2,56.7,216.1,57.2,216,57.5z"
		/>
</g>
</svg>
